<?xml version="1.0" encoding="UTF-8"?>
<svg id="Layer_1" data-name="Layer 1" xmlns="http://www.w3.org/2000/svg" xmlns:xlink="http://www.w3.org/1999/xlink" viewBox="0 0 376.07 375.59">
  <defs>
    <style>
      .cls-1 {
        fill: url(#linear-gradient);
        fill-rule: evenodd;
      }

      .cls-1, .cls-2, .cls-3, .cls-4, .cls-5, .cls-6, .cls-7, .cls-8, .cls-9 {
        stroke-width: 0px;
      }

      .cls-2 {
        fill: url(#linear-gradient-4);
      }

      .cls-3 {
        fill: url(#linear-gradient-2);
      }

      .cls-4 {
        fill: url(#linear-gradient-3);
      }

      .cls-5 {
        fill: url(#linear-gradient-5);
      }

      .cls-6 {
        fill: #78d4dc;
      }

      .cls-7 {
        fill: #b1d2ff;
      }

      .cls-8 {
        fill: #0011ab;
      }

      .cls-9 {
        fill: #00137d;
      }
    </style>
    <linearGradient id="linear-gradient" x1="-574.85" y1="172.06" x2="-558.58" y2="155.08" gradientTransform="translate(1679.81 576.51) scale(2.83 -2.83)" gradientUnits="userSpaceOnUse">
      <stop offset="0" stop-color="#9aa2db"/>
      <stop offset="1" stop-color="#89e7ff"/>
    </linearGradient>
    <linearGradient id="linear-gradient-2" x1="234.04" y1="160.58" x2="281.97" y2="160.58" gradientTransform="translate(0 283.46) scale(1 -1)" gradientUnits="userSpaceOnUse">
      <stop offset="0" stop-color="#00cad4"/>
      <stop offset="1" stop-color="#004d92"/>
    </linearGradient>
    <linearGradient id="linear-gradient-3" x1="263.5" y1="78.34" x2="315.77" y2="78.34" gradientTransform="translate(0 283.46) scale(1 -1)" gradientUnits="userSpaceOnUse">
      <stop offset="0" stop-color="#00a1b2"/>
      <stop offset="1" stop-color="#619bd4"/>
    </linearGradient>
    <linearGradient id="linear-gradient-4" x1="33.69" y1="62.32" x2="93.07" y2="62.32" gradientTransform="translate(0 283.46) scale(1 -1)" gradientUnits="userSpaceOnUse">
      <stop offset="0" stop-color="#005ab8"/>
      <stop offset="1" stop-color="#0075ac"/>
    </linearGradient>
    <linearGradient id="linear-gradient-5" x1="62.62" y1="-32.3" x2="96.86" y2="-32.3" gradientTransform="translate(0 283.46) scale(1 -1)" gradientUnits="userSpaceOnUse">
      <stop offset="0" stop-color="#5be2ef"/>
      <stop offset="1" stop-color="#1a9dcf"/>
    </linearGradient>
  </defs>
  <path class="cls-8" d="m155.98,78.74c-10.77,0-19.54-8.77-19.54-19.54s8.77-19.54,19.54-19.54,19.54,8.77,19.54,19.54-8.77,19.54-19.54,19.54Zm0-38.28c-10.33,0-18.74,8.41-18.74,18.74s8.41,18.74,18.74,18.74,18.74-8.41,18.74-18.74-8.41-18.74-18.74-18.74Z"/>
  <g>
    <path class="cls-8" d="m150.02,71.49l12.15-23.9c.23-.47.95-.11.71.36l-12.15,23.9c-.23.47-.95.11-.71-.36Z"/>
    <path class="cls-8" d="m149.97,59.59l-6.71-4.99c-.22-.17-.21-.5.02-.65l7-4.48c.44-.28.87.39.43.67l-6.52,4.17,6.25,4.65c.42.31-.05.95-.47.64Z"/>
    <path class="cls-8" d="m163,70.02l5.72-5.28-6.92-3.46c-.47-.24-.11-.95.36-.71l7.43,3.72c.25.12.3.46.09.65l-6.15,5.67c-.38.36-.93-.23-.54-.58Z"/>
  </g>
  <g id="Layer_1-2" data-name="Layer_1">
    <path class="cls-1" d="m104.18,132.52h-1.89v6.77c0,2.97-2.41,5.38-5.38,5.38h-42.24c-2.97,0-5.39-2.41-5.39-5.38v-6.77h-1.54c-2.03,0-3.24-.91-3.24-2.45v-18.09c-.01-.17.03-.36.16-.52l4.62-6.22v-23.43c0-2.97,2.42-5.38,5.39-5.38h34.44c.28,0,.49.12.61.29l12.35,12.35c.19.19.25.42.22.64v15.52l4.62,6.24c.13.18.17.38.14.57v18.04c.01.92-.36,2.45-2.88,2.45h0Zm-17.17-17.43h4.39c6.17,0,8.46,7.68,4.56,11.57-1.17,1.17-2.78,1.9-4.56,1.9h-4.39c-.44,0-.8-.36-.8-.8v-11.87c0-.44.36-.8.8-.8Zm4.39,1.6h-3.59v10.27h3.59c4.77,0,6.3-5.97,3.43-8.84-.88-.88-2.09-1.43-3.43-1.43Zm-19.16-1.6h4.39c6.17,0,8.46,7.68,4.56,11.57-1.17,1.17-2.78,1.9-4.56,1.9h-4.39c-.44,0-.8-.36-.8-.8v-11.87c0-.44.36-.8.8-.8Zm4.39,1.6h-3.59v10.27h3.59c4.77,0,6.3-5.97,3.43-8.84-.88-.88-2.09-1.43-3.43-1.43Zm-9.84,11.41c.06.14.17.25.29.33.18.13.4.15.59.11.3-.05.57-.25.63-.6.02-.08.03-.17.02-.27v-11.78c0-1.05-1.6-1.05-1.6,0v9.33l-6.84-9.79h0c-.44-.63-1.46-.34-1.46.47v11.86c0,1.05,1.6,1.05,1.6,0v-9.33l6.76,9.68h0Zm33.94,4.42h-49.89v6.77c0,2.11,1.72,3.82,3.83,3.82h42.24c2.11,0,3.82-1.72,3.82-3.82v-6.77Zm-53.89-21.37h2.44v-3.29l-2.44,3.29Zm4.01,0h49.89v-20.76h-6.62c-3.19,0-5.77-2.59-5.77-5.8v-6.6h-33.67c-2.11,0-3.83,1.72-3.83,3.82v29.35h0Zm51.45,0h2.45l-2.45-3.3v3.3Zm-9.82-14.98h-33.36c-1.03,0-1.03-1.56,0-1.56h33.36c1.03,0,1.03,1.56,0,1.56Zm0,5.37h-33.36c-1.03,0-1.03-1.56,0-1.56h33.36c1.03,0,1.03,1.56,0,1.56Zm0,5.39h-33.36c-1.03,0-1.03-1.56,0-1.56h33.36c1.03,0,1.03,1.56,0,1.56Zm-38.76,20.83c0,1.05,1.6,1.05,1.6,0v-11.87c0-1.05-1.6-1.05-1.6,0v11.87Zm36.18-48.67v5.5c0,2.33,1.89,4.23,4.21,4.23h5.52s-9.73-9.73-9.73-9.73Zm-43.83,33.62v17.36c0,.73.91.89,1.68.89h56.44c1.33,0,1.33-.49,1.33-.89v-17.36h-55.45s-4,0-4,0Z"/>
  </g>
  <path class="cls-3" d="m278.49,93.19h-32.72c0,1.34,0,7.87,0,9.35,0,1.61-1.3,2.91-2.91,2.92,0,0,0,0,0,0-1.47,0-7.43,0-8.81,0v28.03h47.93v-36.82c0-1.92-1.56-3.48-3.48-3.48Zm-.82,6.43c0,.58-.47,1.06-1.05,1.06,0,0,0,0,0,0h-3.07c-.59,0-1.06-.47-1.06-1.06s.47-1.06,1.06-1.06h3.07c.58,0,1.05.46,1.06,1.04,0,0,0,.01,0,.02Zm-6.44,0c0,.58-.48,1.06-1.06,1.06h-7.52c-.59,0-1.06-.47-1.06-1.06s.47-1.06,1.06-1.06h7.52c.58,0,1.06.47,1.06,1.05,0,0,0,0,0,0Zm-5.79,25.44l-4.85,1.82-1.73,4.87c-.2.55-.82.84-1.37.63-.3-.11-.53-.34-.64-.64l-3.75-10.85c-.18-.56.12-1.16.68-1.34.21-.07.43-.07.64,0l10.96,3.52c.55.19.85.79.66,1.35-.1.3-.33.53-.62.65Zm9.99-8.03c-1.28,0-2.42-.79-2.86-1.99h-6.8c2.16,1.33,3.94,3.21,5.14,5.45,1.34,2.63,1.93,5.58,1.7,8.52-.01.59-.5,1.05-1.08,1.04-.57-.01-1.03-.47-1.04-1.04.58-6.24-3.16-12.25-9.45-13.65v.6c0,.58-.47,1.06-1.05,1.06,0,0,0,0,0,0h-4.01c-.58,0-1.06-.47-1.06-1.05,0,0,0,0,0,0v-.47c-1.23.34-2.39.87-3.45,1.58-3.87,2.67-5.96,7.25-5.44,11.93,0,.59-.49,1.05-1.08,1.04-.57,0-1.03-.47-1.04-1.04v-1.74c-.01-4.99,2.58-9.63,6.84-12.24h-7.31c-.59,1.58-2.35,2.39-3.93,1.8-1.58-.59-2.39-2.35-1.8-3.93.45-1.2,1.59-2,2.87-1.99,1.28,0,2.43.8,2.87,2h11.46v-.94c0-.58.47-1.06,1.05-1.06,0,0,0,0,0,0h4.01c.58,0,1.06.47,1.06,1.05,0,0,0,0,0,0v.94h11.51c.58-1.59,2.34-2.4,3.93-1.82,1.59.58,2.4,2.34,1.82,3.93-.44,1.2-1.59,2-2.87,2Zm-40.8-13.69l9.01-9.51v8.72c0,.44-.36.79-.8.8-1.86,0-6.41,0-8.22,0Zm1.53,32.28h-2.12v13.48c0,1.92,1.56,3.48,3.48,3.48h40.97c1.92,0,3.48-1.56,3.48-3.48v-13.48h-45.8Zm24.51,2.12c.59.01,1.05.5,1.04,1.08-.01.57-.47,1.02-1.04,1.04-.59-.02-1.05-.51-1.03-1.09.02-.56.47-1.01,1.03-1.03Zm-1.06,3.81c.01-.59.49-1.05,1.08-1.04.57,0,1.03.47,1.04,1.04v6.85c0,.59-.49,1.05-1.08,1.04-.57,0-1.04-.47-1.04-1.04v-6.85Zm-11.13,6.47c.61-1.62,2.97-7.85,3.63-9.59.21-.55.82-.83,1.37-.62.29.11.51.33.62.62l2.74,7.24.89,2.34c.2.55-.09,1.16-.64,1.35-.54.19-1.13-.08-1.34-.61l-.61-1.62-4.03-.06-.64,1.69c-.21.54-.83.81-1.37.6-.53-.21-.8-.8-.61-1.34Zm5.84-3.01l-2.42-.04,1.2-3.17,1.22,3.21Zm21.11-30.09c-.52,0-.94-.42-.94-.94s.42-.94.94-.94.94.42.94.94-.42.94-.94.94Zm-18.4-1.88h1.89v1.88h-1.89c0-.15-.01-.8,0-.93v-.94Zm-16.46,1.88c-.52,0-.93-.43-.92-.95,0-.51.42-.92.92-.92.52,0,.93.43.93.95,0,.51-.42.92-.93.93h0Zm15.24,7.29l6.03,1.94-2.46.92c-.29.12-.52.35-.63.65l-.88,2.48-2.07-5.99Z"/>
  <path class="cls-4" d="m290.17,190.55v-14.5l15.75,15.75h-14.44c-.7.02-1.28-.54-1.3-1.24Zm25.61,17.75v14.84c0,2.34-1.9,4.24-4.24,4.24h-31.81c-2.34,0-4.24-1.9-4.24-4.24h0v-14.85c0-2.34,1.9-4.24,4.24-4.24h31.81c2.34,0,4.24,1.9,4.24,4.24Zm-29.34,1.06h-3.98c-.58,0-1.06.47-1.06,1.05,0,0,0,0,0,0v10.6c0,.59.49,1.05,1.08,1.04.57,0,1.04-.47,1.04-1.04v-4.24h2.92c2.05-.02,3.69-1.7,3.67-3.75-.02-2.02-1.65-3.65-3.67-3.67Zm8.32,2.12h3.98c.59-.01,1.05-.49,1.04-1.08-.01-.57-.47-1.03-1.04-1.04h-3.98c-2.05,0-3.71,1.66-3.71,3.71,0,2.05,1.66,3.71,3.71,3.71h0s1.33,0,1.33,0c.88,0,1.59.71,1.59,1.59s-.71,1.59-1.59,1.59h-3.98c-.59.01-1.05.5-1.04,1.08.01.57.47,1.03,1.04,1.04h3.98c2.05-.02,3.7-1.69,3.68-3.74-.02-2.02-1.65-3.66-3.68-3.68h-1.33c-.88-.01-1.58-.73-1.57-1.61.01-.86.71-1.56,1.57-1.57Zm15.09,3.18c0-2.93-2.37-5.3-5.3-5.3h-2.39c-.58,0-1.06.48-1.06,1.06v10.6c0,.58.48,1.06,1.06,1.06h2.39c2.93,0,5.3-2.37,5.3-5.3v-2.12Zm-5.3-3.18h-1.33v8.48h1.33c1.76,0,3.18-1.42,3.18-3.18v-2.12c0-1.76-1.42-3.18-3.18-3.18Zm-18.11,0h-2.92v3.18h2.92c.88,0,1.59-.71,1.59-1.59s-.71-1.59-1.59-1.59Zm-13.07,11.66v-14.84c0-3.51,2.85-6.36,6.36-6.36h26.81v-8.03h-15.07c-1.87.02-3.41-1.49-3.42-3.36v-15.12h-21.43c-1.72,0-3.11,1.39-3.12,3.11v53.16c0,1.72,1.4,3.11,3.12,3.11h36.8c1.72,0,3.11-1.39,3.12-3.11v-2.19h-26.81c-3.51,0-6.36-2.85-6.36-6.36Z"/>
  <path class="cls-7" d="m252.05,53.28c-3.62-4.54-10.28-5.6-15.13-2.42-5.45,3.57-6.79,10.91-3.04,16.16,3.64,5.1,10.75,6.29,15.88,2.63,5.29-3.78,6.39-11.24,2.29-16.37Zm-13.87,14.73c-.03-4.76-1.5-9.56-4.13-13.52-.29-.44.37-.88.66-.44,2.71,4.09,4.23,9.04,4.27,13.96,0,.53-.79.54-.8,0Zm7.07-2.37c-.7-5.1-3.12-9.89-6.82-13.48-.38-.37.18-.94.55-.57,3.83,3.71,6.33,8.66,7.05,13.94.07.52-.72.63-.79.11Zm5.09-5.18c-.88-4.01-3.51-7.67-7.04-9.77-.45-.27-.05-.95.41-.68,3.71,2.22,6.48,6.06,7.41,10.29.11.51-.67.68-.78.17Z"/>
  <path class="cls-9" d="m251.97,67.15c-2.33-2.44-1.75-6.37,1.17-8.05,2.08-1.19,4.83-.73,6.41,1.07,2.29,2.62,1.42,6.67-1.77,8.12-1.93.88-4.32.42-5.81-1.14Zm1.56-7.36c-2.48,1.42-2.95,4.75-.99,6.81,1.25,1.31,3.27,1.71,4.9.96,2.73-1.24,3.42-4.67,1.5-6.87h0c-1.33-1.52-3.66-1.92-5.42-.9Z"/>
  <path class="cls-2" d="m66.75,228.93c0-1.37-1.11-2.48-2.48-2.48h-1.77c-2.54,0-4.6-2.06-4.6-4.6s2.06-4.6,4.6-4.6h5.31c.59,0,1.06.47,1.06,1.06s-.47,1.06-1.06,1.06h-5.31c-1.37,0-2.48,1.11-2.48,2.48s1.11,2.48,2.48,2.48h1.77c2.54,0,4.6,2.06,4.6,4.6s-2.06,4.6-4.6,4.6h-5.31c-.59,0-1.06-.47-1.06-1.06s.47-1.06,1.06-1.06h5.31c1.37,0,2.48-1.11,2.48-2.48Zm11.12,2.48h-5.31c-.59,0-1.06.47-1.06,1.06s.47,1.06,1.06,1.06h5.31c2.54,0,4.6-2.06,4.6-4.6s-2.06-4.6-4.6-4.6h-1.77c-1.37,0-2.48-1.11-2.48-2.48s1.11-2.48,2.48-2.48h5.31c.59,0,1.06-.47,1.06-1.06s-.47-1.06-1.06-1.06h-5.31c-2.54,0-4.6,2.06-4.6,4.6s2.06,4.6,4.6,4.6h1.77c1.37,0,2.48,1.11,2.48,2.48s-1.11,2.48-2.48,2.48Zm-30.73-12.05h5.3c.39,0,.71.32.72.71,0,.59.47,1.06,1.06,1.06s1.06-.47,1.06-1.06c0-1.56-1.27-2.83-2.84-2.83h-5.3c-1.56,0-2.83,1.27-2.84,2.83v10.63c0,1.56,1.27,2.83,2.84,2.83h5.3c1.56,0,2.83-1.27,2.84-2.83,0-.59-.47-1.06-1.06-1.06s-1.06.47-1.06,1.06c0,.39-.32.71-.72.71h-5.3c-.39,0-.71-.32-.72-.71v-10.63c0-.39.32-.71.72-.71Zm42.76-23.13h-2.12c-.59,0-1.06.47-1.06,1.06s.47,1.06,1.06,1.06h2.12c.59,0,1.06.47,1.06,1.06v1.06h-25.45c-.28,0-.55.11-.75.31l-3.93,3.93h-25.01v-5.3c0-.59.47-1.06,1.06-1.06h46.65c.59,0,1.06-.47,1.06-1.06s-.47-1.06-1.06-1.06h-46.65c-1.76,0-3.18,1.42-3.18,3.18v43.47c0,1.76,1.42,3.18,3.18,3.18h2.65c.59,0,1.06-.47,1.06-1.06s-.47-1.06-1.06-1.06h-2.65c-.59,0-1.06-.47-1.06-1.06v-36.05h25.45c.28,0,.55-.11.75-.31l3.93-3.93h25.01v40.29c0,.59-.47,1.06-1.06,1.06h-46.12c-.59,0-1.06.47-1.06,1.06s.47,1.06,1.06,1.06h46.12c1.76,0,3.18-1.42,3.18-3.18v-43.47c0-1.76-1.42-3.18-3.18-3.18Zm-50.35,4.24c-.59,0-1.06.48-1.06,1.07,0,.59.48,1.06,1.07,1.06s1.06-.48,1.06-1.07c0-.58-.48-1.06-1.06-1.06h-.01Zm5.3,0c-.59,0-1.06.48-1.06,1.07,0,.59.48,1.06,1.07,1.06s1.06-.48,1.06-1.07c0-.58-.48-1.06-1.06-1.06h-.01Zm5.3,0c-.59,0-1.06.48-1.06,1.07,0,.59.48,1.06,1.07,1.06s1.06-.48,1.06-1.07c0-.58-.48-1.06-1.06-1.06h-.01Z"/>
  <path class="cls-5" d="m79.74,298.64c-9.44,0-17.12,7.68-17.12,17.12s7.68,17.12,17.12,17.12,17.12-7.68,17.12-17.12-7.68-17.12-17.12-17.12Zm8.89,27.2c0,1.21-.99,2.19-2.19,2.19h-13.4c-1.2,0-2.19-.98-2.19-2.19v-20.16c0-1.21.99-2.19,2.19-2.19h10.08c.12,0,.23.05.31.13l5.07,5.07c.09.08.13.19.13.31,0,0,0,16.84,0,16.84Zm-5.95-19.04v-2.44h-9.64c-.72,0-1.31.59-1.31,1.31v20.16c0,.72.59,1.31,1.31,1.31h13.4c.72,0,1.31-.59,1.31-1.31v-16.4h-2.44c-1.44,0-2.63-1.18-2.63-2.63Zm-.59,11.5c-.17-.17-.17-.45,0-.62s.45-.17.62,0l2.17,2.17c.09.09.13.19.13.31s-.05.23-.13.31l-2.17,2.17c-.09.09-.19.13-.31.13s-.22-.05-.31-.13c-.17-.17-.17-.45,0-.62l1.86-1.86s-1.86-1.86-1.86-1.86Zm-2.04-6.93c0-.19.13-.37.31-.42.19-.05.39.02.5.19l.72,1.16.72-1.16c.1-.17.31-.24.5-.19.19.06.31.23.31.42v3.5c0,.25-.19.44-.44.44s-.43-.19-.43-.44v-1.97l-.29.46c-.16.26-.59.26-.75,0l-.29-.46v1.97c0,.25-.19.44-.43.44s-.44-.19-.44-.44c0,0,0-3.5,0-3.5Zm.55,6.2c.23.07.35.33.28.55l-1.44,4.34c-.06.18-.23.3-.42.3-.05,0-.09-.01-.14-.02-.23-.08-.35-.33-.28-.56l1.44-4.34c.08-.23.33-.35.55-.27Zm-3.8-6.64h2.19c.25,0,.44.2.44.44s-.19.44-.44.44h-.66v3.07c0,.25-.19.44-.44.44s-.43-.19-.43-.44v-3.07h-.66c-.25,0-.44-.19-.44-.44s.19-.44.44-.44Zm.59,11.08c.17.17.17.45,0,.62-.09.09-.19.13-.31.13s-.22-.05-.31-.13l-2.17-2.17c-.17-.17-.17-.45,0-.62l2.17-2.17c.17-.17.45-.17.62,0,.17.17.17.45,0,.62l-1.86,1.86s1.86,1.86,1.86,1.86Zm-4.71-10.65c0-.24.19-.44.44-.44s.43.2.43.44v1.31h1.32v-1.31c0-.24.19-.44.43-.44s.44.2.44.44v3.5c0,.25-.19.44-.44.44s-.43-.19-.43-.44v-1.31h-1.32v1.31c0,.25-.19.44-.43.44s-.44-.19-.44-.44v-3.5Zm13.63,13.15h-13.15c-.24,0-.44-.2-.44-.44s.2-.44.44-.44h13.15c.24,0,.44.2.44.44s-.2.44-.44.44Zm.48-9.65c0,.25-.19.44-.44.44h-1.75c-.48,0-.87-.39-.87-.87v-3.07c0-.24.19-.44.44-.44s.43.2.43.44v3.07h1.75c.25,0,.44.19.44.43Z"/>
  <g>
    <path class="cls-6" d="m305.8,309.25c-.25,0-.45.2-.45.45v1.5c0,.25.2.45.45.45s.45-.2.45-.45v-1.5c0-.25-.2-.45-.45-.45Z"/>
    <path class="cls-6" d="m306.25,305.55c0-.25-.2-.45-.45-.45s-.45.2-.45.45v2.07c0,.25.2.45.45.45s.45-.2.45-.45v-2.07Z"/>
    <path class="cls-6" d="m304.27,301.62l1.08.62v1.24c0,.25.2.45.45.45s.45-.2.45-.45v-1.5c0-.16-.09-.31-.23-.39l-1.3-.75c-.22-.12-.49-.05-.62.16-.12.22-.05.49.16.62Z"/>
    <path class="cls-6" d="m300.59,299.49l1.84,1.06c.07.04.15.06.22.06.16,0,.31-.08.39-.23.12-.22.05-.49-.16-.62l-1.84-1.06c-.22-.12-.49-.05-.62.16-.12.22-.05.49.16.62Z"/>
    <path class="cls-6" d="m297.44,297.68l1.3.75c.07.04.15.06.22.06.16,0,.31-.08.39-.23.12-.22.05-.49-.16-.62l-1.3-.75c-.22-.12-.49-.05-.62.16-.12.22-.05.49.16.62Z"/>
    <path class="cls-6" d="m286.4,319.32l-1.3-.75c-.22-.12-.49-.05-.62.16-.12.22-.05.49.16.62l1.3.75c.07.04.15.06.22.06.16,0,.31-.08.39-.23.12-.22.05-.49-.16-.62Z"/>
    <path class="cls-6" d="m290.22,321.53l-1.91-1.11c-.22-.12-.49-.05-.62.16-.12.22-.05.49.16.62l1.91,1.11c.07.04.15.06.22.06.16,0,.31-.08.39-.23.12-.22.05-.49-.16-.62Z"/>
    <path class="cls-6" d="m294.29,322.63l-1.08.62-1.08-.62c-.22-.12-.49-.05-.62.16-.12.22-.05.49.16.62l1.3.75c.07.04.15.06.23.06s.16-.02.23-.06l1.3-.75c.22-.12.29-.4.16-.62-.12-.22-.4-.29-.62-.16Z"/>
    <path class="cls-6" d="m298.24,320.36l-1.97,1.14c-.22.12-.29.4-.16.62.08.14.23.23.39.23.08,0,.15-.02.22-.06l1.97-1.14c.22-.12.29-.4.16-.62-.12-.22-.4-.29-.62-.16Z"/>
    <path class="cls-6" d="m301.51,318.47l-1.3.75c-.22.12-.29.4-.16.62.08.14.23.23.39.23.08,0,.15-.02.22-.06l1.3-.75c.22-.12.29-.4.16-.62-.12-.22-.4-.29-.62-.16Z"/>
    <path class="cls-6" d="m287.46,298.49c.08,0,.15-.02.22-.06l1.3-.75c.22-.12.29-.4.16-.62-.12-.22-.4-.29-.62-.16l-1.3.75c-.22.12-.29.4-.16.62.08.14.23.23.39.23Z"/>
    <path class="cls-6" d="m283.78,300.61c.08,0,.15-.02.22-.06l1.84-1.06c.22-.12.29-.4.16-.62-.12-.22-.4-.29-.62-.16l-1.84,1.06c-.22.12-.29.4-.16.62.08.14.23.23.39.23Z"/>
    <path class="cls-6" d="m280.63,303.93c.25,0,.45-.2.45-.45v-1.24l1.08-.62c.22-.12.29-.4.16-.62-.12-.22-.4-.29-.62-.16l-1.3.75c-.14.08-.23.23-.23.39v1.5c0,.25.2.45.45.45Z"/>
    <path class="cls-6" d="m281.08,305.55c0-.25-.2-.45-.45-.45s-.45.2-.45.45v2.07c0,.25.2.45.45.45s.45-.2.45-.45v-2.07Z"/>
    <path class="cls-6" d="m280.63,309.25c-.25,0-.45.2-.45.45v1.5c0,.25.2.45.45.45s.45-.2.45-.45v-1.5c0-.25-.2-.45-.45-.45Z"/>
    <path class="cls-6" d="m292.18,292.38l.57-.57v6.78l-8.6,4.96,9.06,5.16,9.06-5.16-8.6-4.96v-.7h0v-6.15l.64.64c.09.09.21.14.33.14s.24-.04.33-.14c.18-.18.18-.47,0-.65l-1.23-1.23c-.14-.14-.32-.21-.5-.2,0,0,0,0-.01,0h0c-.05,0-.1,0-.14.02-.11.03-.22.09-.31.18l-1.23,1.23c-.18.18-.18.47,0,.65.18.18.47.18.65,0Z"/>
    <path class="cls-6" d="m310.01,318.18l-.4-1.69c-.06-.25-.31-.4-.55-.34s-.4.31-.34.55l.2.87-1.27-.72-4.99-2.84v-9.79l-9.06,5.16v10.54l8.73-5.04.55.31s0,0,0,0l5.51,3.14-.79.18c-.25.06-.4.31-.34.55.05.21.24.36.45.36.03,0,.07,0,.11-.01l1.69-.4c.37-.09.6-.46.51-.83Z"/>
    <path class="cls-6" d="m279.15,318.51l-.71-.17,5.83-3.38,8.57,4.95v-10.54l-9.06-5.16v9.98l-.59.34h0l-5.38,3.12.22-.95c.06-.25-.09-.5-.34-.56-.25-.06-.5.09-.56.34l-.4,1.69c-.04.18-.01.36.08.52.1.16.25.27.43.31l1.69.4s.07.01.11.01c.21,0,.4-.14.45-.35.06-.25-.09-.5-.34-.55Z"/>
  </g>
</svg>