<?xml version="1.0" encoding="UTF-8"?>
<svg id="Layer_1" data-name="Layer 1" xmlns="http://www.w3.org/2000/svg" viewBox="0 0 376.07 375.59">
  <defs>
    <style>
      .cls-1, .cls-2, .cls-3, .cls-4, .cls-5, .cls-6, .cls-7 {
        stroke-width: 0px;
      }

      .cls-2 {
        fill: #78d4dc;
      }

      .cls-3 {
        fill: #b1d2ff;
      }

      .cls-4 {
        fill: #fff;
      }

      .cls-5 {
        fill: #006dc2;
      }

      .cls-6 {
        fill: #0011ab;
      }

      .cls-7 {
        fill: #00137d;
      }
    </style>
  </defs>
  <g>
    <g>
      <g>
        <path class="cls-6" d="m191.87,231.22l8.49-15.8c.25-.46.95-.09.7.38l-8.49,15.8c-.25.46-.95.09-.7-.38Z"/>
        <path class="cls-6" d="m216.2,227.81c2.36-9.68,3.55-15.99,3.76-19.84.03-.53.82-.48.79.04-.21,3.96-1.38,10.12-3.78,19.98-.13.51-.9.32-.77-.19Z"/>
      </g>
      <path class="cls-6" d="m199.32,215.37c-6.07-3.42-9.62-11.22-9.07-19.92-1.56-1.27-2.76-2.96-3.47-4.89-.86-2.28-.81-4.5.55-6.55,1.92-2.92,5.25-3.07,6.77-1.09,4.94-8.26,14.04-12.53,21.97-8.06,4.66,2.62,7.85,7.75,8.81,14.14,3.31-2.03,7.41-.65,8.99,2.56,1.35,2.72.58,6.41-1.89,8.98-2.3,2.4-6.4,3.44-9.4,4.29-4.39,9.54-14.39,15.57-23.27,10.56Zm-8.41-32.96c-2.12.3-3.71,2.62-3.89,4.78.02.41-.17,1.29.5,3.09.69,1.87,1.86,3.48,3.38,4.68.1.08.16.21.15.34-.6,8.48,2.8,16.09,8.65,19.38,8.5,4.78,18.15-1.09,22.34-10.61.11-.26.45-.32.65-.12,3.24-.87,6.79-1.97,8.71-3.98,2.24-2.33,2.96-5.65,1.75-8.07-1.48-3-5.44-4.12-8.35-1.9-.24.19-.6.04-.64-.27-.81-6.43-3.91-11.6-8.5-14.19-7.8-4.39-16.64.21-21.23,8.35-.18.33-.6.23-.71-.04-.36-.87-1.61-1.62-2.84-1.44Z"/>
      <path class="cls-7" d="m206.72,174.13c-3.83,3.92-7.92,7.66-13.24,8.99,2.3-3.52,4.59-7.41,8.21-9.53.69-.4,4.32-1.97,5.1-2.14.78-.17-.9.2.85-.24l-.93,2.92Z"/>
      <path class="cls-6" d="m203.01,201.43c-2.34-.51-2.94-2.27-2.32-3.36.51-.91,1.63-1.06,2.33-1.51.99-.64,1.29-1.96,1.36-2.97.1-1.26-.04-2.54.34-3.81.15-.5.91-.28.76.22-.33,1.14-.21,2.4-.3,3.65-.09,1.18-.46,2.76-1.73,3.58-.71.46-1.74.64-2.07,1.23-.26.45-.07,1.05.25,1.41.33.37.85.64,1.55.79.52.11.34.89-.17.78Z"/>
      <path class="cls-7" d="m207.12,207.49c-2.81.64-5.58-1.11-6.21-3.92-.01-.05-.01-.1-.02-.14l1.18-.27c.33.72.67,1.45,1.02,2.17.17-.13-.44.12,6.97-2.23-.02-.07-.5-1.65-.5-1.65l1.44-.33c.75,3-1.13,5.73-3.87,6.36Z"/>
      <path class="cls-7" d="m217.05,184.97c.59.5.5,1.02-.35,1.12-1.29.15-2.6.12-3.88-.09-1.13-.18-2.72-.44-3.66-1.13-.73-.54-.17-1.55.55-1.79,1.64-.55,5.08-.03,7.34,1.89Z"/>
      <path class="cls-7" d="m196.94,178.01c-.78-.02-1.05.43-.49,1.07.86.98,1.86,1.83,2.95,2.53.96.62,2.32,1.49,3.48,1.6.9.09,1.16-1.04.78-1.7-.86-1.51-3.76-3.41-6.73-3.5Z"/>
      <path class="cls-7" d="m226.6,191.32c4.66-8.1-3.76-18.72-12.89-20.32-2.93-.51-6.74-.19-9.21,1.67-1.1.83.61,1.05,1.24,1.57.61.5.89,1.3,1.28,1.96,4.55,7.71,11.79,13.09,19.58,15.12Z"/>
      <path class="cls-6" d="m210.67,194.33c-.73-.29.32-1.8,1.67-1.81h.02c.8,0,1.58.51,1.9,1.25.21.48-.52.8-.73.32-.19-.45-.71-.79-1.19-.77-.49,0-.98.34-1.17.8-.08.2-.31.3-.52.22Z"/>
      <path class="cls-6" d="m196.62,192.89c-.73-.29.32-1.8,1.67-1.81h.02c.8,0,1.59.51,1.9,1.25.21.48-.52.8-.73.31-.19-.45-.71-.77-1.18-.77-.49,0-.98.34-1.17.8-.08.2-.31.3-.52.22Z"/>
      <path class="cls-7" d="m202.98,205.71c-.25-.06-.23-.07-1.28-2.39-.1-.23.02-.49.27-.55l7.49-1.71c.2-.05.41.07.47.27,0,0,.48,1.58.5,1.66.06.21-.05.43-.26.49l-6.85,2.15c-.09.07-.21.1-.33.07Zm-.36-2.27c.21.46.43.92.65,1.38l6.28-1.97c-.08-.28-.2-.65-.28-.92l-6.65,1.52Z"/>
      <path class="cls-7" d="m200.79,203.04l10.1-2.3c.2-.05.41.08.47.28,0,.11.72,2.16-.67,4.37-1.35,2.15-3.4,2.43-3.5,2.48-4.93,1.12-7.66-4.54-6.41-4.83Zm6.32,4.44h.01-.01Zm-5.76-3.76c.69,2.43,3.18,3.93,5.67,3.37h0c2.5-.57,4.1-3,3.67-5.49l-9.34,2.13Zm-.44-.17h-.01s.01,0,.01,0h0Z"/>
      <path class="cls-7" d="m226.83,190.89c-1.55,3.93-3.59,8.61-5.14,12.54.61-4.5,1.23-8.99,1.84-13.49l3.3.94Z"/>
      <path class="cls-7" d="m196.17,182.11c-1.04,3.54-1.85,7.15-2.43,10.79-.27-1.68-1.04-7.26-.53-8.9.36-1.16,1.32-2.01,2.23-2.8l.73.91Z"/>
      <path class="cls-6" d="m231.12,183.36c-.54,1.78-2.5,3-4.34,2.71-1.84-.3-3.32-2.07-3.27-3.93-1.19.68-2.69.07-3.86-.64-4.17-2.54-5.09-4.99-7.73-5.81-.5-.15-1.02-.23-1.51-.42-1.02-.41-1.79-1.32-2.84-1.66-2.41-.77-4.61,1.62-6.11,2.69-1.61,1.16-3.54,1.92-4.87,3.4-.77.86-1.34,1.97-2.38,2.46-1.26.6-2.9,0-3.64-1.19-1.3-2.08-.23-5.27,3.26-6.53-.69.25-1.91-1.74-2.21-2.19-.58-.9-.78-2.04-.68-3.1.15-1.51.85-2.92,1.56-4.26.82-1.55,1.81-3.2,3.59-3.61,1.15-.27,2.4-.13,3.51.25,2.02.7,2.08,1.54,2.77,2.07-.05-.04.28-1.32.29-1.38.42-1.56,1.43-3.91,2.83-4.85.57-.39,1.28-.52,1.96-.51,1.92.01,3.42.21,5.08,1.29,2.5,1.63,2.69,3.23,1.62,5.7.22-.46.63-.77,1.06-1.03,1.23-.76,2.32-1.09,4.14-.48.72.24,1.47.62,2.04,1,1.14.77,1.93,2.22,1.84,3.62-.05.81-.43,1.96-1.22,2.37,4.16-2.17,7.63-.33,8.16,2.32.36,1.81-.72,3.56-1.75,5.09,2.17-1,5.04.5,5.59,2.82s-1.19,4.88-3.53,5.36c1.27-.34,2.68.93,2.47,2.24-.37,2.29-4.98,3.84-9.67-.88-1.81-1.82-3.21-4.03-5.06-5.82l12.89,2.9Z"/>
      <path class="cls-6" d="m189.87,163.86c-2.14,3.81-.8,8.6,2.99,10.74,5.58,3.14,12.29-1.39,11.69-7.59,2.05,1.73,5.33,1.96,7.76.16.03,3.53,3.38,6.14,6.84,5.28-.13,2.06.9,4.11,2.82,5.19,2.66,1.5,6.05.56,7.56-2.12,2.37-4.21-1.46-9.24-6.14-8.11.27-4.5-4.67-7.47-8.52-5.01.13-2.32-1.05-4.62-3.21-5.84-4.28-2.41-9.46.74-9.45,5.52-3.62-3.56-9.78-2.76-12.33,1.78Z"/>
      <path class="cls-6" d="m225.07,176.13c-3.12,0-5.86-2.5-5.93-5.81-3.27.52-6.35-1.78-6.78-5.06-2.06,1.22-4.72,1.31-6.97-.06-.03,6.18-6.81,10.24-12.32,7.14-3.98-2.24-5.39-7.3-3.14-11.28h0c2.52-4.48,8.42-5.53,12.33-2.42.59-4.77,5.83-7.37,10-5.03,2.04,1.15,3.3,3.21,3.41,5.5,3.91-1.89,8.42.91,8.53,5.2,1.31-.2,2.65.04,3.82.7,5.27,2.97,3.21,11.13-2.94,11.13Zm-5.12-6.28c-.23,3.57,3.12,6.23,6.52,5.29,4.39-1.23,5.14-7.2,1.15-9.45-1.14-.64-2.47-.83-3.74-.52-.25.06-.51-.14-.49-.41.25-4.17-4.34-6.93-7.91-4.65-.26.17-.63-.03-.61-.36.22-4.1-3.67-7.09-7.53-6.02-2.68.75-4.34,3.18-4.34,5.72,0,.36-.43.53-.68.28-3.42-3.36-9.27-2.64-11.7,1.69h0c-2.03,3.6-.75,8.18,2.84,10.2,5.28,2.97,11.68-1.31,11.11-7.21-.03-.36.39-.57.65-.34,1.88,1.6,4.97,1.84,7.26.14.27-.19.63,0,.63.32.03,3.28,3.14,5.7,6.35,4.9.27-.06.51.15.49.41Zm-29.68-8.61h.01-.01Z"/>
    </g>
    <g>
      <g>
        <g>
          <path class="cls-3" d="m230.19,303.68c-.36,0-29.29-.77-27.47-.72-12.06-.31,13.89.36-14.71-.38l8.01,32.52h38.61l-4.43-31.42Zm-27.49-.63c-.07.42-.72.4-.76-.02l.76.02Z"/>
          <path class="cls-3" d="m204.5,302.96c-.22-.01-2.74-.17-2.58-.16l-31.99-1.99c-11.04,46.02-7.51,31.32-8.23,34.29h39.33l8.92-31.8c-.11,0-5.56-.35-5.45-.34Zm-2.57.07l.76.02c-.07.42-.72.4-.76-.02Z"/>
        </g>
        <g>
          <path class="cls-1" d="m230.92,313.39c-9.92-.13-53.81-.7-63.71-.83-.52,0-.52-.8,0-.8,9.92.13,53.81.7,63.71.83.52,0,.52.8,0,.8Z"/>
          <path class="cls-1" d="m178.72,311.76l.32-6.75c.03-.53.82-.48.8.04l-.32,6.75c-.03.53-.82.49-.8-.04Z"/>
          <path class="cls-1" d="m192.9,311.71l.22-6.48c.02-.56.81-.47.8.03l-.22,6.48c-.02.53-.81.5-.8-.03Z"/>
          <path class="cls-1" d="m210.95,312.14c-.21,0-.39-.17-.4-.39l-.18-5.77c-.02-.52.78-.56.8-.02l.18,5.77c0,.22-.17.4-.39.41h-.01Z"/>
          <path class="cls-1" d="m225.62,313.2s-.02,0-.02,0c-.22-.01-.39-.2-.37-.42l.4-6.57c.03-.52.83-.48.79.05l-.4,6.57c-.01.21-.19.37-.4.37Z"/>
          <path class="cls-1" d="m164.16,323.33c-.04-.21.09-.43.31-.47,5.49-1.15,9.7-5.33,11.16-10.45.14-.51.91-.29.76.22-1.53,5.35-5.93,9.79-11.76,11.01-.03,0-.43-.09-.47-.31Z"/>
          <path class="cls-1" d="m231.91,322.08c-4.71-1.29-8.77-4.23-10.34-8.87-.17-.5.59-.75.75-.25,1.49,4.42,5.37,7.15,9.83,8.37.08.02.11.03.15.05.2.08.31.31.23.51-.08.21-.28.32-.63.19Z"/>
        </g>
      </g>
      <path class="cls-7" d="m155.85,335.93c-.52,0-.53-.79,0-.8.26,0,86.86-.42,86.75-.42.52,0,.53.79,0,.8l-86.75.42h0Z"/>
    </g>
    <g>
      <path class="cls-5" d="m146.43,146.78l4.33-3.96c.4-.35.92.24.54.59l-4.33,3.96c-.39.35-.92-.23-.54-.59Z"/>
      <path class="cls-6" d="m136.12,209.44c-.51-3.55-1.69-8.27-1.54-11.27.05-.95.09-2.16-.05-2.98-.57-3.44-3.85-4.85-6.18-11.87-.2-.48.53-.79.74-.3.31.73,1.16,3.49,2.84,5.95.28.42.59.84.9,1.25,2.57,3.49,2.66,4.5,2.58,7.44-.1,4.37.84,6.98,1.51,11.67.07.52-.71.64-.79.11Z"/>
      <g>
        <path class="cls-4" d="m126.07,190.12c-.3-1.63-1.72-2.89-2.25-5.39"/>
        <path class="cls-6" d="m125.68,190.19c-.27-1.48-1.72-2.88-2.25-5.38-.11-.52.67-.68.78-.16.5,2.37,1.93,3.66,2.25,5.4.09.52-.69.66-.78.14Z"/>
      </g>
      <g>
        <path class="cls-6" d="m127.05,192.83c-.18-.1-2.39-1.32-2.59-1.4-.09-.13-.15-.23-.21-.37,1.5.21,1.86.95,2.8,1.77Z"/>
        <path class="cls-6" d="m127.21,192.92h-.05s-.07-.05-.11-.08c.05.02.11.05.16.08Z"/>
        <path class="cls-6" d="m130.06,191.25c-.42-.46-3.05-2.49-5.03-3.34-.06-.03-.43-.18-.51-.19.63-.88,1.68-1.43,2.83-1.38,2.49.12,3.92,2.83,2.7,4.91Z"/>
        <path class="cls-5" d="m134.18,182.62l-.11,5.58-9.36-.41c-1.9-.79-4.27-1.25-5.2-1.33v-.86c7.12-1.44,7.9-1.51,8.59-1.9.59-.32.9-.87.9-1.31l5.17.23Z"/>
        <path class="cls-6" d="m134.18,183.02c-1.14-.05-5.47-.25-5.19-.23-.22,0-.39-.2-.38-.42.01-.22.2-.4.42-.38l4.78.22c.11-.49-.55-7.24,5.78-13.22,3.13-2.95,4.98-6.95,5.2-11.27.45-8.9-6.67-16.9-15.55-17.48-9.4-.62-17.37,6.59-17.78,15.9-.2,4.5,1.38,8.79,4.44,12.09,2.35,2.54,3.81,5.74,4.25,9.27.06.52-.72.62-.79.1-.41-3.36-1.81-6.41-4.04-8.82-3.21-3.45-4.86-7.94-4.65-12.66.44-9.8,8.83-17.3,18.63-16.65,9.31.6,16.77,8.99,16.3,18.31-.23,4.52-2.17,8.72-5.45,11.81-3.35,3.16-5.3,7.24-5.48,11.47l-.06,1.61c0,.21-.18.38-.4.38Z"/>
        <path class="cls-6" d="m128.86,182.16c-.37-1.57-.52-8.58-.61-12.77-.05-2.29-.14-3.76.11-5.88-1.51.26-3.05.19-4.4-.19.13,2.39.34,2.71.37,10.33v1.46c0,.53-.79.54-.79,0v-1.46c-.04-7.68-.24-7.76-.39-10.6-2.34-.91-3.48-2.78-3.3-4.45.15-1.44,1.28-2.15,2.21-1.82,1.5.49,1.75,4.04,1.85,5.69,1.5.47,3.03.47,4.55.21.17-1.27.46-2.57.85-3.86.63-2.16,1.71-2.52,2.49-2.42.66.06,1.27.57,1.54,1.28.59,1.54-.3,3.57-1.5,4.49-.69.54-1.57.93-2.67,1.18-.28,2.17-.18,3.68-.13,6.02.08,3.88.24,11.11.59,12.6.12.51-.66.69-.77.18Zm1.21-23.1c-.35,1.16-.61,2.31-.78,3.45.85-.23,1.53-.54,2.07-.96.95-.73,1.7-2.38,1.24-3.57-.14-.36-.46-.74-.88-.78-.92-.1-1.39.98-1.65,1.86Zm-6.98,3.11c-.06-.94-.35-4.32-1.3-4.63-1.32-.48-2.22,3.01,1.3,4.63Z"/>
        <path class="cls-6" d="m124.09,181.46c-.21,0-.38-.16-.4-.37-.05-.79-.09-1.57-.1-2.36,0-.22.17-.4.39-.4.22.02.4.17.4.39.01.78.04,1.54.09,2.32.01.22-.15.41-.37.42,0,0-.02,0-.03,0Z"/>
      </g>
      <path class="cls-5" d="m126.34,137.85c-.21,0-.38-.16-.4-.37l-.41-6.31c-.03-.52.76-.58.79-.05l.41,6.31c.01.22-.15.41-.37.42,0,0-.02,0-.03,0Z"/>
      <path class="cls-5" d="m109.59,148.52l-5.25-3.29c-.45-.28-.02-.95.42-.67l5.25,3.29c.45.28.02.95-.42.67Z"/>
      <path class="cls-6" d="m115.11,182.8c.86-2.41,2.44-3.91,4.37-5.57,1.12-.97,3.48-3.05,4.81-2.4.82.42,1.29,1.43.7,2.9-.8,2.03-2.63,3.24-4.43,4.31-.45.27-.86-.42-.41-.68,1.75-1.04,3.39-2.12,4.1-3.92.51-1.28,0-2.38-1.21-1.77-1.42.67-2.43,1.6-4.06,3.06-1.52,1.34-2.57,2.8-3.12,4.34-.18.5-.93.23-.75-.27Z"/>
      <path class="cls-6" d="m119.57,215.15c-.78-3.93-5.48-15.74-6.74-17.73-.98-1.55-.76-3.28-.54-4.96.16-1.08.04-.93.84-5.39.31-1.79.41-2.55.78-3.17.46-.76,1.44-1.43,2.15-1.73.64-.27,1.33-.39,2.03-.5,8.12-1.35,8.59-1.58,9.73-1.23,1.81.58,2.21,2.67.48,3.61-.73.41-.79.34-8.98,2,.9.03,3.4.49,5.37,1.3.22.12,1.33.26,4.56,2.7.94.71,1.48,1.11,1.65,1.95.21,1.18-.9,1.86-2.09,1.91.49,1.75-1.78,3.05-3.48,1.67-.59-.47-1.51-.67-2.16-.32-.68.37-1.25.97-1.76,1.56-.58.66-1.18,1.31-1.56,2-.25.46-.95.07-.7-.39.43-.77,1.04-1.43,1.66-2.14,1.39-1.61,2.71-2.64,4.61-1.63.3.16.5.39.71.49,1.44.66,2.49-.66,1.71-1.4-.33-.12-.63-.3-.92-.55v-.02s0,0,0,0h-.01c-.23-.15-1.91-1.04-2.64-1.43-1.19-.5-2.26-.39-3.37-.25-1.67.18-1.88.43-2.58,1.95l-1.28,2.46c-.24.46-.94.11-.71-.36,1.98-3.91,1.85-3.64,2.18-4.01.53-.59,1.31-.76,1.99-.88,1.37-.21,3.16-.12,3.84-.01,1.59.22,2.04,1,2.96,1.83.18.09.75.4.95.57.69.19,2.04-.1,1.89-.91-.04-.22-.16-.43-.34-.63-.37-.41-2.96-2.42-4.89-3.24l-.1-.04c-2.14-.92-4.35-1.24-4.46-1.26-1.88-.32-2.09-.1-2.87,1.09-.35.53-.78,1.18-.99,1.69-.2.47-.92.19-.74-.29l.32-.85c.39-1.05.9-2.4,1.86-2.96.51-.27.72-.29,8.65-1.87.84-.17,1.94-.44,2.05-1.31.02-.62-.5-1.1-1.02-1.27-.92-.28-1.3-.09-9.37,1.25-.68.11-1.29.22-1.85.45-.6.25-1.42.83-1.77,1.41-.26.43-.32.85-.68,2.89-1.23,6.89-1.28,8.41-.41,9.79,1.35,2.12,6.04,13.95,6.85,18,.1.52-.68.67-.78.16Z"/>
      <path class="cls-6" d="m127.89,193.79c-.48-.17-.86-.45-1.09-.66-.35-.3.01-.87.44-.66.29.14.82.43,1.06.65.31.29,0,.81-.4.67Z"/>
      <path class="cls-6" d="m121.03,201.2c1.16-2.08,1.45-3,.25-4.84-.29-.44.38-.88.67-.43,1.14,1.75,1.34,2.87-.23,5.67-.25.46-.95.07-.69-.39Z"/>
      <g>
        <g>
          <path class="cls-2" d="m209.72,264.89s0-.02,0-.03c0,0,0,0,0,.03Z"/>
          <path class="cls-2" d="m209.77,265.13s0,0,0,0c0,0,0,0,0,0Z"/>
          <path class="cls-2" d="m230.02,245.81c.08.11,5.3,7.18,4.97,6.73.56-8.14,1.1-16.38,1.71-24.79-1.34.05-4.51.08-8.82.11-.01-.01-.02,0-.03,0-16.38.11-53.59.05-60.98.87,0,.01-.01.02-.01.04-.59,2.12-.78,8.54-.7,16.78.04-.02.08-.03.14-.03h.01c.84,0-.11.35.64,15.82.02.21-.15.4-.37.41.65,17,1.92,35.07,3.1,40.16,0,.02.01.03.01.05,23.07.76,43.03,1.41,60.25,1.98.04-.38,1.04-6.9,2.11-16.88-4.71-.9-13.65-2.76-19.4-3.86-.42-.08-.32-.6-.47-1.09l-3.3-17.47c-.04-.19.05-.37.23-.43.01-.01.03-.02.04-.02,6.85-1.92,17.93-.98,24.98.01.29-3.57.55-7.17.81-10.78-.07.04-.28,0-.38-.15l-5.16-7c-.32-.42.34-.89.64-.47Zm-4.96-15.98c-2,3.54-5.76,6.05-9.81,6.55-3.73.47-8.12-1.17-11.08-4.07-.04.05-.1.11-.15.16-1.21,65.24-.54,28.94-1.1,59.71l5.09-.06c.54-.04.53.8.01.8l-5.12.06-.18,9.88-.8-.05.18-9.82-3.42.04c-.54,0-.52-.8-.01-.8l3.46-.04c1.58-85.24.02-.95,1.09-58.89-2.54,2.39-5.92,3.65-9.11,3.65-3.86,0-10.2-1.66-11.5-7.97-.12-.5.67-.7.77-.16,1.25,6.03,7.57,7.46,11.13,7.33,3.29-.11,6.48-1.58,8.73-3.98l.06-3.63c.01-.22.2-.38.4-.39.22,0,.4.18.39.4l-.05,2.8c.14-.05.31.01.39.11,2.79,2.93,7.09,4.58,10.72,4.15,3.8-.47,7.33-2.83,9.21-6.16.28-.46.95-.04.69.39Z"/>
          <path class="cls-2" d="m209.71,264.86c1.6,8.48.92,4.86,3.33,17.62,6.55,1.27,13.23,2.66,19.07,3.8.75-7.07,1.38-14.14,1.95-21.28-6.84-.99-17.74-1.9-24.35-.14Z"/>
        </g>
        <path class="cls-2" d="m178.02,238.63c.91,3.51,0,7.13-.37,10.71-.29,2.8-2.68,11.6-6.28,11.78-1.6.08-3.06.14-4.43.18-.03-.71-.48-9.8-.25-15.36.01-.22-.16-.41-.38-.41h-.01c-.19,0-.39.15-.4.37-.22,5.58.21,14.58.25,15.43-7.68.18-12.25-.29-20.91-.64-11.84-.48-18.46-4.02-20.61-14.99-2.13-10.88-4.83-22.21-6.79-34.78,7.06-.25,13.17-.12,18.96-4.25,2.76,8.96,8.55,24.68,8.55,24.68.11-.01,20.69-3.34,30.57-2.8,5.97.31,1.37,7.2,2.11,10.08Z"/>
        <g>
          <path class="cls-7" d="m197.84,279.66c2.08-1.04,5.39-1.99,8.33-2.27.21-.02.41.14.43.36.02.22-.14.41-.36.43-2.91.27-6.15,1.24-8.05,2.19-.47.23-.83-.48-.36-.71Z"/>
          <path class="cls-7" d="m197.3,276.11c3.04-1.59,6-1.83,6.13-1.86.21-.03.42.13.44.35.03.22-.13.42-.35.44l-.24.03c-2.88.35-4.43,1.24-5.69,1.78-.44.26-.9-.53-.3-.74Z"/>
          <path class="cls-7" d="m196.56,271.14c2.5-1.2,4.62-1.96,6.64-2.4.52-.1.68.67.17.78-1.96.43-4.02,1.17-6.47,2.34-.48.23-.81-.49-.34-.72Z"/>
          <g>
            <g>
              <path class="cls-7" d="m218.8,272.12c-.21,0-.39-.17-.4-.38,0-.22-.59-.34-.9-.63-.55-.48-.53-1.18-.66-2.94-.14-1.8-.11-1.8-.48-3.08-.42-1.42-.19-.83-1.03-3.6-.15-.5.61-.73.76-.23,1.68,5.52,1.38,5.11,1.66,8.29.06.91.24.99.61,1.16,1.12.53.96,1.39.47,1.41,0,0-.01,0-.02,0Z"/>
              <path class="cls-7" d="m209.57,263.48v-.19c.2-4.44-.25-5.81.93-7.09.36-.38.94.16.58.54-.94,1.01-.52,2.15-.72,6.57v.17c0,.53-.8.53-.8,0Z"/>
              <path class="cls-7" d="m210.22,264.67s-.02,0-.03,0c-.69-.05-.66-.49-.62-1.19,0-.43.6-.55.76-.16.09.22.14.37.19.51l-.17.05s0,.03,0,.04h.19c.07.23.14.44-.02.62-.08.08-.18.13-.3.13Zm-.05-.75h0s.1,0,.1,0c0,0-.02-.01-.03-.02l-.07.02Z"/>
              <path class="cls-7" d="m215.33,261.48c-.39-1.34-1.11-3.71-1.97-4.55-.6-.58-1.67-.87-2.26-.2-.35.4-.95-.13-.6-.52.9-1.03,2.45-.77,3.41.15.99.95,1.64,3.06,2.18,4.89.06.21-.06.43-.27.49-.21.06-.43-.06-.49-.27Z"/>
              <path class="cls-7" d="m198.57,285.02c-2.15-.52-2.88-3.16-1.09-4.91-1.49-.52-1.9-2.21-.92-3.36-2.34-.74-2.9-3.59-.96-5.15-.9-.43-1.53-1.38-1.46-2.36.07-1.25,1.06-2.31,2.94-3.13,4.07-1.82,8.57-2.57,12.9-2.25.51.04.49.8-.05.79-4.15-.31-8.5.38-12.52,2.18-1.59.69-2.42,1.52-2.47,2.46-.08.98.96,1.9,1.9,1.72t0,0h0c.51-.1.67.68.15.78h0c-1.09.22-1.92,1.4-1.75,2.49.16.99,1.22,1.92,2.41,1.79.51-.06.63.68.17.78-.68.15-1.16.98-.95,1.66.18.57.86.98,1.49.91.07-.03.14-.05.19-.05.53-.25.83.48.38.7-2.34,1.17-2.02,3.72-.16,4.17.84.22,1.01-.15,3.37-1.03,3.47-1.25,7.31-1.72,10.44-1.48,2.36.01,5.22,1.26,7-.17,2.37-1.98.41-7.33-1.31-9.93l.27-.32-.33.23s-.06-.09-.08-.12c-.26-.45.42-.86.69-.4,2.06,3.04,4.09,8.81,1.27,11.16-2.15,1.72-5.11.33-7.93.33-5.11-.23-8.85,1.16-8.96,1.18-2.9.92-3.3,1.67-4.63,1.32Z"/>
            </g>
            <g>
              <path class="cls-2" d="m209.72,264.87s0-.01,0-.01c0,0,0,0,0,.01Z"/>
              <path class="cls-2" d="m271.78,265.49c-1.84-4.8-12.07-21.71-14.95-25.71-5.06-7.01-9.79-12.14-18.48-12.09-3.4.01-7.03-.28-10.48.17-.01-.01-.02,0-.03,0-.68.08-1.35.2-2,.35,2.87,11.83,5.55,18.02,8.36,23.26l.8,1.07h0s.19.27.19.27c.12.14.11.33,0,.47,2.08,3.7,4.23,7.19,6.62,12.28,1.4.3,2.66.6,3.72.9.51.15.27.91-.21.76-8.64-2.41-26.72-4.72-35.59-2.35,2.02,10.76-3.01-15.91,3.33,17.62,6.55,1.27,13.23,2.66,19.07,3.8,12.42,2.43,12.28,1.78,12.21,2.48,9.65,1.31,17.23,1.2,22.64-1.94,7.96-4.62,7.8-13.58,4.81-21.33Zm-62.04-.49s0,.01,0,.02c0,0,0-.01,0-.02Zm.01.08s0,.03,0,.05c0-.01,0-.03,0-.05Z"/>
            </g>
          </g>
        </g>
      </g>
    </g>
    <path class="cls-1" d="m230.19,304.07c-50.22-1.41-60.1-1.69-60.52-1.7-.52-.01-.51-.8.01-.8,50.22,1.41,60.1,1.69,60.52,1.7.22,0,.39.19.39.41,0,.22-.18.39-.4.39Z"/>
  </g>
  <path class="cls-1" d="m200.5,330.62h0c-.22,0-.39-.19-.39-.41l.55-22.57c.01-.52.81-.51.8.02l-.55,22.57c0,.22-.18.39-.4.39Z"/>
</svg>