<?xml version="1.0" encoding="UTF-8"?>
<svg id="Layer_1" data-name="Layer 1" xmlns="http://www.w3.org/2000/svg" viewBox="0 0 376.07 375.59">
  <defs>
    <style>
      .cls-1 {
        stroke-width: 0px;
      }
    </style>
  </defs>
  <path class="cls-1" d="m257.21,92.86v-1.37c0-.22.18-.4.4-.4h6.05c.53,0,.53.8,0,.8h-5.66v.97c0,.53-.8.53-.8,0Zm65.07-.97h-6.66c-.53,0-.53-.8,0-.8h6.26v-.37c0-.53.8-.53.8,0v.76c0,.22-.18.4-.4.4Zm-14.08,0h-7.42c-.53,0-.53-.8,0-.8h7.42c.53,0,.53.8,0,.8Zm-14.84,0h-7.42c-.53,0-.53-.8,0-.8h7.42c.53,0,.53.8,0,.8Zm-14.84,0h-7.42c-.53,0-.53-.8,0-.8h7.42c.53,0,.53.8,0,.8Zm43.37-8.58v-7.42c0-.53.8-.53.8,0v7.42c0,.53-.8.53-.8,0Zm0-14.84v-7.42c0-.53.8-.53.8,0v7.42c0,.53-.8.53-.8,0Zm-5.98-8.06h-7.42c-.53,0-.53-.8,0-.8h7.42c.22,0,.4.18.4.4s-.18.4-.4.4Zm-14.84,0h-7.42c-.53,0-.53-.8,0-.8h7.42c.22,0,.4.18.4.4s-.18.4-.4.4Zm-14.84,0h-7.42c-.53,0-.53-.8,0-.8h7.42c.53,0,.53.8,0,.8Zm-14.84,0h-7.42c-.53,0-.53-.8,0-.8h7.42c.22,0,.4.18.4.4s-.18.4-.4.4Z"/>
  <path class="cls-1" d="m206.44,80.75h-7.42c-.53,0-.53-.8,0-.8h7.42c.53,0,.53.8,0,.8Zm-14.84,0h-7.42c-.53,0-.53-.8,0-.8h7.42c.53,0,.53.8,0,.8Zm-12.17-3.47v-7.42c0-.53.8-.53.8,0v7.42c0,.53-.8.53-.8,0Zm30.39-.57v-7.42c0-.53.8-.53.8,0v7.42c0,.53-.8.53-.8,0Zm-30.39-14.27v-2.32h-4.31c-.53,0-.53-.8,0-.8h4.71c.22,0,.4.18.4.4v2.71c0,.53-.8.53-.8,0Zm30.39-.57v-1.86c0-.22.18-.4.4-.4h5.57c.53,0,.53.8,0,.8h-5.17v1.46c0,.53-.8.53-.8,0Zm15.86-1.46h-2.47c-.53,0-.53-.8,0-.8h2.47c.22,0,.4.18.4.4s-.18.4-.4.4Z"/>
  <path class="cls-1" d="m74.89,73.67v-7.42c0-.53.8-.53.8,0v7.42c0,.53-.8.53-.8,0Zm61.96-13.56h-1.29c-.53,0-.53-.8,0-.8h1.29c.53,0,.53.8,0,.8Zm-8.72,0h-7.42c-.53,0-.53-.8,0-.8h7.42c.53,0,.53.8,0,.8Zm-14.84,0h-7.42c-.53,0-.53-.8,0-.8h7.42c.53,0,.53.8,0,.8Zm-14.84,0h-7.42c-.53,0-.53-.8,0-.8h7.42c.53,0,.53.8,0,.8Zm-14.84,0h-7.42c-.53,0-.53-.8,0-.8h7.42c.53,0,.53.8,0,.8Z"/>
  <path class="cls-1" d="m276.92,175.04v-1.37c0-.22.18-.4.4-.4h6.05c.53,0,.53.8,0,.8h-5.66v.97c0,.53-.8.53-.8,0Zm65.07-.97h-6.66c-.53,0-.53-.8,0-.8h6.26v-.37c0-.53.8-.53.8,0v.76c0,.22-.18.4-.4.4Zm-14.08,0h-7.42c-.53,0-.53-.8,0-.8h7.42c.53,0,.53.8,0,.8Zm-14.84,0h-7.42c-.53,0-.53-.8,0-.8h7.42c.53,0,.53.8,0,.8Zm-14.84,0h-7.42c-.53,0-.53-.8,0-.8h7.42c.53,0,.53.8,0,.8Zm43.37-8.58v-7.42c0-.53.8-.53.8,0v7.42c0,.53-.8.53-.8,0Zm0-14.84v-7.42c0-.53.8-.53.8,0v7.42c0,.53-.8.53-.8,0Zm-5.98-8.06h-7.42c-.53,0-.53-.8,0-.8h7.42c.22,0,.4.18.4.4s-.18.4-.4.4Zm-14.84,0h-7.42c-.53,0-.53-.8,0-.8h7.42c.22,0,.4.18.4.4s-.18.4-.4.4Zm-14.84,0h-7.42c-.53,0-.53-.8,0-.8h7.42c.53,0,.53.8,0,.8Zm-14.84,0h-7.42c-.53,0-.53-.8,0-.8h7.42c.22,0,.4.18.4.4s-.18.4-.4.4Z"/>
  <path class="cls-1" d="m79.04,164.63v7.42c0,.53-.8.53-.8,0v-7.42c0-.53.8-.53.8,0Zm0,14.84v7.42c0,.53-.8.53-.8,0v-7.42c0-.53.8-.53.8,0Zm-3.47,12.17h-7.42c-.53,0-.53-.8,0-.8h7.42c.53,0,.53.8,0,.8Zm-.57-30.39h-7.42c-.53,0-.53-.8,0-.8h7.42c.53,0,.53.8,0,.8Zm-14.27,30.39h-2.32v4.31c0,.53-.8.53-.8,0v-4.71c0-.22.18-.4.4-.4h2.71c.53,0,.53.8,0,.8Zm-.57-30.39h-1.86c-.22,0-.4-.18-.4-.4v-5.57c0-.53.8-.53.8,0v5.17h1.46c.53,0,.53.8,0,.8Zm-1.46-15.86v2.47c0,.53-.8.53-.8,0v-2.47c0-.22.18-.4.4-.4s.4.18.4.4Z"/>
  <path class="cls-1" d="m58.6,278.08v-7.42c0-.53.8-.53.8,0v7.42c0,.53-.8.53-.8,0Zm0-14.84v-7.42c0-.53.8-.53.8,0v7.42c0,.53-.8.53-.8,0Zm3.47-12.17h7.42c.53,0,.53.8,0,.8h-7.42c-.53,0-.53-.8,0-.8Zm.57,30.39h7.42c.53,0,.53.8,0,.8h-7.42c-.53,0-.53-.8,0-.8Zm14.27-30.39h2.32v-4.31c0-.53.8-.53.8,0v4.71c0,.22-.18.4-.4.4h-2.71c-.53,0-.53-.8,0-.8Zm.57,30.39h1.86c.22,0,.4.18.4.4v5.57c0,.53-.8.53-.8,0v-5.17h-1.46c-.53,0-.53-.8,0-.8Zm1.46,15.86v-2.47c0-.53.8-.53.8,0v2.47c0,.22-.18.4-.4.4s-.4-.18-.4-.4Z"/>
  <path class="cls-1" d="m314.18,254.93v7.42c0,.53-.8.53-.8,0v-7.42c0-.53.8-.53.8,0Zm0,14.84v7.42c0,.53-.8.53-.8,0v-7.42c0-.53.8-.53.8,0Zm-3.47,12.17h-7.42c-.53,0-.53-.8,0-.8h7.42c.53,0,.53.8,0,.8Zm-.57-30.39h-7.42c-.53,0-.53-.8,0-.8h7.42c.53,0,.53.8,0,.8Zm-14.27,30.39h-2.32v4.31c0,.53-.8.53-.8,0v-4.71c0-.22.18-.4.4-.4h2.71c.53,0,.53.8,0,.8Zm-.57-30.39h-1.86c-.22,0-.4-.18-.4-.4v-5.57c0-.53.8-.53.8,0v5.17h1.46c.53,0,.53.8,0,.8Zm-1.46-15.86v2.47c0,.53-.8.53-.8,0v-2.47c0-.22.18-.4.4-.4s.4.18.4.4Z"/>
</svg>