<?xml version="1.0" encoding="UTF-8"?>
<svg id="Layer_1" xmlns="http://www.w3.org/2000/svg" xmlns:xlink="http://www.w3.org/1999/xlink" version="1.1" viewBox="0 0 376.1 375.6">
  <!-- Generator: Adobe Illustrator 29.0.1, SVG Export Plug-In . SVG Version: 2.1.0 Build 192)  -->
  <defs>
    <style>
      .st0 {
        fill: #0004c7;
      }

      .st1 {
        fill: url(#linear-gradient2);
      }

      .st2 {
        fill: url(#linear-gradient1);
      }

      .st3 {
        fill: url(#linear-gradient3);
      }

      .st4 {
        fill: url(#linear-gradient4);
      }

      .st5 {
        fill: #29252a;
      }

      .st6 {
        fill: url(#linear-gradient);
        fill-rule: evenodd;
      }

      .st7 {
        fill: #90d4ff;
      }

      .st8 {
        fill: #80cffe;
      }
    </style>
    <linearGradient id="linear-gradient" x1="-709.1" y1="827.5" x2="-692.8" y2="844.4" gradientTransform="translate(2058.6 -2251.2) scale(2.8)" gradientUnits="userSpaceOnUse">
      <stop offset="0" stop-color="#3f0e40"/>
      <stop offset="1" stop-color="#05f2db"/>
    </linearGradient>
    <linearGradient id="linear-gradient1" x1="234" y1="1135.4" x2="282" y2="1135.4" gradientTransform="translate(0 -1012.5)" gradientUnits="userSpaceOnUse">
      <stop offset="0" stop-color="#61bdff"/>
      <stop offset="1" stop-color="#3f40a3"/>
    </linearGradient>
    <linearGradient id="linear-gradient2" x1="263.5" y1="1217.7" x2="315.8" y2="1217.7" gradientTransform="translate(0 -1012.5)" gradientUnits="userSpaceOnUse">
      <stop offset="0" stop-color="#7896a9"/>
      <stop offset="1" stop-color="#3e69e2"/>
    </linearGradient>
    <linearGradient id="linear-gradient3" x1="33.7" y1="1233.7" x2="93.1" y2="1233.7" gradientTransform="translate(0 -1012.5)" gradientUnits="userSpaceOnUse">
      <stop offset="0" stop-color="#4737f6"/>
      <stop offset="1" stop-color="#516cb1"/>
    </linearGradient>
    <linearGradient id="linear-gradient4" x1="62.6" y1="1328.3" x2="96.9" y2="1328.3" gradientTransform="translate(0 -1012.5)" gradientUnits="userSpaceOnUse">
      <stop offset="0" stop-color="#73d9ff"/>
      <stop offset="1" stop-color="#6291e8"/>
    </linearGradient>
  </defs>
  <path class="st0" d="M156,78.7c-10.8,0-19.5-8.8-19.5-19.5s8.8-19.5,19.5-19.5,19.5,8.8,19.5,19.5-8.8,19.5-19.5,19.5h0ZM156,40.5c-10.3,0-18.7,8.4-18.7,18.7s8.4,18.7,18.7,18.7,18.7-8.4,18.7-18.7-8.4-18.7-18.7-18.7Z"/>
  <g>
    <path class="st0" d="M150,71.5l12.1-23.9c.2-.5.9-.1.7.4l-12.1,23.9c-.2.5-.9.1-.7-.4Z"/>
    <path class="st0" d="M150,59.6l-6.7-5c-.2-.2-.2-.5,0-.7l7-4.5c.4-.3.9.4.4.7l-6.5,4.2,6.2,4.7c.4.3,0,1-.5.6h0Z"/>
    <path class="st0" d="M163,70l5.7-5.3-6.9-3.5c-.5-.2-.1-1,.4-.7l7.4,3.7c.2.1.3.5,0,.7l-6.1,5.7c-.4.4-.9-.2-.5-.6h0Z"/>
  </g>
  <g id="Layer_1-2">
    <path class="st6" d="M104.2,132.5h-1.9v6.8c0,3-2.4,5.4-5.4,5.4h-42.2c-3,0-5.4-2.4-5.4-5.4v-6.8h-1.5c-2,0-3.2-.9-3.2-2.4v-18.1c0-.2,0-.4.2-.5l4.6-6.2v-23.4c0-3,2.4-5.4,5.4-5.4h34.4c.3,0,.5.1.6.3l12.3,12.3c.2.2.2.4.2.6v15.5l4.6,6.2c.1.2.2.4.1.6v18c0,.9-.4,2.4-2.9,2.4h0ZM87,115.1h4.4c6.2,0,8.5,7.7,4.6,11.6-1.2,1.2-2.8,1.9-4.6,1.9h-4.4c-.4,0-.8-.4-.8-.8v-11.9c0-.4.4-.8.8-.8h0ZM91.4,116.7h-3.6v10.3h3.6c4.8,0,6.3-6,3.4-8.8-.9-.9-2.1-1.4-3.4-1.4ZM72.2,115.1h4.4c6.2,0,8.5,7.7,4.6,11.6-1.2,1.2-2.8,1.9-4.6,1.9h-4.4c-.4,0-.8-.4-.8-.8v-11.9c0-.4.4-.8.8-.8h0ZM76.6,116.7h-3.6v10.3h3.6c4.8,0,6.3-6,3.4-8.8-.9-.9-2.1-1.4-3.4-1.4ZM66.8,128.1c0,.1.2.2.3.3.2.1.4.1.6.1.3,0,.6-.2.6-.6,0,0,0-.2,0-.3v-11.8c0-1.1-1.6-1.1-1.6,0v9.3l-6.8-9.8h0c-.4-.6-1.5-.3-1.5.5v11.9c0,1,1.6,1,1.6,0v-9.3l6.8,9.7h0ZM100.7,132.5h-49.9v6.8c0,2.1,1.7,3.8,3.8,3.8h42.2c2.1,0,3.8-1.7,3.8-3.8,0,0,0-6.8,0-6.8ZM46.8,111.2h2.4v-3.3l-2.4,3.3ZM50.9,111.2h49.9v-20.8h-6.6c-3.2,0-5.8-2.6-5.8-5.8v-6.6h-33.7c-2.1,0-3.8,1.7-3.8,3.8v29.3h0ZM102.3,111.2h2.4l-2.4-3.3v3.3ZM92.5,96.2h-33.4c-1,0-1-1.6,0-1.6h33.4c1,0,1,1.6,0,1.6ZM92.5,101.5h-33.4c-1,0-1-1.6,0-1.6h33.4c1,0,1,1.6,0,1.6ZM92.5,106.9h-33.4c-1,0-1-1.6,0-1.6h33.4c1,0,1,1.6,0,1.6ZM53.7,127.8c0,1,1.6,1,1.6,0v-11.9c0-1.1-1.6-1.1-1.6,0v11.9ZM89.9,79.1v5.5c0,2.3,1.9,4.2,4.2,4.2h5.5s-9.7-9.7-9.7-9.7ZM46.1,112.7v17.4c0,.7.9.9,1.7.9h56.4c1.3,0,1.3-.5,1.3-.9v-17.4h-55.5s-4,0-4,0Z"/>
  </g>
  <path class="st2" d="M278.5,93.2h-32.7v9.3c0,1.6-1.3,2.9-2.9,2.9h-8.8v28h47.9v-36.8c0-1.9-1.6-3.5-3.5-3.5h0ZM277.7,99.6c0,.6-.5,1.1-1,1.1h-3.1c-.6,0-1.1-.5-1.1-1.1s.5-1.1,1.1-1.1h3.1c.6,0,1,.5,1.1,1h0s0,0,0,0ZM271.2,99.6c0,.6-.5,1.1-1.1,1.1h-7.5c-.6,0-1.1-.5-1.1-1.1s.5-1.1,1.1-1.1h7.5c.6,0,1.1.5,1.1,1.1h0ZM265.4,125.1l-4.9,1.8-1.7,4.9c-.2.6-.8.8-1.4.6-.3-.1-.5-.3-.6-.6l-3.8-10.8c-.2-.6.1-1.2.7-1.3.2,0,.4,0,.6,0l11,3.5c.5.2.9.8.7,1.3-.1.3-.3.5-.6.7h0ZM275.4,117c-1.3,0-2.4-.8-2.9-2h-6.8c2.2,1.3,3.9,3.2,5.1,5.4,1.3,2.6,1.9,5.6,1.7,8.5,0,.6-.5,1.1-1.1,1-.6,0-1-.5-1-1,.6-6.2-3.2-12.2-9.5-13.7v.6c0,.6-.5,1.1-1,1.1h-4c-.6,0-1.1-.5-1.1-1.1h0v-.5c-1.2.3-2.4.9-3.4,1.6-3.9,2.7-6,7.2-5.4,11.9,0,.6-.5,1.1-1.1,1-.6,0-1-.5-1-1v-1.7c0-5,2.6-9.6,6.8-12.2h-7.3c-.6,1.6-2.4,2.4-3.9,1.8-1.6-.6-2.4-2.3-1.8-3.9.4-1.2,1.6-2,2.9-2,1.3,0,2.4.8,2.9,2h11.5v-.9c0-.6.5-1.1,1.1-1.1h4c.6,0,1.1.5,1.1,1.1h0v.9h11.5c.6-1.6,2.3-2.4,3.9-1.8s2.4,2.3,1.8,3.9c-.4,1.2-1.6,2-2.9,2h0ZM234.6,103.3l9-9.5v8.7c0,.4-.4.8-.8.8h-8.2,0ZM236.2,135.6h-2.1v13.5c0,1.9,1.6,3.5,3.5,3.5h41c1.9,0,3.5-1.6,3.5-3.5v-13.5h-45.8ZM260.7,137.7c.6,0,1,.5,1,1.1,0,.6-.5,1-1,1-.6,0-1-.5-1-1.1,0-.6.5-1,1-1ZM259.6,141.5c0-.6.5-1.1,1.1-1,.6,0,1,.5,1,1v6.9c0,.6-.5,1.1-1.1,1-.6,0-1-.5-1-1v-6.9ZM248.5,148c.6-1.6,3-7.9,3.6-9.6.2-.6.8-.8,1.4-.6.3.1.5.3.6.6l2.7,7.2.9,2.3c.2.6,0,1.2-.6,1.4-.5.2-1.1,0-1.3-.6l-.6-1.6h-4c0,0-.6,1.6-.6,1.6-.2.5-.8.8-1.4.6-.5-.2-.8-.8-.6-1.3h0ZM254.3,145h-2.4s1.2-3.2,1.2-3.2l1.2,3.2h0ZM275.4,114.9c-.5,0-.9-.4-.9-.9s.4-.9.9-.9.9.4.9.9-.4.9-.9.9ZM257,113h1.9v1.9h-1.9c0-.2,0-.8,0-.9v-.9h0ZM240.6,114.9c-.5,0-.9-.4-.9-.9,0-.5.4-.9.9-.9s.9.4.9.9-.4.9-.9.9h0ZM255.8,122.2l6,1.9-2.5.9c-.3.1-.5.3-.6.7l-.9,2.5-2.1-6h0Z"/>
  <path class="st1" d="M290.2,190.6v-14.5l15.8,15.8h-14.4c-.7,0-1.3-.5-1.3-1.2h0ZM315.8,208.3v14.8c0,2.3-1.9,4.2-4.2,4.2h-31.8c-2.3,0-4.2-1.9-4.2-4.2h0v-14.9c0-2.3,1.9-4.2,4.2-4.2h31.8c2.3,0,4.2,1.9,4.2,4.2h0ZM286.4,209.4h-4c-.6,0-1.1.5-1.1,1.1h0v10.6c0,.6.5,1.1,1.1,1,.6,0,1-.5,1-1v-4.2h2.9c2,0,3.7-1.7,3.7-3.8,0-2-1.6-3.6-3.7-3.7h0ZM294.8,211.5h4c.6,0,1-.5,1-1.1,0-.6-.5-1-1-1h-4c-2,0-3.7,1.7-3.7,3.7s1.7,3.7,3.7,3.7h1.3c.9,0,1.6.7,1.6,1.6s-.7,1.6-1.6,1.6h-4c-.6,0-1,.5-1,1.1,0,.6.5,1,1,1h4c2,0,3.7-1.7,3.7-3.7,0-2-1.6-3.7-3.7-3.7h-1.3c-.9,0-1.6-.7-1.6-1.6,0-.9.7-1.6,1.6-1.6ZM309.9,214.7c0-2.9-2.4-5.3-5.3-5.3h-2.4c-.6,0-1.1.5-1.1,1.1v10.6c0,.6.5,1.1,1.1,1.1h2.4c2.9,0,5.3-2.4,5.3-5.3v-2.1ZM304.6,211.5h-1.3v8.5h1.3c1.8,0,3.2-1.4,3.2-3.2v-2.1c0-1.8-1.4-3.2-3.2-3.2h0ZM286.4,211.5h-2.9v3.2h2.9c.9,0,1.6-.7,1.6-1.6s-.7-1.6-1.6-1.6ZM273.4,223.1v-14.8c0-3.5,2.9-6.4,6.4-6.4h26.8v-8h-15.1c-1.9,0-3.4-1.5-3.4-3.4v-15.1h-21.4c-1.7,0-3.1,1.4-3.1,3.1v53.2c0,1.7,1.4,3.1,3.1,3.1h36.8c1.7,0,3.1-1.4,3.1-3.1v-2.2h-26.8c-3.5,0-6.4-2.9-6.4-6.4h0Z"/>
  <path class="st7" d="M252.1,53.3c-3.6-4.5-10.3-5.6-15.1-2.4-5.4,3.6-6.8,10.9-3,16.2,3.6,5.1,10.8,6.3,15.9,2.6,5.3-3.8,6.4-11.2,2.3-16.4ZM238.2,68c0-4.8-1.5-9.6-4.1-13.5-.3-.4.4-.9.7-.4,2.7,4.1,4.2,9,4.3,14,0,.5-.8.5-.8,0ZM245.3,65.6c-.7-5.1-3.1-9.9-6.8-13.5-.4-.4.2-.9.6-.6,3.8,3.7,6.3,8.7,7.1,13.9,0,.5-.7.6-.8.1h0ZM250.3,60.5c-.9-4-3.5-7.7-7-9.8-.4-.3,0-1,.4-.7,3.7,2.2,6.5,6.1,7.4,10.3.1.5-.7.7-.8.2h0Z"/>
  <path class="st5" d="M252,67.2c-2.3-2.4-1.8-6.4,1.2-8,2.1-1.2,4.8-.7,6.4,1.1,2.3,2.6,1.4,6.7-1.8,8.1-1.9.9-4.3.4-5.8-1.1ZM253.5,59.8c-2.5,1.4-2.9,4.8-1,6.8,1.2,1.3,3.3,1.7,4.9,1,2.7-1.2,3.4-4.7,1.5-6.9h0c-1.3-1.5-3.7-1.9-5.4-.9h0Z"/>
  <path class="st3" d="M66.8,228.9c0-1.4-1.1-2.5-2.5-2.5h-1.8c-2.5,0-4.6-2.1-4.6-4.6s2.1-4.6,4.6-4.6h5.3c.6,0,1.1.5,1.1,1.1s-.5,1.1-1.1,1.1h-5.3c-1.4,0-2.5,1.1-2.5,2.5s1.1,2.5,2.5,2.5h1.8c2.5,0,4.6,2.1,4.6,4.6s-2.1,4.6-4.6,4.6h-5.3c-.6,0-1.1-.5-1.1-1.1s.5-1.1,1.1-1.1h5.3c1.4,0,2.5-1.1,2.5-2.5ZM77.9,231.4h-5.3c-.6,0-1.1.5-1.1,1.1s.5,1.1,1.1,1.1h5.3c2.5,0,4.6-2.1,4.6-4.6s-2.1-4.6-4.6-4.6h-1.8c-1.4,0-2.5-1.1-2.5-2.5s1.1-2.5,2.5-2.5h5.3c.6,0,1.1-.5,1.1-1.1s-.5-1.1-1.1-1.1h-5.3c-2.5,0-4.6,2.1-4.6,4.6s2.1,4.6,4.6,4.6h1.8c1.4,0,2.5,1.1,2.5,2.5s-1.1,2.5-2.5,2.5ZM47.1,219.4h5.3c.4,0,.7.3.7.7,0,.6.5,1.1,1.1,1.1s1.1-.5,1.1-1.1c0-1.6-1.3-2.8-2.8-2.8h-5.3c-1.6,0-2.8,1.3-2.8,2.8v10.6c0,1.6,1.3,2.8,2.8,2.8h5.3c1.6,0,2.8-1.3,2.8-2.8,0-.6-.5-1.1-1.1-1.1s-1.1.5-1.1,1.1-.3.7-.7.7h-5.3c-.4,0-.7-.3-.7-.7v-10.6c0-.4.3-.7.7-.7ZM89.9,196.2h-2.1c-.6,0-1.1.5-1.1,1.1s.5,1.1,1.1,1.1h2.1c.6,0,1.1.5,1.1,1.1v1.1h-25.5c-.3,0-.6.1-.8.3l-3.9,3.9h-25v-5.3c0-.6.5-1.1,1.1-1.1h46.7c.6,0,1.1-.5,1.1-1.1s-.5-1.1-1.1-1.1h-46.7c-1.8,0-3.2,1.4-3.2,3.2v43.5c0,1.8,1.4,3.2,3.2,3.2h2.7c.6,0,1.1-.5,1.1-1.1s-.5-1.1-1.1-1.1h-2.7c-.6,0-1.1-.5-1.1-1.1v-36.1h25.5c.3,0,.5-.1.8-.3l3.9-3.9h25v40.3c0,.6-.5,1.1-1.1,1.1h-46.1c-.6,0-1.1.5-1.1,1.1s.5,1.1,1.1,1.1h46.1c1.8,0,3.2-1.4,3.2-3.2v-43.5c0-1.8-1.4-3.2-3.2-3.2ZM39.6,200.5c-.6,0-1.1.5-1.1,1.1s.5,1.1,1.1,1.1,1.1-.5,1.1-1.1-.5-1.1-1.1-1.1h0ZM44.9,200.5c-.6,0-1.1.5-1.1,1.1s.5,1.1,1.1,1.1,1.1-.5,1.1-1.1-.5-1.1-1.1-1.1h0ZM50.2,200.5c-.6,0-1.1.5-1.1,1.1s.5,1.1,1.1,1.1,1.1-.5,1.1-1.1-.5-1.1-1.1-1.1h0Z"/>
  <path class="st4" d="M79.7,298.6c-9.4,0-17.1,7.7-17.1,17.1s7.7,17.1,17.1,17.1,17.1-7.7,17.1-17.1-7.7-17.1-17.1-17.1ZM88.6,325.8c0,1.2-1,2.2-2.2,2.2h-13.4c-1.2,0-2.2-1-2.2-2.2v-20.2c0-1.2,1-2.2,2.2-2.2h10.1c.1,0,.2,0,.3.1l5.1,5.1c0,0,.1.2.1.3,0,0,0,16.8,0,16.8ZM82.7,306.8v-2.4h-9.6c-.7,0-1.3.6-1.3,1.3v20.2c0,.7.6,1.3,1.3,1.3h13.4c.7,0,1.3-.6,1.3-1.3v-16.4h-2.4c-1.4,0-2.6-1.2-2.6-2.6ZM82.1,318.3c-.2-.2-.2-.5,0-.6s.4-.2.6,0l2.2,2.2c0,0,.1.2.1.3s0,.2-.1.3l-2.2,2.2c0,0-.2.1-.3.1s-.2,0-.3-.1c-.2-.2-.2-.5,0-.6l1.9-1.9-1.9-1.9h0ZM80.1,311.4c0-.2.1-.4.3-.4.2,0,.4,0,.5.2l.7,1.2.7-1.2c0-.2.3-.2.5-.2.2,0,.3.2.3.4v3.5c0,.2-.2.4-.4.4s-.4-.2-.4-.4v-2l-.3.5c-.2.3-.6.3-.8,0l-.3-.5v2c0,.2-.2.4-.4.4s-.4-.2-.4-.4v-3.5h0ZM80.6,317.6c.2,0,.3.3.3.5l-1.4,4.3c0,.2-.2.3-.4.3s0,0-.1,0c-.2,0-.3-.3-.3-.6l1.4-4.3c0-.2.3-.4.6-.3h0ZM76.8,310.9h2.2c.2,0,.4.2.4.4s-.2.4-.4.4h-.7v3.1c0,.2-.2.4-.4.4s-.4-.2-.4-.4v-3.1h-.7c-.2,0-.4-.2-.4-.4s.2-.4.4-.4ZM77.4,322c.2.2.2.5,0,.6,0,0-.2.1-.3.1s-.2,0-.3-.1l-2.2-2.2c-.2-.2-.2-.5,0-.6l2.2-2.2c.2-.2.4-.2.6,0,.2.2.2.5,0,.6l-1.9,1.9,1.9,1.9h0ZM72.7,311.4c0-.2.2-.4.4-.4s.4.2.4.4v1.3h1.3v-1.3c0-.2.2-.4.4-.4s.4.2.4.4v3.5c0,.2-.2.4-.4.4s-.4-.2-.4-.4v-1.3h-1.3v1.3c0,.2-.2.4-.4.4s-.4-.2-.4-.4v-3.5ZM86.3,324.5h-13.2c-.2,0-.4-.2-.4-.4s.2-.4.4-.4h13.2c.2,0,.4.2.4.4s-.2.4-.4.4ZM86.8,314.9c0,.2-.2.4-.4.4h-1.8c-.5,0-.9-.4-.9-.9v-3.1c0-.2.2-.4.4-.4s.4.2.4.4v3.1h1.8c.2,0,.4.2.4.4Z"/>
  <g>
    <path class="st8" d="M305.8,309.2c-.2,0-.5.2-.5.5v1.5c0,.2.2.5.5.5s.5-.2.5-.5v-1.5c0-.2-.2-.5-.5-.5Z"/>
    <path class="st8" d="M306.2,305.5c0-.2-.2-.5-.5-.5s-.5.2-.5.5v2.1c0,.2.2.5.5.5s.5-.2.5-.5v-2.1Z"/>
    <path class="st8" d="M304.3,301.6l1.1.6v1.2c0,.2.2.5.5.5s.5-.2.5-.5v-1.5c0-.2,0-.3-.2-.4l-1.3-.8c-.2-.1-.5,0-.6.2-.1.2,0,.5.2.6h0Z"/>
    <path class="st8" d="M300.6,299.5l1.8,1.1c0,0,.1,0,.2,0,.2,0,.3,0,.4-.2.1-.2,0-.5-.2-.6l-1.8-1.1c-.2-.1-.5,0-.6.2-.1.2,0,.5.2.6h0Z"/>
    <path class="st8" d="M297.4,297.7l1.3.8c0,0,.1,0,.2,0,.2,0,.3,0,.4-.2.1-.2,0-.5-.2-.6l-1.3-.8c-.2-.1-.5,0-.6.2-.1.2,0,.5.2.6h0Z"/>
    <path class="st8" d="M286.4,319.3l-1.3-.8c-.2-.1-.5,0-.6.2-.1.2,0,.5.2.6l1.3.8c0,0,.1,0,.2,0,.2,0,.3,0,.4-.2.1-.2,0-.5-.2-.6h0Z"/>
    <path class="st8" d="M290.2,321.5l-1.9-1.1c-.2-.1-.5,0-.6.2-.1.2,0,.5.2.6l1.9,1.1c0,0,.1,0,.2,0,.2,0,.3,0,.4-.2.1-.2,0-.5-.2-.6h0Z"/>
    <path class="st8" d="M294.3,322.6l-1.1.6-1.1-.6c-.2-.1-.5,0-.6.2-.1.2,0,.5.2.6l1.3.8c0,0,.1,0,.2,0s.2,0,.2,0l1.3-.8c.2-.1.3-.4.2-.6-.1-.2-.4-.3-.6-.2h0Z"/>
    <path class="st8" d="M298.2,320.4l-2,1.1c-.2.1-.3.4-.2.6,0,.1.2.2.4.2s.1,0,.2,0l2-1.1c.2-.1.3-.4.2-.6-.1-.2-.4-.3-.6-.2h0Z"/>
    <path class="st8" d="M301.5,318.5l-1.3.8c-.2.1-.3.4-.2.6,0,.1.2.2.4.2s.1,0,.2,0l1.3-.8c.2-.1.3-.4.2-.6-.1-.2-.4-.3-.6-.2h0Z"/>
    <path class="st8" d="M287.5,298.5c0,0,.1,0,.2,0l1.3-.8c.2-.1.3-.4.2-.6-.1-.2-.4-.3-.6-.2l-1.3.8c-.2.1-.3.4-.2.6,0,.1.2.2.4.2h0Z"/>
    <path class="st8" d="M283.8,300.6c0,0,.1,0,.2,0l1.8-1.1c.2-.1.3-.4.2-.6-.1-.2-.4-.3-.6-.2l-1.8,1.1c-.2.1-.3.4-.2.6,0,.1.2.2.4.2h0Z"/>
    <path class="st8" d="M280.6,303.9c.2,0,.5-.2.5-.5v-1.2l1.1-.6c.2-.1.3-.4.2-.6-.1-.2-.4-.3-.6-.2l-1.3.8c-.1,0-.2.2-.2.4v1.5c0,.2.2.5.5.5h0Z"/>
    <path class="st8" d="M281.1,305.5c0-.2-.2-.5-.5-.5s-.5.2-.5.5v2.1c0,.2.2.5.5.5s.5-.2.5-.5v-2.1Z"/>
    <path class="st8" d="M280.6,309.2c-.2,0-.5.2-.5.5v1.5c0,.2.2.5.5.5s.5-.2.5-.5v-1.5c0-.2-.2-.5-.5-.5Z"/>
    <path class="st8" d="M292.2,292.4l.6-.6v6.8l-8.6,5,9.1,5.2,9.1-5.2-8.6-5v-.7h0v-6.1l.6.6c0,0,.2.1.3.1s.2,0,.3-.1c.2-.2.2-.5,0-.6l-1.2-1.2c-.1-.1-.3-.2-.5-.2h0s-.1,0-.1,0c-.1,0-.2,0-.3.2l-1.2,1.2c-.2.2-.2.5,0,.6s.5.2.6,0h0Z"/>
    <path class="st8" d="M310,318.2l-.4-1.7c0-.2-.3-.4-.5-.3s-.4.3-.3.5l.2.9-1.3-.7-5-2.8v-9.8l-9.1,5.2v10.5l8.7-5,.5.3h0l5.5,3.1-.8.2c-.2,0-.4.3-.3.5,0,.2.2.4.5.4s0,0,.1,0l1.7-.4c.4,0,.6-.5.5-.8h0Z"/>
    <path class="st8" d="M279.1,318.5l-.7-.2,5.8-3.4,8.6,5v-10.5l-9.1-5.2v10l-.6.3h0l-5.4,3.1.2-1c0-.2,0-.5-.3-.6s-.5,0-.6.3l-.4,1.7c0,.2,0,.4,0,.5.1.2.2.3.4.3l1.7.4s0,0,.1,0c.2,0,.4-.1.5-.4,0-.2,0-.5-.3-.5h0Z"/>
  </g>
</svg>