<?xml version="1.0" encoding="UTF-8"?>
<svg id="Layer_1" data-name="Layer 1" xmlns="http://www.w3.org/2000/svg" viewBox="0 0 376.07 375.59">
  <defs>
    <style>
      .cls-1 {
        fill: #4c40a8;
        stroke-width: 0px;
      }
    </style>
  </defs>
  <path class="cls-1" d="m364.17,372.11H11.9c-4.52,0-8.19-3.67-8.19-8.19V11.66C3.72,7.14,7.38,3.47,11.9,3.47h352.27c4.52,0,8.19,3.67,8.19,8.19v352.27c0,4.52-3.67,8.19-8.19,8.19Zm-344.08-16.37h335.89V19.85H20.09v335.89Z"/>
  <g>
    <path class="cls-1" d="m43.68,352.5s-.03,0-.04,0c-1.75-.02-3.6-.02-5.67,0-.16,0-.65,0-1.03-.37-.38-.38-.38-.87-.38-1.03,0-6.8,0-13.55,0-20.08,0-.16,0-.66.38-1.04.39-.38.89-.38,1.06-.38,1.81.01,2.36.01,4.15,0h0c.55,0,1.01.45,1.01,1,0,.56-.44,1.02-1,1.02-1.59.01-2.21.01-3.58,0,0,6.13,0,12.47,0,18.84,1.6,0,3.08,0,4.48,0,0-2.08,0-4.19,0-6.23,0-1.09,0-2.22,0-3.33,0-.59.04-1.18.11-1.76.35-2.76,1.9-4.23,4.63-4.38,2.1-.11,3.64.98,4.23,3,.3,1.03.34,2.07.34,2.87,0,3.01,0,6.23,0,9.83,1.46-.01,2.95-.01,4.45,0,0-1.7,0-3.42,0-5.09,0-1.73,0-3.52,0-5.28,0-1.57-.07-3.24-.53-4.87-.57-2.02-1.74-3.26-3.57-3.79-.98-.28-2.01-.33-2.8-.33-.02,0-.04,0-.06,0-1.2,0-2.24.3-3.19.92-.32.21-.63.46-.93.74-.41.38-1.05.36-1.43-.04-.38-.41-.36-1.05.04-1.43.39-.36.8-.69,1.22-.96,1.27-.82,2.72-1.24,4.29-1.24.03,0,.05,0,.08,0,.92,0,2.13.06,3.35.41,2.52.73,4.19,2.47,4.96,5.18.53,1.87.6,3.78.61,5.41,0,1.76,0,3.55,0,5.28,0,1.86,0,3.78,0,5.67,0,.17,0,.68-.39,1.06-.39.39-.9.38-1.06.38-1.9-.02-3.8-.02-5.63,0-.16,0-.66,0-1.04-.38-.38-.38-.38-.87-.38-1.05.01-3.84.01-7.25,0-10.42,0-.7-.04-1.52-.26-2.31-.32-1.11-1.01-1.6-2.18-1.54-1.74.09-2.5.82-2.73,2.61-.06.49-.09.99-.09,1.5,0,1.11,0,2.24,0,3.33,0,2.23,0,4.54,0,6.81,0,.17,0,.68-.39,1.07-.36.36-.83.38-1.02.38h0Zm-.61-1.41h0Zm.62-.61h0Zm-5.72-18.85h0Z"/>
    <path class="cls-1" d="m33.06,352.5s-.03,0-.05,0c-1.62-.02-3.36-.02-5.63,0-.16,0-.65,0-1.03-.37-.38-.38-.38-.87-.38-1.03,0-6.22,0-12.8,0-20.11,0-.16,0-.64.38-1.02.25-.25.59-.37,1-.37,2.24.01,4.05.01,5.71,0,.44,0,.79.12,1.05.38.39.39.39.89.39,1.09,0,2.62,0,5.28,0,7.85,0,.72,0,1.44,0,2.16s0,1.5,0,2.25c0,2.52,0,5.12,0,7.68,0,.19,0,.71-.39,1.1-.37.36-.84.39-1.05.39h0Zm-5.71-2.03h0Zm2.94-.01c.78,0,1.49,0,2.19,0,0-2.39,0-4.8,0-7.14,0-.75,0-1.5,0-2.25s0-1.44,0-2.16c0-2.39,0-4.85,0-7.29-1.33,0-2.78.01-4.48,0,0,6.81,0,12.99,0,18.84.83,0,1.59,0,2.3,0h0Z"/>
    <path class="cls-1" d="m30.24,328.76c-1.26,0-2.45-.5-3.36-1.4-.91-.9-1.41-2.09-1.41-3.35,0-1.27.49-2.47,1.4-3.38.9-.91,2.1-1.41,3.37-1.41h0c1.26,0,2.46.5,3.36,1.4.9.9,1.4,2.09,1.4,3.35h0c0,1.28-.49,2.48-1.4,3.38-.9.91-2.1,1.4-3.37,1.4h0,0Zm0-7.51c-.73,0-1.42.29-1.94.81-.52.52-.81,1.21-.81,1.94,0,1.48,1.26,2.73,2.74,2.73h0c.73,0,1.42-.29,1.94-.81.52-.52.81-1.22.81-1.95h0c0-1.5-1.23-2.73-2.74-2.73h0,0Z"/>
  </g>
</svg>