<?xml version="1.0" encoding="UTF-8"?>
<svg id="Layer_1" data-name="Layer 1" xmlns="http://www.w3.org/2000/svg" viewBox="0 0 376.07 375.59">
  <defs>
    <style>
      .cls-1 {
        fill: #0011ab;
        stroke-width: 0px;
      }
    </style>
  </defs>
  <path class="cls-1" d="m307.72,122.19c-1.05-2.19-1.74-4.11-2.11-5.86-1.71-.43-3.62-1.14-5.82-2.17-.3-.14-.31-.57,0-.72,2.19-1.05,4.1-1.74,5.84-2.11.37-1.76,1.06-3.67,2.1-5.83.14-.29.57-.32.72,0,1.04,2.21,1.75,4.11,2.18,5.82,1.72.36,3.64,1.05,5.86,2.11.3.15.3.58,0,.72-2.27,1.06-4.13,1.76-5.84,2.18-.42,1.7-1.12,3.57-2.19,5.84-.14.3-.57.3-.72,0Zm-6.82-8.39c8.47,3.79,3.4-1.04,7.18,7.28,3.7-8.2-.92-3.59,7.28-7.28-8.31-3.78-3.47,1.31-7.28-7.18-.86,1.88-1.42,3.57-1.73,5.13-.12.62-.92,0-5.45,2.05Z"/>
  <path class="cls-1" d="m320.14,126.55c-1.27.59-2.51,1.08-3.7,1.36-.28,1.19-.77,2.43-1.37,3.7-.6-1.25-1.08-2.49-1.31-3.7-1.18-.28-2.42-.76-3.69-1.36,1.25-.6,2.49-1.08,3.7-1.31.24-1.21.71-2.44,1.31-3.69.59,1.26,1.08,2.51,1.36,3.69,1.21.23,2.45.71,3.7,1.31Z"/>
  <path class="cls-1" d="m109.17,285.25c-1.05-2.19-1.74-4.11-2.11-5.86-1.71-.43-3.62-1.14-5.82-2.17-.3-.14-.31-.57,0-.72,2.19-1.05,4.1-1.74,5.84-2.11.37-1.76,1.06-3.67,2.1-5.83.14-.29.57-.32.72,0,1.04,2.21,1.75,4.11,2.18,5.82,1.72.36,3.64,1.05,5.86,2.11.3.15.3.58,0,.72-2.27,1.06-4.13,1.76-5.84,2.18-.42,1.7-1.12,3.57-2.19,5.84-.14.3-.57.3-.72,0Zm-6.82-8.39c8.47,3.79,3.4-1.04,7.18,7.28,3.7-8.2-.92-3.59,7.28-7.28-8.31-3.78-3.47,1.31-7.28-7.18-.86,1.88-1.42,3.57-1.73,5.13-.12.62-.92,0-5.45,2.05Z"/>
  <path class="cls-1" d="m155.01,270.28c-1.27.59-2.51,1.08-3.7,1.36-.28,1.19-.77,2.43-1.37,3.7-.6-1.25-1.08-2.49-1.31-3.7-1.18-.28-2.42-.76-3.69-1.36,1.25-.6,2.49-1.08,3.7-1.31.24-1.21.71-2.44,1.31-3.69.59,1.26,1.08,2.51,1.36,3.69,1.21.23,2.45.71,3.7,1.31Z"/>
  <path class="cls-1" d="m74.99,44.2c-1.05-2.19-1.74-4.11-2.11-5.86-1.71-.43-3.62-1.14-5.82-2.17-.3-.14-.31-.57,0-.72,2.19-1.05,4.1-1.74,5.84-2.11.37-1.76,1.06-3.67,2.1-5.83.14-.29.57-.32.72,0,1.04,2.21,1.75,4.11,2.18,5.82,1.72.36,3.64,1.05,5.86,2.11.3.15.3.58,0,.72-2.27,1.06-4.13,1.76-5.84,2.18-.42,1.7-1.12,3.57-2.19,5.84-.14.3-.57.3-.72,0Zm-6.82-8.39c8.47,3.79,3.4-1.04,7.18,7.28,3.7-8.2-.92-3.59,7.28-7.28-8.31-3.78-3.47,1.31-7.28-7.18-.86,1.88-1.42,3.57-1.73,5.13-.12.62-.92,0-5.45,2.05Z"/>
  <path class="cls-1" d="m58.35,48.56c-1.27.59-2.51,1.08-3.7,1.36-.28,1.19-.77,2.43-1.37,3.7-.6-1.25-1.08-2.49-1.31-3.7-1.18-.28-2.42-.76-3.69-1.36,1.25-.6,2.49-1.08,3.7-1.31.24-1.21.71-2.44,1.31-3.69.59,1.26,1.08,2.51,1.36,3.69,1.21.23,2.45.71,3.7,1.31Z"/>
  <path class="cls-1" d="m153.32,110.36c-1.05-2.19-1.74-4.11-2.11-5.86-1.71-.43-3.62-1.14-5.82-2.17-.3-.14-.31-.57,0-.72,2.19-1.05,4.1-1.74,5.84-2.11.37-1.76,1.06-3.67,2.1-5.83.14-.29.57-.32.72,0,1.04,2.21,1.75,4.11,2.18,5.82,1.72.36,3.64,1.05,5.86,2.11.3.15.3.58,0,.72-2.27,1.06-4.13,1.76-5.84,2.18-.42,1.7-1.12,3.57-2.19,5.84-.14.3-.57.3-.72,0Zm-6.82-8.39c8.47,3.79,3.4-1.04,7.18,7.28,3.7-8.2-.92-3.59,7.28-7.28-8.31-3.78-3.47,1.31-7.28-7.18-.86,1.88-1.42,3.57-1.73,5.13-.12.62-.92,0-5.45,2.05Z"/>
  <path class="cls-1" d="m182.5,128.53c-1.27.59-2.51,1.08-3.7,1.36-.28,1.19-.77,2.43-1.37,3.7-.6-1.25-1.08-2.49-1.31-3.7-1.18-.28-2.42-.76-3.69-1.36,1.25-.6,2.49-1.08,3.7-1.31.24-1.21.71-2.44,1.31-3.69.59,1.26,1.08,2.51,1.36,3.69,1.21.23,2.45.71,3.7,1.31Z"/>
  <path class="cls-1" d="m327.89,298.64c-1.05-2.19-1.74-4.11-2.11-5.86-1.71-.43-3.62-1.14-5.82-2.17-.3-.14-.31-.57,0-.72,2.19-1.05,4.1-1.74,5.84-2.11.37-1.76,1.06-3.67,2.1-5.83.14-.29.57-.32.72,0,1.04,2.21,1.75,4.11,2.18,5.82,1.72.36,3.64,1.05,5.86,2.11.3.15.3.58,0,.72-2.27,1.06-4.13,1.76-5.84,2.18-.42,1.7-1.12,3.57-2.19,5.84-.14.3-.57.3-.72,0Zm-6.82-8.39c8.47,3.79,3.4-1.04,7.18,7.28,3.7-8.2-.92-3.59,7.28-7.28-8.31-3.78-3.47,1.31-7.28-7.18-.86,1.88-1.42,3.57-1.73,5.13-.12.62-.92,0-5.45,2.05Z"/>
  <path class="cls-1" d="m309.51,330.59c-1.27.59-2.51,1.08-3.7,1.36-.28,1.19-.77,2.43-1.37,3.7-.6-1.25-1.08-2.49-1.31-3.7-1.18-.28-2.42-.76-3.69-1.36,1.25-.6,2.49-1.08,3.7-1.31.24-1.21.71-2.44,1.31-3.69.59,1.26,1.08,2.51,1.36,3.69,1.21.23,2.45.71,3.7,1.31Z"/>
</svg>