<?xml version="1.0" encoding="UTF-8"?>
<svg id="Layer_1" data-name="Layer 1" xmlns="http://www.w3.org/2000/svg" viewBox="0 0 376.1 375.6">
  <defs>
    <style>
      .cls-1, .cls-2 {
        font-family: ArialMT, Arial;
        font-size: 12px;
      }

      .cls-2, .cls-3, .cls-4 {
        isolation: isolate;
      }

      .cls-4 {
        font-family: Shlop-Regular, Shlop;
        font-size: 40px;
      }

      .cls-5 {
        fill: #ea5911;
        stroke-width: 0px;
      }
    </style>
  </defs>
  <path class="cls-5" d="m364.2,372.1H11.9c-4.5,0-8.2-3.7-8.2-8.2V11.7C3.7,7.2,7.4,3.5,11.9,3.5h352.3c4.5,0,8.2,3.7,8.2,8.2v352.3c0,4.4-3.7,8.1-8.2,8.1h0Zm-344.1-16.4h335.9V19.9H20.1v335.8h0Z"/>
  <g>
    <g class="cls-3">
      <text class="cls-4" transform="translate(281.45 290.49)"><tspan x="0" y="0"> </tspan></text>
    </g>
    <g>
      <text class="cls-2" transform="translate(270.62 106.93) rotate(-173.65)"><tspan x="0" y="0"> </tspan></text>
      <text class="cls-2" transform="translate(267.4 106.57) rotate(-167.29)"><tspan x="0" y="0"> </tspan></text>
    </g>
    <text class="cls-1"><tspan x="0" y="0"> </tspan></text>
  </g>
  <path class="cls-5" d="m208.71,234.71c.08-.18.17-.34.33-.51l.51.93c-.31-.08-.6-.22-.84-.42Z"/>
  <path class="cls-5" d="m211.57,234.19c.16.18.25.34.33.51-.22.18-.51.32-.83.4l.5-.92Z"/>
</svg>