<?xml version="1.0" encoding="UTF-8"?>
<svg id="Layer_1" data-name="Layer 1" xmlns="http://www.w3.org/2000/svg" viewBox="0 0 376.1 375.6">
  <defs>
    <style>
      .cls-1, .cls-2 {
        font-family: ArialMT, Arial;
        font-size: 12px;
      }

      .cls-2, .cls-3, .cls-4 {
        isolation: isolate;
      }

      .cls-4 {
        font-family: Shlop-Regular, Shlop;
        font-size: 40px;
      }

      .cls-5 {
        fill: #fff;
      }

      .cls-5, .cls-6 {
        stroke-width: 0px;
      }

      .cls-6 {
        fill: #ea5911;
      }
    </style>
  </defs>
  <path class="cls-5" d="m272.02,189.07c1.08-5.02,4.56-11.35-1.17-14.39-1.7-.9-3.8-1.3-5.6-2.1-2.6-1.2-5.1-2.7-7.4-4.4-2-1.5-4-2.9-6.6-2.1-.09.09-.23.33-.17.44-.01,0-.02,0-.03,0-.78-.91-1.74-1.56-2.83-1.91.14-.81-.03-1.62-.78-2.33-.42-.32-.86-.6-1.33-.84-2.06-2.11-5.28-3.25-8.18-3.34-2.68-1.59-6.08-1.88-9.09-2.32-.39-.06-.75-.14-1.13-.21-3.59-3.54-2.81-9.23-6.27-12.79-2.02-2.11-4.98-2.9-7.77-2.18-5.91-1.53-11.54-4.02-16.73-7.32-2.5-1.6-4.6-3.5-7.3-4.5-2.7-1-5.5-1.2-8.2-1.9-5.4-1.3-10.3-4.2-15.7-5.6-5.4-1.3-10.2-.3-15.3.9-5.1,1.2-11.4,2.9-16.3,6.1-4.9,3.2-8.3,6.8-12,10.6-7.6,8.1-14.7,18.2-16.8,29.3.02.04.05.08.08.11-4.86,19.41-5.77,43.98,6.02,60.99,2.6,3.8,6,7.8,10,10.1,4,2.3,10.5,3.9,15.5,6.4,5.7,2.8,11.6,5.2,17.6,7,5.1,1.5,10.4,2.8,15.8,2,3.2-.5,6.1-1.8,9.3-2.6,3.2-.8,6-.8,8.8-2,1.13-.5,2.47-1.51,3.53-2.81.02,0,.05,0,.07,0,.07,0,.09-.1.06-.16.13-.17.26-.35.38-.53.02,0,.04,0,.06,0,.07,0,.09-.11.06-.17.95-1.48,1.45-3.23.91-5.01.01,0,.02-.02.03-.03-.1-.7-.4-1.4-.9-1.99-.6-.7-1.8-1.1-2.2-2-.24-.47.47-1.08.9-1.81h0c-.1.11.1.01.1-.09v-.07c.17-.36.27-.75.16-1.16,3.45-.76,7.1-.66,10.64.23,8.6,2.4,18.8,11.5,27.1,3.3,2.17-2.17,3.95-4.56,6.11-6.7.03,0,.05-.03.06-.06.21-.21.41-.43.64-.64,2.5-2.3,4.8-4.1,7.3-6,4.9-3.8,9.7-7.5,13.8-12,3.8-4.1,7.2-8.6,10.2-13.4,1.44-2.43,3.35-5.27,4.02-8.14.14.04.28,0,.28-.16.01-.15.03-.3.05-.45.12.02.09-.07.02-.17.04-.29.09-.59.15-.89.09-.01.17-.1.08-.2-.01,0-.02,0-.03-.01Z"/>
  <g>
    <g class="cls-3">
      <text class="cls-4" transform="translate(281.45 290.49)"><tspan x="0" y="0"> </tspan></text>
    </g>
    <g>
      <text class="cls-2" transform="translate(270.62 106.93) rotate(-173.65)"><tspan x="0" y="0"> </tspan></text>
      <text class="cls-2" transform="translate(267.4 106.57) rotate(-167.29)"><tspan x="0" y="0"> </tspan></text>
    </g>
    <text class="cls-1"><tspan x="0" y="0"> </tspan></text>
  </g>
  <g>
    <path class="cls-6" d="m98.01,258c-.17.17.06.5.06.77,0,.22-.06.66-.33.66-.55,0-1.05-.22-1.54-.22-.72,0-.05,1.05-1.16,1.05-.61,0-.77-.66-1.32-.66-.17,0-.44,0-.44.17,0,1.1.72,1.6.72,2.32,0,.17-.06.33-.11.44-.22-.05-.5-.05-.72-.05-.94,0-1.77.39-2.37,1.1-1.71-1.05-1.32-2.87-3.92-2.87-.94,0-2.15.39-2.92.99-3.86,3.14-9.32,14.95-9.32,19.91,0,1.99.66,5.68,3.25,5.68.66,0,1.1-.66,1.77-.66.33,0,.72.17.99.17.88,0,1.76-2.04,3.31-2.04.17,0,.33.05.33.28,0,.5-.39.99-.39,1.54,0,.28,0,.5-.11.77h.17c.83,0,1.16-.94,1.93-.94.11,0,.28.06.39.11v.11c0,.5-.28.83-.28,1.27,0,.11.05.17.05.28.5.33.77.88.83,1.43.28.17.61.06.88.06.22,0,.39.05.55.17.06.06.06.17.06.22,0,.33-.28.61-.44.83-2.1,3.09-8.11,6.01-11.8,6.01-2.65,0-7.45-1.05-9.1-3.31-.33-.44-.33-1.05-.61-1.49-.22-.39-.61-.61-.83-.99-.17-.28-.83-3.92-.83-4.36,0-.5.17-.94.17-1.43,0-.44-.17-.83-.17-1.27,0-.55.28-1.1.39-1.65s0-1.16,0-1.71c0-2.04.72-4.03,1.27-5.96.83-2.92,1.88-5.74,3.31-8.44.61-1.21,1.54-2.26,2.04-3.53.05-.22.11-.44.22-.61.17-.33.61-.5.83-.83s.22-.72.39-1.05c.28-.5,1.32-1.21,1.49-1.65.06-.17.06-.5.17-.61.11-.17.44-.06.66-.22.17-.11.22-.77.39-1.05,1.66-2.43,8-6.01,10.98-6.01.44,0,.77.22,1.21.22.39,0,.66-.39,1.05-.39,4.58,0,7.67,2.87,10.15,6.4.06.72-.88.66-1.27,1.05Zm-26.64,14.29c0-.33-.28-.44-.55-.44h-.28v.83h.11c.22,0,.55-.05.72-.22v-.17Z"/>
    <path class="cls-6" d="m128.57,257.07c-2.37,5.19-4.08,10.54-5.96,15.89-1.93,5.52-3.86,11.09-5.41,16.77-.5,1.93-.77,3.92-1.43,5.79-.66,0-.99-.44-1.54-.44-.22,0-.33,0-.55.06-.22-.44-.39-.83-.61-1.27-.55.11-.77.61-1.21.83-.22-.11-.5-.17-.72-.17-.39,0-.77.11-1.16.17-.22-.55-.39-1.1-.44-1.66-1.32-.05-1.1,1.88-2.37,1.88-.39,0-.72-.33-1.1-.44v-.17c0-1.43.55-2.76.99-4.14,1.21-3.92,2.48-7.83,4.14-11.58-.33-.44-.77-.61-1.32-.61-1.27,0-4.74.88-6.12,1.21-.99,1.1-1.16,2.76-1.65,4.14-.99,2.81-2.04,5.63-2.87,8.5-.39,1.32-.5,2.98-1.65,3.92-.77.05-.72-.88-.83-1.43-.06-.05-.17-.17-.28-.17-.44,0-.66,1.05-1.38.99-.17-.28-.44-.55-.83-.55-.5,0-1.1.44-1.66.55-.11-.5-.11-1.27-.44-1.66-.99.17-.88,1.43-1.43,2.04-.11,0-.17.05-.28.05-.55,0-1.05-.44-1.16-.44-.55,0-.55.44-1.21.44q-.11,0-.22-.05c.17-1.16,1.16-5.35,1.82-6.18.39-.44.44-2.04.66-2.7.22-.66.61-1.21.83-1.88.88-2.48,1.54-5.02,2.48-7.45.5-1.32.88-2.65,1.43-3.92.11-.28.28-.55.39-.83.28-.72.39-1.54.66-2.26.72-1.99,1.71-3.86,2.48-5.79,1.05-2.54,1.77-5.24,3.48-7.45.22-1.49.77-2.92,1.88-3.97h.17c.61,0,.39.88.94.88,1.71,0,1.54-2.87,3.64-2.92.17.28.22.55.22.83,0,.77-.44,1.49-.44,2.26,0,.28.05.55.22.83,1.21-.06,1.1-1.32,1.88-1.88h.11c.5,0,.5.66.99.66,1.21,0,1.43-1.6,2.81-1.65.11.17.28.33.28.55,0,.44-.44.88-.66,1.27-.88,1.71-1.76,3.42-2.92,4.96,0,1.43-.94,2.48-1.43,3.75-.33.83-.5,1.66-.83,2.48-.61,1.6-1.43,3.14-2.04,4.74.11.33.33.61.72.61.5,0,1.05-.28,1.54-.39,1.49-.28,2.98-.61,4.52-.83,1.1-.99,1.21-2.59,1.66-3.92,1.38-3.92,3.14-7.67,4.58-11.58.39.06.83.11,1.21.11.44,0,.83-.17,1.05-.55h.22c.44,0,.22.5.61.61,1.32-.5,1.43-2.1,2.48-2.87.72.11.61,1.32.83,1.88.5-.05.99-.44,1.43-.44.28,0,.55.22.66.44.83-.22.94-1.05,1.93-1.05h.11c.11.22.22.5.22.72,0,.72-1.66,3.59-2.1,4.47Zm-27.08,14.89h-.61c-.17.17-.22.33-.22.55,0,.44.28.88.77.88h.05c.17-.17.22-.5.22-.72s-.05-.55-.22-.72Zm2.48-2.48v-.22c0-.33-.11-.61-.5-.61h-.11c0,.11-.06.22-.22.17v.17c0,.39.28.5.61.5h.22Zm1.66-1.65h-.61v.22c0,.28.06.55.39.61.05-.22.22-.39.22-.66v-.17Zm2.43,5.13h-.17c-.06.11-.06.28-.06.39,0,.33.22.66.61.66.17,0,.39-.11.5-.22-.06-.55-.33-.83-.88-.83Zm2.54.66c-.11,0-.28-.06-.22-.22h-.39c0,.11-.06.28-.22.22v.39c.11,0,.28.06.22.22h.39c0-.11.06-.28.22-.22v-.39Zm3.92,0c-.11,0-.17-.06-.28-.06-.44,0-.61.28-1.16.22.17.66.61,1.1,1.27,1.27.22-.22.33-.44.33-.77,0-.22-.05-.44-.17-.66Zm.22,14.07c-.22,0-.28-.22-.5-.22h-.11c-.17.11-.22.39-.22.55,0,.28.17.5.44.5,0-.33.44-.33.44-.66,0-.06-.05-.11-.05-.17Zm1.65-15.72h-.83v.44c0,.33.05.77.5.77h.11c.22-.22.22-.55.22-.83v-.39Zm3.75-10.15h-.66c-.17.22-.22.66-.22.94,0,.33.17.94.61.94.39,0,.5-.39.5-.72,0-.39-.11-.77-.22-1.16Z"/>
    <path class="cls-6" d="m154.27,256.96c-.77,5.96-1.21,11.97-1.66,17.98-.17,2.59-.22,5.3-.44,7.89-.05.77-.39,1.49-.39,2.26,0,.5.22.94.22,1.43,0,1.27-.44,2.48-.44,3.75,0,1.16.28,2.32.28,3.47,0,.72-.17,1.43-.5,2.1-.33,0-.66.11-.83.39-.83,0-.83-.88-1.21-1.43-.11,0-.17.05-.28.05-.83,0-.94-.88-1.6-1.1-.72.72-.66,2.04-1.65,2.48-.88.06-.61-1.16-1.05-1.65-.66.11-.33,1.16-.99,1.27-1.43-.28-2.15-.99-2.15-2.48,0-.72.5-1.38.5-2.1,0-.44-.22-.77-.22-1.21,0-.5.22-.99.22-1.49,0-.83-.94-.99-1.6-.99-.88,0-1.71.22-2.54.39-2.21.39-4.41.61-6.62.83-.5,2.04-1.6,3.92-2.48,5.79-.77.05-1.88.66-2.32.66-.77,0-.61-.83-.99-1.27-.11.06-.28.06-.44.06-.66,0-.72-.72-1.05-1.1-1.1.5-1.93,2.76-2.87,2.76-.44,0-.17-.66-.83-.66-.55,0-1.05.55-1.49.55-.17,0-.28-.05-.39-.17-.05-.17-.05-.33-.05-.5,0-.99.66-1.77,1.1-2.59,1.32-2.48,2.87-6.56,4.36-8.66.17-.22.44-.44.61-.66.44-.61.72-1.38,1.05-2.04.99-1.88,2.04-3.7,3.09-5.57.5-.94.83-2.1,1.43-2.92.17-.22.44-.39.61-.61.44-.61.61-1.49,1.05-2.1.17-.22.44-.33.61-.61.17-.28.11-.55.22-.83l.44-.22v-.39l.39-.22c1.82-4.08,5.13-7.72,7.45-11.58l.44-.22c.44-.99,1.1-2.04,1.82-2.87.22-.22.72-.55.83-.83.06-.11,0-.44.22-.44.11-.17.39-.17.44-.39,1.43.17,1.16,2.15,1.82,3.09,1.27-.28,1.16-2.04,2.48-2.26.61.5.17,1.65.83,2.04.77.11.28-1.1,1.32-1.1.33,0,.28.5.55.5,1.32,0,.99-1.43,2.1-1.43.83,0,1.21.94,1.21,1.65,0,1.16-.44,2.21-.61,3.31Zm-27.91,31.83c-.05.17-.28.22-.44.22v.44c0,.33.11.61.5.61h.11c.17-.17.22-.44.22-.66,0-.28-.06-.61-.39-.61Zm6.4-6.4c-.17-.06-.22-.22-.22-.39h-.83c-.11.22-.17.44-.17.72s.05.5.17.72h.17c.55,0,.88-.33.88-.88v-.17Zm2.04-3.31h-.61v.61c0,.33.11.66.5.66h.11c.17-.17.22-.44.22-.66s-.05-.44-.22-.61Zm9.1-12.03l-.17.06c-.72,1.16-1.77,2.21-2.32,3.47-.11.28,0,.55-.17.83-.17.28-.5.44-.66.66-.66.99-.72,2.32-1.43,3.31-.17.22-.44.39-.61.61-.33.5-.28,1.16-.61,1.66-.5.83-1.27.99-1.27,2.15v.33c.28.05.61.11.94.11,1.66,0,3.2-.72,4.85-.72.55-2.15.44-4.41.83-6.62.33-1.71,1.32-3.36,1.32-5.13,0-.5-.22-.72-.72-.72Zm-3.09,16.6h-.83v.28c0,.28.11.55.44.55h.17c.06-.22.28-.44.28-.66,0-.05-.06-.11-.06-.17Zm2.21,1.38c-.39,0-.55.55-.55.88,0,.28.17.61.5.61.39,0,.39-.55.39-.83,0-.22,0-.66-.33-.66Zm.72-1.38c-.17.22-.44.44-.44.77,0,.17.11.33.22.44h.11c.28,0,.44-.22.72-.22,0-.11.06-.17.06-.28,0-.44-.28-.61-.66-.72Zm3.48,2.04c-.5,0-.99.28-1.43.44v.39c0,.22.11.44.22.61.83-.17,1.65-.44,1.65-1.43h-.44Zm-.39-3.31c0-.33-.11-.61-.5-.61h-.11c-.17.17-.22.44-.22.66,0,.28.05.55.39.55.06-.17.28-.17.44-.17v-.44Zm-.33,6.01h-.11c-.17.17-.22.39-.22.61,0,.33.22.66.61.66.11,0,.17-.06.28-.06.11-.11.17-.33.17-.5,0-.44-.28-.72-.72-.72Zm1.38-31.66c-.22,0-.5-.11-.66-.22-.22.17-.33.39-.33.66,0,.39.39.61.77.61.17-.22.22-.44.22-.72v-.33Zm.39,10.76c-.22.17-.39.44-.39.72,0,.44.39.72.83.72.17-.22.28-.5.28-.77,0-.44-.33-.61-.72-.66Zm.44,17.38h-.66v.61c0,.33.11.66.5.66h.17c.17-.17.22-.44.22-.66s-.06-.44-.22-.61Z"/>
    <path class="cls-6" d="m178.92,253.09c-1.38,2.87-2.87,5.74-4.14,8.72-.22.55-.94,1.99-1.43,2.26v.28c0,1.54-.94,2.7-1.49,4.08-2.76,6.51-5.13,13.13-7.83,19.64.17.44.5.66.94.66.55,0,.99-.17,1.54-.22,1.6-.11,3.14-.39,4.74-.44-.05.39-.11.83-.11,1.27,0,2.59,1.05,1.21,1.77,2.04-.06.94-1.21.99-1.21,1.88,0,.94,1.21.55,1.21,1.21v.22c-.33,1.54-3.31,1.93-4.52,2.1-2.04.28-4.19.61-6.23.61-.5,0-.94-.22-1.43-.22-1.1,0-2.21.06-3.31.06s-2.21-.06-3.31-.28c0-.11-.05-.28-.05-.39,0-.55.28-1.05.28-1.6,0-1.6-2.59.28-2.59-1.65,0-.83.44-1.54.72-2.32,3.03-8.22,6.01-16.49,9.71-24.44,1.6-3.48,3.25-6.9,4.96-10.32.72-1.49,1.27-3.81,2.92-4.58.11-.06.17-.06.28-.06.66,0,.33.99.94,1.1.88-.61,1.21-1.71,1.88-2.48h.17c.77,0,.22,1.27.66,1.66.61.17,1.05.61,1.43,1.05,1.16,0,1.77-2.7,3.14-2.7.55,0,1.16.28,1.16.88,0,.66-.5,1.43-.77,1.99Zm-17.38,37.4c0-.44-.33-.55-.72-.55h-.33c-.06.11-.06.22-.06.33,0,.33.22.72.61.72.17,0,.39-.11.5-.22v-.28Zm10.42-34.09h-.28c-.22.22-.22.61-.22.88v.39c.28.11.61.17.94.17s.66-.05.94-.17c0-.88-.55-1.27-1.38-1.27Z"/>
    <path class="cls-6" d="m200.99,253.09c-1.38,2.87-2.87,5.74-4.14,8.72-.22.55-.94,1.99-1.43,2.26v.28c0,1.54-.94,2.7-1.49,4.08-2.76,6.51-5.13,13.13-7.83,19.64.17.44.5.66.94.66.55,0,.99-.17,1.54-.22,1.6-.11,3.14-.39,4.74-.44-.05.39-.11.83-.11,1.27,0,2.59,1.05,1.21,1.77,2.04-.06.94-1.21.99-1.21,1.88,0,.94,1.21.55,1.21,1.21v.22c-.33,1.54-3.31,1.93-4.52,2.1-2.04.28-4.19.61-6.23.61-.5,0-.94-.22-1.43-.22-1.1,0-2.21.06-3.31.06s-2.21-.06-3.31-.28c0-.11-.05-.28-.05-.39,0-.55.28-1.05.28-1.6,0-1.6-2.59.28-2.59-1.65,0-.83.44-1.54.72-2.32,3.03-8.22,6.01-16.49,9.71-24.44,1.6-3.48,3.25-6.9,4.96-10.32.72-1.49,1.27-3.81,2.92-4.58.11-.06.17-.06.28-.06.66,0,.33.99.94,1.1.88-.61,1.21-1.71,1.88-2.48h.17c.77,0,.22,1.27.66,1.66.61.17,1.05.61,1.43,1.05,1.16,0,1.77-2.7,3.14-2.7.55,0,1.16.28,1.16.88,0,.66-.5,1.43-.77,1.99Zm-17.38,37.4c0-.44-.33-.55-.72-.55h-.33c-.06.11-.06.22-.06.33,0,.33.22.72.61.72.17,0,.39-.11.5-.22v-.28Zm10.42-34.09h-.28c-.22.22-.22.61-.22.88v.39c.28.11.61.17.94.17s.66-.05.94-.17c0-.88-.55-1.27-1.38-1.27Z"/>
    <path class="cls-6" d="m228.29,256.51c.17.5.5.99.5,1.49,0,.99-.77.83-.88,1.43h-.83c-2.32,0-4.63.22-6.84.83-.55.61-3.7,6.73-4.14,7.83.39.66,1.54.72,2.21.72s1.38-.11,2.04-.11,1.6.05,1.99.66v.22c0,.5-.44.77-.66,1.21.28.72,1.32.39,1.65,1.05-.11.99-1.82.72-2.48,1.05v.22c0,.33.44.61.44,1.49,0,.39.66,1.16.83,1.6-.28,1.77-2.98,1.43-4.25,1.43-1.43,0-4.63-.05-5.9.39-.66.22-.44.77-.61,1.27-.17.39-.44.66-.61,1.05-.39.83-.5,1.76-.83,2.65-.66,1.66-1.66,2.98-2.1,4.8.22.44.66.66,1.16.66.61,0,1.16-.22,1.77-.28,1.76-.17,3.58-.33,5.35-.39-.06.83-.39,1.66-.39,2.48,0,.77,1.43.05,1.43.83,0,1.16-1.27,1.32-1.65,2.26.44.77,1.99.11,2.48.83.06.77-1.16,1.88-1.88,2.04-2.15.61-4.63.88-6.9.88-1.27,0-2.59-.22-3.86-.22s-2.65.11-3.97.11c-1.1,0-2.21-.11-3.25-.55,0-.11-.05-.22-.05-.33,0-.44.28-.83.28-1.27,0-.94-1.54-.66-2.1-1.1.17-1.6.77-3.03,1.27-4.52,2.7-7.72,5.63-15.39,9.1-22.78.61-1.32,1.05-2.65,1.82-3.92.72-1.16,1.6-2.48,2.7-3.31-.17-.55-1.05-.44-1.43-.83-.06-.88-.77-1.43-.83-2.26.5-.22,2.7-.17,2.7-.83,0-.83-1.05-.39-1.05-1.05-.33-.22-.55-.66-.55-1.05l.11-.17c-.05-.72.99-.61,1.49-.66,5.19-.33,10.26-1.21,15.45-1.05l1.49.05c-.17.66-.11,1.27-.11,1.93,0,.33-.11.61-.11.94,0,.88,1.27.33,1.27,1.05,0,.94-1.16.5-1.27,1.21Zm-24.16,31.44v-.55c0-.28-.06-.66-.44-.66-.17.33-.44.55-.44.94,0,.11.06.17.06.28h.83Zm5.9-13.85h-.33c-.17.17-.22.5-.22.72s.05.55.22.72l.22.05c.66.06.77-.77.83-1.27-.22-.17-.5-.22-.72-.22Zm2.48-6.18c-.39,0-.44-.44-.88-.44h-.06c-.05.22-.22.44-.22.66v.17h.72c.28,0,.72,0,.72-.39h-.28Z"/>
    <path class="cls-6" d="m260.5,257.89c-.17.44-.05,1.05-.22,1.49-.11.39-.44.61-.61.99-.22.61-.39,1.27-.66,1.88-.72,1.65-1.1,3.47-1.65,5.18-2.1,6.18-4.19,12.36-6.18,18.59-.5,1.6-.99,3.2-1.43,4.8s-.72,3.25-1.49,4.74h-.17c-.77,0-.5-1.05-1.05-1.27-.99.11-1.76-.05-2.48.83-.61,0-.94-.39-1.32-.39-.22,0-.39.11-.55.22-.5-.44-.33-1.21-.83-1.65-.88.61-.72,2.04-2.15,2.04h-.33c-.72-.99-.5-2.37-.61-3.53-.11-.83-.39-1.66-.44-2.48-.05-.5.06-1.05.06-1.54,0-.72-.33-1.21-.44-1.93-.28-1.49-.11-3.09-.22-4.58-.11-1.71-.22-3.48-.22-5.19,0-.61.06-1.16.06-1.76,0-.66-.06-1.38-.44-1.93h-.22c-.83,0-.83,1.05-1.05,1.66-.5,1.32-.99,2.59-1.43,3.92-.22.61-.11,1.6-.83,1.88-.88,4.19-2.76,8.05-3.92,12.19-.39,1.32-.44,2.87-1.43,3.92-.83,0-.88-.83-1.05-1.43-.77,0-.83.83-1.27,1.27-.22-.11-.5-.17-.77-.17-.44,0-.83.17-1.27.33-.44-.39-.44-1.27-.61-1.82-1.05.11-1.05,1.21-1.65,1.82-.11,0-.17.05-.28.05-.39,0-.5-.44-.88-.44s-.77.17-1.16.17c-.17,0-.28-.06-.39-.17.17-1.99,1.05-3.75,1.66-5.57,4.03-12.41,8.22-24.88,14.07-36.63.06,0,.17-.06.22-.06.72,0,.66.94,1.43.88.99-.94,1.54-2.15,2.48-3.09.17.11.39.17.61.17v4.14c.11.05.17.05.28.05.72,0,1.1-1.6,1.6-2.1.5,0,.66.28,1.05.39.83-.39.77-1.54,1.82-1.65.72,3.2.39,6.67.61,9.93s.44,6.56.44,9.82c0,.61.05,1.21.61,1.6.94-.33,1.05-1.54,1.27-2.32.28-.94.33-1.93.61-2.87,1.43-5.19,3.53-10.26,5.41-15.33.22.11.44.17.72.17.5,0,.99-.22,1.49-.22.39,0,.66.22.88.5.94-.44,1.21-1.54,1.88-2.26.72.06.61.88,1.38.88.17,0,.28,0,.44-.06.17.33.55.61.66.99.99-.11,1.32-.99,2.48-.99v.33c0,1.54-1.93,4.08-2.48,5.63Zm-23.61,10.15c-.22,0-.44.05-.61.22v.05c0,.44.28.77.72.77.17,0,.39-.11.5-.22,0-.11.06-.17.06-.28,0-.39-.33-.55-.66-.55Zm4.14-4.96h-.05c-.22,0-.39-.11-.55-.22-.17.22-.22.5-.22.77v.28h.22c.39,0,.61-.22.61-.61v-.22Zm6.4,19.86h-.17v.61l.22.05c.28,0,.55-.11.61-.44-.22-.05-.39-.22-.66-.22Zm5.63-20.91h-.66v.22c0,.28.11.55.44.61.05-.22.22-.33.22-.61v-.22Z"/>
    <path class="cls-6" d="m288.8,258.33c0,.22.06.39.11.55-.11.06-.33.06-.44.06-.5,0-.83-.44-1.6-.44-.61,0-.28,1.05-.88,1.05-.5,0-.94-.33-1.43-.33-.17,0-.33,0-.44.11v.22c0,1.05.83,1.43.83,2.48-.33.33-1.16.17-1.6.17-1.27,0-.77.83-1.71.83-1.05,0-1.54-2.7-3.36-2.7-.72,0-1.77.17-2.43.44-3.59,1.49-7.23,10.76-8.44,14.07-.77,2.21-1.93,4.36-1.93,6.73s.99,5.46,3.75,5.46c.61,0,1.1-.17,1.65-.39.72-.28,2.54-1.6,2.92-2.26.11-.22.11-.5.22-.66.05-.11.28-.05.39-.17.28-.28.77-1.43,1.05-1.88.44-.66,1.27-1.43,1.27-2.32,0-.11,0-.28-.06-.39-.55-.39-1.88-.17-2.59-.17-.55,0-1.54-.17-1.54-.94,0-.39.39-.77.44-1.16-.22-.61-1.43-.22-1.66-.83.06-1.16,1.82-.66,2.48-1.27v-.17c0-.5-.61-.83-.61-1.21,0-.22.22-.33.39-.44.06-.77-.83-.66-.83-1.43,0-1.99,4.96-1.43,6.18-1.43,2.1,0,4.14-.44,6.23-.44.11.17.22.28.22.5,0,.44-.22.83-.22,1.27,0,1.16.88.39,1.27.88v.22c0,.5-.5.72-.44,1.27.61.44,2.15-.11,2.48.61-.05,1.38-.88,2.65-1.43,3.92-.39.88-.99,3.09-1.43,3.75-.11.17-.39.28-.44.39-.28.55-.5,1.32-.77,1.93-.72,1.54-1.71,2.98-2.76,4.3-3.31,4.03-8.94,8.11-14.4,8.11-2.37,0-4.91-.66-7.12-1.49-.28-.11-1.43-1.05-1.66-1.27-.72-.66-1.27-1.38-1.65-2.26-.11-.28-.06-.55-.17-.83-.28-.72-.66-1.32-.83-2.1-.22-.99-.33-1.99-.33-2.98,0-3.81,1.6-10.04,2.98-13.74.66-1.71,1.54-3.31,2.32-4.96.72-1.49,1.27-3.53,2.65-4.58v-.11c0-.55.39-.99.44-1.54,1.27-1.27,1.93-3.03,3.09-4.36.11-.17.33-.22.44-.39,2.65-3.47,7.56-5.79,11.92-5.79,2.37,0,4.74.5,6.67,1.88.33.22.5.61.83.83.33.28.77.33,1.05.61.94.83,1.6,2.04,2.26,3.09-.06.94-1.32.72-1.32,1.71Zm-26.59,28.52v-.83c-.11-.11-.28-.22-.44-.22-.33,0-.61.28-.61.61,0,.17.11.33.22.44h.83Zm13.85-31.44c-.22-.06-.39-.22-.66-.22h-.17c-.17.17-.22.39-.22.61s.05.44.22.61c.55-.06.83-.33.83-.88v-.11Zm4.69,20.24h-.33v.11c0,.39.28.66.61.55l.22-.05c0-.11.05-.17.05-.28,0-.33-.28-.33-.55-.33Zm3.81-18.7c0-.44-.44-.72-.88-.72-.22,0-.39,0-.55.17l-.05.17c0,.44.44.5.77.5h.72v-.11Z"/>
    <path class="cls-6" d="m316.65,256.51c.17.5.5.99.5,1.49,0,.99-.77.83-.88,1.43h-.83c-2.32,0-4.63.22-6.84.83-.55.61-3.7,6.73-4.14,7.83.39.66,1.54.72,2.21.72s1.38-.11,2.04-.11,1.6.05,1.99.66v.22c0,.5-.44.77-.66,1.21.28.72,1.32.39,1.65,1.05-.11.99-1.82.72-2.48,1.05v.22c0,.33.44.61.44,1.49,0,.39.66,1.16.83,1.6-.28,1.77-2.98,1.43-4.25,1.43-1.43,0-4.63-.05-5.9.39-.66.22-.44.77-.61,1.27-.17.39-.44.66-.61,1.05-.39.83-.5,1.76-.83,2.65-.66,1.66-1.65,2.98-2.1,4.8.22.44.66.66,1.16.66.61,0,1.16-.22,1.77-.28,1.76-.17,3.58-.33,5.35-.39-.06.83-.39,1.66-.39,2.48,0,.77,1.43.05,1.43.83,0,1.16-1.27,1.32-1.66,2.26.44.77,1.99.11,2.48.83.06.77-1.16,1.88-1.88,2.04-2.15.61-4.63.88-6.9.88-1.27,0-2.59-.22-3.86-.22s-2.65.11-3.97.11c-1.1,0-2.21-.11-3.25-.55,0-.11-.06-.22-.06-.33,0-.44.28-.83.28-1.27,0-.94-1.54-.66-2.1-1.1.17-1.6.77-3.03,1.27-4.52,2.7-7.72,5.63-15.39,9.1-22.78.61-1.32,1.05-2.65,1.82-3.92.72-1.16,1.6-2.48,2.7-3.31-.17-.55-1.05-.44-1.43-.83-.05-.88-.77-1.43-.83-2.26.5-.22,2.7-.17,2.7-.83,0-.83-1.05-.39-1.05-1.05-.33-.22-.55-.66-.55-1.05l.11-.17c-.06-.72.99-.61,1.49-.66,5.18-.33,10.26-1.21,15.45-1.05l1.49.05c-.17.66-.11,1.27-.11,1.93,0,.33-.11.61-.11.94,0,.88,1.27.33,1.27,1.05,0,.94-1.16.5-1.27,1.21Zm-24.16,31.44v-.55c0-.28-.06-.66-.44-.66-.17.33-.44.55-.44.94,0,.11.05.17.05.28h.83Zm5.9-13.85h-.33c-.17.17-.22.5-.22.72s.05.55.22.72l.22.05c.66.06.77-.77.83-1.27-.22-.17-.5-.22-.72-.22Zm2.48-6.18c-.39,0-.44-.44-.88-.44h-.05c-.06.22-.22.44-.22.66v.17h.72c.28,0,.72,0,.72-.39h-.28Z"/>
  </g>
  <path class="cls-6" d="m208.71,234.71c.08-.18.17-.34.33-.51l.51.93c-.31-.08-.6-.22-.84-.42Z"/>
  <path class="cls-6" d="m211.57,234.19c.16.18.25.34.33.51-.22.18-.51.32-.83.4l.5-.92Z"/>
</svg>