<?xml version="1.0" encoding="UTF-8"?>
<svg id="Layer_1" data-name="Layer 1" xmlns="http://www.w3.org/2000/svg" viewBox="0 0 376.1 375.6">
  <defs>
    <style>
      .cls-1, .cls-2 {
        font-family: ArialMT, Arial;
        font-size: 12px;
      }

      .cls-2, .cls-3, .cls-4 {
        isolation: isolate;
      }

      .cls-4 {
        font-family: Shlop-Regular, Shlop;
        font-size: 40px;
      }

      .cls-5 {
        fill: #353535;
      }

      .cls-5, .cls-6, .cls-7 {
        stroke-width: 0px;
      }

      .cls-6 {
        fill: #fff;
      }

      .cls-7 {
        fill: #ea5911;
      }
    </style>
  </defs>
  <rect class="cls-6" y="-.2" width="376.1" height="376.1"/>
  <path class="cls-5" d="m105.84,87.14l.1-.19s.01-.03.03-.06c.04-.08.12-.24.25-.48.48-.9,1.62-2.89,3.57-5.67,0-.01.02-.03.03-.04.92-1.31,2.02-2.8,3.31-4.42.02-.03.04-.05.07-.08,1.15-1.43,2.44-2.98,3.91-4.61.02-.02.03-.03.05-.05,1.82-2.03,3.9-4.2,6.25-6.46,0,0,0,0,.01,0h0c1.92-1.85,4.02-3.75,6.31-5.69.37-.31.74-.62,1.12-.94,0,0,.02-.01.02-.02,2.1-1.74,4.4-3.54,6.93-5.39.02-.02.04-.03.06-.05,1.82-1.33,3.75-2.68,5.8-4.05.06-.04.13-.08.19-.13,3.78-2.51,7.95-5.07,12.55-7.61.18-.1.36-.2.54-.3,15.77-8.65,36.46-17.11,63.07-23.08h-4.42c-18.3,4.38-35.11,10.25-50.08,17.49-3.23,1.56-6.37,3.19-9.42,4.87-12.19-.68-18.39-3.96-21.46-6.63-2.9-2.53-3.6-4.98-3.74-5.62,2.51-3.94,4.86-7.36,6.83-10.12h-1.23c-1.89,2.67-4.09,5.9-6.44,9.58-9.85,2.21-15.34,1.48-18.22.47-2.48-.87-3.46-2.08-3.76-2.53,1.02-2.67,2.23-5.2,3.69-7.52h-1.18c-1.32,2.18-2.48,4.59-3.49,7.23-.65.51-4.69,3.57-11.27,5.47-6.6,1.91-17.15,3-29.99-2.61-2.09-4.17-3.74-7.67-4.85-10.1h-1.1c1.13,2.45,2.86,6.14,5.09,10.6.02.87.14,7.35-1.33,14.64-1.41,7.01-4.62,16.18-11.88,20.54-1.91-.58-3.81-1.14-5.7-1.68-10.03-2.82-19.83-4.92-29.22-6.26v1.01c4.09.59,8.12,1.3,12.08,2.11,3.65,2.77,5.63,6.19,5.9,10.17.36,5.33-2.44,10.78-4.84,14.42-2.04,3.08-4.15,5.41-5.01,6.32-3.41.83-6.17,1.58-8.12,2.13v1.04c1.79-.51,4.36-1.21,7.53-2l.44.09c8.01,1.59,13.24,4.93,15.53,9.91,1.98,4.3,1.38,9.08.52,12.34-.65,2.5-1.55,4.51-2.04,5.5-.74.71-1.47,1.43-2.18,2.15-8.56,8.72-15.2,18.72-19.81,29.8v2.7c5.3-13.76,13.26-24.66,22.04-33.24h.07c4.16-.26,7.08.7,8.69,2.84,2.55,3.39,1.17,8.87.69,10.45-5.56,8.25-10.62,17.39-15.13,27.32-6.73,14.82-10.95,28.7-13.31,37.74-.87,3.35-1.56,6.3-2.09,8.73h1.02c.52-2.38,1.19-5.24,2.04-8.48,2.35-9,6.56-22.83,13.25-37.58,3.85-8.47,8.77-17.78,14.97-26.97.04-.06.08-.12.12-.17,3.55-5.25,7.51-10.46,11.93-15.44.04-.04.07-.08.11-.12,3.38-3.81,7.02-7.48,10.94-10.95.01-.01.03-.03.04-.04,2.47-2.18,5.06-4.28,7.76-6.28.05-.03.09-.07.14-.1,2.04-1.51,4.15-2.95,6.33-4.33h0s0,0,0,0c1.71-1.08,3.46-2.12,5.26-3.12.07-.04.14-.08.21-.12,4.17-2.29,8.56-4.34,13.19-6.08m13.55-57.56c2.83,0,6.32-.36,10.63-1.27-.92,1.45-1.85,2.97-2.79,4.55-.49.82-.97,1.63-1.44,2.45-5.38,3.48-10.32,4.28-14.7,2.39-2.76-1.2-4.43-3.15-4.9-3.76.58-2.65,1.3-5.26,2.19-7.76,1.12,1.26,4.04,3.41,11,3.41Zm-24.76,58.91c-.48.13-.98.27-1.49.41.46-.75,1-1.91.86-3.11-.05-.46-.2-.88-.44-1.27,1.28.16,2.55.34,3.81.55.52.36.52.67.52.77,0,.78-1.22,1.75-1.65,2.02l-.54.34c-.35.09-.71.19-1.08.29Zm-7.48,2.25c.89-1.33,2.13-4.01.19-6.83,1.59.11,3.17.25,4.75.43.55.44.85.95.92,1.56.19,1.55-1.2,3.16-1.22,3.18l-.25.29c-1.36.4-2.83.86-4.39,1.38Zm-7.42,2.68c.56-1.4,1.61-4.72.33-7.46-.45-.97-1.15-1.77-2.09-2.38,2.67,0,5.35.09,8.03.25,3.15,3.53-.09,6.93-.24,7.08l-.45.46c-1.77.61-3.64,1.3-5.58,2.06Zm-10.64,4.67c.9-1.59,2.31-4.77,1.61-8.18-.47-2.31-1.83-4.32-4.04-5.97,2.94-.19,5.94-.31,8.97-.34,1.72.54,2.91,1.48,3.52,2.79,1.43,3.05-.59,7.22-.61,7.26l-.15.31c-2.97,1.2-6.1,2.57-9.3,4.14Zm-10.93-4.66c-1.26-3.37-4.2-5.94-8.75-7.66,4.8-.7,10.09-1.33,15.65-1.73,2.61,1.64,4.18,3.67,4.67,6.06.89,4.32-2.08,8.41-2.11,8.45l-.32.43c-3.58,1.82-7.02,3.78-10.3,5.86,1.14-2.34,2.82-6.97,1.16-11.41Zm-4.72-28.75c5.18,1.61,10.06,3.29,14.52,4.95h0c1.18,1.12,1.78,2.46,1.78,4,0,4.52-5.1,9.34-5.15,9.39l-.06.06c-5.16.39-10.52,1-16.02,1.83,2.15-2.13,6.74-7.31,7.1-13.07.17-2.6-.56-5-2.16-7.15Zm20.4-21.17c2.29,4.08,4.58,7.96,6.87,11.63.56,2.44.22,4.69-1.03,6.67-2.93,4.65-9.97,6.59-11.28,6.91-4.47-1.66-8.93-3.2-13.35-4.6,1.97-.42,4.78-1.24,7.65-2.87,3.07-1.74,5.56-4.03,7.41-6.81,2.04-3.07,3.29-6.75,3.73-10.94Zm19.72,39.99c.47-.39.92-.92,1.06-1.6.06-.3.06-.6-.01-.9,1.27.62,2.45,1.2,3.52,1.74.17.21.23.4.19.56-.09.34-.63.64-.93.76-1.26-.2-2.53-.39-3.84-.55Zm-6.16-.6c.85-.72,1.96-1.89,2.13-3.25.05-.38.02-.74-.08-1.09,1.28.59,2.5,1.16,3.65,1.71.45.51.64.99.55,1.43-.17.82-1.25,1.44-1.66,1.62-1.5-.17-3.03-.3-4.59-.42Zm-10.56-.34c1.21-.77,2.78-2.09,3.35-4,.41-1.36.24-2.8-.49-4.3,2.95,1.24,5.71,2.45,8.25,3.6.47.53.66,1.07.59,1.66-.22,1.74-2.65,3.26-2.67,3.27h-.01c-2.91-.17-5.92-.25-9.02-.23Zm-10.8.4c1.51-1.61,4.69-5.47,4.7-9.34,0-1.21-.31-2.31-.92-3.31,2.55.96,4.95,1.91,7.19,2.83.39.16.78.32,1.17.48,1.12,1.66,1.47,3.22,1.05,4.64-.82,2.75-4.28,4.18-4.31,4.19l-.33.13c-2.78.05-5.63.18-8.55.37Zm15.94-25.82c1.36,2.15,2.73,4.21,4.08,6.2.54,2.33.26,4.3-.83,5.84-1.97,2.78-6.03,3.42-6.69,3.51-.37-.15-.75-.31-1.13-.46-2.47-1.01-4.94-1.98-7.4-2.91,2.66-.82,7.96-2.89,10.53-6.98,1-1.59,1.48-3.34,1.44-5.2Zm22.43,20.61c-.03.73-.27,1.26-.73,1.64-1.01.82-2.78.66-3.32.59-.88-.95-1.75-1.93-2.61-2.93,1.4.3,3.43.48,4.99-.43.57-.34,1.03-.79,1.39-1.35.1.87.2,1.7.29,2.49Zm-17.08-12.58c.27.39.55.78.82,1.17,1.3,1.84,2.6,3.6,3.89,5.27.46,1.04.49,1.93.09,2.72-.85,1.69-3.4,2.4-3.93,2.53-2.46-1.12-5.14-2.29-7.99-3.49,1.69-.43,4.28-1.43,5.84-3.62.92-1.3,1.35-2.84,1.28-4.59Zm5.69,9.62c.23-.45.36-.93.38-1.43.82,1.03,1.63,2.03,2.44,2.99.38.88.41,1.56.09,2.03-.53.78-1.99.92-2.54.9-1.21-.58-2.49-1.18-3.84-1.8,1.13-.43,2.73-1.26,3.46-2.7Zm3.74,4.16c.21-.32.34-.67.38-1.07.83.96,1.66,1.89,2.49,2.78.03.3-.03.53-.17.7-.25.3-.74.4-.97.42-1.06-.53-2.21-1.1-3.45-1.71.64-.18,1.32-.51,1.73-1.12Zm3.46,3.06c.09-.11.19-.25.26-.43.83.87,1.65,1.71,2.47,2.51-.91-.48-1.99-1.04-3.21-1.67.17-.1.34-.24.48-.41Zm3.66-9.08c-.19,1.34-.74,2.29-1.64,2.82-1.94,1.14-4.98.17-5.64-.07-.97-1.17-1.94-2.36-2.89-3.58,1.87.27,5.28.45,7.77-1.24.87-.59,1.54-1.35,2.03-2.28.11,1.51.24,2.96.38,4.34Zm-.56-7.14c-.25,1.91-1.05,3.34-2.4,4.26-2.81,1.91-7.19,1.09-8.13.88-.89-1.17-1.77-2.35-2.64-3.55.79.15,1.89.29,3.14.29.4,0,.82-.01,1.25-.05,3.64-.28,6.6-1.82,8.65-4.48.04.9.08,1.78.13,2.65Zm-.2-4.33c-1.89,3.11-4.79,4.85-8.63,5.16-2.49.2-4.61-.3-5.22-.46-.5-.7-1-1.41-1.49-2.11,1.27.33,3.25.71,5.47.62,3.09-.13,7.13-1.22,9.81-5.47.01.76.03,1.52.06,2.26Zm-.08-4.32c-1.91,4.13-5.21,6.33-9.8,6.52-3.05.13-5.7-.7-6.37-.93-1.59-2.33-3.12-4.67-4.58-6.99,1.67.37,4.83.94,8.33.82,5.8-.2,10.09-2.25,12.54-5.95-.09,2.12-.13,4.3-.12,6.54Zm-3.72,26.4c.02-.06.03-.13.03-.2,1.27.65,2.37,1.22,3.29,1.71-1.23-.27-2.5-.53-3.78-.76.2-.21.38-.46.45-.76Zm2.03-2.5c.91,0,2.09-.17,2.96-.87.14-.11.26-.24.38-.37.32,2.33.61,4.15.81,5.31-1.39-1.27-2.78-2.64-4.15-4.08Zm1.93-32.74c-2.01,4.59-6.27,7.03-12.67,7.26-4.31.15-8.2-.8-9.08-1.03-1.64-2.63-3.19-5.22-4.63-7.71,1.61.31,4.81.78,8.79.62,4.97-.2,12.06-1.46,18.26-6.26-.29,2.28-.52,4.66-.67,7.12Zm.86-8.56c-6.17,5.17-13.44,6.5-18.47,6.7-4.83.19-8.57-.58-9.46-.79-.61-1.07-1.21-2.11-1.78-3.13,1.93.33,6.28.93,11.29.66,3.97-.22,7.58-.93,10.73-2.12,3.31-1.25,6.11-3.05,8.36-5.33-.25,1.3-.47,2.64-.67,4.01Zm-5.31,45.58c1.69.3,3.37.65,5.01,1.05-1.39.26-3.34.66-5.74,1.24.44-.49.82-1.11.81-1.77,0-.15-.02-.33-.09-.52Zm7.43-1.64c-.19-1.17-.42-2.69-.66-4.48.32.23.7.42,1.12.46.15.02.3.01.44,0-.33,1.35-.63,2.7-.9,4.03Zm1.19-5.22c-.26.21-.48.22-.62.2-.58-.06-1.19-.73-1.44-1.08-.13-1.07-.27-2.22-.4-3.43.61.42,1.44.82,2.35.78.4-.02.78-.11,1.14-.29-.37,1.28-.71,2.55-1.03,3.82Zm1.53-5.52c-.51.64-1.05.96-1.67.99-1.1.04-2.13-.87-2.46-1.19-.17-1.71-.32-3.55-.45-5.47.75.73,1.88,1.55,3.27,1.75.93.13,1.84-.04,2.73-.49-.5,1.48-.97,2.95-1.41,4.41Zm1.95-5.96c-1.03.84-2.08,1.2-3.12,1.05-1.83-.25-3.19-1.95-3.52-2.39-.12-2.14-.21-4.38-.25-6.68,0-.08,0-.16,0-.24.92,1.02,2.49,2.36,4.59,2.74,1.56.28,3.13-.01,4.71-.88-.86,2.15-1.66,4.27-2.4,6.38Zm3.68-9.46c-.21.49-.41.98-.61,1.47-1.75,1.31-3.5,1.82-5.18,1.51-2.64-.48-4.41-2.83-4.79-3.38,0-2.46.04-5.06.19-7.74.84.58,2.33,1.48,4.18,2.16,3.25,1.19,6.3,1.16,8.92-.06-.95,2.03-1.85,4.04-2.7,6.04Zm3.44-7.6c-2.64,1.74-5.76,1.97-9.29.69-2.21-.8-3.9-1.98-4.48-2.41.15-2.39.38-4.83.71-7.28.88.61,2.55,1.63,4.77,2.39,2.81.97,7.02,1.66,11.69-.14-1.19,2.26-2.33,4.51-3.4,6.75Zm4.15-8.16c-3.87,1.82-7.93,2.03-12.08.61-2.54-.87-4.35-2.12-4.97-2.58.22-1.55.49-3.09.8-4.62.83.93,2.41,2.4,4.72,3.41,2.08.91,4.33,1.25,6.67,1.02,2.39-.24,4.88-1.08,7.44-2.51-.89,1.56-1.75,3.11-2.58,4.67Zm-38.79-9c4.59.22,9.11-.3,13.43-1.55,5.04-1.46,8.59-3.54,10.39-4.75-.79,2.29-1.47,4.74-2.03,7.34-5.22,6.33-13.48,8.05-19.51,8.38-5.87.32-10.81-.58-11.89-.79-2.45-4.43-4.66-8.63-6.54-12.37,5.4,2.23,10.83,3.49,16.15,3.74Zm-22.19,22.35c1.8-3.38,3.19-7.46,4.13-12.12,1.07-5.3,1.31-10.18,1.36-12.85,1.82,3.59,3.93,7.6,6.26,11.8-.48,8.46-4.08,14.66-10.72,18.43-2.94,1.67-5.86,2.47-7.78,2.85,2.65-1.95,4.92-4.67,6.75-8.11Zm-29.69,28.56c2.5-3.77,5.4-9.44,5.02-15.05-.25-3.7-1.87-6.95-4.82-9.67,6.98,1.5,13.69,3.29,19.96,5.19l.21.23c1.97,2.18,2.88,4.67,2.71,7.39-.44,6.96-7.76,13.33-7.84,13.39l-.02.02c-.29.05-.57.09-.85.13-7.02,1.14-13.35,2.48-18.46,3.69,1.07-1.21,2.59-3.05,4.09-5.33Zm11.03,29.54c1.29-4.91,1.09-9.41-.57-13.04-2.27-4.94-7.2-8.34-14.65-10.12,5.15-1.23,11.57-2.6,18.72-3.75.39-.06.79-.13,1.2-.19,5.31,1.59,8.66,4.17,9.97,7.68,2.13,5.69-1.87,12.01-1.91,12.07l-.09.15c-4.98,3.28-9.59,6.85-13.81,10.69.38-.98.79-2.16,1.14-3.48Zm6.62,8.87c-1.68-2.24-4.53-3.34-8.48-3.29,4.99-4.73,10.21-8.74,15.33-12.1,3.04.68,5.01,1.98,5.85,3.86,1.17,2.6-.08,5.68-.62,6.8-.07.07-.13.15-.2.22-3.64,4.11-7.12,8.55-10.43,13.28.42-2.54.53-6.14-1.45-8.77Zm13.87-6.7c.39-1.53.55-3.45-.25-5.23-.89-1.98-2.78-3.39-5.63-4.2,3.83-2.45,7.58-4.55,11.13-6.34.1-.05.2-.1.3-.15,1.91.37,3.18,1.15,3.79,2.31.89,1.71.14,3.87-.2,4.67-3.15,2.77-6.2,5.76-9.15,8.94Zm10.24-14.07c-.61-1.18-1.72-2.03-3.3-2.54,3.28-1.59,6.48-2.98,9.55-4.2.95.39,1.54.94,1.75,1.64.43,1.39-.61,3.08-1.08,3.76-2.23,1.64-4.42,3.37-6.57,5.2.24-1.13.31-2.57-.36-3.87Zm8.96-5.38c-.23-.75-.72-1.36-1.47-1.84,2.01-.77,3.95-1.47,5.81-2.09.24.16.41.37.51.62.36.93-.23,2.36-.61,3.07-1.5.95-2.97,1.93-4.43,2.96.31-.84.48-1.81.2-2.73Zm5.78-3.66c-.09-.23-.21-.44-.36-.63,1.72-.56,3.36-1.07,4.9-1.51.26.15.48.35.52.6.09.54-.53,1.24-.96,1.63-1.41.77-2.8,1.58-4.18,2.43.25-.78.39-1.72.08-2.52Zm6.04-1.7c-.05-.29-.16-.54-.35-.77,1.1-.31,2.14-.59,3.12-.84.07.05.12.12.15.19.08.23-.06.57-.2.8-.93.45-1.86.92-2.78,1.4.07-.25.1-.51.06-.78Zm3.94-1.2c0-.18-.01-.36-.07-.54-.01-.04-.03-.09-.05-.13,1.23-.3,2.35-.56,3.35-.78-1.08.46-2.16.95-3.22,1.45Zm9.3-5.83c.24-1.15.5-2.3.77-3.44.2.24.46.45.78.57.07.03.16.06.25.07-.73,1.07-1.33,2.01-1.8,2.79Zm3.79-5.58c-.45.61-.87,1.19-1.26,1.74-.23.1-.43.11-.61.04-.41-.16-.69-.71-.81-1.02.35-1.39.73-2.77,1.13-4.14.38.61.96,1.29,1.76,1.62.31.13.64.2.97.2-.42.55-.82,1.07-1.19,1.56Zm2.13-2.75c-.56.24-1.07.26-1.54.07-.99-.4-1.56-1.65-1.73-2.09.45-1.48.92-2.95,1.42-4.4.39.8,1.05,1.75,2.11,2.35.8.45,1.7.63,2.7.54-1.1,1.25-2.08,2.43-2.96,3.53Zm4.05-4.76c-1.29.39-2.4.33-3.3-.18-1.39-.78-1.96-2.43-2.1-2.94.79-2.25,1.63-4.46,2.51-6.63.28.57.71,1.26,1.36,1.93,1.17,1.2,3.26,2.48,6.8,2.33-1.97,1.93-3.72,3.77-5.27,5.49Zm12.54-12.1c-2.23,1.89-4.27,3.73-6.13,5.51-6.85.88-8.49-3.54-8.76-4.49,1.13-2.73,2.31-5.38,3.52-7.93.44.8,1.2,1.96,2.4,3.11,1.71,1.64,4.64,3.51,9.15,3.65-.06.05-.12.1-.18.15Zm1.38-1.15c-3.9.15-7.14-.97-9.63-3.34-1.56-1.48-2.33-3.02-2.58-3.56,1.16-2.42,2.34-4.75,3.52-6.98.48,1,1.41,2.61,2.97,4.24,2.09,2.17,5.72,4.72,11.44,5.15-1.96,1.47-3.87,2.96-5.72,4.49Zm6.99-5.43c-4.89-.09-8.92-1.72-11.96-4.87-1.95-2.02-2.87-4.06-3.12-4.7.98-1.83,1.95-3.58,2.91-5.24.42,1.29,1.32,3.44,3.06,5.57,2.26,2.77,6.39,5.95,13.48,6.16-1.48,1.01-2.94,2.04-4.36,3.08Zm5.84-4.08c-6.11.19-10.87-1.75-14.16-5.76-2.19-2.67-2.99-5.45-3.17-6.17.47-.81.93-1.59,1.39-2.36.95-1.59,1.9-3.13,2.82-4.59.43,1.2,1.43,3.16,3.72,5.17,2.08,1.83,4.82,3.34,8.13,4.48,3.52,1.21,7.7,2,12.47,2.36-3.88,2.19-7.61,4.48-11.19,6.87Z"/>
  <path class="cls-7" d="m364.2,372.1H11.9c-4.5,0-8.2-3.7-8.2-8.2V11.7C3.7,7.2,7.4,3.5,11.9,3.5h352.3c4.5,0,8.2,3.7,8.2,8.2v352.3c0,4.4-3.7,8.1-8.2,8.1h0Zm-344.1-16.4h335.9V19.9H20.1v335.8h0Z"/>
  <g>
    <g class="cls-3">
      <text class="cls-4" transform="translate(281.45 290.49)"><tspan x="0" y="0"> </tspan></text>
    </g>
    <g>
      <text class="cls-2" transform="translate(270.62 106.93) rotate(-173.65)"><tspan x="0" y="0"> </tspan></text>
      <text class="cls-2" transform="translate(267.4 106.57) rotate(-167.29)"><tspan x="0" y="0"> </tspan></text>
    </g>
    <text class="cls-1"><tspan x="0" y="0"> </tspan></text>
  </g>
  <path class="cls-7" d="m208.71,234.71c.08-.18.17-.34.33-.51l.51.93c-.31-.08-.6-.22-.84-.42Z"/>
  <path class="cls-7" d="m211.57,234.19c.16.18.25.34.33.51-.22.18-.51.32-.83.4l.5-.92Z"/>
  <path class="cls-5" d="m315.55,20.06v83.92c-2.89.41-5.16,4.35-5.16,7.52,0,.61.11,1.19.27,1.75-.37-.31-.75-.62-1.1-.94-.38-.34-.77-.78-.89-1.05-.21-1.28-.44-2.56-.67-3.84-.26-1.32-.53-2.63-.86-3.94-.03,1.35,0,2.69.04,4.03.05,1.34.11,2.68.2,4.01v.07s.03.06.03.06c.31.8.74,1.2,1.16,1.66.42.44.86.84,1.32,1.21.43.35.86.68,1.3,1-.16-.05-.32-.09-.47-.14-.79-.25-1.58-.51-2.35-.81-.39-.15-.77-.3-1.14-.47-.33-.14-.71-.35-.88-.48-.61-1.15-1.3-2.26-1.94-3.39-.71-1.15-1.42-2.31-2.21-3.42.43,1.29.95,2.55,1.46,3.8.55,1.23,1.06,2.49,1.66,3.7l.05.1.06.06c.48.44.84.59,1.25.81.4.21.79.39,1.19.56.79.34,1.6.66,2.42.92-.28.15-.56.29-.84.45-.5.28-1.01.56-1.53.88-.26.17-.53.34-.8.59-.13.13-.27.27-.39.46l-.21.38c-1.11,2.02-2.28,4-3.33,6.04,1.49-1.75,2.88-3.58,4.33-5.36l.27-.34s.11-.1.2-.16c.17-.12.4-.24.64-.35.48-.22,1.02-.43,1.55-.64.17-.07.35-.13.52-.19-.37.43-.74.85-1.09,1.29l.04-.04c-.61.68-.69,1.37-.81,1.97-.09.61-.1,1.2-.19,1.69v.07c-.12,1.75-.18,3.51-.13,5.28.5-1.7.9-3.42,1.24-5.14v.07c.17-.63.25-1.2.38-1.73.11-.52.3-1.02.51-1.19l.04-.04c.72-.74,1.41-1.51,2.08-2.29,0,.04-.01.08-.01.12,0,.81.3,1.43.78,1.89,0,.02-.02.03-.03.05-.17.42-.25.86-.25,1.27-.02.83.28,1.53.6,2.14-.04-.35-.04-.69.03-1.02.06-.33.17-.63.31-.89.17-.25.38-.44.61-.58.11-.07.27-.14.41-.17.29.05.58.09.89.09s.61-.04.89-.09c.14.03.29.1.41.17.22.14.43.33.61.58.14.26.26.56.31.89.07.33.06.67.03,1.02.32-.61.62-1.31.6-2.14,0-.41-.07-.85-.25-1.27,0-.02-.02-.03-.03-.05.48-.46.78-1.08.78-1.89,0-.04,0-.08-.01-.12.67.79,1.36,1.56,2.08,2.3l.04.04c.21.17.4.67.51,1.19.13.53.21,1.1.39,1.73v-.07c.33,1.72.73,3.44,1.23,5.14.05-1.77,0-3.53-.11-5.28v-.07c-.1-.49-.12-1.08-.21-1.69-.12-.6-.2-1.29-.81-1.97l.04.04c-.35-.44-.72-.86-1.09-1.29.17.07.36.12.52.19.53.21,1.06.42,1.55.64.24.11.47.23.64.35.08.06.15.12.2.16l.27.34c1.44,1.79,2.83,3.61,4.33,5.36-1.06-2.05-2.22-4.03-3.33-6.04l-.21-.38c-.12-.19-.26-.33-.39-.46-.27-.25-.54-.42-.8-.59-.52-.33-1.03-.6-1.53-.88-.28-.16-.56-.3-.84-.45.82-.26,1.62-.58,2.42-.92.4-.17.8-.35,1.19-.56.41-.22.76-.37,1.25-.81l.06-.06.05-.1c.59-1.21,1.1-2.47,1.66-3.7.51-1.26,1.02-2.51,1.46-3.8-.79,1.11-1.5,2.27-2.21,3.42-.65,1.13-1.33,2.25-1.94,3.39-.17.13-.56.34-.88.48-.36.17-.75.32-1.14.47-.77.3-1.57.55-2.35.81-.16.05-.32.09-.47.14.44-.32.87-.65,1.3-1,.46-.37.9-.77,1.32-1.21.41-.46.84-.86,1.16-1.66l.02-.06v-.07c.09-1.34.15-2.67.2-4.01.04-1.34.07-2.68.04-4.03-.33,1.31-.59,2.62-.86,3.94-.24,1.28-.47,2.56-.67,3.84-.13.27-.52.71-.89,1.05-.35.32-.72.63-1.1.94.16-.56.27-1.14.27-1.75,0-3.17-2.27-7.11-5.16-7.52V19.64l-.99.42Z"/>
</svg>