<?xml version="1.0" encoding="UTF-8"?>
<svg id="Layer_1" data-name="Layer 1" xmlns="http://www.w3.org/2000/svg" viewBox="0 0 376.1 375.6">
  <defs>
    <style>
      .cls-1, .cls-2 {
        font-family: ArialMT, Arial;
        font-size: 12px;
      }

      .cls-2, .cls-3, .cls-4 {
        isolation: isolate;
      }

      .cls-4 {
        font-family: Shlop-Regular, Shlop;
        font-size: 40px;
      }

      .cls-5 {
        fill: #ea5911;
        stroke-width: 0px;
      }
    </style>
  </defs>
  <g>
    <g class="cls-3">
      <text class="cls-4" transform="translate(281.45 290.49)"><tspan x="0" y="0"> </tspan></text>
    </g>
    <g>
      <text class="cls-2" transform="translate(270.62 106.92) rotate(-173.65)"><tspan x="0" y="0"> </tspan></text>
      <text class="cls-2" transform="translate(267.4 106.57) rotate(-167.29)"><tspan x="0" y="0"> </tspan></text>
    </g>
    <text class="cls-1"><tspan x="0" y="0"> </tspan></text>
  </g>
  <g>
    <path class="cls-5" d="m117.08,141.08c-.24-.2-.36.43-.11.73.2.3.94.96.45,1.37-.02.03-.12.04-.15.01l-1.29-1.07c-.25.02-1.17-.06-1.4-.07-1.26-.18-1.67-1.11-2.53-2l-1.78-1.7c-.3-.29-.92-1.31-1.52-1.4-.53-.07-.77,0-1.22-.28-1.13-.66-1.39-2.11-2.3-2.99l-.43-.36c-.19-.16-1.87-1.31-2.08-1.44-.54-.45-.94-1-1.52-1.4-.45-.33-1.18-.11-1.63-.39-.85-.57-1.13-1.48-1.96-2.08-.43-.36-1.43-.64-1.2-1.35.21-.69,1.04-.82,1.43-1.4.3-.53.19-.66.55-1,.27-.27.63-.43,1.02-.47,1.78-.34,2.1,1.96,3.47,2.73l2.81,1.6.81.67c.05.04-.38.73-.3,1.07l.65.54c.08.07.84.47.92.53l.35.29c.66.68,1.43,1.46,2.25,2l1.7.91c.13.06.83.64,1,.83.11.09.67.78.78.87.19.21,1.88,1.69,2.09,1.87.08.07.53.57.58.62.35.29,1.83.37,1.44,1.06-.04.05-.37.61-.39.63-.04.1-.15.29-.11.41.82.77,2.33,1.25,2.33,2.51,0,0-.04.05-.07.08-.07.03-.24.07-.27.05l-2.4-1.99Zm-12.02-11.89l.07-.08c.15-.29,0-.5-.37-.44-.05,0-.19.12-.19.12,0,.05,0,.22.02.25l.46.15Zm2.92,4.6c-.07.03-.28.23-.16.36.18.06.39-.31.16-.36Z"/>
    <path class="cls-5" d="m126.1,134.61l-.99-1.23c-.15-.19-.94-.5-1.08-.12.02.03-.02.37-.04.39.02.03-.15.21-.15.26-.03.25.22.45.14.74-.57.01-.8-.21-1.41-.08-.41.1.12.71-.37.88-.08.07-.8.24-.87.25l-.66.53c-.8.73-.05,1.56.49,2.12.14.74-.77.21-.95.04-.04-.05-.43-.42-.47-.48-.46-.35-1.11-.32-1.54-.69-.09-.06-.5-.45-.54-.51-.24-.3-2.21-2.71-2.46-2.96-.75-.83-1.88-1.5-2.41-2.56-.16-.32-.77-1.85-.85-2.19l-2.23-2.79c-.35-1.11-.97-2.27-2-2.88-.09-.06-.97-.48-1.08-.57-.73-.4-1.03-1.51-1.41-2.1l-.66-.82c-.04-.05-.81-.56-.88-.6-.41-.39-.63-.79-.45-1.34.13-.28.45-.5.74-.59l1.32-.43c.81-.33,1.15-.92,2.07-.72.22.22.65.69.78,1.08l1.47,1.83c.11.14-.23.32-.08.51.26.33,1.83,1.05,1.83,1.22l-.09.79.29.36s.03.2.03.2l.37.46c.15.24-.5.27-.34.63.18.39.55-.21.63-.28.08-.07.42.25.49.33.56.54.58,1.28.85,1.96-.09.16-.39.18-.55.21-.13.01-.92-.47-1.04-.24-.16.36.98.78,1.24.93.33.19.36-.33.69.25-.02-.52.23-.55.72-.44.93,1.05,1.57,2.24,2.5,3.29.04.05.34.26.39.32.2.2,1.13,1.25,1.31,1.46.37.29.68.35,1.23.36.6-.03,1.29-1.13,1.71-1.5.2-.2,1.34-1.12,1.61-1.29,1.12-.62,1.31.29,1.58,1.25.15.42.82.46.97.93.21.6-.75,1.36-.35,2.08.26.55,1.98,1.24.86,1.86,0,0-.07-.03-.12-.04-.05,0-.21-.1-.21-.1Zm-17.03-13.31c-.31-.11-.49.12-.58.33.37.02.61.09.58-.33Zm1.2.61c.05-.04-.01-.13-.07-.08-.05.04.01.13.07.08Zm23.77,4.32c-.22-.27-1.29-.49-1.06.13.02.03.22.45.33.58.08.16.62.94.73,1.08.1,1.08-1.43-1-2.07-.63-.37.21-.43.75-.85.9-.05.04-.77.21-.87.25-.37.16-1.42,1.09-.93,1.69l.77.96s.03.2-.03.25c-.24.6-1.53-.84-1.72-.91-.71-.33-1.07-.27-1.69-.93-.37-.46-2.2-2.63-2.6-3.08-.11-.14-1.22-1.08-1.33-1.22-.22-.22-.92-1.1-1.01-1.26-.08-.16-.58-1.56-.68-1.74,0-.05-.16-.37-.2-.42l-1.82-2.27c-.72-.95-1.01-2.1-1.83-3.02-.46-.57-1.32-.64-1.86-1.15-.79-.76-1-1.98-1.84-2.74-.04-.05-.78-.58-.85-.62-.43-.37-.66-.77-.48-1.32.13-.28.45-.5.74-.59l1.34-.45c.81-.33,1.13-.95,2.07-.72l.53.66c.07.08.39.77.45.85.09.11.95.9,1.01.98.43.42.37,1.14.85,1.51.17.04.95.4,1.14.52.68.35.32,1.18.6,1.81.24.52.91.8,1.2,1.33.04.05.15.64.2.69l.7.87c.04.05.49.5.51.53.97,1.1,1.69,2.33,2.66,3.43.04.05.32.28.34.31.2.2,1.09,1.19,1.26,1.41,1.38,1,1.97-.23,2.94-1.14.22-.22,1.34-1.12,1.61-1.29,1.14-.65,1.28.32,1.61,1.22.13.44.77.46.97.93.19.52-.67,1.35-.45,2.02.17.44,2.19,1.39.96,1.92-.08.02-.27,0-.29-.03l-1.05-1.31Zm-21.77-1.93s0-.05-.02-.03l.02.03Zm.9,3.36l.16-.13-.07-.08-.08.07s-.04.12-.02.15Zm1.15.65c.4,0-.52-.93-.63-.34.02.08.17.27.24.3.02.03.29.03.39.04Zm-.04-1.67l.15.02-.13-.16-.02.15Zm1.71,4.99l-.08.07s-.04.34-.02.42c.28.13.34-.36.1-.49Zm.74.75l.07.08.08-.07-.07-.08-.08.07Zm.52.21s0-.05-.02-.03,0,.05.02.03Zm.77.68l.08-.07c-.02-.25-.36.06-.41.1.03-.02.28-.04.33-.04Zm3.36-.18l.13.16.08-.07-.13-.16-.08.07Zm.74-1.04s-.06.09-.04.12c.04.1.26.38.31.38.66.37.76-.84-.27-.5Zm.41,1.24c.66-.3-.1-.46-.37-.46,0,.17.09.33.22.45.02.03.12.04.15.02Zm.79-.36s-.02-.08-.04-.05.02.08.04.05Zm1.57,2.29l-.23-.62.46.57c.04.05-.02.2-.1.21l-.13-.16Zm.71-10.08l.16-.13-.04-.05-.08.07s-.06.09-.04.12Zm3.45,1.45s.23-.27.34-.36c.11-.14.19.07.34-.19-.13-.21-.49-.55-.77-.46l-.03.25c-.13.06-.35-.21-.42-.25-.14-.07-2.13-.36-2.18-.32l.13.16c-.13.23-.59-.07-.52.42.65.64.36,1.24,1.41,1.03.41-.1.92.25,1.34.27.77.01.17-.23.36-.56Zm-2.3-.8c.09-.16.34-.14.39.04-.03.02-.18.05-.21.08-.05,0-.15-.02-.19-.12Zm4,.07c.04-.39-.56.09-.61.13,0,.05.12.09.19.07.15-.03.33-.09.42-.2Zm.82-.66s-.04-.1-.07-.08c-.05,0-.26.07-.28.09l.07.08s.22,0,.28-.09Z"/>
    <path class="cls-5" d="m139.75,128.52c-.58-1.2-.95-2.52-1.46-3.75-.25-.31-.6-.62-.9-.87-1.17-.53-3.01-1.47-3.82-2.57-.16-.2.07-.64-.17-.84-.01-.03-.3-.25-.31-.29-.36-.31-.39-.1-.67-.33-.01-.03-.17-.23-.25-.31-.03-.06-.28-.49-.31-.55l.06-.03.63.23c.06.51.49.36.46-.08-.03-.33-.91-1.71-1.14-1.99-.21-.33-.02-.68-.01-1.02.03-.2-.28-.22-.27-.38-.01-.03.14-.21.12-.24,0-.08-.13-.4-.19-.45-.45.11-.54.42-1.02.54-.42-.73-.68-1.53-1.15-2.29.22-.74.25-1.02-.45-1.33-.42-.81-.57-1.43-.79-2.33-.07-.35-.08-.73-.24-1.11.09-.15.25-.03.33.05.09.23.4,1.85.68,1.16.15-.37-.21-.86-.31-1.2-.01-.03-.02-.22-.01-.3,0-.16-.66-1.85-.76-1.81.13.13.05.21.04.36.03,1.16-.69.71-.23-.09-.59-.05-.92-1.1-1.11-1.47-.5-.82-1.27-1.02-1.56-2-.12-.48.52-1.21.8-1.44.4-.4,1.1-.73,1.56-.89,1.2-.39,2.16.61,2.69,1.52.37.6,1.44,2.43,1.52,2.62.15.28,1.23,2.82,1.53,3.65.23.55.24,1.19.5,1.73l1.58,5.64.8,1.9c.61,1.45,3.96,2.28,3.85-.06-.06-1.23-.57-2.53-1.11-3.63l-2.12-4.31c-.21-.41-1.02-2.34-1.17-2.77-.32-.85-.64-2.43-1.18-3.26l-1.75-2.72-.47-1.13s0-.19.03-.2c.39-1.34,1.86-1.16,2.95-1.47.11,0,.72-.27.87-.37.24-.14.26-.38.51-.41.57-.09,1.07.84,1.22,1.19.28.57.7,1.3.75,2.04.1,1.32-.02,2.74.56,3.94.17.31.56.98.72,1.44.05.13.36,1.14.42,1.27,0,0,.09.23.11.26.29.41,1.46,2.39,1.7,2.86.25.42.51,1.12.6,1.69l1.82,4.32c.15.35.14,1.15.1,1.59-.09.23-.49,1.27-.63,1.48-.33.75-.82,1.48-.95,2.34-.04.36.07.8.27,1.1.04.1.49.71.53.8.51.77-.78,1.31-.94.93l-.62-1.48c-.08-.19-.74-.41-.87-.17l-.33.67c-.16.33-1.33-.46-1.47.2-.13.78,2.8,3.76,1.56,4.43-.12.09-.54.26-.58.24-.03.01-.31-.1-.37-.15-.05-.02-.15-.09-.17-.12Zm-13.46-24.94c.06-.14.19-.73.03-.92l-.1.04c-.09.15-.04.62-.04.62.01.03.11.26.11.26Zm3.44,2.84l.07-.11s-.19-.64-.3-.9c-.16-.47-.9-1.14-1.27-1.4-.16-.12-.23.44-.08.53.01.03.35.12.37.15.04.02.18.42.19.45,0,0,.26.16.27.19.25.31.33.77.64,1.06,0,0,.09.04.12.02Zm.84,7.32c.16-.07,1.06-.37,1.25-.45.16-.07.78-.48.5-.7-.01-.03-.23-.09-.24-.13-.18-.15,0-.19-.07-.35-.19-.45-.59-.32-.83-.07-.31-.29-.53-.27-.86-.06-.82.5.34.27.42.73.04.29-.2.61-.29.77l.11.26Zm.03-6.24c.06-.03.02-.12-.04-.1-.06.03-.02.12.04.1Zm.09,8.51c0-.11.19-.19.26-.19l.18.42-.29.12-.15-.35Zm.33-5.34s0-.08-.03-.06c-.06.03-.04.09.03.06Zm.36,6c.13.21.17.5.22.7-.17.22-.32.14-.42-.01-.16-.2-.12-.75.2-.69Zm-.12-5.15l.03.06.1-.04-.03-.06-.1.04Zm.19,4.78s.05-.06.06-.03c.03.06-.04.09-.06.03Zm.58.48l.04.1.1-.04-.04-.1-.1.04Zm.34-.45l.16-.07-.03-.06-.1.04s-.05.06-.04.09Zm.61-.71s0-.08-.03-.06,0,.08.03.06Zm.17.69c.46,0,.43-.33.28-.61l-.1.04c-.09.15-.13.32-.21.5l.03.06Zm3.2-12.06c.03.06.12.02.1-.04-.01-.03-.11,0-.1.04Zm.46-.08c.3.18.76-.55-.05-.4-.11,0-.24.06-.22.21l.27.19Zm.15,17.48c.17-.22-.14-.32-.3-.18l.03.06.28.11Zm1.13-13.54s-.12-.1-.17-.12l-.1.04.03.06c.06.05.18.07.23.02Zm3.91,7.66l.1-.04-.14-.78s.04-.17.03-.2c-.09-.49-.31-.82-.42-1.27l-.15-.35c-.06-.05-.46.27-.68.1l-.04.62c-.19,0-.42-.73-.67-.33l-.15-.35c-.1.04-.07,1.36,0,1.44.01.03.29.14.3.18.13.13,0,.72.29.68.17-.22.34-.37.1-.65l.16-.07.19.45c.29-.31.57-.09.82.15.06.05.23.36.25.42Zm-1.62-1.67c-.03-.06.07-.11.1-.04.03.06-.07.11-.1.04Zm.74.49l.06-.03-.02.12-.04-.1Zm.85,2.3c.11-.27-.46-.19-.56-.07,0,0-.24.25-.15.37.21.14.58-.17.71-.3Zm-.39-.94c-.08,0-.35.07-.33.21.24.13.55.04.33-.21Zm.91.72c-.08-1.1-.77-.4-.5-.21.06.05.43.2.5.21Zm.01,1.21s0-.08-.03-.06c-.06.03-.04.09.03.06Z"/>
    <path class="cls-5" d="m151.39,124.51l-.33-3.28c-.05-.38-.31-1.28-.89-1.01-.89.43.4,2.57-.66,2.38-.18-.03-.35-.05-.47-.26l-.28-1.56c-.1-.7-.49-.78-1.01-1.39l-.6-.81c-.15-.17-.22-.23-.46-.15-.28.08-.18.67-.46.76-1.21.3-1.59-2.52-1.66-3.22l-.08-1.68c.2-.92.81-1.44,1.63-1.76.38-.16,1.11-.3,1.51,0,1.02.79,1.24,3.31,2.79,3.37,1.89.05,1.96-1.46,1.75-3.02-.6-.74-1.46-1.16-1.98-1.97-.11-.13-.91-1.53-1.03-1.74-.5-.85-1.53-1.29-2.16-2.04-.67-.81-.58-1.9-1.18-2.68-.53-.75-.87.95-1.14,1.07-.45.2-.65-.42-.7-.7-.12-.98.16-1.76.15-2.74l-.08-1.61c-.01-.24.08-1.33.1-1.58.06-.14.28-.71.45-.9.2-.22,1.17-1.32,1.43-1.57.3-.29.71-.52,1.09-.68l2.19-1.05c.76-.32,1.49-.28,2.28-.04,1.78.62,3.15,2.17,3.83,3.89l.24.55c.33.97.09,1.96.03,2.91-.03.21-.03,1.61-.02,1.79,0,.74-.43,1.21-.83.32-.35-.82-.26-1.74-.47-2.61-.17-.62-.7-.7-1.06-.13,0,0-.06.21-.09.28l-.23,1.13c-.28.78-.92-.27-.97-.62,0-.17-.21-1.57-.26-1.77-.05-.28-.37-1.07-.77-.63-.27.29.24,2.13-.79,1.75-.07-.03-.29-.2-.29-.27l-.09-1.89c-.01-.31-.61-.39-.74-.14-.55.87-.39,2.09-.35,3.03.38,1.28,1.48,2.45,2.6,3.17.76.46,1.65.83,2.14,1.58.08.1.72,1.16.83,1.29.45.64,1.4.81,1.76,1.6.04.07.12.24.12.27.17,1.36.48,2.78.48,4.22,0,.67-.51,1.78-.65,2.55-.21,1.52-.14,2.91-.07,4.52-.09.35-.67.56-.83.14-.14-1.53-.19-2.58-2.07-2.25-.68.42-.74,1.37-.74,2.1,0,.56.04,3.19.07,3.75l-.16.22s-.11-.06-.11-.1c-.19-.27-.65-.46-.7-.81Zm-4.71-22.1s.11.03.11,0c-.05-1.15.79-1.09.87-1.62.08-.56-.38-.72.12-1.16.03,0,.21-.04.21-.08.35-.68-.44-1.1-.94-1.29-.59.17-.17.22-.32.68-.1.18-.55.24-.65.31-.28.12-.55,1.71-.47,1.98,0,.04.19.27.19.27,0,.04.12.27.12.27l.11.21c.18.1.42-.09.57.15,0,.04.05.24.08.28Zm1.39,15.46l.66-.03s.12-.39.15-.57c.06-.25.25-.61.17-.85,0-.04-.19-.24-.22-.27-.19-.31-.15-.27-.46-.15-.04,0-.1,0-.1,0-.11-.1-.27-.55-.41-.54-.11-.03-.53-.01-.56.03-.1,0-.64.63-.42.86.37.37.72-.24.96.24.2.45-.27.29-.26.47,0,.07.05.31.09.38,0,.03.21.06.21.09l.19.34Zm-1.13-18.17s-.04-.03,0-.04c.03,0,.04.03,0,.04Zm.75,16.12c.08.17-.08.42-.27.29-.04-.03-.04-.14,0-.17.03-.07.17-.15.27-.12Zm-.19-13.9l.3-.4-.11-.1c-.1.07-.3.36-.26.4l.08.1Zm.96-4.11c.18.06.55-.27.26-.36-.07.04-.24.22-.27.29v.07Zm.96,8.61c-.36-.16-.72.31-.82.53v.1c.12.24.93-.53.82-.63Zm.25-8.95c.04.07.11.14.18.1v-.1s-.18,0-.18,0Zm.44-.3h.17c.06-.19-.27-.56-.48-.44l.3.44Zm.03,10.44v.21s.08,0,.08,0v-.21s-.08,0-.08,0Zm1.43,2.77s.11.03.11,0c.03-.07.05-.35-.12-.38-.04,0-.07.07-.07.11,0,.03.05.24.08.28Zm.29,1.67c.04.07.11.14.18.1.03-.07-.04-.17-.11-.17l-.07.07Zm.5-1.25c.04-.6-.36-1.77-.5-.15,0,.03,0,.1,0,.1.11.13.32.09.49.05Zm-.37-1.94l-.1.11h.1s0-.11,0-.11Zm.29,2.51l.1-.18h-.21s0,.11,0,.11c0,.04.07.07.11.06Zm.32-2.82c0,.07.11.07.11,0,0-.07-.11-.06-.11,0Zm1.14,4.08l.66-.03c.11-.71-.27-.51-.71-.91-.29-.27.03-.91.25-.75-.22.61.24.65.28-.12,0-.07.08-.46.08-.46,0-.04,0-.21,0-.21-.34-.47-.86-.45-1.33-.67-.04,0-.11,0-.11,0-.07.04-.2.15-.2.19l.05,1.05c.18.03.31-.08.38-.23l.06,1.33c0,.14.22.27.3.37.07.03.26.37.3.44Zm-.89,1.27v.1s.11,0,.11,0v-.1s-.11,0-.11,0Zm1.6-.18c-.36-.12-.8.11-.44.3.4.26.84-.11.44-.3Zm-.28,2.36c.29.13.33-.51.08-.56-.03.04-.09.25-.09.28v.28Zm8.11,7.82l-.03-.66c.03-.11.23-1.1.22-1.24l-.07-1.5c-.28-2.93-1.09-.86-1.49-1.05-.18-.1-.35-.72-.39-.82-.85-2.55-.21-5.35.19-7.93l-.09-1.85c0-.07-.14-.69-.14-.76l-.04-.73.48-7.66c.07-.81-.37-1.1-1.17-.96-.8.11-.49,2.16-1.22,2.3-.9.22-.86-1.26-1.28-1.83-.55-.64-1.58-.1-1.49-1.23,0-.03.06-.21.09-.28l.25-.68c.08-.46-.23-1.08-.25-1.5-.04-.17-.06-.63-.03-.66l.07-.07s.52-.06.66-.03c.53.08,1.11.51,1.7.38.9-.22,1.72-.71,2.62-.89.87-.15,1.8.23,2.64.26.32.02,1.58-.04,1.78-.08l1.28-.44c1.35-.34,1.85,2.02,1.75,2.86l-.31,1.59c-.1.78.17,1.46.1,2.17-.04.74-.83.18-.93-.34l-.28-1.39s-.08-.14-.11-.17c-.4-.26-.37,1-.98.78-.8-.66-1.84-1.11-1.95.37l.15,3.11c0,.1-.07.84-.06.95,0,1.65.71,3.12.89,4.76.1,1.29-.2,2.46-.38,3.77-.17.95.18,1.64.29,2.54,0,.14.03,1.44.07,1.57l.45,1.31c.17.59-2.12,1.15-1.75,3.09.18.87.58,1.83.51,2.78-.36.58-1.12.79-1.7.36-.04-.03-.08-.14-.08-.17Zm-.27-7.31c.26.37,1.15-.05.09-.21h-.1s0,.21,0,.21Zm.14-1.51l.07.07.1-.07-.11-.1-.06.11Zm.28-18.09c.57.15.11-.57,0-.17v.17Zm.56,17.95c-.11-.17-.39-.05-.28.12.11.17.39.02.28-.12Zm.86-17.63c.41-.19.11-.71-.11-.84-.17.15-.12.53-.08.63,0,.04.15.2.18.2Zm.51-1.14c-.03.07-.01.46.03.56.31.69,1.34.25-.03-.56Z"/>
    <path class="cls-5" d="m176.82,123.02s-.04-.65-.05-.91c-.07-.66-.57-.2-.93-.49-.13-.06-.09-.91-.08-.95l.17-.75s.19-.21.23-.24c.04-.03.13-.11.14-.15l.13.21c.02-.1.17-.43.22-.52.07-.16.15-.18.15-.36.01-.07.04-.49.05-.56.03-.28.45-.4.59-.55v-.07c0-.08,0-.72,0-.79,0-.18.18-1,.26-1.2-.28-.2-1.52,2.68-1.55,3.13-.26.05-.71-2.48-.73-2.85-.02-.58.25-.81.29-1.3.06-.74-.06-1.2-.24-1.99l.36-1.64s-.08-.12-.15-.14l-.38-.08c-.15.04-.44.23-.46.29l-.3,1.37c-.12.55-.4-.12-.41-.27-.02-.08-.02-.72-.05-.76-.07-.52-.4-.12-.48.07l-.08.38c-.02.1-.13,1.08-.16,1.22-.35,1.75-1.01,3.43-1.25,5.21-.03.14-.04,1.46-.06,1.6l-.37,1.67c-.12.4-.61.65-.78.12-.14-.32.08-.66-.1-.99-.23-.59-1.04-.16-1.21.31s0,2.4-.82,1.93c-.03-.04-.17-.18-.17-.22l.43-1.95c.15-.68-1.41-1.24-.91-2.21.07-.16.68-1.14.75-1.27.08-.2.24-.95.25-1.13v-2.58s.1-.48.1-.48c.03-.14.23-.7.28-.8l.93-2.09c.07-.16.24-.92.24-1.09l.2-3.04c.13-1.08.99-1.72,1.28-2.73.1-.3.32-1.29.3-1.37l-.19-3.52c-.05-.58.31-1.08.43-1.63.16-.57-.03-1.66.86-1.64l.27.06,1.26.78.38.08c2.55.31,6.65,1.21,7.92,3.93.45,1.07.25,3.42-.13,4.49l-.8,1.87-.06.27c-.09.23-.66,2.18-.71,2.42l-.37,1.67c-.2.24-.43.33-.73.23-1.4-2.1-.74.09-.74.77l-.02.1s-.19.39-.2.42c-.37,1.17.27,2.21.11,3.39-.1.95-.3,1.37-.26,2.16,0,.97.8,1.9.7,2.84-.18,1.79-1.86.95-2.37,1.99l-.49,2.22c-.05.21-.36.82-.49.93-.04.03-.34.25-.4.2-.06-.05-.21-.19-.2-.22l.62-2.84Zm-5.08-13.55c.07.01.08-.05.02-.07-.03,0-.05.06-.02.07Zm.45-.26v.07s.09.02.09.02v-.07s-.09-.02-.09-.02Zm1.97.33c.05.08.26-.05.22-.17-.03,0-.15.04-.19.06l-.02.1Zm2.63-2.32s.27.09.38.08c.6.06,1.04-.99,1.18-1.46l.26-1.2c.02-.1,0-.97.02-1.07.01-.21.22-1.17.3-1.37,0-.65-.82-1.97-1.56-1.2-.37.38-.38,1.06-.52,1.53-.11.33-.42.12-.48-.1.02-.1-.07-.8-.09-.88,0-.18-.27-.24-.34-.08-.29.98-.35,1.9-.47,2.94-.07.49-.34.89-.41,1.38.18.47.87.12,1.01.29l.72,1.13Zm-.9-7.8c.26.13.54.01.84.08l.53-.63.02-.1-.17-.04c.01-.07,0-.32-.03-.36,0-.03-.05-.12-.08-.12-.52-.26-.5.64-.77.87-.06.13-.21-.01-.32.14l-.04.17Zm.17,21.54s.05-.06.01-.07c-.03,0-.05.06-.01.07Zm.95-7.42c.46-.11.69-.38,1.17-.42.03-.14.24-.77.31-.9.08-.2.77-.73.49-.93-.21-.19-.36-.97-.05-1.09.03,0,.19-.03.19-.06.16-.22.17-.79-.22-.8.31-.58.55.44.59.42l.14-.65c.05-.24-1.42-.56-1.33,0l.17.04-.02.1c-.05.06-.24.27-.25.34-.27.26-.56-.23-.71-.37-.12-.1-.22.17-.3.04-.05-.08-.07-.52-.29-.46-.11.33-1.6,1.73-.38,1.74-.15.36-.12,1.52.49,1.36,0,.32-.44.69-.23,1.03,0,0,.16.07.16.11.03.04.03.36.02.4,0,.03.04.12.04.12Zm-.86,2.61c.07.02.09-.09.02-.1-.03,0-.06.1-.02.1Zm.64-.15l.36-.82c.18-.32.59.09.83.11.21-.31-.07-.52-.11-.81-.09-1.7-.13-.39-.6-.71.04.62-.71.63-.63,1.4.04.3-.17.61-.17.75.05.08.24.2.31.07Zm.05-2.03l.04-.17-.21-.05-.02.1s.11.13.19.11Zm.08,2.24l.06-.27s-.13.11-.14.15.05.12.08.12Zm.08-5.25s-.02-.08.02-.07.02.08-.02.07Zm.05-1.06l.1.02v.07s-.12-.02-.12-.02v-.07Zm.5-10.1c-.1-.06-.48-.1-.41.09.05.26.5.15.41-.09Zm.19-.06c.31-.25.76-.19.98-.54.47-.68-.31-.53-.49-.39l-.25.34c-.08.02-.25-.02-.24-.05l.17-.75s-.09-.06-.14-.03c-.38.1-.37.89-.24,1.09.03.04.18.33.21.33Zm-.05,17.33l.07.02.08-.38c-.09-.09-.23.06-.21.13,0,.03.06.23.06.23Zm.07-4.71c.02-.07.12-.05.1.02-.01.07-.12.05-.1-.02Zm.41,1.24c-.02.07.05.08.07.02,0-.03-.06-.05-.07-.02Zm1.86-13.82c-.08-.12-.57-.16-.38.1.27.42.75.34.38-.1Zm-.02,8.56l.05.12.25-.16-.09-.09-.21.13Zm.48-3.66l-.05.21.1.02.05-.21-.1-.02Z"/>
    <path class="cls-5" d="m187.43,124.22c.17-.54.1-1.16.25-1.74.05-.13.31-1.01.39-1.24.14-.47.5-1.5-.29-1.61-.07-.02-.28.15-.3.19l-.56.69c-.96,1.13-1.01-2.07-1.56-1.42-.22.48-.21.93-.44,1.37l-.72.32c-.52.29-.17,1.24-.54,1.71-.01.03-.27.12-.36.16-.54.13-.91.03-1.22.55l-.72,1.41c-.53.4-.86-.1-.78-.6l.14-.96s-.11-.3-.16-.36c-.03-.01-.07-.02-.07-.02l-1.13.51c-.13.06-.24-.24-.25-.32l.26-.69c.03-.07.28-.53.3-.6.1-.26,1.01-2.35,1.11-2.61.09-.23.4-.86.46-.91l3.08-4.67c.21-.37.18-.87.37-1.28.01-.03.19-.3.26-.39l.83-1.18,4.92-9.21c.2-.33.54-.73.86-.98.54-.43,1.31.8,1.75,1l1.15.44c.63-.1.95-.13,1.54.17.27.37.07,1.19-.11,1.57-.06.16-.46,1.02-.53,1.19-.18.27-.49-.38-.63.28-.01.03.05.17.04.2,0,.08-.05.32-.07.38l.2.07c-.01.33-.25.36-.52.29-.06.05-.18.38-.17.46-.01.03.11.19.1.23s-.04.1-.04.1h-.49s-.03.07-.04.1c.02.05.08.29.06.32l-.46,1.21c-.09.23.29,1.12.57,1.15.21-.26-.45-2.27.11-2.17.16.36.39.64.56,1-.05.13-.23.7-.23.81-.01.03-.03.36-.04.4-.03.18-.11,0-.26.2-.3.3-.12,1.19.05,1.44-.11.97-.25,2.53-.58,3.6-.02.14-.45,1.48-.5,1.61-.29,1.05-.12,2.2-.44,3.24-.05.13-.39,1.24-.41,1.38-.02.07-.13.85-.2,1.01l-.1,1.16-.14.36s.04.39.03.42c-.02.74-.55,5.29-2.23,3.98-.04-.09-.08-.29-.06-.32l.44-1.15c.17-.46-.42-.27-.55-.13-.23.21-.85,1.55-1.09.71-.02-.05-.04-.2-.04-.2.05-.13.06-.84.07-.98.01-.03-.04-.28-.19-.3-.03-.01-.1.07-.1.07l-.7,1.83c-.11.29-.65.24-.7-.04-.21-1.13.5-2.21.81-3.21Zm-5.29-2.72c-.02-.34.19-1.39.57-1.5.03.01.1.04.1.04-.01.03-.07.27-.03.29.05.17.74.81.88.63,0,0,.21-.37.26-.5l.02-.07-.16-.06c.12-.52.14-.28.4-.75.02-.07.15-.5.21-.56,0,0,.32-.14.36-.16.94-.5.99.34,1.33.13.04-.1.26-.5.33-.58.28-.34.58.33.72.46.14.02.59-.86.66-.95.68-.42.94.88,1.41.53.19-.11-.2-.75-.33-.72-.47.05-.38,0-.82-.2-.37-.21-.45.2-.62.06-.29-.33-.41-2.37-.9-2.36-.08,0-.41.1-.56.09-.35-.06-.31-.27-.68-.07-.17,1.13-1.05.69-1.46,1.77-.52.1-.52.96-.8,1.31-.15-.09-.32-.16-.5-.08-.59.19-.29.75-.04,1.18.1.34-.46.12-.52.29l-.34.88c-.02.07.19.3.19.3.03.01-.05.32-.03.36,0,.19.15.39.32.24Zm.06-1.55l.03-.07s0,.08-.03.07Zm5.35-4.22l1.21.46.43-.06s.19-.49.26-.69c.16-.43.66-1.92.74-2.15.08-.2.16-.72.16-.72l-.12-.27c-.09.04-1.36,1.8-1.02.32.02-.14.25-.84.29-.97,0-.22-.25-.24-.36-.14-.42.33-.57.61-.86,1.17-.11.18-.41.97-.44,1.15-.02.07-.01.52-.04.59-.07.38-.39.15-.46-.06-.31.33-.18.87.03,1.21.02.05.13.16.16.17Zm.17,8.53s.06-.05.02-.07c-.03-.01-.06.05-.02.07Zm.34-5.34c.69-.15.14-1.26-.06-.14-.01.03.03.12.06.14Zm.65,4.89c.02-.14-.19-.19-.19-.3-.02-.04.03-.29,0-.3-.05-.06-.28-.14-.36-.14l-.04.1c0,.11-.04.4-.04.4.04.2.58.74.62.24Zm-.06.65l.12-.03c0-.08-.08-.18-.16-.17l-.04.1s.04.09.07.1Zm1.08-13.97s.12-.22.1-.26c0-.19-.35-.47-.46-.66-.28-.44-.96-.03-.68.23.23.28.22.12.38.37.13.16.34.69.66.33Zm-1.06.12l-.04.1.1.04.04-.1-.1-.04Zm1.1,11.39l.1.04c-.1-.52.05-2.19.61-2.39.27-.12.16.66.48.6.11-.18.32-.74.05-.92-.08-.07-.31-.16-.36-.14-.08,0-.24.24-.24.32-.45.01-.31-1.24.07-1.17.27.07.54.35.65.66.26-.09,0-.08.26-.2.45-.2.34.28.74-.36.25-.35-.59-.11-.69-.26-.03-.01-.21-.42-.24-.46-.33-.42-.6-.49-1.04-.21-.07-.4-.48-.6-.85-.62-.12.11.25,1.52.19,1.87-.99-.15-.73.84-.53,1.41.14.43.05.77.38,1.16,0,0,.2.15.22.2.02.04.2.45.19.48Zm-.63-13.42c.07.02.1-.07.04-.1-.03-.01-.07.09-.04.1Zm.39,10.89l.28.63-.06.16c-.22,0-.38-.29-.49-.38-.29-.41.23-.51.27-.42Zm2.42-9.53l.04-.1c.05-.62.56-.8.52-.89-.05-.06-.49-.3-.55-.32-.1-.04-.64-.09-.66-.14,0,0,0-.22-.02-.23-.02-.04-.3-.19-.33-.2-.03-.01-.11-.12-.13-.16l-.46.12c.05-.32-.11-.79-.49-.78-.4-.04.15.5.13.65.06.43-.71.1-.62.36.03.12.11.49.33.42.28-.64,1-.37,1.28.08l.22.5c.17.25.33.31.52.5.08.07.11.19.22.2Zm-1.48.15c.36.33.8-.14.24-.62l-.35-.36c-.12-.08-.32-.35-.46-.17-.18.27.22.61.34.77-.01.03.21.34.23.39Zm.42-3.77c-.03-.12-.32-.72-.35-.85-.04-.09-.52-.61-.68-.37.05.36.52.31.45.99-.01.03-.02.14,0,.19.04.28.61.27.59.04Zm-.5,15.69c.24-.43.49-.6.62-1.15l-.16-.06c-.14.28-.45.5-.68.12-.16.31-.05.62.05.95.02.04.06.14.17.14Zm-.22,3.14c.21.23.35-.62.36-.65-.23-.28-.45.39-.39.53-.01.03.03.12.03.12Zm.35-8.59c.13-.06.44-.17.5.08.57-.31-.02-1.43-.55-1.52-.28.34.58.63.12,1.25l-.07.2Zm-.09,2.1s.06-.05.03-.07c-.03-.01-.06.05-.03.07Zm1.56-10.41c.05.06.48.11.42-.03l-.36-.73c-.03-.12.29-.26.27-.42-.04-.09-.77-1.61-.35-1.44.06.25.31.46.52.2.27-.31-.03-.91.06-.95.31.27.65.36.82.8.33-.66-.16-1.07-.35-1.74.27.07.47.33.75.4.22-.29-.21-.83-.06-.92l.26.1.27-.72c.11-.29-.4-.34-.49-.3-.06.05-.18.38-.17.46l-.36-.14c.28.55-.17.65-.49.3-.2.22.12.57.23.69l-.69-.26-.17.46-.2-.07c.03-.18.13-1.04-.23-.98-.1-.04-.16.02-.16.13-.01.03.01.27,0,.3-.09.23-.28-.14-.36-.14-.26.58-.08,1.09-.7,1.34.22.61.73,1.33,1.15.44l.06.14-.22.59c-.11.29.24.35.25.62.03.12-.1.86-.24.92-.03-.01-.22,0-.22,0-.06.05-.19.3-.04.4.09-.04.46.06.56.1.07.02.2.45.22.5Zm-1.05,13.9c-.02-.16-.18-.22-.26-.1,0,.11.16.17.26.1Zm-.05-7.36c.59.52,1.02-.81,1.35-1.1-.07-.21-.21-.64-.41-.79-1.26-.93-.36.76-.41.78-.04.02-.28.15-.36.16,0,0-.06-.32-.19-.3-.09.15-.18.68-.13.85.04.09.15.39.15.39Zm.04-7.7l.02-.07s-.06.05-.02.07Zm.15,3.24s-.02.25,0,.3c-.01.03.08.07.1.04l.14-.36c.03-.07-.08-.18-.16-.17l-.07.2Zm.79,4.83c-.07.38-.52.18-.38-.07-.07-.02-.25-.02-.24.13.1.71,1,.42.62-.06Zm-.42,5.04c.1-.07-.06-.32-.06-.32l-.04.1.1.23Zm.54-7.73c.14.13,1.13.28,1.02-.02-.18-.41-.66-.74-.91-1.06-.03-.01-.17-.25-.2-.26-.03-.01-.25.06-.26.09-.11.18-.07.57.03.72s.32.53.32.53Zm-.29,8.65s.09.07.1.04c.03-.07-.07-.1-.1-.04Zm2-9.5c.02-.07-.11-.6-.13-.65-.04-.69.29-.75.01-1.42-.05-.17-.33-.61-.36-.62l-.26-.1c-.27.42.23.76.06.92-.37-.4-.62.14-.72.32-.12.11-.36.16-.36.35.04.58.73.84,1.07,1.23.21.23.73.65.69-.04Zm-.91-1.06,2.42-4.21l.1.04-.14.36s-.07-.1-.06-.14l.1-.26Z"/>
    <path class="cls-5" d="m192.97,131.29l.64-1.67c.14-.36.47-1.51-.18-1.57-.21-.04-.49.49-.69.22-.3-.38-.16-1.04-.09-1.42.33-1.64.92-2.87,1.76-4.27.17-.24,1.41-2.19,1.54-2.44.59-1.05.64-2.23,1.18-3.26l3.49-6.72c.34-.69.11-1.16-.71-1.36-.78-.22-1.21,1.59-2.01,1.62-.84.05-.37-1.76-.46-2.2-.16-.55-1.04-.7-1-1.29,0-.71.85-.95.99-1.6.05-.13.24-1.3.25-1.44.04-.1.18-.27.32-.25.08,0,.54.17.62.24.07.03.67.6.72.65,1.12.69,2.2.32,3.41.6.85.22,1.55.94,2.31,1.3.28.15,1.46.6,1.67.64.68.19,1.18-.03,1.74.26.88.53.46,2.5.05,3.17-.05.13-.77,1.13-.87,1.28-.51.74-.46,1.47-.81,2.09-.41.67-.83-.17-.74-.7l.31-1.38s.02-.14,0-.19c-.29-.41-.78.75-1.24.31-.43-.92-1.07-1.69-1.9-.51l-1.18,3.07s-.34.58-.36.65l-.5,1.31c-.05.24-.34,2.34-.4,2.58-.04.1-.19.79-.27.98-.09.23-.16.61-.41.78-.12.11-.17-.52-.41-.5l-.24.62c-.09.34.2.15.32.54.02.05-.07.27-.14.36l-.96,1.43c-.1.15-.51,1.23-.58,1.5-.02.07-.14.85-.18.94-.05.13-.55,1.33-.57,1.47-.11.48.07,1.19-.32,1.6-.36.46-1.24.2-1.71.54-.38.3-1.14,1.7-1.27,1.73-.46.12-.69-.34-.92.54-.04.1,0,.27.09.34.26.1.12-.7.43-.62.06.14.38.48.46.66-.43.06-.58.23-.64.58-.02.25.52.12.46.36-.2.9-.93.84-1.62.5,0,0-.11-.12-.13-.16-.46-.74.43-1.3.74-1.93Zm2.57-6.66l-.04.1.1.04-.06-.14Zm3.61-8.88c.06.02.1-.07.04-.1-.03-.01-.07.09-.04.1Zm.68,3.49c.3.49.29-1.05-.1-.52,0,0-.05.13-.06.16.02.05.11.3.16.36Zm2.41,15.74l.92-2.38c.19-.49-.25-.62-.49-.3l-.71.96c-.12.22-.76.23-.61-.16l.57-1.47c.09-.23-.56-1.57-.4-2.18.31-.89.87-1.58,1.28-2.43.06-.16.6-1.46.71-1.64l.9-1.56c.39-.71-.19-1.16-.04-1.74.32-1.23,1.28-1.76,1.93-2.86.54-1.29.86-2.71,1.42-3.99.31-.71.72-1.19.58-1.99l-.18-.89c-.12-.76.85-1.32,1.17-1.95.27-.5.27-2.64,1.44-2.18l1.03.73c.46.25.56.1,1.12.21.32.05.89.42,1.04.7,1.11,2.19-.87,2.25-1.22,3.95l-.8,3.93-.28.72c-.06.16-.9-.39-1.27.19-.01.03-.1.26-.1.26-.04.1-.18.94-.21,1.04l-.84,2.19c-.03.06-.32.63-.34.69l-.16.42-.46,2.45-.26.69c-.11.18-.88,1.5-.94,1.66l-.74,1.93c-.03.07-.35.62-.38.68l-.23.59c-.14.55.32,1.32-.44,1.44-.13-.05-.71-.2-.82-.2-.21-.04-.35-.06-.46.12-.24.43-.69,3.26-1.61,2.91-.03-.01-.14-.13-.16-.17-.02-.05.05-.32.06-.35Zm-.72-20.12l-.1.26.1.04.1-.26-.1-.04Zm1.18-5.7l.98.38c.36-.05,1.06-1.77-1.17-.67-.03-.01-.07.09-.04.1.02.04.19.19.22.2Zm1.91-.76c.42-.4-.31-.65-.33-.13-.02.14.22.2.33.13Zm.74,1.49s.17.25.2.26c.48.41,1.05-.49,1.51-.02l.06-.16c-.33-.31-1.04-.14-1.37-.04-.2.04-.16-.36-.02-.42l.79-.3c.35-.13-.04-.77-.06-.81l-.86.08s-.12.03-.12.03l-.28.72c-.33-.02-.06.54,0,.6l.16.06Zm.04,14.01c.07.03.1-.07.04-.1-.07-.02-.1.07-.04.1Zm.36-15.05l.1.04-.03.06-.1-.04.03-.07Zm.12,15.35l.2.08.04-.1-.1-.04s-.12.03-.14.06Zm2.05-4.72l.02-.06s-.06.05-.02.06Zm3.12-8.1c-.31-.08-.66-.14-.95.04-.47.34-.23.59.02,1.02.26.4,2.26-.7.94-1.06Zm-.18,1.43s.18.03.22.01l.04-.1c-.05-.06-.18-.03-.23.02l-.03.07Z"/>
    <path class="cls-5" d="m210.67,138.97c.32-.75.65-1.08.78-1.74.12-.71-.71-.25-.98-.42-.32-.21-.17-1.61-1.08-1.11-.13.08-.78.63-.9.75-.61.44-1.01.02-.83-.66.04-.26.6-2.23.67-2.48.12-.38.52-1.79-.19-1.91-.11-.03-.42.07-.47.15-.09.15-.59.79-.66.91-.17.14-.37.06-.53-.09.11-1.8,1.25-3.77,2.3-5.14l1.83-1.95c1.21-1.43.72-3.53,2.04-4.93l2.81-3.02c.39-.42.35-.73.61-1.27.43-.93,1.05-1.32,1.86-2.05,1.51-1.32,3.58-1.24,5.43-.76,1.23.29,2.14,1.58,2.85,2.49,1.55,1.99,2.29,4.46.92,6.74-2.27,3.74-5.22,6.97-7.61,10.63-.7.96-1.83,1.49-2.54,2.4-.14.16-1.1,1.58-1.23,1.79-.04.06-.4.49-.54.65-.04.06-.35.36-.39.41-.23.23-1.43,1.45-1.4.31-.02-.43.37-1.42-.46-1.04-.03-.02-.22.15-.24.18-.13.21-.83,1.17-1,1.36-.3.47-.6.86-1.13.4l-.03-.15c0-.13.06-.42.1-.48Zm-.92-6.41s.04.07.09.06c.34-.07,1.01-.14,1.04-.58-.03-.02-.04-.32-.03-.35.05-.14.23-.23.33-.33.29-.32.44-.76.43-1.18-.01-.05-.1-.36-.08-.39.08-.2.81-.35.66-.7-.18-.37,0-.79-.08-1.05-.04-.07-.33-.26-.41-.26.02-.16.2-.37.36-.23l.25-.38s.37-.06.42-.07c.1-.1,1.07-1.15,1.1-1.2-.04-.4-.59-.05-.55-.56.04-.26.44-.17.51-.47.21-.65.16-.77.76-1.18l.06-.09-.32-.54s-.11-.28-.14-.3c-.47-.3-.95.39-1.13.73.26.17.57.15.76.36-.17.27-.01.86-.31,1.01-.02.03-.24-.07-.29-.06-.15.03-.23,1.14-.28,1.15,0,0-.45-.08-.53-.01-.38.21-.27.49-.6.74-.46.33-.06.87-.27.95-.12.05-.31-.03-.38-.12-.71-.91-.74.77-.51.8.01.3-.73-.09-.92.07-.42.27.74.85-.22,1.06l-.57.88s-.05.14-.04.19c.24.73.65.29.71.45-.09.15-.24.31-.18.47l.09.06.41-.32-.36.56c-.15.24.33.33.32.54.01.05-.07.24-.06.29Zm.18.24l-.04.06.09.06.04-.06-.09-.06Zm.71-2.33c.14.17-.07.5-.16.64-.1.1-.35.36-.35.36l-.09-.06s.13-.33.21-.45c.08-.2.23-.35.4-.49Zm-.42,2.6c.01.17.42-.07.21-.2,0,0-.1.02-.12.05-.02.03-.09.15-.09.15Zm.84-.46l.09.06.04-.06c.02-.16,0-.46-.03-.48l-.09-.06-.04.06c-.02.16,0,.46.03.48Zm.19-4.45c-.06-.04,0-.13.06-.09s0,.13-.06.09Zm.44.87c.07.09-.02.23-.15.24-.03-.02-.05-.12-.03-.15,0-.08.12-.13.18-.09Zm-.09,2.6l-.06.09.06.04.06-.09-.06-.04Zm.05-5.33c.09-.07.18-.34,0-.33l-.06.09s.04.19.05.24Zm2.9,6.43l3.14-4.89c1.91-1.48,2.51-3.71,3.66-5.72.27-.49,2.64-2.63,1.93-3.34-.7-.66-1.63,1.37-2.08.79-.17-.19.46-1.95-.54-1.55-.52.17-.89.93-1.08,1.3-.08.12-.46,1.12-.54,1.23l-.91,1.41c-.06.09-.54.65-.6.74l-.25.38-1.24,2.78c-.13.33-.73,1.07-.93,1.32l-1.98,2.06c-.24.31-.44.55-.51.92l-.2,1.87s.1.36.08.39c.21.64,1.67.9,2.04.31Zm-2.03-4.29l.15.09.06-.09c.06-.09.19-.42.21-.53-.03-.02-.39-.29-.39-.04-.05.14-.03.56-.03.56Zm.42,5.96c.15-.11-.04-.32-.12-.33l-.06.09c-.05.14.04.19.18.24Zm1.42-9.36c.19-.17.13-.46.07-.62-.25-.12-.38.13-.33.33.01.05.16.27.27.3Zm.25-4.08c.17-.14.1-.35-.08-.39l-.04.06s.01.3.12.33Zm.83,2.4c-.09-.06-.24-.28-.03-.35l.66-.12c.12-.05-.3-.9-.14-1.21-.75-.32-.25.38-.68.35-.11-.03-.11-.28-.24-.28-.42-.06-.16.64.17.77-.09.07-.29.39-.3.47-.13.33.33.46.56.36Zm-.41-3.05c.38.45,1.16-.13,1.33.19.05-.14.11-.3.3-.27,1.09.12.24-.31.6-.61.13-.08.2.08.24-.18.03-.11,0-.58-.02-.68.13.12.28.22.47.18.89-.22.32-.37.42-.85,0,0,.12-.05.18-.09l.84-.46c.29-.19.9.41.54-.65-.01-.05-.09-.18-.12-.2-.06-.04-.71.71-.99.7-.91,0-.53-.21-1.14-.48-.29.06.08.39.08.39.07.34-.63-.11-.9.17-.02.03-.1.35-.12.38-.2.37-.51,1.05-.87,1.36-.13.08-.46.33-.48.36-.08.12-.34.66-.36.76Zm1.39,1.01c.03-.23-.04-.07-.12-.2-.03-.02-.11-.28-.14-.3-.19-.29-.52.04-.39.29.09.31.35.3.65.21Zm.11-1.92s-.01-.05.02-.03c.03.02.01.05-.02.03Zm.43,1.6l.21-.32c-.09-.18-.3.02-.33.12,0,.08.04.19.12.2Zm9.86,25.74c.1-.23.31-.68.13-.92-.22-.43-.92.33-1.22.34-.11-.28-.12-.53-.05-.82l.45-1.75c.15-.69-.24-1.44.15-2.11l.42-.65,1.05-1.12c.67-.78-.18-1.28-.88-.77-.43.6-1,1.56-1.88,1.58-.3.02-.19-.41-.12-.53.78-1.41,1.99-2.59,2.8-3.98.13-.21.59-1.24.69-1.47.05-.14.37-.97.43-1.18.17-.52.3-1.51-.55-1.22-.38.13-.59.53-.75.85-.06.09-.58,1.17-.61,1.27-.28.57-.83.97-1.11,1.53-.06.09-.52,1.2-.58,1.29-.31.55-.74.57-1.22,1-.07.04-.31.42-.36.56-.46,1.04-.75,2.27-1.46,3.18-.28.36-.84.34-1.11.62-.09.15-.59.79-.68.93-.52.29-.23-1.06-.23-1.06-.14-.88-.19-1.33-.99-1.76-.03-.02-.31-.03-.35.03-.45.5-.42,1.23-.97,1.71-1.19.94-.56-1.19-.28-1.64l1.98-3.09,1.5-1.49c.69-.76.88-1.89,1.51-2.69.46-.66,1.41-.84,1.93-1.46.75-.97.78-1.66,1.21-2.8l.3-.47c.87-.9,1.67-1.38,2.19-2.51l.28-1.15c.27-1.07,1.05-1.24,1.74-2,1.11-1.28.93-3.14,3.04-2.87.63.11,1.23.54,1.69.87,1.6,1.19-.15,1.98-.65,3.28-.07.17-.12.51-.1.68-.05,1.18.17,2.65-.42,3.77l-1.15,2.18c-.24.51-.15,1.15-.4,1.66-.3.6-1.48,1.46-.98,2.24.36.6,1.02-.3,1.17-.46.48-.48.76-.67,1.04-1.24.04-.06.22-.73.28-.82.77-1.92,1.7-2.78,2.92-4.36l.57-.88c.36-.69.24-1.67.79-2.28.34-.4.98-.49,1.46-.4,2.44.48,3.51,2.17,1.82,4.16-.59.66-1.12.9-1.55,1.71-.65,1.21-.44,2.63-1.37,3.69-.06.09-.54.32-.65.37-.08,0-.89.22-.96.26-1.42.46-1.86,2.97-2.47,3.99-.08.12-.58.84-.62.97l-.22,1.06c-.27,1.07-1.53,1.22-2.13,2.09-.82,1.22-1.42,2.54-2.25,3.71-.29.19-1,.4-1.22.67-.44.55-.57,1.21-1.03,1.79-.37.26-.96-.12-.88-.57.15-.24.78-1.29.9-1.54Zm-8.57-27.61l.18.11c.07-.04.16-.19.06-.29-.03-.02-.13,0-.15.03l-.09.15Zm2.37-2.47c.16-.06.03-.69-.12-.66-.05.01-.12.13-.09.15-.03.11,0,.5.21.51Zm1.06,25c-.04.06.05.12.09.06s-.05-.12-.09-.06Zm.5-2.14c.5.45,1.05-.28,1.25-.78.13-.21-.03-.48-.26.08-.08.2-.22.15-.39.29-.06-.95-.65-.21-.63.26.01.05.03.15.03.15Zm1.67-19.72l.03.15.06-.09-.09-.06Zm4.29,23.66c1.02-.1,1.72-1.85,2.38-1.84l-.36.56.09.06s.34-.4.5-.59c.24-.31.09-.73.37-1.09.08-.12.53-.7.61-.82.52-.04.5-.84.66-1.16l.45-.71c.1-.23-.59-1.29.19-1.21l.47-.74s-.01-.17-.05-.24c-.07-.21-1.66.52-.99.82-.05.14-.21.45-.45.5-.18-.24.37-.39-.06-.95l-.06-.04c-.28.82-.69-.48-.7-.66-.45.5-.43-1.02-.85-.75-.5.26.2.46.17.77-.04.26-.52.16-.63.26-.02.03-.14.41-.16.44-.18.34-.03-.02-.3.27-.48.48-.87,1.1-1.2,1.68l.38.45c.12.2-.04.39.06.62.01.05.11.15.11.15l-.51.8c.41.47-.2.58-.54,1.03,0,0-.04.26-.06.29,0,.08-.16.44-.21.53.04.07.21.05.29.06-.07.17-.72.28.05.57.08-.2.2-.37.48-.36.65.09-.53.7-.42.98.06.16.12.2.27.3Zm.61-5.3c-.06-.04,0-.13.06-.09.03.02-.03.11-.06.09Zm.4-10.93c.06.04.12-.05.06-.09-.06-.04-.12.05-.06.09Zm.3,8.22l-.11.18.14-.03-.03-.15Zm.43-.8l.06.04.15-.24s-.13.08-.15.11l-.06.09Zm.79-8.23c.07.09.22.18.29.06.73-.49.15-1.65-.14-.42,0,.08-.11.3-.15.36Zm.88,13.08s.12-.05.14-.03l-.15.24-.09-.06.09-.15Zm.25-14.47l-.15.24s.04.07.06.04c.05-.01.22-.15.24-.18l-.15-.09Zm.23,10.79s.07-.04.04-.06c-.03-.02-.07.04-.04.06Zm.34,4.33s.05-.01.02-.03c-.03-.02-.05.01-.02.03Z"/>
  </g>
  <path class="cls-5" d="m208.71,234.71c.08-.18.17-.34.33-.51l.51.93c-.31-.08-.6-.22-.84-.42Z"/>
  <path class="cls-5" d="m211.57,234.19c.16.18.25.34.33.51-.22.18-.51.32-.83.4l.5-.92Z"/>
</svg>