<?xml version="1.0" encoding="UTF-8"?>
<svg id="Layer_1" data-name="Layer 1" xmlns="http://www.w3.org/2000/svg" viewBox="0 0 376.1 375.6">
  <defs>
    <style>
      .cls-1, .cls-2 {
        font-family: ArialMT, Arial;
        font-size: 12px;
      }

      .cls-2, .cls-3, .cls-4 {
        isolation: isolate;
      }

      .cls-4 {
        font-family: Shlop-Regular, Shlop;
        font-size: 40px;
      }

      .cls-5 {
        fill: #353535;
      }

      .cls-5, .cls-6, .cls-7 {
        stroke-width: 0px;
      }

      .cls-6 {
        fill: #fff;
      }

      .cls-7 {
        fill: #ea5911;
      }
    </style>
  </defs>
  <rect class="cls-6" y="-.2" width="376.1" height="376.1"/>
  <path class="cls-6" d="m272.02,189.07c1.08-5.02,4.56-11.35-1.17-14.39-1.7-.9-3.8-1.3-5.6-2.1-2.6-1.2-5.1-2.7-7.4-4.4-2-1.5-4-2.9-6.6-2.1-.09.09-.23.33-.17.44-.01,0-.02,0-.03,0-.78-.91-1.74-1.56-2.83-1.91.14-.81-.03-1.62-.78-2.33-.42-.32-.86-.6-1.33-.84-2.06-2.11-5.28-3.25-8.18-3.34-2.68-1.59-6.08-1.88-9.09-2.32-.39-.06-.75-.14-1.13-.21-3.59-3.54-2.81-9.23-6.27-12.79-2.02-2.11-4.98-2.9-7.77-2.18-5.91-1.53-11.54-4.02-16.73-7.32-2.5-1.6-4.6-3.5-7.3-4.5-2.7-1-5.5-1.2-8.2-1.9-5.4-1.3-10.3-4.2-15.7-5.6-5.4-1.3-10.2-.3-15.3.9-5.1,1.2-11.4,2.9-16.3,6.1-4.9,3.2-8.3,6.8-12,10.6-7.6,8.1-14.7,18.2-16.8,29.3.02.04.05.08.08.11-4.86,19.41-5.77,43.98,6.02,60.99,2.6,3.8,6,7.8,10,10.1,4,2.3,10.5,3.9,15.5,6.4,5.7,2.8,11.6,5.2,17.6,7,5.1,1.5,10.4,2.8,15.8,2,3.2-.5,6.1-1.8,9.3-2.6,3.2-.8,6-.8,8.8-2,1.13-.5,2.47-1.51,3.53-2.81.02,0,.05,0,.07,0,.07,0,.09-.1.06-.16.13-.17.26-.35.38-.53.02,0,.04,0,.06,0,.07,0,.09-.11.06-.17.95-1.48,1.45-3.23.91-5.01.01,0,.02-.02.03-.03-.1-.7-.4-1.4-.9-1.99-.6-.7-1.8-1.1-2.2-2-.24-.47.47-1.08.9-1.81h0c-.1.11.1.01.1-.09v-.07c.17-.36.27-.75.16-1.16,3.45-.76,7.1-.66,10.64.23,8.6,2.4,18.8,11.5,27.1,3.3,2.17-2.17,3.95-4.56,6.11-6.7.03,0,.05-.03.06-.06.21-.21.41-.43.64-.64,2.5-2.3,4.8-4.1,7.3-6,4.9-3.8,9.7-7.5,13.8-12,3.8-4.1,7.2-8.6,10.2-13.4,1.44-2.43,3.35-5.27,4.02-8.14.14.04.28,0,.28-.16.01-.15.03-.3.05-.45.12.02.09-.07.02-.17.04-.29.09-.59.15-.89.09-.01.17-.1.08-.2-.01,0-.02,0-.03-.01Z"/>
  <path class="cls-5" d="m324.05,17.15v83.92c-2.89.41-5.16,4.35-5.16,7.52,0,.61.11,1.19.27,1.75-.37-.31-.75-.62-1.1-.94-.38-.34-.77-.78-.89-1.05-.21-1.28-.44-2.56-.67-3.84-.26-1.32-.53-2.63-.86-3.94-.03,1.35,0,2.69.04,4.03.05,1.34.11,2.68.2,4.01v.07s.03.06.03.06c.31.8.74,1.2,1.16,1.66.42.44.86.84,1.32,1.21.43.35.86.68,1.3,1-.16-.05-.32-.09-.47-.14-.79-.25-1.58-.51-2.35-.81-.39-.15-.77-.3-1.14-.47-.33-.14-.71-.35-.88-.48-.61-1.15-1.3-2.26-1.94-3.39-.71-1.15-1.42-2.31-2.21-3.42.43,1.29.95,2.55,1.46,3.8.55,1.23,1.06,2.49,1.66,3.7l.05.1.06.06c.48.44.84.59,1.25.81.4.21.79.39,1.19.56.79.34,1.6.66,2.42.92-.28.15-.56.29-.84.45-.5.28-1.01.56-1.53.88-.26.17-.53.34-.8.59-.13.13-.27.27-.39.46l-.21.38c-1.11,2.02-2.28,4-3.33,6.04,1.49-1.75,2.88-3.58,4.33-5.36l.27-.34s.11-.1.2-.16c.17-.12.4-.24.64-.35.48-.22,1.02-.43,1.55-.64.17-.07.35-.13.52-.19-.37.43-.74.85-1.09,1.29l.04-.04c-.61.68-.69,1.37-.81,1.97-.09.61-.1,1.2-.19,1.69v.07c-.12,1.75-.18,3.51-.13,5.28.5-1.7.9-3.42,1.24-5.14v.07c.17-.63.25-1.2.38-1.73.11-.52.3-1.02.51-1.19l.04-.04c.72-.74,1.41-1.51,2.08-2.29,0,.04-.01.08-.01.12,0,.81.3,1.43.78,1.89,0,.02-.02.03-.03.05-.17.42-.25.86-.25,1.27-.02.83.28,1.53.6,2.14-.04-.35-.04-.69.03-1.02.06-.33.17-.63.31-.89.17-.25.38-.44.61-.58.11-.07.27-.14.41-.17.29.05.58.09.89.09s.61-.04.89-.09c.14.03.29.1.41.17.22.14.43.33.61.58.14.26.26.56.31.89.07.33.06.67.03,1.02.32-.61.62-1.31.6-2.14,0-.41-.07-.85-.25-1.27,0-.02-.02-.03-.03-.05.48-.46.78-1.08.78-1.89,0-.04,0-.08-.01-.12.67.79,1.36,1.56,2.08,2.3l.04.04c.21.17.4.67.51,1.19.13.53.21,1.1.39,1.73v-.07c.33,1.72.73,3.44,1.23,5.14.05-1.77,0-3.53-.11-5.28v-.07c-.1-.49-.12-1.08-.21-1.69-.12-.6-.2-1.29-.81-1.97l.04.04c-.35-.44-.72-.86-1.09-1.29.17.07.36.12.52.19.53.21,1.06.42,1.55.64.24.11.47.23.64.35.08.06.15.12.2.16l.27.34c1.44,1.79,2.83,3.61,4.33,5.36-1.06-2.05-2.22-4.03-3.33-6.04l-.21-.38c-.12-.19-.26-.33-.39-.46-.27-.25-.54-.42-.8-.59-.52-.33-1.03-.6-1.53-.88-.28-.16-.56-.3-.84-.45.82-.26,1.62-.58,2.42-.92.4-.17.8-.35,1.19-.56.41-.22.76-.37,1.25-.81l.06-.06.05-.1c.59-1.21,1.1-2.47,1.66-3.7.51-1.26,1.02-2.51,1.46-3.8-.79,1.11-1.5,2.27-2.21,3.42-.65,1.13-1.33,2.25-1.94,3.39-.17.13-.56.34-.88.48-.36.17-.75.32-1.14.47-.77.3-1.57.55-2.35.81-.16.05-.32.09-.47.14.44-.32.87-.65,1.3-1,.46-.37.9-.77,1.32-1.21.41-.46.84-.86,1.16-1.66l.02-.06v-.07c.09-1.34.15-2.67.2-4.01.04-1.34.07-2.68.04-4.03-.33,1.31-.59,2.62-.86,3.94-.24,1.28-.47,2.56-.67,3.84-.13.27-.52.71-.89,1.05-.35.32-.72.63-1.1.94.16-.56.27-1.14.27-1.75,0-3.17-2.27-7.11-5.16-7.52V16.73l-.99.42Z"/>
  <g>
    <g class="cls-3">
      <text class="cls-4" transform="translate(281.45 290.49)"><tspan x="0" y="0"> </tspan></text>
    </g>
    <g>
      <text class="cls-2" transform="translate(270.62 106.93) rotate(-173.65)"><tspan x="0" y="0"> </tspan></text>
      <text class="cls-2" transform="translate(267.4 106.57) rotate(-167.29)"><tspan x="0" y="0"> </tspan></text>
    </g>
    <text class="cls-1"><tspan x="0" y="0"> </tspan></text>
  </g>
  <path class="cls-7" d="m208.71,234.71c.08-.18.17-.34.33-.51l.51.93c-.31-.08-.6-.22-.84-.42Z"/>
  <path class="cls-7" d="m211.57,234.19c.16.18.25.34.33.51-.22.18-.51.32-.83.4l.5-.92Z"/>
</svg>