<?xml version="1.0" encoding="UTF-8"?>
<svg id="Layer_1" data-name="Layer 1" xmlns="http://www.w3.org/2000/svg" viewBox="0 0 376.1 375.6">
  <defs>
    <style>
      .cls-1, .cls-2 {
        font-family: ArialMT, Arial;
        font-size: 12px;
      }

      .cls-2, .cls-3, .cls-4 {
        isolation: isolate;
      }

      .cls-5 {
        font-family: CCMonsterMashWorn, CCMonsterMashWorn;
        font-size: 55.16px;
      }

      .cls-5, .cls-6 {
        fill: #ea5911;
      }

      .cls-4 {
        font-family: Shlop-Regular, Shlop;
        font-size: 40px;
      }

      .cls-7 {
        fill: #fff;
      }

      .cls-7, .cls-6 {
        stroke-width: 0px;
      }
    </style>
  </defs>
  <rect class="cls-7" y="-.2" width="376.1" height="376.1"/>
  <path class="cls-7" d="m272.02,189.07c1.08-5.02,4.56-11.35-1.17-14.39-1.7-.9-3.8-1.3-5.6-2.1-2.6-1.2-5.1-2.7-7.4-4.4-2-1.5-4-2.9-6.6-2.1-.09.09-.23.33-.17.44-.01,0-.02,0-.03,0-.78-.91-1.74-1.56-2.83-1.91.14-.81-.03-1.62-.78-2.33-.42-.32-.86-.6-1.33-.84-2.06-2.11-5.28-3.25-8.18-3.34-2.68-1.59-6.08-1.88-9.09-2.32-.39-.06-.75-.14-1.13-.21-3.59-3.54-2.81-9.23-6.27-12.79-2.02-2.11-4.98-2.9-7.77-2.18-5.91-1.53-11.54-4.02-16.73-7.32-2.5-1.6-4.6-3.5-7.3-4.5-2.7-1-5.5-1.2-8.2-1.9-5.4-1.3-10.3-4.2-15.7-5.6-5.4-1.3-10.2-.3-15.3.9-5.1,1.2-11.4,2.9-16.3,6.1-4.9,3.2-8.3,6.8-12,10.6-7.6,8.1-14.7,18.2-16.8,29.3.02.04.05.08.08.11-4.86,19.41-5.77,43.98,6.02,60.99,2.6,3.8,6,7.8,10,10.1,4,2.3,10.5,3.9,15.5,6.4,5.7,2.8,11.6,5.2,17.6,7,5.1,1.5,10.4,2.8,15.8,2,3.2-.5,6.1-1.8,9.3-2.6,3.2-.8,6-.8,8.8-2,1.13-.5,2.47-1.51,3.53-2.81.02,0,.05,0,.07,0,.07,0,.09-.1.06-.16.13-.17.26-.35.38-.53.02,0,.04,0,.06,0,.07,0,.09-.11.06-.17.95-1.48,1.45-3.23.91-5.01.01,0,.02-.02.03-.03-.1-.7-.4-1.4-.9-1.99-.6-.7-1.8-1.1-2.2-2-.24-.47.47-1.08.9-1.81h0c-.1.11.1.01.1-.09v-.07c.17-.36.27-.75.16-1.16,3.45-.76,7.1-.66,10.64.23,8.6,2.4,18.8,11.5,27.1,3.3,2.17-2.17,3.95-4.56,6.11-6.7.03,0,.05-.03.06-.06.21-.21.41-.43.64-.64,2.5-2.3,4.8-4.1,7.3-6,4.9-3.8,9.7-7.5,13.8-12,3.8-4.1,7.2-8.6,10.2-13.4,1.44-2.43,3.35-5.27,4.02-8.14.14.04.28,0,.28-.16.01-.15.03-.3.05-.45.12.02.09-.07.02-.17.04-.29.09-.59.15-.89.09-.01.17-.1.08-.2-.01,0-.02,0-.03-.01Z"/>
  <g>
    <g class="cls-3">
      <text class="cls-4" transform="translate(281.45 290.49)"><tspan x="0" y="0"> </tspan></text>
    </g>
    <g>
      <text class="cls-2" transform="translate(270.62 106.93) rotate(-173.65)"><tspan x="0" y="0"> </tspan></text>
      <text class="cls-2" transform="translate(267.4 106.57) rotate(-167.29)"><tspan x="0" y="0"> </tspan></text>
    </g>
    <text class="cls-1"><tspan x="0" y="0"> </tspan></text>
  </g>
  <text class="cls-5" transform="translate(64.53 295.4)"><tspan x="0" y="0">CHALLENGE</tspan></text>
  <path class="cls-6" d="m208.71,234.71c.08-.18.17-.34.33-.51l.51.93c-.31-.08-.6-.22-.84-.42Z"/>
  <path class="cls-6" d="m211.57,234.19c.16.18.25.34.33.51-.22.18-.51.32-.83.4l.5-.92Z"/>
</svg>