<?xml version="1.0" encoding="UTF-8"?>
<svg id="Layer_1" data-name="Layer 1" xmlns="http://www.w3.org/2000/svg" viewBox="0 0 376.1 375.6">
  <defs>
    <style>
      .cls-1, .cls-2 {
        font-family: ArialMT, Arial;
        font-size: 12px;
      }

      .cls-3 {
        fill: #fff;
      }

      .cls-3, .cls-4, .cls-5 {
        stroke: #231f20;
        stroke-miterlimit: 10;
      }

      .cls-4 {
        fill: #231f20;
      }

      .cls-2, .cls-6, .cls-7 {
        isolation: isolate;
      }

      .cls-5 {
        fill: none;
      }

      .cls-7 {
        font-family: Shlop-Regular, Shlop;
        font-size: 40px;
      }

      .cls-8 {
        fill: #ea5911;
        stroke-width: 0px;
      }
    </style>
  </defs>
  <path class="cls-8" d="m364.2,372.1H11.9c-4.5,0-8.2-3.7-8.2-8.2V11.7C3.7,7.2,7.4,3.5,11.9,3.5h352.3c4.5,0,8.2,3.7,8.2,8.2v352.3c0,4.4-3.7,8.1-8.2,8.1h0Zm-344.1-16.4h335.9V19.9H20.1v335.8h0Z"/>
  <g>
    <g class="cls-6">
      <text class="cls-7" transform="translate(281.45 290.49)"><tspan x="0" y="0"> </tspan></text>
    </g>
    <g>
      <text class="cls-2" transform="translate(270.62 106.93) rotate(-173.65)"><tspan x="0" y="0"> </tspan></text>
      <text class="cls-2" transform="translate(267.4 106.57) rotate(-167.29)"><tspan x="0" y="0"> </tspan></text>
    </g>
    <text class="cls-1"><tspan x="0" y="0"> </tspan></text>
  </g>
  <path class="cls-8" d="m208.71,234.71c.08-.18.17-.34.33-.51l.51.93c-.31-.08-.6-.22-.84-.42Z"/>
  <path class="cls-8" d="m211.57,234.19c.16.18.25.34.33.51-.22.18-.51.32-.83.4l.5-.92Z"/>
  <path class="cls-4" d="m49.73,344.67c-.54-1.71-2.19-1.85-3.39-3.1-1.23-1.29-1.19-2.9-1.11-7.43.16-9.63-.03-10.54-.64-11.56-1.32-2.24-4.07-4.11-7.09-4-.26,0-3.32.17-5.32,2.58-1.19,1.44-1.4,2.94-1.76,5.79-.57,4.62.43,4.65-.23,7.26-.83,3.25-2.5,3.6-3.39,7.67-.32,1.47-.64,3.01.17,3.8,1.12,1.09,3.16-.45,4.74.7,1.35.99.55,2.6,1.93,3.74,1.38,1.14,3.81.83,5.32.12,2.02-.94,1.91-2.32,3.57-2.63,1.52-.28,1.93.82,4.04.64.58-.05,2.36-.2,3.04-1.46.46-.85.22-1.79.12-2.11Zm-14.51-14.81c-.74,0-1.34-.91-1.34-2.02s.6-2.02,1.34-2.02,1.34.91,1.34,2.02-.6,2.02-1.34,2.02Zm5.54-.26c-.68,0-1.23-.79-1.23-1.76s.55-1.76,1.23-1.76,1.23.79,1.23,1.76-.55,1.76-1.23,1.76h0Z"/>
  <path class="cls-5" d="m36.56,327.83c0,1.12-.6,2.02-1.34,2.02s-1.34-.91-1.34-2.02.6-2.02,1.34-2.02,1.34.91,1.34,2.02Z"/>
  <ellipse class="cls-5" cx="40.75" cy="327.83" rx="1.23" ry="1.76"/>
  <ellipse class="cls-3" cx="38.04" cy="329.4" rx=".42" ry=".6"/>
  <path class="cls-8" d="m37.26,330.75c.21.24.49.47.82.45.48-.03.7-.57.88-.45.22.14.27,1.21-.23,1.73-.31.34-.82.37-1.17.07-.42-.36-.57-1.15-.29-1.8Z"/>
</svg>