<?xml version="1.0" encoding="UTF-8"?>
<svg id="Layer_1" data-name="Layer 1" xmlns="http://www.w3.org/2000/svg" viewBox="0 0 376.1 375.6">
  <defs>
    <style>
      .cls-1, .cls-2 {
        font-family: ArialMT, Arial;
        font-size: 12px;
      }

      .cls-2, .cls-3, .cls-4 {
        isolation: isolate;
      }

      .cls-4 {
        font-family: Shlop-Regular, Shlop;
        font-size: 40px;
      }

      .cls-5 {
        fill: #353535;
      }

      .cls-5, .cls-6, .cls-7 {
        stroke-width: 0px;
      }

      .cls-6 {
        fill: #fff;
      }

      .cls-7 {
        fill: #ea5911;
      }
    </style>
  </defs>
  <g>
    <g class="cls-3">
      <text class="cls-4" transform="translate(281.45 321.38)"><tspan x="0" y="0"> </tspan></text>
    </g>
    <g>
      <text class="cls-2" transform="translate(270.62 137.82) rotate(-173.65)"><tspan x="0" y="0"> </tspan></text>
      <text class="cls-2" transform="translate(267.4 137.47) rotate(-167.29)"><tspan x="0" y="0"> </tspan></text>
    </g>
    <text class="cls-1" transform="translate(0 30.89)"><tspan x="0" y="0"> </tspan></text>
  </g>
  <path class="cls-7" d="m208.71,265.6c.08-.18.17-.34.33-.51l.51.93c-.31-.08-.6-.22-.84-.42Z"/>
  <path class="cls-7" d="m211.57,265.09c.16.18.25.34.33.51-.22.18-.51.32-.83.4l.5-.92Z"/>
  <rect class="cls-6" y="-.2" width="376.1" height="376.1"/>
  <path class="cls-5" d="m95.37,76.32l.11-.21s.01-.03.03-.06c.04-.09.13-.27.27-.52.53-.99,1.78-3.18,3.93-6.24.01-.02.02-.03.03-.05,1.01-1.44,2.22-3.07,3.65-4.86.02-.03.05-.06.07-.09,1.26-1.58,2.69-3.28,4.3-5.07.02-.02.03-.04.05-.06,2.01-2.24,4.29-4.62,6.88-7.1,0,0,0,0,.01,0h0c2.11-2.03,4.42-4.13,6.95-6.26.4-.34.81-.68,1.23-1.03,0,0,.02-.01.02-.02,2.31-1.91,4.85-3.9,7.63-5.93.02-.02.05-.03.07-.05,2-1.46,4.13-2.95,6.39-4.46.07-.05.14-.09.21-.14,4.16-2.76,8.76-5.58,13.82-8.37.2-.11.4-.22.6-.33C169.01,15.95,191.79,6.64,221.09.07h-4.87c-20.15,4.82-38.66,11.28-55.14,19.24-3.55,1.72-7.01,3.51-10.38,5.36-13.42-.74-20.25-4.35-23.63-7.29-3.2-2.78-3.97-5.47-4.12-6.18,2.77-4.34,5.35-8.1,7.52-11.14h-1.35c-2.08,2.93-4.5,6.49-7.09,10.54-10.85,2.43-16.9,1.63-20.06.52-2.73-.96-3.81-2.29-4.14-2.78,1.12-2.93,2.46-5.72,4.06-8.27h-1.29c-1.45,2.39-2.73,5.05-3.84,7.96-.71.56-5.16,3.92-12.41,6.02-7.27,2.1-18.89,3.3-33.03-2.87-2.3-4.59-4.11-8.44-5.35-11.11h-1.21c1.24,2.7,3.15,6.76,5.6,11.66.03.96.16,8.09-1.47,16.11-1.56,7.71-5.09,17.8-13.08,22.59-2.1-.64-4.2-1.26-6.28-1.84-11.04-3.11-21.83-5.41-32.18-6.88v1.11c4.5.64,8.94,1.43,13.3,2.32,4.02,3.05,6.2,6.81,6.5,11.18.39,5.86-2.68,11.86-5.34,15.86-2.24,3.39-4.57,5.95-5.52,6.95-3.75.92-6.8,1.74-8.94,2.35v1.14c1.97-.56,4.8-1.33,8.29-2.2l.48.1c8.82,1.75,14.58,5.42,17.1,10.9,2.18,4.73,1.52,9.99.58,13.58-.72,2.75-1.71,4.96-2.24,6.05-.81.78-1.62,1.57-2.4,2.37-9.43,9.6-16.74,20.6-21.81,32.79v2.97c5.83-15.13,14.6-27.13,24.27-36.57h.08c4.58-.29,7.79.77,9.57,3.13,2.8,3.73,1.29,9.76.76,11.49-6.12,9.08-11.7,19.13-16.66,30.05-7.41,16.3-12.06,31.58-14.66,41.52-.96,3.68-1.72,6.93-2.31,9.61H-.46c.57-2.62,1.31-5.77,2.24-9.33,2.59-9.9,7.22-25.11,14.59-41.34,4.24-9.32,9.66-19.56,16.48-29.67.04-.06.09-.13.13-.19,3.91-5.77,8.27-11.5,13.14-16.98.04-.04.08-.09.12-.13,3.72-4.19,7.73-8.23,12.05-12.04.02-.01.03-.03.05-.04,2.73-2.4,5.57-4.71,8.55-6.91.05-.04.1-.07.15-.11,2.25-1.66,4.57-3.25,6.97-4.76h0s0,0,0,0c1.88-1.19,3.82-2.34,5.79-3.43.08-.04.15-.09.23-.13,4.59-2.52,9.42-4.77,14.52-6.69m14.92-63.32c3.11,0,6.96-.39,11.71-1.39-1.01,1.6-2.04,3.27-3.08,5.01-.54.9-1.06,1.79-1.59,2.69-5.92,3.82-11.37,4.71-16.19,2.62-3.04-1.32-4.88-3.47-5.4-4.14.64-2.92,1.44-5.79,2.42-8.54,1.23,1.38,4.45,3.75,12.12,3.75Zm-27.27,64.81c-.53.14-1.07.29-1.64.45.51-.82,1.1-2.1.94-3.43-.06-.5-.22-.97-.48-1.39,1.41.18,2.81.38,4.2.6.57.4.57.73.57.85,0,.86-1.34,1.92-1.82,2.22l-.59.38c-.39.1-.78.21-1.19.32Zm-8.24,2.48c.98-1.46,2.35-4.41.21-7.51,1.75.12,3.49.28,5.23.47.6.49.93,1.05,1.02,1.71.21,1.7-1.33,3.48-1.34,3.49l-.28.32c-1.5.44-3.12.95-4.83,1.51Zm-8.17,2.94c.62-1.54,1.78-5.19.37-8.2-.5-1.07-1.27-1.94-2.3-2.62,2.94,0,5.89.09,8.84.27,3.47,3.89-.1,7.63-.26,7.79l-.5.5c-1.95.67-4.01,1.43-6.15,2.26Zm-11.72,5.14c.99-1.75,2.54-5.24,1.78-9-.52-2.54-2.01-4.75-4.45-6.57,3.23-.21,6.54-.34,9.88-.38,1.9.6,3.2,1.63,3.88,3.07,1.57,3.36-.65,7.94-.68,7.98l-.17.34c-3.28,1.32-6.72,2.83-10.24,4.56Zm-12.04-5.13c-1.39-3.71-4.63-6.54-9.64-8.42,5.28-.78,11.12-1.46,17.24-1.9,2.87,1.8,4.6,4.04,5.14,6.66.98,4.75-2.29,9.26-2.32,9.3l-.35.48c-3.95,2.01-7.73,4.16-11.35,6.44,1.25-2.57,3.11-7.66,1.28-12.55Zm-5.2-31.63c5.71,1.77,11.07,3.62,15.99,5.44h0c1.3,1.23,1.96,2.71,1.96,4.4,0,4.97-5.62,10.28-5.67,10.33l-.07.06c-5.68.43-11.58,1.1-17.64,2.01,2.36-2.34,7.42-8.04,7.82-14.38.18-2.86-.62-5.5-2.38-7.86Zm22.46-23.29c2.52,4.49,5.05,8.76,7.57,12.79.62,2.69.24,5.15-1.13,7.33-3.22,5.12-10.98,7.25-12.42,7.61-4.92-1.83-9.83-3.52-14.71-5.06,2.17-.46,5.26-1.37,8.43-3.15,3.38-1.91,6.12-4.43,8.16-7.49,2.25-3.38,3.62-7.42,4.11-12.04Zm21.71,44c.51-.43,1.02-1.01,1.17-1.76.07-.33.06-.66-.01-.99,1.4.68,2.69,1.32,3.88,1.91.18.23.26.44.21.61-.09.37-.7.71-1.03.84-1.38-.22-2.79-.43-4.23-.61Zm-6.78-.66c.94-.79,2.16-2.08,2.34-3.58.05-.41.02-.81-.08-1.2,1.41.65,2.75,1.28,4.02,1.88.5.56.7,1.09.6,1.57-.18.9-1.38,1.59-1.83,1.78-1.65-.18-3.34-.33-5.05-.46Zm-11.63-.37c1.33-.85,3.06-2.3,3.69-4.41.45-1.5.27-3.08-.53-4.73,3.25,1.36,6.29,2.7,9.08,3.97.51.58.73,1.18.65,1.82-.24,1.92-2.91,3.58-2.94,3.6h-.01c-3.21-.18-6.52-.27-9.93-.26Zm-11.89.44c1.66-1.77,5.17-6.02,5.18-10.27,0-1.33-.34-2.55-1.01-3.64,2.81,1.06,5.46,2.11,7.92,3.11.43.18.86.35,1.29.53,1.23,1.83,1.62,3.54,1.16,5.1-.9,3.03-4.71,4.59-4.75,4.61l-.37.15c-3.06.06-6.2.19-9.41.41Zm17.55-28.4c1.5,2.36,3,4.64,4.49,6.82.6,2.56.29,4.73-.92,6.43-2.17,3.06-6.64,3.77-7.36,3.86-.41-.17-.83-.34-1.24-.51-2.72-1.11-5.44-2.17-8.15-3.2,2.93-.9,8.76-3.18,11.59-7.67,1.11-1.75,1.63-3.67,1.59-5.72Zm24.69,22.67c-.03.8-.29,1.39-.81,1.8-1.11.9-3.06.73-3.66.65-.97-1.04-1.92-2.12-2.88-3.22,1.55.33,3.78.53,5.5-.48.63-.37,1.14-.87,1.53-1.49.11.96.22,1.87.32,2.74Zm-18.81-13.84c.3.43.61.86.91,1.29,1.44,2.02,2.86,3.96,4.28,5.8.51,1.14.54,2.12.1,2.99-.94,1.86-3.74,2.64-4.33,2.79-2.71-1.23-5.66-2.52-8.8-3.84,1.86-.48,4.71-1.57,6.43-3.98,1.02-1.43,1.49-3.12,1.41-5.05Zm6.26,10.58c.25-.5.39-1.02.42-1.57.9,1.13,1.79,2.23,2.68,3.29.41.97.45,1.72.1,2.23-.58.86-2.2,1.01-2.79.99-1.33-.63-2.74-1.3-4.23-1.98,1.25-.47,3.01-1.38,3.81-2.97Zm4.12,4.57c.24-.35.37-.74.42-1.17.92,1.06,1.83,2.08,2.74,3.06.03.33-.03.58-.19.77-.28.33-.82.44-1.07.46-1.17-.59-2.44-1.21-3.8-1.88.71-.2,1.45-.57,1.91-1.24Zm3.81,3.36c.1-.12.2-.28.29-.47.91.96,1.82,1.88,2.72,2.76-1-.53-2.19-1.15-3.54-1.84.19-.11.37-.26.53-.45Zm4.03-9.99c-.21,1.48-.81,2.52-1.81,3.11-2.14,1.25-5.48.19-6.21-.07-1.07-1.28-2.13-2.6-3.18-3.94,2.06.3,5.82.5,8.56-1.36.95-.65,1.7-1.49,2.23-2.51.12,1.66.26,3.26.41,4.77Zm-.62-7.86c-.27,2.1-1.16,3.68-2.64,4.68-3.09,2.1-7.92,1.2-8.95.97-.98-1.28-1.95-2.59-2.91-3.9.87.16,2.08.31,3.46.31.44,0,.9-.02,1.38-.05,4.01-.31,7.27-2.01,9.52-4.93.04.99.09,1.96.15,2.92Zm-.22-4.76c-2.08,3.43-5.27,5.34-9.5,5.67-2.74.22-5.07-.32-5.75-.5-.55-.77-1.1-1.55-1.64-2.33,1.39.36,3.58.78,6.02.68,3.4-.14,7.85-1.34,10.8-6.02.02.84.04,1.67.06,2.49Zm-.09-4.75c-2.11,4.55-5.73,6.96-10.79,7.18-3.35.14-6.28-.78-7.01-1.03-1.75-2.56-3.44-5.14-5.05-7.69,1.84.41,5.32,1.03,9.17.9,6.39-.22,11.11-2.47,13.81-6.54-.1,2.33-.15,4.73-.14,7.19Zm-4.1,29.04c.02-.07.03-.14.04-.22,1.4.71,2.61,1.34,3.63,1.88-1.36-.3-2.75-.58-4.17-.83.23-.23.42-.5.5-.83Zm2.24-2.75c1,0,2.31-.19,3.26-.96.15-.12.29-.26.42-.4.35,2.56.68,4.56.9,5.84-1.54-1.4-3.06-2.9-4.57-4.48Zm2.13-36.02c-2.21,5.05-6.9,7.73-13.95,7.98-4.74.17-9.02-.88-10-1.14-1.8-2.89-3.51-5.74-5.1-8.48,1.77.34,5.3.86,9.68.69,5.47-.22,13.28-1.61,20.11-6.89-.32,2.51-.57,5.13-.74,7.83Zm.95-9.42c-6.79,5.68-14.8,7.15-20.33,7.37-5.32.21-9.43-.64-10.41-.87-.67-1.17-1.33-2.32-1.96-3.45,2.13.37,6.91,1.03,12.43.73,4.37-.24,8.35-1.02,11.81-2.33,3.65-1.38,6.73-3.35,9.2-5.87-.28,1.43-.52,2.9-.74,4.42Zm-5.85,50.14c1.86.33,3.71.71,5.52,1.15-1.53.29-3.68.73-6.32,1.37.48-.54.9-1.22.9-1.95,0-.17-.03-.36-.1-.57Zm8.18-1.81c-.21-1.29-.46-2.95-.73-4.93.36.25.78.46,1.23.51.16.02.33.02.49,0-.36,1.49-.69,2.97-.99,4.43Zm1.32-5.74c-.29.23-.53.24-.68.22-.64-.07-1.31-.81-1.59-1.19-.15-1.18-.29-2.44-.44-3.78.67.46,1.58.9,2.59.86.44-.02.86-.13,1.25-.32-.41,1.41-.78,2.81-1.14,4.2Zm1.69-6.07c-.56.7-1.16,1.06-1.84,1.09-1.21.05-2.34-.95-2.71-1.31-.18-1.89-.36-3.9-.5-6.01.82.8,2.07,1.71,3.6,1.92,1.02.14,2.03-.04,3.01-.54-.55,1.63-1.07,3.25-1.56,4.85Zm2.15-6.56c-1.13.93-2.29,1.32-3.44,1.16-2.01-.28-3.51-2.14-3.87-2.63-.14-2.36-.23-4.82-.28-7.35,0-.09,0-.17,0-.26,1.02,1.12,2.75,2.6,5.05,3.02,1.71.31,3.45-.01,5.19-.97-.95,2.36-1.83,4.7-2.65,7.02Zm4.05-10.41c-.23.54-.45,1.08-.68,1.62-1.93,1.44-3.85,2-5.7,1.66-2.91-.53-4.86-3.12-5.27-3.72-.01-2.71.05-5.57.21-8.51.93.64,2.56,1.63,4.6,2.38,3.58,1.31,6.94,1.28,9.82-.07-1.05,2.23-2.04,4.45-2.98,6.65Zm3.79-8.36c-2.9,1.92-6.34,2.17-10.23.76-2.43-.88-4.3-2.18-4.93-2.65.17-2.63.42-5.32.78-8.01.97.67,2.8,1.79,5.25,2.63,3.09,1.06,7.74,1.82,12.88-.16-1.31,2.49-2.56,4.96-3.75,7.43Zm4.57-8.97c-4.26,2.01-8.73,2.23-13.31.68-2.8-.95-4.79-2.33-5.47-2.84.25-1.7.54-3.4.88-5.08.92,1.02,2.65,2.64,5.2,3.76,2.29,1,4.76,1.38,7.35,1.12,2.63-.26,5.38-1.19,8.19-2.76-.98,1.71-1.92,3.43-2.84,5.13Zm-42.72-9.9c5.06.24,10.03-.33,14.79-1.71,5.55-1.6,9.46-3.89,11.44-5.23-.87,2.52-1.62,5.21-2.24,8.07-5.75,6.96-14.85,8.86-21.48,9.22-6.46.35-11.91-.64-13.09-.87-2.7-4.87-5.13-9.5-7.2-13.6,5.95,2.45,11.93,3.84,17.78,4.12Zm-24.43,24.59c1.98-3.72,3.51-8.2,4.55-13.34,1.18-5.83,1.45-11.19,1.49-14.14,2.01,3.95,4.32,8.36,6.89,12.99-.53,9.3-4.5,16.12-11.8,20.27-3.24,1.84-6.45,2.72-8.57,3.13,2.92-2.15,5.42-5.14,7.44-8.92Zm-32.7,31.42c2.75-4.14,5.94-10.38,5.53-16.56-.27-4.07-2.06-7.64-5.31-10.63,7.68,1.65,15.07,3.61,21.98,5.71l.23.25c2.17,2.4,3.17,5.13,2.98,8.13-.48,7.66-8.55,14.66-8.63,14.73l-.02.02c-.31.05-.63.1-.94.15-7.73,1.25-14.7,2.72-20.33,4.06,1.17-1.33,2.85-3.36,4.51-5.86Zm12.14,32.49c1.42-5.4,1.2-10.36-.63-14.34-2.5-5.44-7.93-9.18-16.13-11.14,5.67-1.35,12.74-2.86,20.62-4.13.43-.07.87-.14,1.32-.21,5.84,1.75,9.54,4.59,10.98,8.44,2.35,6.26-2.06,13.21-2.1,13.28l-.1.16c-5.49,3.61-10.57,7.53-15.2,11.76.42-1.07.87-2.37,1.26-3.83Zm7.29,9.76c-1.85-2.46-4.98-3.67-9.34-3.61,5.49-5.21,11.24-9.61,16.88-13.31,3.34.75,5.51,2.17,6.45,4.25,1.29,2.86-.09,6.25-.68,7.48-.07.08-.14.16-.22.24-4.01,4.52-7.84,9.4-11.48,14.61.47-2.79.58-6.75-1.6-9.65Zm15.27-7.37c.43-1.68.6-3.79-.28-5.76-.98-2.18-3.06-3.73-6.19-4.62,4.21-2.7,8.35-5.01,12.26-6.97.11-.06.22-.11.34-.17,2.1.41,3.51,1.26,4.17,2.54.98,1.89.15,4.26-.22,5.13-3.47,3.05-6.83,6.33-10.07,9.84Zm11.27-15.47c-.67-1.3-1.89-2.23-3.63-2.79,3.61-1.75,7.14-3.28,10.52-4.62,1.04.43,1.69,1.04,1.93,1.81.47,1.53-.67,3.39-1.19,4.13-2.46,1.8-4.87,3.71-7.23,5.72.27-1.25.34-2.83-.39-4.25Zm9.87-5.92c-.25-.82-.8-1.5-1.62-2.02,2.21-.85,4.35-1.62,6.39-2.3.27.18.46.4.57.69.4,1.02-.26,2.6-.68,3.38-1.65,1.04-3.27,2.13-4.88,3.26.34-.92.53-1.99.22-3Zm6.37-4.03c-.1-.26-.23-.48-.4-.69,1.89-.62,3.7-1.17,5.4-1.67.29.17.53.39.58.66.1.59-.59,1.36-1.05,1.79-1.55.85-3.09,1.74-4.61,2.67.27-.86.43-1.89.09-2.77Zm6.66-1.87c-.05-.31-.18-.6-.39-.85,1.21-.34,2.36-.65,3.44-.92.08.06.14.13.16.21.09.25-.07.63-.21.88-1.03.5-2.05,1.01-3.06,1.54.08-.28.11-.57.06-.86Zm4.34-1.32c0-.19-.01-.39-.08-.59-.02-.05-.04-.09-.06-.14,1.36-.34,2.59-.62,3.69-.86-1.19.51-2.37,1.04-3.55,1.59Zm10.24-6.41c.26-1.26.55-2.53.85-3.78.23.26.51.49.86.63.08.03.17.06.28.08-.8,1.18-1.46,2.21-1.99,3.07Zm4.17-6.14c-.5.67-.96,1.31-1.39,1.91-.25.11-.47.12-.67.04-.45-.17-.76-.78-.89-1.12.39-1.53.8-3.05,1.24-4.56.42.67,1.05,1.41,1.94,1.78.35.14.7.22,1.07.22-.47.6-.9,1.18-1.31,1.72Zm2.34-3.03c-.62.26-1.18.29-1.69.08-1.09-.44-1.72-1.82-1.9-2.29.49-1.63,1.01-3.24,1.56-4.84.43.88,1.16,1.93,2.32,2.58.88.49,1.87.69,2.97.6-1.21,1.38-2.29,2.68-3.26,3.88Zm4.47-5.23c-1.42.43-2.64.36-3.63-.2-1.54-.86-2.15-2.67-2.31-3.23.87-2.47,1.8-4.91,2.76-7.3.31.63.78,1.39,1.49,2.12,1.29,1.32,3.59,2.73,7.49,2.57-2.16,2.12-4.1,4.14-5.81,6.04Zm13.81-13.31c-2.45,2.07-4.7,4.1-6.75,6.06-7.54.97-9.34-3.9-9.64-4.94,1.24-3,2.54-5.92,3.87-8.73.48.88,1.32,2.16,2.64,3.42,1.89,1.8,5.11,3.86,10.08,4.01-.07.06-.13.11-.2.17Zm1.52-1.27c-4.3.16-7.87-1.07-10.61-3.67-1.71-1.63-2.57-3.32-2.84-3.92,1.28-2.66,2.58-5.23,3.88-7.68.53,1.1,1.55,2.88,3.27,4.66,2.3,2.39,6.3,5.2,12.59,5.67-2.16,1.61-4.26,3.26-6.3,4.94Zm7.7-5.98c-5.39-.09-9.82-1.9-13.17-5.36-2.15-2.22-3.16-4.47-3.44-5.17,1.08-2.01,2.15-3.93,3.2-5.76.47,1.41,1.46,3.78,3.37,6.13,2.49,3.05,7.04,6.55,14.84,6.78-1.63,1.11-3.23,2.24-4.8,3.39Zm6.43-4.49c-6.72.2-11.97-1.93-15.59-6.34-2.42-2.94-3.29-6-3.49-6.79.52-.89,1.03-1.75,1.53-2.59,1.05-1.75,2.09-3.44,3.1-5.05.47,1.32,1.57,3.48,4.09,5.69,2.29,2.02,5.3,3.67,8.95,4.92,3.87,1.33,8.48,2.2,13.73,2.6-4.27,2.41-8.38,4.93-12.32,7.56Z"/>
  <g>
    <g class="cls-3">
      <text class="cls-4" transform="translate(281.45 290.49)"><tspan x="0" y="0"> </tspan></text>
    </g>
    <g>
      <text class="cls-2" transform="translate(270.62 106.92) rotate(-173.65)"><tspan x="0" y="0"> </tspan></text>
      <text class="cls-2" transform="translate(267.4 106.57) rotate(-167.29)"><tspan x="0" y="0"> </tspan></text>
    </g>
    <text class="cls-1"><tspan x="0" y="0"> </tspan></text>
  </g>
  <path class="cls-7" d="m208.71,234.71c.08-.18.17-.34.33-.51l.51.93c-.31-.08-.6-.22-.84-.42Z"/>
  <path class="cls-7" d="m211.57,234.19c.16.18.25.34.33.51-.22.18-.51.32-.83.4l.5-.92Z"/>
  <path class="cls-5" d="m320.67.32v104.9c-3.62.52-6.46,5.44-6.46,9.4,0,.77.14,1.49.33,2.19-.47-.39-.94-.78-1.37-1.18-.47-.43-.96-.98-1.12-1.31-.26-1.6-.55-3.2-.84-4.8-.33-1.65-.66-3.29-1.07-4.93-.04,1.69,0,3.36.05,5.04.07,1.67.14,3.35.25,5.02v.09s.03.08.03.08c.39,1,.93,1.5,1.45,2.08.52.55,1.07,1.05,1.65,1.52.53.44,1.07.85,1.62,1.25-.2-.06-.4-.11-.59-.17-.99-.32-1.98-.64-2.94-1.01-.48-.19-.96-.38-1.42-.59-.41-.18-.89-.44-1.11-.6-.77-1.44-1.62-2.83-2.43-4.24-.89-1.44-1.78-2.88-2.77-4.27.54,1.62,1.18,3.19,1.82,4.75.69,1.54,1.33,3.11,2.07,4.63l.06.12.08.07c.6.55,1.05.73,1.56,1.01.5.26.99.48,1.49.7.99.43,2,.83,3.02,1.15-.35.18-.7.36-1.05.56-.63.35-1.26.7-1.91,1.1-.33.21-.66.43-1,.74-.17.16-.34.34-.49.57l-.26.47c-1.39,2.52-2.84,5-4.17,7.56,1.87-2.19,3.61-4.47,5.41-6.7l.33-.42c.06-.06.14-.13.25-.2.21-.15.5-.3.8-.44.6-.28,1.27-.54,1.93-.81.21-.09.44-.16.65-.24-.46.53-.92,1.06-1.36,1.61l.04-.05c-.76.85-.87,1.71-1.01,2.46-.11.76-.13,1.5-.24,2.12l-.02.08c-.14,2.19-.21,4.39-.14,6.61.63-2.13,1.13-4.27,1.55-6.42l-.02.08c.23-.79.33-1.51.49-2.17.13-.65.37-1.28.63-1.49l.04-.05c.91-.92,1.77-1.89,2.6-2.87,0,.05-.01.1-.01.14,0,1.01.37,1.79.97,2.36-.01.02-.02.04-.03.07-.21.53-.31,1.08-.31,1.59-.03,1.04.36,1.91.75,2.67-.05-.43-.05-.87.03-1.28.07-.41.21-.79.39-1.11.21-.31.48-.56.76-.73.14-.09.34-.18.51-.22.36.07.73.11,1.12.11s.76-.05,1.12-.11c.17.04.37.12.51.22.28.17.54.41.76.73.18.32.32.7.39,1.11.09.41.08.84.03,1.28.4-.76.78-1.64.75-2.67,0-.52-.09-1.06-.31-1.59-.01-.02-.02-.04-.03-.07.6-.57.97-1.35.97-2.36,0-.05-.01-.1-.01-.14.84.98,1.7,1.95,2.6,2.87l.04.05c.26.22.5.84.63,1.49.16.66.26,1.38.49,2.17l-.02-.08c.43,2.15.93,4.3,1.55,6.42.06-2.22,0-4.42-.14-6.61l-.02-.08c-.11-.62-.13-1.36-.24-2.12-.14-.75-.25-1.62-1.01-2.46l.04.05c-.44-.55-.9-1.08-1.36-1.61.22.08.44.15.65.24.66.27,1.33.53,1.93.81.3.14.58.29.8.44.1.07.19.15.25.2l.34.42c1.8,2.23,3.54,4.51,5.41,6.7-1.32-2.56-2.78-5.04-4.17-7.56l-.26-.47c-.15-.23-.32-.42-.49-.57-.34-.31-.67-.53-1-.74-.65-.41-1.29-.75-1.91-1.1-.35-.2-.7-.38-1.05-.56,1.03-.33,2.03-.72,3.02-1.15.5-.22.99-.44,1.49-.7.51-.28.95-.46,1.56-1.01l.08-.07.06-.12c.74-1.52,1.38-3.08,2.07-4.63.64-1.57,1.28-3.14,1.82-4.75-.99,1.39-1.88,2.83-2.77,4.27-.81,1.41-1.66,2.81-2.43,4.24-.22.16-.7.42-1.11.6-.46.21-.94.41-1.42.59-.97.37-1.96.69-2.94,1.01-.2.06-.4.11-.59.17.55-.4,1.09-.81,1.62-1.25.57-.46,1.12-.96,1.65-1.52.52-.58,1.05-1.08,1.45-2.08l.03-.08v-.09c.11-1.67.19-3.34.26-5.02.05-1.68.09-3.35.05-5.04-.41,1.64-.74,3.28-1.07,4.93-.29,1.6-.58,3.2-.84,4.8-.16.33-.65.88-1.12,1.31-.44.4-.91.79-1.37,1.18.2-.7.33-1.42.33-2.19,0-3.97-2.84-8.89-6.46-9.4V-.2l-1.24.52Z"/>
</svg>