<?xml version="1.0" encoding="UTF-8"?>
<svg id="Layer_1" xmlns="http://www.w3.org/2000/svg" version="1.1" viewBox="0 0 376.1 375.6">
  <!-- Generator: Adobe Illustrator 29.0.1, SVG Export Plug-In . SVG Version: 2.1.0 Build 192)  -->
  <defs>
    <style>
      .st0 {
        fill: #13d0fa;
        fill-rule: evenodd;
      }

      .st1 {
        fill: #fefefe;
      }

      .st2 {
        fill: #141515;
      }
    </style>
  </defs>
  <rect class="st1" x="-2019.8" y="821.9" width="4252" height="2377.2"/>
  <path class="st0" d="M148,192.1c.1.2.4.2.6,0,.2-.1.2-.4,0-.6-.2-.2-.4-.2-.6,0-.2.2-.2.4,0,.6h0Z"/>
  <path class="st2" d="M115.3,196.9v-10.5h4.6c2.5,0,3.7,1,3.7,3s-1.2,3.1-3.7,3.1h-2.5v4.4h-2.1ZM117.4,190.5h3c.8,0,1.3-.4,1.3-1.1,0-.7-.5-1.1-1.3-1.1h-3v2.2ZM137.3,196.9c-1.5,0-2.8-.5-3.8-1.5-1-1-1.5-2.3-1.5-3.7s.5-2.8,1.5-3.8c1-1,2.3-1.5,3.8-1.5s2.7.5,3.7,1.5c1,1,1.5,2.3,1.5,3.8s-.5,2.7-1.5,3.7c-1,1-2.3,1.5-3.7,1.5h0ZM137.3,194.9c.9,0,1.7-.3,2.3-.9.6-.6.9-1.4.9-2.3s-.3-1.7-.9-2.4c-.6-.6-1.3-1-2.3-1s-1.7.3-2.3,1c-.6.6-.9,1.4-.9,2.4s.3,1.7.9,2.3c.6.6,1.3.9,2.3.9h0ZM153.7,190.5h2.9c.8,0,1.3-.4,1.3-1.1,0-.7-.4-1.1-1.3-1.1h-3v2.2ZM158,192.3l2.6,4.6h-2.4l-2.5-4.4h-1.9v4.4h-2.1v-10.5h4.6c2.5,0,3.7,1,3.7,3s-.6,2.5-1.9,2.9h0ZM168.6,186.3v2h3.5v8.6h2.1v-8.6h3.5v-2h-9.1ZM186.8,196.9v-10.5h7.4v2h-5.3v2.2h3.9v2h-3.9v4.4h-2.1ZM207.9,196.9c-1.5,0-2.8-.5-3.8-1.5-1-1-1.5-2.3-1.5-3.7s.5-2.8,1.5-3.8c1-1,2.3-1.5,3.8-1.5s2.7.5,3.7,1.5c1,1,1.5,2.3,1.5,3.8s-.5,2.7-1.5,3.7c-1,1-2.3,1.5-3.7,1.5h0ZM207.9,194.9c.9,0,1.7-.3,2.3-.9.6-.6.9-1.4.9-2.3s-.3-1.7-.9-2.4c-.6-.6-1.3-1-2.3-1s-1.7.3-2.3,1c-.6.6-.9,1.4-.9,2.4s.3,1.7.9,2.3c.6.6,1.3.9,2.3.9h0ZM222.2,186.3v10.5h7.7v-2h-5.6v-8.6h-2.1ZM239.1,186.3h2.1v10.5h-2.1v-10.5ZM255.5,196.9c-1.5,0-2.8-.5-3.7-1.5-1-1-1.5-2.3-1.5-3.7s.5-2.8,1.5-3.8c1-1,2.2-1.5,3.7-1.5s2.8.5,3.7,1.5c1,1,1.5,2.3,1.5,3.8s-.5,2.7-1.5,3.7c-1,1-2.2,1.5-3.7,1.5h0ZM255.5,194.9c.9,0,1.7-.3,2.3-.9.6-.6.9-1.4.9-2.3s-.3-1.7-.9-2.4c-.6-.6-1.4-1-2.3-1s-1.7.3-2.3,1c-.6.6-.9,1.4-.9,2.4s.3,1.7.9,2.3c.6.6,1.4.9,2.3.9h0Z"/>
</svg>