<?xml version="1.0" encoding="UTF-8"?>
<svg id="Layer_1" xmlns="http://www.w3.org/2000/svg" version="1.1" viewBox="0 0 376.1 375.6">
  <!-- Generator: Adobe Illustrator 29.0.1, SVG Export Plug-In . SVG Version: 2.1.0 Build 192)  -->
  <defs>
    <style>
      .st0 {
        fill: #13d0fa;
        fill-rule: evenodd;
      }

      .st1 {
        fill: #141515;
      }
    </style>
  </defs>
  <rect class="st1" x="338.2" y="304.8" width=".5" height="2.7"/>
  <path class="st1" d="M240.2,320.6h0c-.5,0-1-.2-1.4-.5-.5-.4-.9-1-1-1.6-.1-.7,0-1.3.4-1.9.5-.7,1.3-1.1,2.1-1.1s1,.2,1.4.5c.5.4.9,1,1,1.6.1.7,0,1.3-.4,1.9-.5.7-1.2,1.1-2.1,1.1ZM240.2,316c-.7,0-1.3.3-1.7.9-.3.5-.4,1-.3,1.5,0,.5.4,1,.8,1.3.4.3.8.4,1.2.4h0c.7,0,1.3-.3,1.7-.9.3-.5.4-1,.3-1.5,0-.5-.4-1-.8-1.3-.4-.3-.8-.4-1.2-.4Z"/>
  <polygon class="st1" points="344.4 318 246.3 318 246.3 317.5 344 317.5 344 264.6 344.4 264.6 344.4 318"/>
  <path class="st0" d="M346,250.9c2.8,0,5.1,2.3,5.1,5.1s-2.3,5.1-5.1,5.1-5.1-2.3-5.1-5.1,2.3-5.1,5.1-5.1h0Z"/>
  <path class="st1" d="M344.7,262.5h0c-.7,0-1.3-.1-1.9-.4-1.3-.5-2.3-1.5-2.9-2.8-.6-1.3-.6-2.7,0-4,.8-2,2.7-3.3,4.9-3.3s1.3.1,1.9.4c1.3.5,2.3,1.5,2.9,2.8.6,1.3.6,2.7,0,4-.8,2-2.7,3.3-4.9,3.3ZM344.7,252.4c-2,0-3.7,1.2-4.5,3.1-.5,1.2-.4,2.5,0,3.7.5,1.2,1.5,2.1,2.7,2.6.6.2,1.1.3,1.7.3,2,0,3.8-1.2,4.5-3.1.5-1.2.5-2.5,0-3.7-.5-1.2-1.5-2.1-2.7-2.6-.6-.2-1.2-.3-1.8-.3Z"/>
  <path class="st1" d="M135.8,59h0c-.5,0-1-.2-1.4-.5-.5-.4-.9-.9-1-1.6-.1-.7,0-1.3.4-1.9.5-.7,1.2-1.1,2.1-1.1s1,.2,1.4.5c.5.4.9,1,1,1.6.1.7,0,1.3-.4,1.9-.5.7-1.3,1.1-2.1,1.1ZM135.8,54.4c-.7,0-1.3.3-1.7.9-.3.5-.4,1-.3,1.6,0,.5.4,1,.8,1.3.4.3.8.4,1.2.4h0c.7,0,1.3-.3,1.7-.9.3-.5.4-1,.3-1.5,0-.5-.4-1-.8-1.3-.4-.3-.8-.4-1.2-.4Z"/>
  <polygon class="st1" points="32.1 109.9 31.7 109.9 31.7 56.6 129.8 56.6 129.8 57 32.1 57 32.1 109.9"/>
  <path class="st0" d="M30.1,123.6c-2.8,0-5.1-2.3-5.1-5.1s2.3-5.1,5.1-5.1,5.1,2.3,5.1,5.1-2.3,5.1-5.1,5.1h0Z"/>
  <path class="st1" d="M31.4,122.6h0c-.7,0-1.3-.1-1.9-.4-1.3-.5-2.3-1.5-2.9-2.8-.6-1.3-.6-2.7,0-4,.8-2,2.7-3.3,4.9-3.3s1.3.1,1.9.4c2.7,1.1,4,4.1,3,6.8-.8,2-2.7,3.3-4.9,3.3ZM31.3,112.5c-2,0-3.8,1.2-4.5,3.1-.5,1.2-.5,2.5,0,3.7.5,1.2,1.5,2.1,2.7,2.6.6.2,1.2.3,1.8.3,2,0,3.8-1.2,4.5-3.1,1-2.5-.3-5.3-2.7-6.3-.6-.2-1.1-.3-1.7-.3Z"/>
  <path class="st1" d="M240.2,59c-.8,0-1.6-.4-2.1-1.1-.8-1.1-.5-2.7.6-3.5.4-.3.9-.5,1.4-.5.8,0,1.6.4,2.1,1.1.4.6.5,1.2.4,1.9-.1.7-.5,1.2-1,1.6-.4.3-.9.5-1.4.5ZM240.2,54.4c-.4,0-.8.1-1.2.4-.9.7-1.2,1.9-.5,2.9.4.6,1,.9,1.7.9s.8-.1,1.2-.4c.5-.3.8-.8.8-1.3,0-.5,0-1.1-.3-1.6-.4-.6-1-.9-1.7-.9Z"/>
  <polygon class="st1" points="344.4 109.9 344 109.9 344 57 246.3 57 246.3 56.6 344.4 56.6 344.4 109.9"/>
  <path class="st0" d="M346,123.6c2.8,0,5.1-2.3,5.1-5.1s-2.3-5.1-5.1-5.1-5.1,2.3-5.1,5.1,2.3,5.1,5.1,5.1h0Z"/>
  <path class="st1" d="M344.7,122.6c-2.2,0-4.1-1.3-4.9-3.3-1-2.7.3-5.8,3-6.8.6-.2,1.3-.4,1.9-.4,2.2,0,4.1,1.3,4.9,3.3.5,1.3.5,2.7,0,4-.6,1.3-1.6,2.3-2.9,2.8-.6.2-1.3.4-1.9.4ZM344.7,112.5c-.6,0-1.2.1-1.7.3-2.5,1-3.7,3.8-2.7,6.3.7,1.9,2.5,3.1,4.5,3.1s1.2-.1,1.8-.3c1.2-.5,2.2-1.4,2.7-2.6.5-1.2.5-2.5,0-3.7-.7-1.8-2.5-3.1-4.5-3.1Z"/>
  <path class="st1" d="M139.7,320.6c-.8,0-1.6-.4-2.1-1.1-.4-.5-.5-1.2-.4-1.9.1-.7.5-1.2,1-1.6.4-.3.9-.5,1.4-.5.8,0,1.6.4,2.1,1.1.4.6.5,1.2.4,1.9-.1.7-.5,1.2-1,1.6-.4.3-.9.5-1.4.5ZM139.7,316c-.4,0-.8.1-1.2.4-.5.3-.8.8-.8,1.3,0,.5,0,1.1.3,1.5.4.6,1,.9,1.7.9s.8-.1,1.2-.4c.5-.3.8-.8.8-1.3,0-.5,0-1.1-.3-1.5-.4-.6-1-.9-1.7-.9Z"/>
  <polygon class="st1" points="133.6 318 35.5 318 35.5 264.6 35.9 264.6 35.9 317.5 133.6 317.5 133.6 318"/>
  <path class="st0" d="M33.9,250.9c-2.8,0-5.1,2.3-5.1,5.1s2.3,5.1,5.1,5.1,5.1-2.3,5.1-5.1-2.3-5.1-5.1-5.1h0Z"/>
  <path class="st1" d="M35.2,262.5c-2.2,0-4.1-1.3-4.9-3.3-.5-1.3-.5-2.7,0-4,.6-1.3,1.6-2.3,2.9-2.8.6-.2,1.3-.4,1.9-.4,2.2,0,4.1,1.3,4.9,3.3.5,1.3.5,2.7,0,4-.6,1.3-1.6,2.3-2.9,2.8-.6.2-1.3.4-1.9.4ZM35.2,252.4c-.6,0-1.2.1-1.8.3-1.2.5-2.2,1.4-2.7,2.6-.5,1.2-.5,2.5,0,3.7.7,1.8,2.5,3.1,4.5,3.1s1.2-.1,1.7-.3c1.2-.5,2.2-1.4,2.7-2.6.5-1.2.5-2.5,0-3.7-.7-1.9-2.5-3.1-4.5-3.1Z"/>
</svg>