<?xml version="1.0" encoding="UTF-8"?>
<svg id="Layer_1" xmlns="http://www.w3.org/2000/svg" version="1.1" viewBox="0 0 376.1 375.6">
  <!-- Generator: Adobe Illustrator 29.0.1, SVG Export Plug-In . SVG Version: 2.1.0 Build 192)  -->
  <defs>
    <style>
      .st0 {
        fill: #13d0fa;
      }

      .st0, .st1, .st2, .st3 {
        fill-rule: evenodd;
      }

      .st1, .st4 {
        fill: #141515;
      }

      .st3 {
        fill: #aedbf1;
      }
    </style>
  </defs>
  <path class="st4" d="M285.4,224c0,0-.1,0-.1,0,0,0,0-.1,0-.2s0-.1,0-.2c.1-.1.2,0,.3,0,0,0,0,.1,0,.2s0,.1,0,.2c0,0-.1,0-.2,0Z"/>
  <polygon class="st4" points="210.4 276.4 205.8 268.4 201.4 260.8 201.7 260.6 210.4 275.6 214.7 268.2 219.1 260.6 219.5 260.8 215 268.4 210.4 276.4"/>
  <path class="st4" d="M210.4,263.7c-5.2,0-9.2-1.6-9.2-3.6s4.1-3.6,9.2-3.6,9.2,1.6,9.2,3.6-4.1,3.6-9.2,3.6ZM210.4,256.9c-4.8,0-8.8,1.5-8.8,3.2s4,3.2,8.8,3.2,8.8-1.5,8.8-3.2-4-3.2-8.8-3.2Z"/>
  <path class="st4" d="M162,269.2c-6.9,0-13.6-2.8-18.5-8,0,0,0-.2,0-.3,0,0,.2,0,.3,0,6.9,7.5,17.7,9.9,27.4,6.2,2.9-1.1,5.6-2.8,7.9-4.9,0,0,.2,0,.3,0,0,0,0,.2,0,.3-2.3,2.2-5,3.9-8,5-3.1,1.2-6.3,1.8-9.4,1.8Z"/>
  <path class="st4" d="M260.6,170.9h0c-1.3,0-2.7-.2-3.9-.7-2.7-1-4.8-3.1-5.9-5.7-1.2-2.6-1.2-5.6-.2-8.2,1.6-4.1,5.6-6.8,10-6.8s2.7.3,3.9.7c2.7,1,4.8,3.1,5.9,5.7,1.1,2.6,1.2,5.5.1,8.2-1.6,4.1-5.6,6.8-10,6.8ZM260.6,149.9c-4.3,0-8,2.6-9.6,6.5-1,2.6-.9,5.4.2,7.9,1.1,2.5,3.1,4.5,5.7,5.5,1.2.5,2.5.7,3.8.7h0c4.3,0,8-2.6,9.6-6.5,1-2.6,1-5.4-.1-7.9-1.1-2.5-3.1-4.5-5.7-5.5-1.2-.5-2.5-.7-3.8-.7Z"/>
  <path class="st4" d="M248,269.1l-5.6-3.8,3.8-5.6,5.6,3.8-3.9,5.6ZM243.1,265.2l4.8,3.3,3.3-4.8-4.9-3.3-3.3,4.8Z"/>
  <rect class="st4" x="224.6" y="284.3" width=".5" height="7.1"/>
  <rect class="st4" x="217.5" y="284.3" width=".5" height="7.1"/>
  <rect class="st4" x="210.4" y="284.3" width=".5" height="7.1"/>
  <rect class="st4" x="203.3" y="284.3" width=".5" height="7.1"/>
  <rect class="st4" x="196.2" y="284.3" width=".5" height="7.1"/>
  <rect class="st4" x="189" y="284.3" width=".5" height="7.1"/>
  <rect class="st4" x="181.9" y="284.3" width=".5" height="7.1"/>
  <path class="st1" d="M274.4,137.7v-.2c0,0,.4,0,.4,0v.4s-.3,0-.3,0v-.2ZM275.6,135.7h0s0,0,0,0h0ZM276.2,134.6l.3-.4h0v.4s-.3,0-.3,0ZM277,133.2v-.2c.1,0,.4,0,.4,0v.4s-.3,0-.3,0v-.2ZM278.2,131.1h0s0,0,0,0h0ZM278.9,130l.2-.4v.4s-.2,0-.2,0ZM279.7,128.6v-.2c0,0,.4,0,.4,0v.4s-.3,0-.3,0v-.2ZM280.8,126.6h0s0,0,0,0h0ZM281.5,125.5l.2-.4v.4s-.2,0-.2,0ZM282.3,124.1v-.2c.1,0,.4,0,.4,0v.4s-.4,0-.4,0v-.2ZM283.4,122h0s0,0,0,0h0ZM284.1,120.9l.2-.4v.4s-.2,0-.2,0ZM284.9,119.5v-.2c.1,0,.4,0,.4,0v.4s-.3,0-.3,0v-.2ZM286.1,117.5h0s0,0,0,0ZM286.7,116.3l.2-.4v.4s-.2,0-.2,0ZM287.5,115v-.2c.1,0,.4,0,.4,0v.4s-.4,0-.4,0v-.2ZM288.7,112.9h0ZM289.3,111.8l.2-.4v.4s-.2,0-.2,0ZM290.4,112.5v.2c0,0,0,0,0,0v-.2ZM290.8,113.3h0c0,0,0,.4,0,.4h-.4s0-.3,0-.3h.4ZM292,115.3l.2.4h-.4s0-.3,0-.3h.2ZM293.1,117.3l.2.4h-.2s0-.4,0-.4h0ZM294.4,119.5h0c0,.1,0,.1,0,.1h0ZM294.8,120.2h0c0,.1,0,.4,0,.4h-.4s0-.3,0-.3h.3ZM296,122.2l.2.4h-.4s0-.3,0-.3h.2ZM297.1,124.2l.2.4h-.2s0-.4,0-.4h0ZM298.4,126.5h0c0,0,0,0,0,0h0ZM298.8,127.1v.2c0,0,.1.2.1.2h-.4s0-.3,0-.3h.3ZM300,129.1l.2.4h-.3s0-.3,0-.3h.2ZM301.1,131.1l.2.4h-.2s0-.4,0-.4h0ZM302.5,133.4h0s0,0,0,0h0ZM302.8,134.1v.2c.1,0,.1.2.1.2h-.4s0-.3,0-.3h.3ZM304,136l.2.4h-.3s0-.3,0-.3h.1ZM305.2,138v.2c0,0,0,0,0,0v-.2ZM304.5,138.2h-.4c0,0,.4-.1.4-.1h0ZM298.2,138.2h-.4v-.3s.4,0,.4,0v.4s0,0,0,0ZM297.1,138.2h-.4s0-.2,0-.2h.4s0,.2,0,.2ZM296.1,138.2h-.4c0,0,.4-.1.4-.1h0ZM295,138.2h0,0s0,0,0,0ZM289.5,138.2h-.1v-.4s.3,0,.3,0v.4s-.2,0-.2,0ZM288.6,138.2h-.4v-.2s.4,0,.4,0v.3ZM287.6,138.2h-.4c0-.1.4-.2.4-.2v.2ZM286.5,138.2h-.3.3s0,0,0,0ZM280.2,138.2h-.4v-.3s.4,0,.4,0v.3ZM279.1,138.2h-.4c0-.1.4-.2.4-.2v.2ZM278.1,138.2h-.4s.4,0,.4,0h0ZM304,137.5h.4s0-.4,0-.4h-.4s0,.4,0,.4ZM303,137.6h.4s0-.4,0-.4h-.4s0,.4,0,.4ZM302,137.7h.4s0-.4,0-.4h-.4s0,.4,0,.4ZM300.9,137.9h.4s0-.4,0-.4h-.4s0,.4,0,.4ZM299.9,138h.4s0-.4,0-.4h-.4s0,.4,0,.4ZM298.8,138.1h.4s0-.4,0-.4h-.4s0,.4,0,.4ZM302.8,136.6h.4s0-.4,0-.4h-.4s0,.4,0,.4ZM301.8,136.7h.4s0-.4,0-.4h-.4s0,.4,0,.4ZM300.8,136.8h.4s0-.4,0-.4h-.4s0,.4,0,.4ZM299.7,136.9h.4s0-.4,0-.4h-.4s0,.4,0,.4ZM298.7,137.1h.4s0-.4,0-.4h-.4s0,.4,0,.4ZM297.6,137.2h.4s0-.4,0-.4h-.4s0,.4,0,.4ZM296.6,137.3h.4s0-.4,0-.4h-.4s0,.4,0,.4ZM295.5,137.5h.4s0-.4,0-.4h-.4s0,.4,0,.4ZM294.5,137.6h.4s0-.4,0-.4h-.4s0,.4,0,.4ZM293.5,137.7h.4s0-.4,0-.4h-.4s0,.4,0,.4ZM292.4,137.9h.4s0-.4,0-.4h-.4s0,.4,0,.4ZM291.4,138h.4s0-.4,0-.4h-.4s0,.4,0,.4ZM290.3,138.1h.4s0-.5,0-.5h-.4s0,.5,0,.5ZM302.7,135.5h.4s0-.4,0-.4h-.4s0,.4,0,.4ZM301.7,135.6h.4s0-.4,0-.4h-.4s0,.4,0,.4ZM300.7,135.8h.4s0-.4,0-.4h-.4s0,.4,0,.4ZM299.6,135.9h.4s0-.4,0-.4h-.4s0,.4,0,.4ZM298.6,136h.4s0-.4,0-.4h-.4s0,.4,0,.4ZM297.5,136.2h.4s0-.4,0-.4h-.4s0,.4,0,.4ZM296.5,136.3h.4s0-.4,0-.4h-.4s0,.4,0,.4ZM295.4,136.4h.4s0-.4,0-.4h-.4s0,.4,0,.4ZM294.4,136.6h.4s0-.4,0-.4h-.4s0,.4,0,.4ZM293.4,136.7h.4s0-.4,0-.4h-.4s0,.4,0,.4ZM292.3,136.8h.4s0-.5,0-.5h-.4s0,.5,0,.5ZM291.3,136.9h.4s0-.4,0-.4h-.4s0,.4,0,.4ZM290.2,137.1h.4s0-.4,0-.4h-.4s0,.4,0,.4ZM289.2,137.2h.4s0-.5,0-.5h-.4s0,.5,0,.5ZM288.1,137.3h.4s0-.4,0-.4h-.4s0,.4,0,.4ZM287.1,137.5h.4s0-.4,0-.4h-.4s0,.4,0,.4ZM286.1,137.6h.4s0-.5,0-.5h-.4s0,.5,0,.5ZM285,137.7h.4s0-.4,0-.4h-.4s0,.4,0,.4ZM284,137.8h.4s0-.4,0-.4h-.4s0,.4,0,.4ZM282.9,138h.4s0-.4,0-.4h-.4s0,.4,0,.4ZM281.9,138.1h.4s0-.4,0-.4h-.4s0,.4,0,.4ZM280.8,138.2h.4s0-.4,0-.4h-.4s0,.4,0,.4ZM301.5,134.6h.4s0-.4,0-.4h-.4s0,.4,0,.4ZM300.5,134.7h.4s0-.4,0-.4h-.4s0,.4,0,.4ZM299.5,134.9h.4s0-.4,0-.4h-.4s0,.4,0,.4ZM298.4,135h.4s0-.4,0-.4h-.4s0,.4,0,.4ZM297.4,135.1h.4s0-.5,0-.5h-.4s0,.5,0,.5ZM296.3,135.3h.4s0-.4,0-.4h-.4s0,.4,0,.4ZM295.3,135.4h.4s0-.4,0-.4h-.4s0,.4,0,.4ZM294.2,135.5h.4s0-.5,0-.5h-.4s0,.5,0,.5ZM293.2,135.6h.4s0-.4,0-.4h-.4s0,.4,0,.4ZM292.2,135.8h.4s0-.4,0-.4h-.4s0,.4,0,.4ZM291.1,135.9h.4s0-.5,0-.5h-.4s0,.5,0,.5ZM290.1,136h.4s0-.4,0-.4h-.4s0,.4,0,.4ZM289,136.2h.4s0-.4,0-.4h-.4s0,.4,0,.4ZM288,136.3h.4s0-.5,0-.5h-.4s0,.5,0,.5ZM287,136.4h.4s0-.4,0-.4h-.4s0,.4,0,.4ZM285.9,136.5h.4s0-.4,0-.4h-.4s0,.4,0,.4ZM284.9,136.7h.4s0-.4,0-.4h-.4s0,.4,0,.4ZM283.8,136.8h.4s0-.4,0-.4h-.4s0,.4,0,.4ZM282.8,136.9h.4s0-.4,0-.4h-.4s0,.4,0,.4ZM281.7,137.1h.4s0-.4,0-.4h-.4s0,.4,0,.4ZM280.7,137.2h.4s0-.4,0-.4h-.4s0,.4,0,.4ZM279.7,137.3h.4s0-.4,0-.4h-.4s0,.4,0,.4ZM278.6,137.5h.4s0-.4,0-.4h-.4s0,.4,0,.4ZM277.6,137.6h.4s0-.4,0-.4h-.4s0,.4,0,.4ZM276.5,137.7h.4s0-.4,0-.4h-.4s0,.4,0,.4ZM275.5,137.8h.4s0-.4,0-.4h-.4s0,.4,0,.4ZM301.4,133.6h.4s0-.4,0-.4h-.4s0,.4,0,.4ZM300.4,133.7h.4s0-.4,0-.4h-.4s0,.4,0,.4ZM299.4,133.8h.4s0-.5,0-.5h-.4s0,.5,0,.5ZM298.3,134h.4s0-.4,0-.4h-.4s0,.4,0,.4ZM297.3,134.1h.4s0-.4,0-.4h-.4s0,.4,0,.4ZM296.2,134.2h.4s0-.5,0-.5h-.4s0,.5,0,.5ZM295.2,134.3h.4s0-.4,0-.4h-.4s0,.4,0,.4ZM294.1,134.5h.4s0-.4,0-.4h-.4s0,.4,0,.4ZM293.1,134.6h.4s0-.5,0-.5h-.4s0,.5,0,.5ZM292.1,134.7h.4s0-.4,0-.4h-.4s0,.4,0,.4ZM291,134.9h.4s0-.4,0-.4h-.4s0,.4,0,.4ZM290,135h.4s0-.4,0-.4h-.4s0,.4,0,.4ZM288.9,135.1h.4s0-.4,0-.4h-.4s0,.4,0,.4ZM287.9,135.2h.4s0-.4,0-.4h-.4s0,.4,0,.4ZM286.8,135.4h.4s0-.4,0-.4h-.4s0,.4,0,.4ZM285.8,135.5h.4s0-.4,0-.4h-.4s0,.4,0,.4ZM284.8,135.6h.4s0-.4,0-.4h-.4s0,.4,0,.4ZM283.7,135.8h.4s0-.4,0-.4h-.4s0,.4,0,.4ZM282.7,135.9h.4s0-.4,0-.4h-.4s0,.4,0,.4ZM281.6,136h.4s0-.4,0-.4h-.4s0,.4,0,.4ZM280.6,136.2h.4s0-.4,0-.4h-.4s0,.4,0,.4ZM279.5,136.3h.4s0-.4,0-.4h-.4s0,.4,0,.4ZM278.5,136.4h.4s0-.4,0-.4h-.4s0,.4,0,.4ZM277.5,136.5h.4s0-.4,0-.4h-.4s0,.4,0,.4ZM276.4,136.7h.4s0-.4,0-.4h-.4s0,.4,0,.4ZM275.4,136.8h.4s0-.4,0-.4h-.4s0,.4,0,.4ZM301.3,132.5h.4s0-.5,0-.5h-.4s0,.5,0,.5ZM300.3,132.7h.4s0-.4,0-.4h-.4s0,.4,0,.4ZM299.2,132.8h.4s0-.4,0-.4h-.4s0,.4,0,.4ZM298.2,132.9h.4s0-.5,0-.5h-.4s0,.5,0,.5ZM297.1,133h.4s0-.4,0-.4h-.4s0,.4,0,.4ZM296.1,133.2h.4s0-.4,0-.4h-.4s0,.4,0,.4ZM295,133.3h.4s0-.4,0-.4h-.4s0,.4,0,.4ZM294,133.4h.4s0-.4,0-.4h-.4s0,.4,0,.4ZM293,133.6h.4s0-.4,0-.4h-.4s0,.4,0,.4ZM291.9,133.7h.4s0-.4,0-.4h-.4s0,.4,0,.4ZM290.9,133.8h.4s0-.4,0-.4h-.4s0,.4,0,.4ZM289.8,133.9h.4s0-.4,0-.4h-.4s0,.4,0,.4ZM288.8,134.1h.4s0-.4,0-.4h-.4s0,.4,0,.4ZM287.7,134.2h.4s0-.4,0-.4h-.4s0,.4,0,.4ZM286.7,134.3h.4s0-.4,0-.4h-.4s0,.4,0,.4ZM285.7,134.5h.4s0-.4,0-.4h-.4s0,.4,0,.4ZM284.6,134.6h.4s0-.4,0-.4h-.4s0,.4,0,.4ZM283.6,134.7h.4s0-.4,0-.4h-.4s0,.4,0,.4ZM282.5,134.9h.4s0-.4,0-.4h-.4s0,.4,0,.4ZM281.5,135h.4s0-.4,0-.4h-.4s0,.4,0,.4ZM280.4,135.1h.4s0-.4,0-.4h-.4s0,.4,0,.4ZM279.4,135.2h.4s0-.4,0-.4h-.4s0,.4,0,.4ZM278.4,135.4h.4s0-.4,0-.4h-.4s0,.4,0,.4ZM277.3,135.5h.4s0-.4,0-.4h-.4s0,.4,0,.4ZM276.3,135.6h.4s0-.4,0-.4h-.4s0,.4,0,.4ZM300.1,131.6h.4s0-.4,0-.4h-.4s0,.4,0,.4ZM299.1,131.7h.4s0-.4,0-.4h-.4s0,.4,0,.4ZM298.1,131.9h.4s0-.4,0-.4h-.4s0,.4,0,.4ZM297,132h.4s0-.4,0-.4h-.4s0,.4,0,.4ZM296,132.1h.4s0-.4,0-.4h-.4s0,.4,0,.4ZM294.9,132.3h.4s0-.4,0-.4h-.4s0,.4,0,.4ZM293.9,132.4h.4s0-.4,0-.4h-.4s0,.4,0,.4ZM292.8,132.5h.4s0-.4,0-.4h-.4s0,.4,0,.4ZM291.8,132.6h.4s0-.4,0-.4h-.4s0,.4,0,.4ZM290.8,132.8h.4s0-.4,0-.4h-.4s0,.4,0,.4ZM289.7,132.9h.4s0-.4,0-.4h-.4s0,.4,0,.4ZM288.7,133h.4s0-.4,0-.4h-.4s0,.4,0,.4ZM287.6,133.2h.4s0-.4,0-.4h-.4s0,.4,0,.4ZM286.6,133.3h.4s0-.4,0-.4h-.4s0,.4,0,.4ZM285.5,133.4h.4s0-.4,0-.4h-.4s0,.4,0,.4ZM284.5,133.6h.4s0-.4,0-.4h-.4s0,.4,0,.4ZM283.5,133.7h.4s0-.4,0-.4h-.4s0,.4,0,.4ZM282.4,133.8h.4s0-.4,0-.4h-.4s0,.4,0,.4ZM281.4,133.9h.4s0-.4,0-.4h-.4s0,.4,0,.4ZM280.3,134.1h.4s0-.4,0-.4h-.4s0,.4,0,.4ZM279.3,134.2h.4s0-.5,0-.5h-.4s0,.5,0,.5ZM278.2,134.3h.4s0-.4,0-.4h-.4s0,.4,0,.4ZM277.2,134.4h.4s0-.4,0-.4h-.4s0,.4,0,.4ZM300,130.6h.4s0-.4,0-.4h-.4s0,.4,0,.4ZM299,130.7h.4s0-.4,0-.4h-.4s0,.4,0,.4ZM297.9,130.8h.4s0-.4,0-.4h-.4s0,.4,0,.4ZM296.9,131h.4s0-.4,0-.4h-.4s0,.4,0,.4ZM295.8,131.1h.4s0-.4,0-.4h-.4s0,.4,0,.4ZM294.8,131.2h.4s0-.4,0-.4h-.4s0,.4,0,.4ZM293.7,131.3h.4s0-.4,0-.4h-.4s0,.4,0,.4ZM292.7,131.5h.4s0-.4,0-.4h-.4s0,.4,0,.4ZM291.7,131.6h.4s0-.4,0-.4h-.4s0,.4,0,.4ZM290.6,131.7h.4s0-.4,0-.4h-.4s0,.4,0,.4ZM289.6,131.9h.4s0-.4,0-.4h-.4s0,.4,0,.4ZM288.5,132h.4s0-.4,0-.4h-.4s0,.4,0,.4ZM287.5,132.1h.4s0-.4,0-.4h-.4s0,.4,0,.4ZM286.4,132.3h.4s0-.4,0-.4h-.4s0,.4,0,.4ZM285.4,132.4h.4s0-.4,0-.4h-.4s0,.4,0,.4ZM284.4,132.5h.4s0-.5,0-.5h-.4s0,.5,0,.5ZM283.3,132.6h.4s0-.4,0-.4h-.4s0,.4,0,.4ZM282.3,132.8h.4s0-.4,0-.4h-.4s0,.4,0,.4ZM281.2,132.9h.4s0-.5,0-.5h-.4s0,.5,0,.5ZM280.2,133h.4s0-.4,0-.4h-.4s0,.4,0,.4ZM279.1,133.1h.4s0-.4,0-.4h-.4s0,.4,0,.4ZM278.1,133.3h.4s0-.5,0-.5h-.4s0,.5,0,.5ZM298.8,129.7h.4s0-.4,0-.4h-.4s0,.4,0,.4ZM297.8,129.8h.4s0-.4,0-.4h-.4s0,.4,0,.4ZM296.8,129.9h.4s0-.4,0-.4h-.4s0,.4,0,.4ZM295.7,130h.4s0-.4,0-.4h-.4s0,.4,0,.4ZM294.7,130.2h.4s0-.4,0-.4h-.4s0,.4,0,.4ZM293.6,130.3h.4s0-.4,0-.4h-.4s0,.4,0,.4ZM292.6,130.4h.4s0-.4,0-.4h-.4s0,.4,0,.4ZM291.5,130.6h.4s0-.4,0-.4h-.4s0,.4,0,.4ZM290.5,130.7h.4s0-.4,0-.4h-.4s0,.4,0,.4ZM289.5,130.8h.4s0-.4,0-.4h-.4s0,.4,0,.4ZM288.4,131h.4s0-.4,0-.4h-.4s0,.4,0,.4ZM287.4,131.1h.4s0-.4,0-.4h-.4s0,.4,0,.4ZM286.3,131.2h.4s0-.5,0-.5h-.4s0,.5,0,.5ZM285.3,131.3h.4s0-.4,0-.4h-.4s0,.4,0,.4ZM284.2,131.5h.4s0-.4,0-.4h-.4s0,.4,0,.4ZM283.2,131.6h.4s0-.5,0-.5h-.4s0,.5,0,.5ZM282.2,131.7h.4s0-.4,0-.4h-.4s0,.4,0,.4ZM281.1,131.8h.4s0-.4,0-.4h-.4s0,.4,0,.4ZM280.1,132h.4s0-.5,0-.5h-.4s0,.5,0,.5ZM279,132.1h.4s0-.4,0-.4h-.4s0,.4,0,.4ZM278,132.2h.4s0-.4,0-.4h-.4s0,.4,0,.4ZM298.7,128.6h.4s0-.4,0-.4h-.4s0,.4,0,.4ZM297.7,128.7h.4s0-.4,0-.4h-.4s0,.4,0,.4ZM296.6,128.9h.4s0-.4,0-.4h-.4s0,.4,0,.4ZM295.6,129h.4s0-.4,0-.4h-.4s0,.4,0,.4ZM294.5,129.1h.4s0-.4,0-.4h-.4s0,.4,0,.4ZM293.5,129.3h.4s0-.4,0-.4h-.4s0,.4,0,.4ZM292.4,129.4h.4s0-.4,0-.4h-.4s0,.4,0,.4ZM291.4,129.5h.4s0-.5,0-.5h-.4s0,.5,0,.5ZM290.4,129.7h.4s0-.4,0-.4h-.4s0,.4,0,.4ZM289.3,129.8h.4s0-.4,0-.4h-.4s0,.4,0,.4ZM288.3,129.9h.4s0-.5,0-.5h-.4s0,.5,0,.5ZM287.2,130h.4s0-.4,0-.4h-.4s0,.4,0,.4ZM286.2,130.2h.4s0-.4,0-.4h-.4s0,.4,0,.4ZM285.1,130.3h.4s0-.5,0-.5h-.4s0,.5,0,.5ZM284.1,130.4h.4s0-.4,0-.4h-.4s0,.4,0,.4ZM283.1,130.5h.4s0-.4,0-.4h-.4s0,.4,0,.4ZM282,130.7h.4s0-.4,0-.4h-.4s0,.4,0,.4ZM281,130.8h.4s0-.4,0-.4h-.4s0,.4,0,.4ZM279.9,130.9h.4s0-.4,0-.4h-.4s0,.4,0,.4ZM278.9,131.1h.4s0-.4,0-.4h-.4s0,.4,0,.4ZM297.5,127.7h.4s0-.4,0-.4h-.4s0,.4,0,.4ZM296.5,127.8h.4s0-.5,0-.5h-.4s0,.5,0,.5ZM295.5,128h.4s0-.4,0-.4h-.4s0,.4,0,.4ZM294.4,128.1h.4s0-.4,0-.4h-.4s0,.4,0,.4ZM293.4,128.2h.4s0-.5,0-.5h-.4s0,.5,0,.5ZM292.3,128.4h.4s0-.4,0-.4h-.4s0,.4,0,.4ZM291.3,128.5h.4s0-.4,0-.4h-.4s0,.4,0,.4ZM290.2,128.6h.4s0-.5,0-.5h-.4s0,.5,0,.5ZM289.2,128.7h.4s0-.4,0-.4h-.4s0,.4,0,.4ZM288.2,128.9h.4s0-.4,0-.4h-.4s0,.4,0,.4ZM287.1,129h.4s0-.5,0-.5h-.4s0,.5,0,.5ZM286.1,129.1h.4s0-.4,0-.4h-.4s0,.4,0,.4ZM285,129.2h.4s0-.4,0-.4h-.4s0,.4,0,.4ZM284,129.4h.4s0-.4,0-.4h-.4s0,.4,0,.4ZM282.9,129.5h.4s0-.4,0-.4h-.4s0,.4,0,.4ZM281.9,129.6h.4s0-.4,0-.4h-.4s0,.4,0,.4ZM280.9,129.8h.4s0-.4,0-.4h-.4s0,.4,0,.4ZM279.8,129.9h.4s0-.4,0-.4h-.4s0,.4,0,.4ZM297.4,126.7h.4s0-.4,0-.4h-.4s0,.4,0,.4ZM296.4,126.8h.4s0-.4,0-.4h-.4s0,.4,0,.4ZM295.3,126.9h.4s0-.5,0-.5h-.4s0,.5,0,.5ZM294.3,127.1h.4s0-.4,0-.4h-.4s0,.4,0,.4ZM293.2,127.2h.4s0-.4,0-.4h-.4s0,.4,0,.4ZM292.2,127.3h.4s0-.5,0-.5h-.4s0,.5,0,.5ZM291.1,127.4h.4s0-.4,0-.4h-.4s0,.4,0,.4ZM290.1,127.6h.4s0-.4,0-.4h-.4s0,.4,0,.4ZM289.1,127.7h.4s0-.4,0-.4h-.4s0,.4,0,.4ZM288,127.8h.4s0-.4,0-.4h-.4s0,.4,0,.4ZM287,127.9h.4s0-.4,0-.4h-.4s0,.4,0,.4ZM285.9,128.1h.4s0-.4,0-.4h-.4s0,.4,0,.4ZM284.9,128.2h.4s0-.4,0-.4h-.4s0,.4,0,.4ZM283.8,128.3h.4s0-.4,0-.4h-.4s0,.4,0,.4ZM282.8,128.5h.4s0-.4,0-.4h-.4s0,.4,0,.4ZM281.8,128.6h.4s0-.4,0-.4h-.4s0,.4,0,.4ZM280.7,128.7h.4s0-.4,0-.4h-.4s0,.4,0,.4ZM297.3,125.6h.4s0-.5,0-.5h-.4s0,.5,0,.5ZM296.2,125.8h.4s0-.4,0-.4h-.4s0,.4,0,.4ZM295.2,125.9h.4s0-.4,0-.4h-.4s0,.4,0,.4ZM294.2,126h.4s0-.4,0-.4h-.4s0,.4,0,.4ZM293.1,126.1h.4s0-.4,0-.4h-.4s0,.4,0,.4ZM292.1,126.3h.4s0-.4,0-.4h-.4s0,.4,0,.4ZM291,126.4h.4s0-.4,0-.4h-.4s0,.4,0,.4ZM290,126.5h.4s0-.4,0-.4h-.4s0,.4,0,.4ZM288.9,126.6h.4s0-.4,0-.4h-.4s0,.4,0,.4ZM287.9,126.8h.4s0-.4,0-.4h-.4s0,.4,0,.4ZM286.9,126.9h.4s0-.4,0-.4h-.4s0,.4,0,.4ZM285.8,127h.4s0-.4,0-.4h-.4s0,.4,0,.4ZM284.8,127.2h.4s0-.4,0-.4h-.4s0,.4,0,.4ZM283.7,127.3h.4s0-.4,0-.4h-.4s0,.4,0,.4ZM282.7,127.4h.4s0-.4,0-.4h-.4s0,.4,0,.4ZM281.6,127.6h.4s0-.4,0-.4h-.4s0,.4,0,.4ZM280.6,127.7h.4s0-.4,0-.4h-.4s0,.4,0,.4ZM296.1,124.7h.4s0-.4,0-.4h-.4s0,.4,0,.4ZM295.1,124.8h.4s0-.4,0-.4h-.4s0,.4,0,.4ZM294,125h.4s0-.4,0-.4h-.4s0,.4,0,.4ZM293,125.1h.4s0-.4,0-.4h-.4s0,.4,0,.4ZM291.9,125.2h.4s0-.4,0-.4h-.4s0,.4,0,.4ZM290.9,125.3h.4s0-.4,0-.4h-.4s0,.4,0,.4ZM289.8,125.5h.4s0-.4,0-.4h-.4s0,.4,0,.4ZM288.8,125.6h.4s0-.4,0-.4h-.4s0,.4,0,.4ZM287.8,125.7h.4s0-.4,0-.4h-.4s0,.4,0,.4ZM286.7,125.9h.4s0-.4,0-.4h-.4s0,.4,0,.4ZM285.7,126h.4s0-.4,0-.4h-.4s0,.4,0,.4ZM284.6,126.1h.4s0-.4,0-.4h-.4s0,.4,0,.4ZM283.6,126.3h.4s0-.4,0-.4h-.4s0,.4,0,.4ZM282.5,126.4h.4s0-.4,0-.4h-.4s0,.4,0,.4ZM281.5,126.5h.4s0-.4,0-.4h-.4s0,.4,0,.4ZM296,123.7h.4s0-.4,0-.4h-.4s0,.4,0,.4ZM294.9,123.8h.4s0-.4,0-.4h-.4s0,.4,0,.4ZM293.9,123.9h.4s0-.4,0-.4h-.4s0,.4,0,.4ZM292.9,124h.4s0-.4,0-.4h-.4s0,.4,0,.4ZM291.8,124.2h.4s0-.4,0-.4h-.4s0,.4,0,.4ZM290.8,124.3h.4s0-.4,0-.4h-.4s0,.4,0,.4ZM289.7,124.4h.4s0-.4,0-.4h-.4s0,.4,0,.4ZM288.7,124.6h.4s0-.4,0-.4h-.4s0,.4,0,.4ZM287.6,124.7h.4s0-.4,0-.4h-.4s0,.4,0,.4ZM286.6,124.8h.4s0-.4,0-.4h-.4s0,.4,0,.4ZM285.6,125h.4s0-.4,0-.4h-.4s0,.4,0,.4ZM284.5,125.1h.4s0-.4,0-.4h-.4s0,.4,0,.4ZM283.5,125.2h.4s0-.4,0-.4h-.4s0,.4,0,.4ZM282.4,125.3h.4s0-.4,0-.4h-.4s0,.4,0,.4ZM294.8,122.7h.4s0-.4,0-.4h-.4s0,.4,0,.4ZM293.8,122.9h.4s0-.4,0-.4h-.4s0,.4,0,.4ZM292.7,123h.4s0-.4,0-.4h-.4s0,.4,0,.4ZM291.7,123.1h.4s0-.4,0-.4h-.4s0,.4,0,.4ZM290.6,123.3h.4s0-.4,0-.4h-.4s0,.4,0,.4ZM289.6,123.4h.4s0-.4,0-.4h-.4s0,.4,0,.4ZM288.5,123.5h.4s0-.4,0-.4h-.4s0,.4,0,.4ZM287.5,123.7h.4s0-.4,0-.4h-.4s0,.4,0,.4ZM286.5,123.8h.4s0-.4,0-.4h-.4s0,.4,0,.4ZM285.4,123.9h.4s0-.5,0-.5h-.4s0,.5,0,.5ZM284.4,124h.4s0-.4,0-.4h-.4s0,.4,0,.4ZM283.3,124.2h.4s0-.4,0-.4h-.4s0,.4,0,.4ZM294.7,121.7h.4s0-.4,0-.4h-.4s0,.4,0,.4ZM293.6,121.8h.4s0-.4,0-.4h-.4s0,.4,0,.4ZM292.6,122h.4s0-.4,0-.4h-.4s0,.4,0,.4ZM291.6,122.1h.4s0-.4,0-.4h-.4s0,.4,0,.4ZM290.5,122.2h.4s0-.5,0-.5h-.4s0,.5,0,.5ZM289.5,122.4h.4s0-.4,0-.4h-.4s0,.4,0,.4ZM288.4,122.5h.4s0-.4,0-.4h-.4s0,.4,0,.4ZM287.4,122.6h.4s0-.5,0-.5h-.4s0,.5,0,.5ZM286.3,122.7h.4s0-.4,0-.4h-.4s0,.4,0,.4ZM285.3,122.9h.4s0-.4,0-.4h-.4s0,.4,0,.4ZM284.3,123h.4s0-.5,0-.5h-.4s0,.5,0,.5ZM283.2,123.1h.4s0-.4,0-.4h-.4s0,.4,0,.4ZM293.5,120.8h.4s0-.4,0-.4h-.4s0,.4,0,.4ZM292.5,120.9h.4s0-.5,0-.5h-.4s0,.5,0,.5ZM291.4,121.1h.4s0-.4,0-.4h-.4s0,.4,0,.4ZM290.4,121.2h.4s0-.4,0-.4h-.4s0,.4,0,.4ZM289.3,121.3h.4s0-.5,0-.5h-.4s0,.5,0,.5ZM288.3,121.4h.4s0-.4,0-.4h-.4s0,.4,0,.4ZM287.2,121.6h.4s0-.4,0-.4h-.4s0,.4,0,.4ZM286.2,121.7h.4s0-.5,0-.5h-.4s0,.5,0,.5ZM285.2,121.8h.4s0-.4,0-.4h-.4s0,.4,0,.4ZM284.1,122h.4s0-.4,0-.4h-.4s0,.4,0,.4ZM293.4,119.8h.4s0-.4,0-.4h-.4s0,.4,0,.4ZM292.3,119.9h.4s0-.4,0-.4h-.4s0,.4,0,.4ZM291.3,120h.4s0-.5,0-.5h-.4s0,.5,0,.5ZM290.3,120.1h.4s0-.4,0-.4h-.4s0,.4,0,.4ZM289.2,120.3h.4s0-.4,0-.4h-.4s0,.4,0,.4ZM288.2,120.4h.4s0-.4,0-.4h-.4s0,.4,0,.4ZM287.1,120.5h.4s0-.4,0-.4h-.4s0,.4,0,.4ZM286.1,120.7h.4s0-.4,0-.4h-.4s0,.4,0,.4ZM285,120.8h.4s0-.4,0-.4h-.4s0,.4,0,.4ZM293.2,118.7h.4s0-.4,0-.4h-.4s0,.4,0,.4ZM292.2,118.8h.4s0-.4,0-.4h-.4s0,.4,0,.4ZM291.2,119h.4s0-.4,0-.4h-.4s0,.4,0,.4ZM290.1,119.1h.4s0-.4,0-.4h-.4s0,.4,0,.4ZM289.1,119.2h.4s0-.4,0-.4h-.4s0,.4,0,.4ZM288,119.4h.4s0-.4,0-.4h-.4s0,.4,0,.4ZM287,119.5h.4s0-.4,0-.4h-.4s0,.4,0,.4ZM285.9,119.6h.4s0-.4,0-.4h-.4s0,.4,0,.4ZM292.1,117.8h.4s0-.4,0-.4h-.4s0,.4,0,.4ZM291,117.9h.4s0-.4,0-.4h-.4s0,.4,0,.4ZM290,118.1h.4s0-.4,0-.4h-.4s0,.4,0,.4ZM288.9,118.2h.4s0-.4,0-.4h-.4s0,.4,0,.4ZM287.9,118.3h.4s0-.4,0-.4h-.4s0,.4,0,.4ZM286.9,118.4h.4s0-.4,0-.4h-.4s0,.4,0,.4ZM285.8,118.6h.4s0-.4,0-.4h-.4s0,.4,0,.4ZM291.9,116.8h.4s0-.4,0-.4h-.4s0,.4,0,.4ZM290.9,116.9h.4s0-.4,0-.4h-.4s0,.4,0,.4ZM289.9,117h.4s0-.4,0-.4h-.4s0,.4,0,.4ZM288.8,117.1h.4s0-.4,0-.4h-.4s0,.4,0,.4ZM287.8,117.3h.4s0-.4,0-.4h-.4s0,.4,0,.4ZM286.7,117.4h.4s0-.4,0-.4h-.4s0,.4,0,.4ZM290.8,115.8h.4s0-.4,0-.4h-.4s0,.4,0,.4ZM289.7,116h.4s0-.4,0-.4h-.4s0,.4,0,.4ZM288.7,116.1h.4s0-.4,0-.4h-.4s0,.4,0,.4ZM287.6,116.2h.4s0-.4,0-.4h-.4s0,.4,0,.4ZM290.6,114.8h.4s0-.4,0-.4h-.4s0,.4,0,.4ZM289.6,114.9h.4s0-.5,0-.5h-.4s0,.5,0,.5ZM288.6,115.1h.4s0-.4,0-.4h-.4s0,.4,0,.4ZM289.5,113.9h.4s0-.4,0-.4h-.4s0,.4,0,.4ZM288.4,114h.4s0-.5,0-.5h-.4s0,.5,0,.5ZM289.3,112.9h.4s0-.4,0-.4h-.4s0,.4,0,.4Z"/>
  <path class="st4" d="M268.3,141.1l15.9-27.6,16,27.6h-31.9ZM284.2,114.4l-15.1,26.3h30.4s-15.3-26.3-15.3-26.3Z"/>
  <polygon class="st4" points="164.1 261.6 163.8 261.3 175.9 247.3 187.6 233.7 169.8 237 151.4 240.2 151.3 239.8 169.7 236.6 188.7 233.1 176.2 247.6 164.1 261.6"/>
  <path class="st4" d="M160.3,263.1c-3.7,0-8-3.1-10.7-7.8-2.3-3.8-3.1-8-2.3-11.2.5-1.7,1.4-3,2.7-3.8.8-.5,1.7-.7,2.7-.7,3.7,0,8,3.1,10.7,7.8,2.3,3.8,3.1,8,2.3,11.2-.5,1.7-1.4,3-2.7,3.8-.8.5-1.7.7-2.7.7ZM152.7,240.1c-.9,0-1.8.2-2.5.6-1.2.7-2.1,1.9-2.5,3.5-.8,3.1,0,7.2,2.2,10.9,2.7,4.5,6.8,7.6,10.4,7.6s1.8-.2,2.5-.6c1.2-.7,2.1-1.9,2.5-3.5.8-3.1,0-7.2-2.2-10.9-2.7-4.5-6.8-7.6-10.3-7.6Z"/>
  <path class="st4" d="M296.4,286.5c-15.6,0-28.4-12.7-28.4-28.4s12.7-28.4,28.4-28.4,28.4,12.7,28.4,28.4-12.7,28.4-28.4,28.4ZM296.4,230.2c-15.4,0-27.9,12.5-27.9,27.9s12.5,27.9,27.9,27.9,28-12.5,28-27.9-12.5-27.9-28-27.9Z"/>
  <path class="st4" d="M296.4,281.8c-13.1,0-23.7-10.6-23.7-23.6s10.6-23.7,23.7-23.7,23.7,10.6,23.7,23.7-10.6,23.6-23.7,23.6ZM296.4,235c-12.8,0-23.2,10.4-23.2,23.2s10.4,23.2,23.2,23.2,23.2-10.4,23.2-23.2-10.4-23.2-23.2-23.2Z"/>
  <path class="st4" d="M296.4,277.1c-10.5,0-19-8.5-19-18.9s8.5-18.9,19-18.9,19,8.5,19,18.9-8.5,18.9-19,18.9ZM296.4,239.7c-10.2,0-18.5,8.3-18.5,18.5s8.3,18.5,18.5,18.5,18.5-8.3,18.5-18.5-8.3-18.5-18.5-18.5Z"/>
  <path class="st4" d="M296.4,272.4c-7.8,0-14.2-6.4-14.2-14.2s6.4-14.2,14.2-14.2,14.2,6.4,14.2,14.2-6.4,14.2-14.2,14.2ZM296.4,244.4c-7.6,0-13.8,6.2-13.8,13.8s6.2,13.8,13.8,13.8,13.8-6.2,13.8-13.8-6.2-13.8-13.8-13.8Z"/>
  <path class="st4" d="M296.4,267.7c-5.2,0-9.5-4.3-9.5-9.5s4.3-9.5,9.5-9.5,9.5,4.3,9.5,9.5-4.3,9.5-9.5,9.5ZM296.4,249.1c-5,0-9.1,4.1-9.1,9.1s4.1,9.1,9.1,9.1,9.1-4.1,9.1-9.1-4.1-9.1-9.1-9.1Z"/>
  <path class="st4" d="M296.4,263c-2.6,0-4.8-2.1-4.8-4.8s2.2-4.8,4.8-4.8,4.8,2.2,4.8,4.8-2.2,4.8-4.8,4.8ZM296.4,253.8c-2.4,0-4.4,2-4.4,4.4s2,4.4,4.4,4.4,4.4-2,4.4-4.4-2-4.4-4.4-4.4Z"/>
  <path class="st4" d="M76,265.1l-.2-.4c1.4-.6,2-1.3,2.6-1.9.6-.7,1.2-1.4,2.7-2.1,1.5-.7,2.4-.7,3.3-.7.9,0,1.7,0,3.2-.7,1.4-.6,2-1.3,2.6-1.9.6-.7,1.2-1.4,2.7-2.1,1.5-.7,2.4-.7,3.3-.7.9,0,1.7,0,3.2-.7,1.4-.6,2-1.3,2.6-1.9.6-.7,1.2-1.4,2.7-2.1,1.5-.7,2.4-.7,3.3-.7.9,0,1.7,0,3.2-.7,1.4-.6,2-1.3,2.6-1.9.6-.7,1.2-1.4,2.7-2.1,1.5-.7,2.4-.7,3.3-.7.9,0,1.7,0,3.2-.7,1.4-.7,2-1.3,2.6-2,.6-.7,1.2-1.4,2.7-2,1.5-.7,2.5-.7,3.3-.7.9,0,1.7,0,3.2-.7l.2.4c-1.5.7-2.4.7-3.3.7-.9,0-1.7,0-3.2.7-1.4.7-2,1.3-2.6,1.9-.6.7-1.2,1.4-2.7,2.1-1.5.7-2.5.7-3.4.7-.9,0-1.7,0-3.2.6-1.4.7-2,1.3-2.6,1.9-.6.7-1.2,1.4-2.7,2-1.5.7-2.5.7-3.4.7-.9,0-1.7,0-3.1.6-1.4.7-2,1.3-2.6,2-.6.7-1.2,1.4-2.7,2-1.5.7-2.5.7-3.4.7-.9,0-1.7,0-3.1.6-1.4.7-2,1.3-2.6,2-.6.7-1.2,1.4-2.7,2-1.5.7-2.5.7-3.4.7-.9,0-1.7,0-3.1.6-1.4.7-2,1.3-2.6,2-.6.7-1.2,1.4-2.7,2Z"/>
  <path class="st4" d="M60.1,127.9v-.4c1.8,0,2.7-.6,3.6-1.3,1-.7,1.9-1.3,3.9-1.3h0c1.9,0,2.9.7,3.8,1.3.9.6,1.8,1.2,3.6,1.2,1.8,0,2.7-.6,3.7-1.3,1-.7,1.9-1.3,3.9-1.3h0c1.9,0,2.9.7,3.9,1.3.9.6,1.8,1.2,3.6,1.2h0c1.8,0,2.7-.6,3.6-1.3.9-.7,1.9-1.3,3.9-1.3,2,0,2.9.7,3.9,1.3.9.6,1.8,1.2,3.6,1.2h0c1.8,0,2.7-.6,3.6-1.3,1-.7,1.9-1.3,3.9-1.3h0c1.9,0,2.9.7,3.8,1.3.9.6,1.8,1.2,3.6,1.2h0c1.8,0,2.7-.6,3.6-1.3,1-.7,1.9-1.3,3.9-1.3h0c1.9,0,2.9.7,3.8,1.3.9.6,1.8,1.2,3.6,1.2h0v.4h0c-1.9,0-2.9-.7-3.8-1.3-.9-.6-1.8-1.2-3.6-1.2h0c-1.8,0-2.7.6-3.7,1.3-1,.7-1.9,1.3-3.9,1.3h0c-1.9,0-2.9-.7-3.9-1.3-.9-.6-1.8-1.2-3.6-1.2h0c-1.8,0-2.7.6-3.7,1.3-1,.7-1.9,1.3-3.9,1.3h0c-1.9,0-2.9-.7-3.8-1.3-.9-.6-1.9-1.2-3.7-1.2-1.8,0-2.7.6-3.6,1.3-1,.7-2,1.3-3.9,1.3-1.9,0-2.9-.7-3.8-1.3-.9-.6-1.8-1.2-3.6-1.2h0c-1.8,0-2.7.6-3.6,1.3-1,.7-2,1.3-4,1.3-1.9,0-2.9-.7-3.8-1.3-.9-.6-1.8-1.3-3.6-1.2-1.8,0-2.7.6-3.7,1.3-1,.7-1.9,1.3-3.9,1.3Z"/>
  <path class="st4" d="M144.7,116.7c-2.6,0-4.8-2.1-4.8-4.8,0-1.3.5-2.5,1.3-3.4.9-.9,2.1-1.4,3.4-1.5,2.7,0,4.8,2.1,4.9,4.7,0,1.3-.5,2.5-1.4,3.4-.9.9-2.1,1.4-3.4,1.4,0,0,0,0,0,0ZM144.7,107.5c-1.2,0-2.3.5-3.1,1.3-.8.8-1.2,1.9-1.2,3.1,0,2.4,2,4.3,4.4,4.3v.2-.2c1.2,0,2.3-.5,3.1-1.3.8-.8,1.3-1.9,1.3-3.1,0-2.4-2-4.3-4.4-4.3Z"/>
  <path class="st4" d="M213.8,136.7c0,0-.1,0-.1,0,0,0,0-.2,0-.3,6.8-7.3,17.4-9.7,26.9-6,2.9,1.1,5.5,2.8,7.7,4.8,0,0,0,.2,0,.3,0,0-.2,0-.3,0-2.2-2-4.7-3.6-7.6-4.7-9.4-3.6-19.8-1.3-26.4,5.9,0,0-.1,0-.2,0Z"/>
  <path class="st4" d="M291.1,200c-.3,0-.5,0-.7,0l1.6-1.7-4-4,4-4-4-4,4-4-4.1-4,4-4-1.6-1.7c.2,0,.5,0,.7,0l1.7,1.7h0l-4,4,4,4h0s0,0,0,0l-4,4,4,4h0,0l-4,4,4,4h0l-1.7,1.7ZM287.6,199.2c-.2,0-.4-.1-.6-.2l.7-.7-4-4,4-4-4-4,4-4-4-4,4-4-.7-.7c.2,0,.4-.2.6-.2l1,1h0l-4,4,4,4h0s0,0,0,0l-4,4,4,4h0l-4,4,4,4h0l-1,1ZM280.7,193.8c0-.2-.2-.3-.3-.5l3-3.1-4-4,4-4-3.1-3.1c.1-.2.2-.3.3-.5l3.5,3.5h0s0,0,0,0l-4,4,4,4h0l-3.6,3.6ZM279.3,191c0-.2-.1-.4-.2-.6h.1c0-.1-.2-.3-.2-.3,0-.4-.2-.7-.3-1.1l1.3,1.3h0l-.7.7ZM278.7,183.6c0-.4.1-.7.3-1.1l.2-.2h-.1c0-.3.1-.5.2-.7l.7.7h0s0,0,0,0l-1.3,1.3ZM294.1,172.5c.3,0,.7.1,1,.2l1.5,1.5h0l-4,4,4,4h0s0,0,0,0l-4,4,4,4h0l-4,4,4,4h0l-1.5,1.5c-.3,0-.7.1-1,.2l1.6-1.7-4-4,4-4-4-4,4-4-4-4,4-4-1.7-1.7ZM299.7,174.5c.2.1.3.2.5.3l-3.3,3.3,4,4h0s0,0,0,0l-4,4,4,4h0l-4,4,3.3,3.3c-.1.1-.3.2-.5.3l-3.6-3.6,4-4-4-4,4-4-4-4,3.6-3.7ZM302.1,176.4c.1.1.3.3.4.4l-1.3,1.3,4,4h0s0,0,0,0l-4,4,4,4h0,0l-4,4,1.3,1.3c-.1.1-.3.3-.4.4l-1.8-1.7,4-4-4-4,4-4-4.1-4,1.8-1.8ZM306,184.8c0,.3,0,.5,0,.8l-.7.7.7.7c0,.3,0,.5,0,.8l-1.4-1.4,1.4-1.5Z"/>
  <polygon class="st4" points="158.7 87.1 158.3 86.8 160.6 83 163 78.8 167.7 86.8 167.3 87.1 163 79.7 161 83.2 158.7 87.1"/>
  <path class="st4" d="M163,89.2c-2.7,0-4.8-.8-4.8-1.9s2.4-1.9,4.8-1.9,4.8.7,4.8,1.9-2.1,1.9-4.8,1.9ZM163,85.7c-2.6,0-4.3.8-4.3,1.5s1.8,1.5,4.3,1.5,4.3-.8,4.3-1.5-1.8-1.5-4.3-1.5Z"/>
  <path class="st4" d="M201.7,92.9c0,0-.1,0-.2,0-4.7-5.1-12-6.7-18.6-4.2-2,.8-3.8,1.9-5.3,3.3,0,0-.2,0-.3,0,0,0,0-.2,0-.3,1.6-1.5,3.4-2.6,5.5-3.4,6.8-2.6,14.2-.9,19,4.3,0,0,0,.2,0,.3,0,0,0,0-.1,0Z"/>
  <path class="st4" d="M159,306.5h0c-.5,0-1,0-1.5-.3-1.1-.4-1.9-1.2-2.3-2.3-.5-1-.5-2.2,0-3.2.6-1.6,2.2-2.7,3.9-2.7s1,0,1.5.3c1.1.4,1.9,1.2,2.3,2.3.5,1,.5,2.2,0,3.2-.7,1.6-2.2,2.7-4,2.7ZM159,298.4c-1.6,0-3,.9-3.5,2.4-.4.9-.4,2,0,2.9.4.9,1.1,1.7,2.1,2,.4.2.9.3,1.4.3,1.6,0,3-1,3.6-2.4.4-.9.4-2,0-2.9-.4-.9-1.2-1.7-2.1-2-.4-.2-.9-.3-1.4-.3Z"/>
  <path class="st4" d="M146,58.5l-3-2.1,2.1-3,3,2.1-2.1,3ZM143.7,56.3l2.3,1.5,1.5-2.2-2.3-1.5-1.5,2.2Z"/>
  <rect class="st4" x="321.9" y="304.8" width=".5" height="2.7"/>
  <rect class="st4" x="324.6" y="304.8" width=".5" height="2.7"/>
  <rect class="st4" x="327.3" y="304.8" width=".5" height="2.7"/>
  <rect class="st4" x="330" y="304.8" width=".5" height="2.7"/>
  <rect class="st4" x="332.8" y="304.8" width=".5" height="2.7"/>
  <rect class="st4" x="335.5" y="304.8" width=".5" height="2.7"/>
  <rect class="st4" x="338.2" y="304.8" width=".5" height="2.7"/>
  <path class="st1" d="M283.1,82.9h0c0,0-.1,0-.1,0v-.2s.1,0,.1,0h0ZM282.6,83.8h0s0,0,0,0h0ZM282.3,84.4v.2h-.1v-.2s.1,0,.1,0ZM281.9,85h0c0,0-.1,0-.1,0v-.2s.1,0,.1,0h0ZM281.4,85.9h0s0,0,0,0h0ZM281.1,86.4v.2c-.1,0-.1-.2-.1-.2h.1ZM280.7,87h0c0,0-.1.1-.1.1v-.2s.1,0,.1,0h0ZM280.2,88h0,0ZM279.9,88.5v.2c-.1,0-.1-.2-.1-.2h.1ZM279.6,89.1h0c0,0-.1,0-.1,0v-.2s.2,0,.2,0h0ZM279,90h0s0,0,0,0h0ZM278.7,90.5v.2c-.1,0-.1-.2-.1-.2h.1ZM278.4,91.1h0c0,0-.1,0-.1,0v-.2s.2,0,.2,0h0ZM277.8,92.1h0s0,0,0,0h0ZM277.6,92.6v.2c-.1,0-.1-.2-.1-.2h.1ZM277.2,93.2h0c0,0-.1,0-.1,0v-.2s.2,0,.2,0h0ZM276.7,94.1h0ZM276.4,94.6v.2c-.1,0-.1-.1-.1-.1h.1ZM275.9,94.3h0c0,0,0,0,0,0h0ZM275.7,93.9h0s0-.2,0-.2h.2s0,.1,0,.1h-.1ZM275.2,93v-.2c0,0,0,0,0,0v.2s0,0,0,0ZM274.7,92.2v-.2c0,0,0,0,0,0v.2s0,0,0,0ZM274.1,91.2h0c0,0,0,0,0,0h0ZM273.9,90.8h0s0-.2,0-.2h.2s0,.1,0,.1h-.1ZM273.4,89.9v-.2c0,0,0,0,0,0v.2s0,0,0,0ZM272.9,89v-.2c0,0,0,0,0,0v.2h0ZM272.3,88h0s0,0,0,0h0ZM272.1,87.7h0v-.2h.2s0,.2,0,.2h-.1ZM271.6,86.8v-.2c0,0,0,0,0,0v.2s0,0,0,0ZM271.1,85.9v-.2c0,0,0,0,0,0v.2h0ZM270.5,84.9h0s0,0,0,0h0ZM270.3,84.6h0c0,0,0-.2,0-.2h.2s0,.1,0,.1h-.1ZM269.8,83.7v-.2c0,0,0,0,0,0v.2s0,0,0,0ZM269.2,82.8h0c0,0,0,0,0,0h0ZM269.5,82.7h.2s-.2,0-.2,0h0ZM272.4,82.7h.2v.2s-.2,0-.2,0v-.2h0ZM272.9,82.7h.2c0,0-.2.1-.2.1h0ZM273.3,82.7h.2s-.2,0-.2,0h0ZM273.8,82.7h0,0ZM276.3,82.7h0v.2s-.1,0-.1,0v-.2s0,0,0,0ZM276.7,82.7h.2c0,0-.2.1-.2.1h0ZM277.1,82.7h.2s-.2,0-.2,0h0ZM277.6,82.7h.1-.1s0,0,0,0ZM280.5,82.7h.2c0,.1-.2.1-.2.1h0ZM281,82.7h.2s-.2,0-.2,0h0ZM281.5,82.7h.2s-.2,0-.2,0h0ZM269.8,83.1h-.2s0,.2,0,.2h.2s0-.2,0-.2ZM270.2,83h-.2s0,.2,0,.2h.2s0-.2,0-.2ZM270.7,82.9h-.2s0,.2,0,.2h.2s0-.2,0-.2ZM271.2,82.9h-.2v.2s.2,0,.2,0v-.2ZM271.6,82.8h-.2s0,.2,0,.2h.2s0-.2,0-.2ZM272.1,82.8h-.2s0,.2,0,.2h.2s0-.2,0-.2ZM270.3,83.5h-.2s0,.2,0,.2h.2v-.2ZM270.7,83.4h-.2v.2s.2,0,.2,0v-.2ZM271.2,83.3h-.2s0,.2,0,.2h.2v-.2ZM271.7,83.3h-.2s0,.2,0,.2h.2s0-.2,0-.2ZM272.2,83.2h-.2s0,.2,0,.2h.2v-.2ZM272.6,83.2h-.2s0,.2,0,.2h.2s0-.2,0-.2ZM273.1,83.1h-.2s0,.2,0,.2h.2s0-.2,0-.2ZM273.6,83.1h-.2s0,.2,0,.2h.2s0-.2,0-.2ZM274,83h-.2s0,.2,0,.2h.2s0-.2,0-.2ZM274.5,82.9h-.2s0,.2,0,.2h.2s0-.2,0-.2ZM275,82.9h-.2s0,.2,0,.2h.2s0-.2,0-.2ZM275.4,82.8h-.2s0,.2,0,.2h.2s0-.2,0-.2ZM275.9,82.8h-.2s0,.2,0,.2h.2s0-.2,0-.2ZM270.3,83.9h-.2s0,.2,0,.2h.2s0-.2,0-.2ZM270.8,83.9h-.2s0,.2,0,.2h.2s0-.2,0-.2ZM271.3,83.8h-.2s0,.2,0,.2h.2s0-.2,0-.2ZM271.8,83.8h-.2s0,.2,0,.2h.2v-.2ZM272.2,83.7h-.2s0,.2,0,.2h.2s0-.2,0-.2ZM272.7,83.6h-.2s0,.2,0,.2h.2v-.2ZM273.2,83.6h-.2s0,.2,0,.2h.2s0-.2,0-.2ZM273.6,83.5h-.2v.2s.2,0,.2,0v-.2ZM274.1,83.5h-.2s0,.2,0,.2h.2s0-.2,0-.2ZM274.6,83.4h-.2s0,.2,0,.2h.2v-.2ZM275,83.3h-.2s0,.2,0,.2h.2s0-.2,0-.2ZM275.5,83.3h-.2s0,.2,0,.2h.2s0-.2,0-.2ZM276,83.2h-.2v.2s.2,0,.2,0v-.2ZM276.4,83.2h-.2s0,.2,0,.2h.2s0-.2,0-.2ZM276.9,83.1h-.2s0,.2,0,.2h.2s0-.2,0-.2ZM277.4,83.1h-.2s0,.2,0,.2h.2v-.2ZM277.8,83h-.2s0,.2,0,.2h.2s0-.2,0-.2ZM278.3,82.9h-.2s0,.2,0,.2h.2s0-.2,0-.2ZM278.8,82.9h-.2s0,.2,0,.2h.2s0-.2,0-.2ZM279.3,82.8h-.2s0,.2,0,.2h.2s0-.2,0-.2ZM279.7,82.8h-.2s0,.2,0,.2h.2v-.2ZM280.2,82.7h-.2s0,.2,0,.2h.2s0-.2,0-.2ZM270.9,84.4h-.2v.2s.2,0,.2,0v-.2ZM271.3,84.3h-.2s0,.2,0,.2h.2s0-.2,0-.2ZM271.8,84.2h-.2s0,.2,0,.2h.2s0-.2,0-.2ZM272.3,84.2h-.2s0,.2,0,.2h.2v-.2ZM272.7,84.1h-.2s0,.2,0,.2h.2s0-.2,0-.2ZM273.2,84h-.2s0,.2,0,.2h.2s0-.2,0-.2ZM273.7,84h-.2s0,.2,0,.2h.2s0-.2,0-.2ZM274.1,83.9h-.2s0,.2,0,.2h.2s0-.2,0-.2ZM274.6,83.9h-.2s0,.2,0,.2h.2v-.2ZM275.1,83.8h-.2s0,.2,0,.2h.2v-.2ZM275.6,83.8h-.2s0,.2,0,.2h.2s0-.2,0-.2ZM276,83.7h-.2s0,.2,0,.2h.2v-.2ZM276.5,83.7h-.2s0,.2,0,.2h.2s0-.2,0-.2ZM277,83.6h-.2s0,.2,0,.2h.2v-.2ZM277.4,83.5h-.2s0,.2,0,.2h.2s0-.2,0-.2ZM277.9,83.5h-.2s0,.2,0,.2h.2v-.2ZM278.4,83.4h-.2s0,.2,0,.2h.2s0-.2,0-.2ZM278.9,83.4h-.2v.2s.2,0,.2,0v-.2ZM279.3,83.3h-.2s0,.2,0,.2h.2s0-.2,0-.2ZM279.8,83.2h-.2s0,.2,0,.2h.2s0-.2,0-.2ZM280.3,83.2h-.2s0,.2,0,.2h.2s0-.2,0-.2ZM280.7,83.1h-.2s0,.2,0,.2h.2s0-.2,0-.2ZM281.2,83.1h-.2v.2s.2,0,.2,0v-.2ZM281.7,83h-.2s0,.2,0,.2h.2s0-.2,0-.2ZM282.1,83h-.2s0,.2,0,.2h.2s0-.2,0-.2ZM282.6,82.9h-.2s0,.2,0,.2h.2v-.2ZM270.9,84.8h-.2s0,.2,0,.2h.2s0-.2,0-.2ZM271.4,84.8h-.2v.2h.2s0-.2,0-.2ZM271.9,84.7h-.2s0,.2,0,.2h.2s0-.2,0-.2ZM272.3,84.6h-.2v.2h.2s0-.2,0-.2ZM272.8,84.6h-.2s0,.2,0,.2h.2s0-.2,0-.2ZM273.3,84.5h-.2v.2h.2s0-.2,0-.2ZM273.7,84.5h-.2v.2s.2,0,.2,0v-.2ZM274.2,84.4h-.2s0,.2,0,.2h.2s0-.2,0-.2ZM274.7,84.4h-.2s0,.2,0,.2h.2s0-.2,0-.2ZM275.1,84.3h-.2s0,.2,0,.2h.2s0-.2,0-.2ZM275.6,84.2h-.2s0,.2,0,.2h.2s0-.2,0-.2ZM276.1,84.2h-.2v.2s.2,0,.2,0v-.2ZM276.5,84.1h-.2s0,.2,0,.2h.2s0-.2,0-.2ZM277,84.1h-.2s0,.2,0,.2h.2s0-.2,0-.2ZM277.5,84h-.2s0,.2,0,.2h.2v-.2ZM278,83.9h-.2s0,.2,0,.2h.2s0-.2,0-.2ZM278.4,83.9h-.2s0,.2,0,.2h.2s0-.2,0-.2ZM278.9,83.8h-.2s0,.2,0,.2h.2s0-.2,0-.2ZM279.4,83.8h-.2s0,.2,0,.2h.2v-.2ZM279.8,83.7h-.2s0,.2,0,.2h.2v-.2ZM280.3,83.7h-.2s0,.2,0,.2h.2v-.2ZM280.8,83.6h-.2s0,.2,0,.2h.2s0-.2,0-.2ZM281.3,83.5h-.2s0,.2,0,.2h.2v-.2ZM281.7,83.5h-.2s0,.2,0,.2h.2s0-.2,0-.2ZM282.2,83.4h-.2s0,.2,0,.2h.2v-.2ZM282.7,83.4h-.2s0,.2,0,.2h.2s0-.2,0-.2ZM271,85.3h-.2v.2s.2,0,.2,0v-.2ZM271.4,85.2h-.2s0,.2,0,.2h.2s0-.2,0-.2ZM271.9,85.2h-.2s0,.2,0,.2h.2s0-.2,0-.2ZM272.4,85.1h-.2s0,.2,0,.2h.2v-.2ZM272.9,85.1h-.2s0,.2,0,.2h.2s0-.2,0-.2ZM273.3,85h-.2v.2s.2,0,.2,0v-.2ZM273.8,84.9h-.2v.2h.2s0-.2,0-.2ZM274.3,84.9h-.2s0,.2,0,.2h.2s0-.2,0-.2ZM274.7,84.8h-.2v.2h.2v-.2ZM275.2,84.8h-.2s0,.2,0,.2h.2s0-.2,0-.2ZM275.7,84.7h-.2v.2h.2s0-.2,0-.2ZM276.1,84.6h-.2s0,.2,0,.2h.2s0-.2,0-.2ZM276.6,84.6h-.2v.2h.2s0-.2,0-.2ZM277.1,84.5h-.2s0,.2,0,.2h.2v-.2ZM277.6,84.5h-.2s0,.2,0,.2h.2s0-.2,0-.2ZM278,84.4h-.2s0,.2,0,.2h.2s0-.2,0-.2ZM278.5,84.4h-.2s0,.2,0,.2h.2s0-.2,0-.2ZM279,84.3h-.2v.2s.2,0,.2,0v-.2ZM279.4,84.2h-.2s0,.2,0,.2h.2s0-.2,0-.2ZM279.9,84.2h-.2s0,.2,0,.2h.2s0-.2,0-.2ZM280.4,84.1h-.2s0,.2,0,.2h.2s0-.2,0-.2ZM280.8,84.1h-.2s0,.2,0,.2h.2s0-.2,0-.2ZM281.3,84h-.2v.2s.2,0,.2,0v-.2ZM281.8,83.9h-.2s0,.2,0,.2h.2s0-.2,0-.2ZM282.3,83.9h-.2s0,.2,0,.2h.2s0-.2,0-.2ZM271.5,85.7h-.2s0,.2,0,.2h.2s0-.2,0-.2ZM272,85.6h-.2s0,.2,0,.2h.2v-.2ZM272.5,85.6h-.2s0,.2,0,.2h.2s0-.2,0-.2ZM272.9,85.5h-.2s0,.2,0,.2h.2s0-.2,0-.2ZM273.4,85.5h-.2s0,.2,0,.2h.2s0-.2,0-.2ZM273.8,85.4h-.2s0,.2,0,.2h.2s0-.2,0-.2ZM274.3,85.3h-.2s0,.2,0,.2h.2s0-.2,0-.2ZM274.8,85.3h-.2s0,.2,0,.2h.2s0-.2,0-.2ZM275.3,85.2h-.2s0,.2,0,.2h.2s0-.2,0-.2ZM275.7,85.2h-.2s0,.2,0,.2h.2s0-.2,0-.2ZM276.2,85.1h-.2v.2s.2,0,.2,0v-.2ZM276.7,85.1h-.2s0,.2,0,.2h.2s0-.2,0-.2ZM277.1,85h-.2v.2h.2s0-.2,0-.2ZM277.6,84.9h-.2s0,.2,0,.2h.2s0-.2,0-.2ZM278.1,84.9h-.2v.2h.2s0-.2,0-.2ZM278.5,84.8h-.2v.2s.2,0,.2,0v-.2ZM279,84.8h-.2v.2h.2s0-.2,0-.2ZM279.5,84.7h-.2s0,.2,0,.2h.2s0-.2,0-.2ZM280,84.6h-.2v.2h.2v-.2ZM280.4,84.6h-.2s0,.2,0,.2h.2s0-.2,0-.2ZM280.9,84.5h-.2s0,.2,0,.2h.2s0-.2,0-.2ZM281.4,84.5h-.2s0,.2,0,.2h.2s0-.2,0-.2ZM281.8,84.4h-.2s0,.2,0,.2h.2s0-.2,0-.2ZM271.6,86.2h-.2s0,.2,0,.2h.2s0-.2,0-.2ZM272,86.1h-.2s0,.2,0,.2h.2v-.2ZM272.5,86h-.2s0,.2,0,.2h.2s0-.2,0-.2ZM273,86h-.2s0,.2,0,.2h.2v-.2ZM273.4,85.9h-.2v.2s.2,0,.2,0v-.2ZM273.9,85.9h-.2s0,.2,0,.2h.2s0-.2,0-.2ZM274.4,85.8h-.2s0,.2,0,.2h.2s0-.2,0-.2ZM274.9,85.7h-.2s0,.2,0,.2h.2v-.2ZM275.3,85.7h-.2s0,.2,0,.2h.2s0-.2,0-.2ZM275.8,85.6h-.2s0,.2,0,.2h.2s0-.2,0-.2ZM276.3,85.6h-.2s0,.2,0,.2h.2s0-.2,0-.2ZM276.7,85.5h-.2s0,.2,0,.2h.2s0-.2,0-.2ZM277.2,85.5h-.2s0,.2,0,.2h.2v-.2ZM277.7,85.4h-.2s0,.2,0,.2h.2s0-.2,0-.2ZM278.1,85.3h-.2s0,.2,0,.2h.2s0-.2,0-.2ZM278.6,85.3h-.2s0,.2,0,.2h.2s0-.2,0-.2ZM279.1,85.2h-.2s0,.2,0,.2h.2s0-.2,0-.2ZM279.6,85.2h-.2s0,.2,0,.2h.2s0-.2,0-.2ZM280,85.1h-.2s0,.2,0,.2h.2s0-.2,0-.2ZM280.5,85.1h-.2s0,.2,0,.2h.2s0-.2,0-.2ZM281,85h-.2s0,.2,0,.2h.2s0-.2,0-.2ZM281.4,85h-.2v.2h.2s0-.2,0-.2ZM272.1,86.6h-.2s0,.2,0,.2h.2v-.2ZM272.5,86.5h-.2s0,.2,0,.2h.2s0-.2,0-.2ZM273,86.4h-.2s0,.2,0,.2h.2s0-.2,0-.2ZM273.5,86.4h-.2s0,.2,0,.2h.2s0-.2,0-.2ZM274,86.4h-.2s0,.2,0,.2h.2s0-.2,0-.2ZM274.5,86.3h-.2s0,.2,0,.2h.2v-.2ZM274.9,86.2h-.2s0,.2,0,.2h.2s0-.2,0-.2ZM275.4,86.2h-.2s0,.2,0,.2h.2v-.2ZM275.8,86.1h-.2s0,.2,0,.2h.2s0-.2,0-.2ZM276.3,86.1h-.2v.2s.2,0,.2,0v-.2ZM276.8,86h-.2s0,.2,0,.2h.2s0-.2,0-.2ZM277.3,85.9h-.2s0,.2,0,.2h.2v-.2ZM277.7,85.9h-.2s0,.2,0,.2h.2s0-.2,0-.2ZM278.2,85.8h-.2s0,.2,0,.2h.2s0-.2,0-.2ZM278.7,85.8h-.2v.2s.2,0,.2,0v-.2ZM279.1,85.7h-.2s0,.2,0,.2h.2s0-.2,0-.2ZM279.6,85.7h-.2s0,.2,0,.2h.2s0-.2,0-.2ZM280.1,85.6h-.2s0,.2,0,.2h.2v-.2ZM280.5,85.5h-.2s0,.2,0,.2h.2s0-.2,0-.2ZM281,85.5h-.2s0,.2,0,.2h.2s0-.2,0-.2ZM281.5,85.4h-.2s0,.2,0,.2h.2s0-.2,0-.2ZM272.1,87h-.2s0,.2,0,.2h.2s0-.2,0-.2ZM272.6,87h-.2s0,.2,0,.2h.2s0-.2,0-.2ZM273.1,86.9h-.2s0,.2,0,.2h.2s0-.2,0-.2ZM273.6,86.9h-.2v.2s.2,0,.2,0v-.2ZM274,86.8h-.2s0,.2,0,.2h.2s0-.2,0-.2ZM274.5,86.8h-.2s0,.2,0,.2h.2s0-.2,0-.2ZM275,86.7h-.2s0,.2,0,.2h.2v-.2ZM275.4,86.6h-.2s0,.2,0,.2h.2s0-.2,0-.2ZM275.9,86.6h-.2v.2s.2,0,.2,0v-.2ZM276.4,86.5h-.2s0,.2,0,.2h.2s0-.2,0-.2ZM276.8,86.5h-.2s0,.2,0,.2h.2s0-.2,0-.2ZM277.3,86.4h-.2s0,.2,0,.2h.2v-.2ZM277.8,86.4h-.2s0,.2,0,.2h.2v-.2ZM278.3,86.3h-.2s0,.2,0,.2h.2s0-.2,0-.2ZM278.7,86.2h-.2s0,.2,0,.2h.2v-.2ZM279.2,86.2h-.2s0,.2,0,.2h.2s0-.2,0-.2ZM279.7,86.1h-.2s0,.2,0,.2h.2v-.2ZM280.1,86.1h-.2s0,.2,0,.2h.2s0-.2,0-.2ZM280.6,86h-.2s0,.2,0,.2h.2v-.2ZM281.1,85.9h-.2s0,.2,0,.2h.2s0-.2,0-.2ZM272.7,87.5h-.2s0,.2,0,.2h.2s0-.2,0-.2ZM273.2,87.4h-.2v.2h.2s0-.2,0-.2ZM273.6,87.3h-.2s0,.2,0,.2h.2s0-.2,0-.2ZM274.1,87.3h-.2v.2h.2s0-.2,0-.2ZM274.5,87.2h-.2s0,.2,0,.2h.2v-.2ZM275,87.2h-.2v.2h.2s0-.2,0-.2ZM275.5,87.1h-.2s0,.2,0,.2h.2s0-.2,0-.2ZM276,87h-.2s0,.2,0,.2h.2s0-.2,0-.2ZM276.4,87h-.2s0,.2,0,.2h.2s0-.2,0-.2ZM276.9,86.9h-.2s0,.2,0,.2h.2s0-.2,0-.2ZM277.4,86.9h-.2s0,.2,0,.2h.2s0-.2,0-.2ZM277.8,86.8h-.2s0,.2,0,.2h.2s0-.2,0-.2ZM278.3,86.8h-.2s0,.2,0,.2h.2s0-.2,0-.2ZM278.8,86.7h-.2v.2s.2,0,.2,0v-.2ZM279.2,86.6h-.2s0,.2,0,.2h.2s0-.2,0-.2ZM279.7,86.6h-.2s0,.2,0,.2h.2s0-.2,0-.2ZM280.2,86.5h-.2s0,.2,0,.2h.2s0-.2,0-.2ZM280.7,86.5h-.2s0,.2,0,.2h.2s0-.2,0-.2ZM272.7,87.9h-.2s0,.2,0,.2h.2s0-.2,0-.2ZM273.2,87.9h-.2s0,.2,0,.2h.2s0-.2,0-.2ZM273.7,87.8h-.2v.2s.2,0,.2,0v-.2ZM274.1,87.7h-.2s0,.2,0,.2h.2s0-.2,0-.2ZM274.6,87.7h-.2s0,.2,0,.2h.2s0-.2,0-.2ZM275.1,87.6h-.2s0,.2,0,.2h.2s0-.2,0-.2ZM275.6,87.6h-.2v.2h.2s0-.2,0-.2ZM276,87.5h-.2v.2s.2,0,.2,0v-.2ZM276.5,87.5h-.2v.2h.2s0-.2,0-.2ZM277,87.4h-.2s0,.2,0,.2h.2s0-.2,0-.2ZM277.4,87.3h-.2v.2h.2v-.2ZM277.9,87.3h-.2s0,.2,0,.2h.2s0-.2,0-.2ZM278.4,87.2h-.2v.2h.2s0-.2,0-.2ZM278.8,87.2h-.2s0,.2,0,.2h.2s0-.2,0-.2ZM279.3,87.1h-.2v.2h.2s0-.2,0-.2ZM279.8,87h-.2s0,.2,0,.2h.2v-.2ZM280.3,87h-.2s0,.2,0,.2h.2s0-.2,0-.2ZM272.8,88.4h-.2s0,.2,0,.2h.2s0-.2,0-.2ZM273.3,88.3h-.2s0,.2,0,.2h.2s0-.2,0-.2ZM273.7,88.3h-.2s0,.2,0,.2h.2s0-.2,0-.2ZM274.2,88.2h-.2s0,.2,0,.2h.2s0-.2,0-.2ZM274.7,88.2h-.2s0,.2,0,.2h.2v-.2ZM275.1,88.1h-.2s0,.2,0,.2h.2s0-.2,0-.2ZM275.6,88h-.2s0,.2,0,.2h.2s0-.2,0-.2ZM276.1,88h-.2s0,.2,0,.2h.2s0-.2,0-.2ZM276.5,87.9h-.2s0,.2,0,.2h.2s0-.2,0-.2ZM277,87.9h-.2s0,.2,0,.2h.2s0-.2,0-.2ZM277.5,87.8h-.2s0,.2,0,.2h.2s0-.2,0-.2ZM278,87.7h-.2s0,.2,0,.2h.2s0-.2,0-.2ZM278.4,87.7h-.2s0,.2,0,.2h.2s0-.2,0-.2ZM278.9,87.7h-.2v.2s.2,0,.2,0v-.2ZM279.4,87.6h-.2s0,.2,0,.2h.2s0-.2,0-.2ZM279.8,87.5h-.2v.2h.2s0-.2,0-.2ZM280.3,87.5h-.2s0,.2,0,.2h.2s0-.2,0-.2ZM273.3,88.8h-.2s0,.2,0,.2h.2s0-.2,0-.2ZM273.8,88.8h-.2v.2s.2,0,.2,0v-.2ZM274.3,88.7h-.2s0,.2,0,.2h.2s0-.2,0-.2ZM274.7,88.6h-.2s0,.2,0,.2h.2v-.2ZM275.2,88.6h-.2s0,.2,0,.2h.2s0-.2,0-.2ZM275.7,88.5h-.2s0,.2,0,.2h.2v-.2ZM276.1,88.5h-.2v.2s.2,0,.2,0v-.2ZM276.6,88.4h-.2s0,.2,0,.2h.2s0-.2,0-.2ZM277.1,88.3h-.2s0,.2,0,.2h.2s0-.2,0-.2ZM277.6,88.3h-.2s0,.2,0,.2h.2v-.2ZM278,88.2h-.2s0,.2,0,.2h.2s0-.2,0-.2ZM278.5,88.2h-.2v.2s.2,0,.2,0v-.2ZM279,88.1h-.2s0,.2,0,.2h.2s0-.2,0-.2ZM279.4,88.1h-.2s0,.2,0,.2h.2s0-.2,0-.2ZM279.9,88h-.2s0,.2,0,.2h.2v-.2ZM273.4,89.3h-.2v.2s.2,0,.2,0v-.2ZM273.8,89.2h-.2s0,.2,0,.2h.2s0-.2,0-.2ZM274.3,89.2h-.2s0,.2,0,.2h.2s0-.2,0-.2ZM274.8,89.1h-.2s0,.2,0,.2h.2v-.2ZM275.2,89h-.2s0,.2,0,.2h.2s0-.2,0-.2ZM275.7,89h-.2s0,.2,0,.2h.2s0-.2,0-.2ZM276.2,88.9h-.2s0,.2,0,.2h.2v-.2ZM276.7,88.9h-.2s0,.2,0,.2h.2s0-.2,0-.2ZM277.1,88.8h-.2s0,.2,0,.2h.2v-.2ZM277.6,88.8h-.2s0,.2,0,.2h.2s0-.2,0-.2ZM278.1,88.7h-.2s0,.2,0,.2h.2v-.2ZM278.5,88.6h-.2s0,.2,0,.2h.2s0-.2,0-.2ZM279,88.6h-.2s0,.2,0,.2h.2v-.2ZM279.5,88.5h-.2s0,.2,0,.2h.2s0-.2,0-.2ZM273.9,89.7h-.2s0,.2,0,.2h.2s0-.2,0-.2ZM274.4,89.6h-.2v.2h.2s0-.2,0-.2ZM274.8,89.6h-.2s0,.2,0,.2h.2s0-.2,0-.2ZM275.3,89.5h-.2s0,.2,0,.2h.2s0-.2,0-.2ZM275.8,89.5h-.2s0,.2,0,.2h.2s0-.2,0-.2ZM276.3,89.4h-.2v.2s.2,0,.2,0v-.2ZM276.7,89.3h-.2s0,.2,0,.2h.2s0-.2,0-.2ZM277.2,89.3h-.2s0,.2,0,.2h.2s0-.2,0-.2ZM277.7,89.2h-.2s0,.2,0,.2h.2s0-.2,0-.2ZM278.1,89.2h-.2s0,.2,0,.2h.2s0-.2,0-.2ZM278.6,89.1h-.2v.2s.2,0,.2,0v-.2ZM279.1,89h-.2s0,.2,0,.2h.2s0-.2,0-.2ZM274,90.2h-.2s0,.2,0,.2h.2s0-.2,0-.2ZM274.4,90.1h-.2s0,.2,0,.2h.2s0-.2,0-.2ZM274.9,90h-.2v.2h.2v-.2ZM275.4,90h-.2s0,.2,0,.2h.2s0-.2,0-.2ZM275.8,89.9h-.2v.2h.2s0-.2,0-.2ZM276.3,89.9h-.2s0,.2,0,.2h.2s0-.2,0-.2ZM276.8,89.8h-.2v.2h.2s0-.2,0-.2ZM277.2,89.7h-.2s0,.2,0,.2h.2v-.2ZM277.7,89.7h-.2v.2h.2s0-.2,0-.2ZM278.2,89.6h-.2s0,.2,0,.2h.2s0-.2,0-.2ZM278.7,89.6h-.2s0,.2,0,.2h.2s0-.2,0-.2ZM279.1,89.5h-.2s0,.2,0,.2h.2s0-.2,0-.2ZM274.5,90.6h-.2s0,.2,0,.2h.2v-.2ZM275,90.5h-.2s0,.2,0,.2h.2s0-.2,0-.2ZM275.4,90.4h-.2s0,.2,0,.2h.2s0-.2,0-.2ZM275.9,90.4h-.2s0,.2,0,.2h.2s0-.2,0-.2ZM276.4,90.3h-.2s0,.2,0,.2h.2s0-.2,0-.2ZM276.8,90.3h-.2s0,.2,0,.2h.2s0-.2,0-.2ZM277.3,90.2h-.2s0,.2,0,.2h.2s0-.2,0-.2ZM277.8,90.2h-.2s0,.2,0,.2h.2s0-.2,0-.2ZM278.3,90.1h-.2v.2h.2s0-.2,0-.2ZM278.7,90.1h-.2v.2s.2,0,.2,0v-.2ZM274.5,91h-.2s0,.2,0,.2h.2s0-.2,0-.2ZM275,91h-.2s0,.2,0,.2h.2s0-.2,0-.2ZM275.5,90.9h-.2s0,.2,0,.2h.2s0-.2,0-.2ZM276,90.9h-.2v.2s.2,0,.2,0v-.2ZM276.4,90.8h-.2s0,.2,0,.2h.2s0-.2,0-.2ZM276.9,90.8h-.2s0,.2,0,.2h.2s0-.2,0-.2ZM277.4,90.7h-.2s0,.2,0,.2h.2v-.2ZM277.8,90.6h-.2s0,.2,0,.2h.2s0-.2,0-.2ZM278.3,90.6h-.2s0,.2,0,.2h.2s0-.2,0-.2ZM274.6,91.5h-.2s0,.2,0,.2h.2v-.2ZM275.1,91.5h-.2s0,.2,0,.2h.2s0-.2,0-.2ZM275.6,91.4h-.2s0,.2,0,.2h.2v-.2ZM276,91.3h-.2s0,.2,0,.2h.2s0-.2,0-.2ZM276.5,91.3h-.2s0,.2,0,.2h.2v-.2ZM277,91.2h-.2s0,.2,0,.2h.2s0-.2,0-.2ZM277.4,91.2h-.2s0,.2,0,.2h.2v-.2ZM277.9,91.1h-.2s0,.2,0,.2h.2s0-.2,0-.2ZM275.1,91.9h-.2s0,.2,0,.2h.2s0-.2,0-.2ZM275.6,91.9h-.2s0,.2,0,.2h.2s0-.2,0-.2ZM276.1,91.8h-.2v.2s.2,0,.2,0v-.2ZM276.5,91.7h-.2s0,.2,0,.2h.2s0-.2,0-.2ZM277,91.7h-.2s0,.2,0,.2h.2s0-.2,0-.2ZM277.5,91.6h-.2s0,.2,0,.2h.2v-.2ZM278,91.6h-.2s0,.2,0,.2h.2v-.2ZM275.2,92.4h-.2v.2h.2s0-.2,0-.2ZM275.7,92.3h-.2s0,.2,0,.2h.2s0-.2,0-.2ZM276.1,92.3h-.2v.2h.2s0-.2,0-.2ZM276.6,92.2h-.2s0,.2,0,.2h.2s0-.2,0-.2ZM277.1,92.2h-.2s0,.2,0,.2h.2v-.2ZM277.5,92.1h-.2s0,.2,0,.2h.2s0-.2,0-.2ZM275.7,92.8h-.2s0,.2,0,.2h.2s0-.2,0-.2ZM276.2,92.8h-.2v.2s.2,0,.2,0v-.2ZM276.7,92.7h-.2v.2h.2s0-.2,0-.2ZM277.1,92.6h-.2s0,.2,0,.2h.2s0-.2,0-.2ZM275.8,93.3h-.2s0,.2,0,.2h.2s0-.2,0-.2ZM276.3,93.2h-.2s0,.2,0,.2h.2s0-.2,0-.2ZM276.7,93.2h-.2s0,.2,0,.2h.2s0-.2,0-.2ZM276.3,93.7h-.2v.2s.2,0,.2,0v-.2ZM276.8,93.6h-.2s0,.2,0,.2h.2s0-.2,0-.2ZM276.4,94.2h-.2s0,.2,0,.2h.2s0-.2,0-.2Z"/>
  <path class="st4" d="M278.7,94.1l-7.4-12.8h14.8s-7.4,12.8-7.4,12.8ZM272,81.7l6.7,11.5,6.6-11.5h-13.3Z"/>
  <polygon class="st4" points="175.8 110.3 188.4 95.7 188.8 96 176.9 109.7 185.6 108.1 194.9 106.5 195 106.9 185.7 108.5 175.8 110.3"/>
  <path class="st4" d="M194.3,107c-1.9,0-4.1-1.6-5.5-4-1.2-2-1.6-4.1-1.1-5.8.2-.9.7-1.6,1.4-2,.4-.2.9-.4,1.4-.4,1.9,0,4.1,1.6,5.5,4,1.2,2,1.6,4.1,1.2,5.8-.2.9-.7,1.6-1.4,2-.4.2-.9.4-1.4.4ZM190.5,95.3c-.4,0-.9.1-1.2.3-.6.3-1,.9-1.2,1.7-.4,1.5,0,3.6,1.1,5.4,1.3,2.2,3.4,3.8,5.2,3.8s.9-.1,1.2-.3c.6-.3,1-.9,1.2-1.7.4-1.5,0-3.6-1.1-5.4-1.3-2.3-3.4-3.8-5.1-3.8Z"/>
  <path class="st0" d="M148,192.1c.1.2.4.2.6,0,.2-.1.2-.4,0-.6-.2-.2-.4-.2-.6,0-.2.2-.2.4,0,.6h0Z"/>
  <path class="st4" d="M331.8,222.3c-4,0-7.3-3.3-7.3-7.3s3.3-7.3,7.3-7.3,7.3,3.3,7.3,7.3-3.3,7.3-7.3,7.3ZM331.8,208.1c-3.8,0-6.9,3.1-6.9,6.9s3.1,6.9,6.9,6.9,6.9-3.1,6.9-6.9-3.1-6.9-6.9-6.9Z"/>
  <path class="st4" d="M331.8,221.1c-3.4,0-6.1-2.7-6.1-6.1s2.7-6.1,6.1-6.1,6.1,2.7,6.1,6.1-2.7,6.1-6.1,6.1ZM331.8,209.3c-3.1,0-5.7,2.5-5.7,5.7s2.5,5.7,5.7,5.7,5.7-2.5,5.7-5.7-2.5-5.7-5.7-5.7Z"/>
  <path class="st4" d="M331.8,219.9c-2.7,0-4.9-2.2-4.9-4.9s2.2-4.9,4.9-4.9,4.9,2.2,4.9,4.9-2.2,4.9-4.9,4.9ZM331.8,210.5c-2.5,0-4.5,2-4.5,4.5s2,4.5,4.5,4.5,4.5-2,4.5-4.5-2-4.5-4.5-4.5Z"/>
  <path class="st4" d="M331.8,218.7c-2.1,0-3.7-1.7-3.7-3.7s1.7-3.7,3.7-3.7,3.7,1.7,3.7,3.7-1.7,3.7-3.7,3.7ZM331.8,211.7c-1.8,0-3.3,1.5-3.3,3.3s1.5,3.3,3.3,3.3,3.3-1.5,3.3-3.3-1.5-3.3-3.3-3.3Z"/>
  <path class="st4" d="M331.8,217.5c-1.4,0-2.6-1.1-2.6-2.6s1.1-2.6,2.6-2.6,2.6,1.1,2.6,2.6-1.1,2.6-2.6,2.6ZM331.8,212.8c-1.1,0-2.1,1-2.1,2.1s1,2.1,2.1,2.1,2.1-1,2.1-2.1-1-2.1-2.1-2.1Z"/>
  <path class="st4" d="M331.8,216.3c-.7,0-1.4-.6-1.4-1.4s.6-1.4,1.4-1.4,1.4.6,1.4,1.4-.6,1.4-1.4,1.4ZM331.8,214c-.5,0-.9.4-.9.9s.4.9.9.9.9-.4.9-.9-.4-.9-.9-.9Z"/>
  <path class="st4" d="M37.8,160.6l-.3-.3c.8-.7,1.3-.9,1.8-1.1.5-.2,1-.4,1.7-1,.7-.7.9-1.1,1.1-1.6.2-.5.4-1.1,1.2-1.8.8-.7,1.3-.9,1.9-1.1.5-.2,1-.4,1.7-1,.7-.7.9-1.1,1.1-1.6.2-.5.4-1.1,1.2-1.8.8-.7,1.3-.9,1.8-1.1.5-.2,1-.3,1.7-1,.7-.7.9-1.1,1.1-1.7.2-.5.4-1.1,1.2-1.8.8-.7,1.3-.9,1.9-1.1.5-.2,1-.4,1.7-1,.7-.7.9-1.1,1.1-1.6.2-.5.4-1.1,1.2-1.8.8-.7,1.3-.9,1.8-1.1.5-.2,1-.4,1.7-1,.7-.7.9-1.1,1.1-1.7.2-.5.4-1.1,1.2-1.8l.3.3c-.7.7-.9,1.1-1.1,1.6-.2.5-.4,1.1-1.2,1.8-.8.7-1.3.9-1.8,1.1-.5.2-1,.4-1.7,1-.7.7-.9,1.1-1.1,1.7-.2.5-.4,1.1-1.2,1.8-.8.7-1.3.9-1.8,1.1-.5.2-1,.4-1.7,1-.7.7-.9,1.1-1.1,1.6-.2.5-.4,1.1-1.2,1.8-.8.7-1.3.9-1.8,1.1-.5.2-1,.4-1.7,1-.7.7-.9,1.2-1.1,1.7-.2.5-.4,1.1-1.2,1.8-.8.7-1.3.9-1.8,1.1-.5.2-1,.4-1.7,1-.7.7-.9,1.1-1.1,1.6-.2.5-.4,1.1-1.2,1.8-.8.7-1.3.9-1.9,1.1-.5.2-1,.4-1.7,1Z"/>
  <path class="st4" d="M50.3,292.3c-.6,0-.9-.2-1.2-.4-.3-.2-.5-.3-1-.3v-.4c.6,0,.9.2,1.2.4.3.2.5.3,1,.3s.7-.2,1-.3c.3-.2.6-.4,1.2-.4.6,0,.9.2,1.2.4.3.2.5.3,1,.3s.7-.2,1-.3c.3-.2.6-.4,1.2-.4s.9.2,1.2.4c.3.2.5.3,1,.3.5,0,.7-.2,1-.3.3-.2.6-.4,1.2-.4s.9.2,1.2.4c.3.2.5.3,1,.3.5,0,.7-.2,1-.4.3-.2.6-.4,1.2-.4s.9.2,1.2.4c.3.2.5.3,1,.3.5,0,.7-.2,1-.3.3-.2.6-.4,1.2-.4v.4c-.5,0-.7.2-1,.3-.3.2-.6.4-1.2.4-.6,0-1-.2-1.2-.4-.3-.2-.5-.3-1-.3s-.7.2-1,.3c-.3.2-.6.4-1.2.4-.6,0-.9-.2-1.2-.4-.3-.2-.5-.3-1-.3s-.7.2-1,.3c-.3.2-.6.4-1.2.4-.6,0-.9-.2-1.2-.4-.3-.2-.5-.3-1-.3s-.7.2-1,.3c-.3.2-.6.4-1.2.4s-.9-.2-1.2-.4c-.3-.2-.5-.3-1-.3-.5,0-.7.2-1,.3-.3.2-.6.4-1.2.4Z"/>
  <path class="st4" d="M44.2,292.4c-.9,0-1.6-.7-1.6-1.5s.7-1.5,1.5-1.6c.9,0,1.5.7,1.5,1.5,0,.4-.1.8-.4,1.1-.3.3-.7.5-1.1.5h0ZM44.2,289.8c-.6,0-1.1.5-1.1,1.1s.5,1.1,1.1,1.1c.3,0,.6-.1.8-.3.2-.2.3-.5.3-.8,0-.6-.5-1.1-1.1-1.1Z"/>
  <path class="st4" d="M223.8,256.3c0,0-.1,0-.2,0-4.9-5.3-12.6-7.1-19.5-4.4-2.1.8-4,2-5.6,3.5,0,0-.2,0-.3,0,0,0,0-.2,0-.3,1.7-1.6,3.6-2.8,5.8-3.6,7.1-2.7,15-1,20,4.5,0,0,0,.2,0,.3,0,0,0,0-.1,0Z"/>
  <polygon class="st3" points="342.1 148.8 342.1 148.3 332.8 154.5 332.8 155 342.1 148.8"/>
  <path class="st4" d="M81.8,226.7c0,0,.2,0,.3,0l-.7.6,1.5,1.5-1.5,1.5,1.5,1.5-1.5,1.5,1.5,1.6-1.5,1.5.6.6c0,0-.2,0-.3,0l-.7-.6h0s1.5-1.5,1.5-1.5l-1.5-1.5h0s1.5-1.5,1.5-1.5l-1.5-1.5h0l1.5-1.5-1.5-1.5h0s.7-.7.7-.7ZM83.2,226.9c0,0,.2,0,.2,0l-.3.3,1.5,1.5-1.5,1.5,1.5,1.5-1.5,1.5,1.6,1.6-1.5,1.5.3.3c0,0-.1,0-.2,0l-.4-.4h0s1.5-1.5,1.5-1.5l-1.5-1.5h0s1.5-1.5,1.5-1.5l-1.5-1.5h0l1.5-1.5-1.5-1.5h0s.4-.4.4-.4ZM85.8,229c0,0,0,.1.1.2l-1.2,1.2,1.5,1.5-1.5,1.5,1.2,1.2c0,0,0,.1-.1.2l-1.3-1.3h0s1.5-1.5,1.5-1.5l-1.5-1.5h0l1.4-1.4ZM86.3,230.1c0,0,0,.2,0,.2h0s0,.1,0,.1c0,.1,0,.3,0,.4l-.5-.5h0l.3-.3ZM86.6,233c0,.1,0,.3,0,.4h0c0,0,0,.1,0,.1,0,0,0,.2,0,.2l-.3-.3h0s.5-.5.5-.5ZM80.7,237.2c-.1,0-.3,0-.4,0l-.6-.6h0s1.5-1.5,1.5-1.5l-1.5-1.5h0s1.5-1.5,1.5-1.5l-1.5-1.5h0l1.5-1.5-1.5-1.5h0s.6-.6.6-.6c.1,0,.3,0,.4,0l-.6.6,1.5,1.5-1.5,1.5,1.5,1.5-1.5,1.5,1.5,1.6-1.5,1.5.7.6ZM78.5,236.4s-.1,0-.2-.1l1.3-1.3-1.5-1.5h0s1.5-1.5,1.5-1.5l-1.5-1.5h0l1.5-1.5-1.3-1.3c0,0,.1,0,.2-.1l1.4,1.4-1.5,1.5,1.5,1.5-1.5,1.5,1.5,1.6-1.4,1.4ZM77.6,235.7s0-.1-.2-.2l.5-.5-1.5-1.5h0s1.5-1.5,1.5-1.5l-1.5-1.5h0l1.5-1.5-.5-.5s0,0,.2-.1l.7.6-1.5,1.5,1.5,1.5-1.5,1.5,1.6,1.6-.7.7ZM76.1,232.5c0,0,0-.2,0-.3l.3-.2-.2-.3v-.3l.6.6-.6.6Z"/>
  <path class="st4" d="M203.6,318.2v-.4c.9,0,1.3-.8,1.8-1.6.5-.8,1-1.8,2.1-1.8s1.8.9,2.4,1.8c.6.8,1.1,1.6,2.1,1.6.9,0,1.3-.8,1.8-1.6.5-.8,1-1.8,2.1-1.8s1.8.9,2.4,1.8c.6.8,1.1,1.6,2.1,1.6.9,0,1.3-.8,1.8-1.6.5-.8,1-1.8,2.2-1.8s1.8.9,2.4,1.8c.6.8,1.1,1.6,2.1,1.6v.4c-1.2,0-1.8-.9-2.4-1.8-.6-.8-1.1-1.6-2.1-1.6s-1.3.7-1.8,1.6c-.5.8-1,1.8-2.1,1.8-1.2,0-1.8-.9-2.4-1.8-.6-.8-1.1-1.6-2.1-1.6s-1.3.8-1.8,1.6c-.5.8-1,1.8-2.1,1.8h0c-1.2,0-1.8-.9-2.4-1.7-.6-.8-1.1-1.6-2.1-1.6s-1.3.7-1.8,1.6c-.5.8-1,1.8-2.2,1.8Z"/>
  <path class="st4" d="M200,319.4c0,0-.1,0-.1,0l-4.4-4c0,0,0-.2,0-.3,0,0,.2,0,.3,0l4.4,4c0,0,0,.2,0,.3,0,0-.1,0-.2,0Z"/>
  <path class="st4" d="M196,319.4c0,0-.1,0-.1,0,0,0,0-.2,0-.3l3.5-3.9c0,0,.2,0,.3,0,0,0,0,.2,0,.3l-3.5,3.9s-.1,0-.2,0Z"/>
  <path class="st4" d="M192.6,319.4c0,0-.1,0-.1,0l-4.4-4c0,0,0-.2,0-.3,0,0,.2,0,.3,0l4.4,4c0,0,0,.2,0,.3,0,0-.1,0-.2,0Z"/>
  <path class="st4" d="M188.7,319.4c0,0-.1,0-.1,0,0,0,0-.2,0-.3l3.5-3.9c0,0,.2,0,.3,0,0,0,0,.2,0,.3l-3.5,3.9s-.1,0-.2,0Z"/>
  <path class="st2" d="M185.1,318.7h0l1.6-1c-.1.3-.3.5-.5.7h-.2c-.2.3-.5.3-.8.3h0ZM184.3,318.6c-.1,0-.2,0-.3-.2l2.7-1.7c0,0,0,.2,0,.2h0c0,0-2.5,1.7-2.5,1.7ZM183.6,318c0,0-.1-.2-.2-.2l3-1.9c0,0,.1.2.2.3l-3,1.9ZM183.1,317.2c0,0,0-.2,0-.3l2.6-1.6c0,0,.2,0,.3.2l-2.8,1.8ZM183.1,316.2c0-.2.1-.4.2-.5l1-.6c.1,0,.2,0,.4,0h.2l-1.8,1.2Z"/>
  <path class="st4" d="M176.5,317.3c-.1,0-.2,0-.2-.2s0-.2.2-.2c.4,0,.8,0,1.1,0,.3,0,.5,0,.7,0s.2,0,.2.2,0,.2-.2.2c-.2,0-.4,0-.7,0-.3,0-.7,0-1.1,0Z"/>
  <path class="st4" d="M65.1,260.5h0c-1.3,0-2.7-.3-3.9-.7-2.7-1-4.8-3.1-5.9-5.7-1.2-2.6-1.2-5.6-.2-8.2,1.6-4.1,5.6-6.8,10-6.8s2.7.2,3.9.7c2.7,1,4.8,3.1,5.9,5.7,1.1,2.6,1.2,5.5.1,8.2-1.6,4.1-5.5,6.8-10,6.8ZM65.1,239.4c-4.3,0-8,2.6-9.6,6.5-1,2.6-.9,5.4.2,7.9,1.1,2.5,3.1,4.5,5.7,5.5,1.2.5,2.5.7,3.8.7,4.3,0,8-2.6,9.6-6.5,1-2.6,1-5.4-.1-7.9-1.1-2.5-3.1-4.5-5.7-5.5-1.2-.5-2.5-.7-3.8-.7Z"/>
  <path class="st4" d="M52.9,209.7c-.3,0-.5,0-.7,0l1.6-1.6-4-4,4-4-4-4,4-4-4-4,4-4-1.6-1.6c.2,0,.5,0,.7,0l1.7,1.7h0l-4,4,4,4h0s-4,4-4,4l4,4h0l-4,4,4,4h0l-1.7,1.7ZM49.4,208.9c-.2,0-.4-.1-.6-.2l.7-.7-4-4,4-4-4-4,4-4-4-4,4-4-.7-.7c.2,0,.4-.1.6-.2l.9.9h0l-4,4,4,4h0s-4,4-4,4l4,4h0l-4,4,4,4h0l-1,1ZM42.5,203.5c0-.2-.2-.3-.3-.5l3.1-3.1-4-4,4-4-3.1-3.1c.1-.2.2-.4.3-.5l3.5,3.5h0s-4,4-4,4l4,4h0l-3.6,3.6ZM41.1,200.7c0-.2-.1-.4-.2-.6h.1c0,0-.2-.3-.2-.3-.1-.4-.2-.7-.3-1.1l1.3,1.3h0l-.7.7ZM40.5,193.2c0-.4.2-.7.3-1.1l.2-.2h-.1c0-.3.1-.5.2-.7l.7.7h0s-1.3,1.3-1.3,1.3ZM56,182.2c.3,0,.7,0,1,.2l1.5,1.5h0l-4,4,4,4h0s-4,4-4,4l4,4h0l-4,4,4,4h0l-1.5,1.5c-.3,0-.7.1-1,.2l1.7-1.7-4-4,4-4-4-4,4-4-4.1-4,4-4-1.7-1.7ZM61.5,184.2c.2,0,.3.2.5.3l-3.3,3.3,4,4h0s-4,4-4,4l4,4h0l-4,4,3.3,3.3c-.2.1-.3.2-.5.3l-3.6-3.6,4-4-4-4,4-4-4-4,3.7-3.7ZM63.9,186.1c.1.1.3.3.4.4l-1.3,1.3,4,4h0s-4,4-4,4l4,4h0l-4,4,1.3,1.3c-.1.1-.3.3-.4.4l-1.7-1.8,4-4-4-4,4-4-4-4,1.8-1.8ZM67.9,194.5c0,.3,0,.5,0,.8l-.7.7.7.7c0,.2,0,.5,0,.8l-1.5-1.5,1.5-1.4Z"/>
  <path class="st4" d="M90,174.5c-8.4,0-15.2-6.8-15.2-15.2s6.8-15.3,15.2-15.3,15.3,6.8,15.3,15.3-6.9,15.2-15.3,15.2ZM90,144.4c-8.2,0-14.8,6.7-14.8,14.8s6.6,14.8,14.8,14.8,14.8-6.6,14.8-14.8-6.7-14.8-14.8-14.8Z"/>
  <path class="st4" d="M90,171.9c-7,0-12.7-5.7-12.7-12.7s5.7-12.7,12.7-12.7,12.7,5.7,12.7,12.7-5.7,12.7-12.7,12.7ZM90,146.9c-6.8,0-12.3,5.5-12.3,12.3s5.5,12.3,12.3,12.3,12.3-5.5,12.3-12.3-5.5-12.3-12.3-12.3Z"/>
  <path class="st4" d="M90,169.4c-5.6,0-10.2-4.6-10.2-10.2s4.6-10.2,10.2-10.2,10.2,4.6,10.2,10.2-4.6,10.2-10.2,10.2ZM90,149.4c-5.4,0-9.8,4.4-9.8,9.8s4.4,9.8,9.8,9.8,9.8-4.4,9.8-9.8-4.4-9.8-9.8-9.8Z"/>
  <path class="st4" d="M90,166.9c-4.2,0-7.7-3.4-7.7-7.7s3.4-7.7,7.7-7.7,7.7,3.5,7.7,7.7-3.5,7.7-7.7,7.7ZM90,152c-4,0-7.2,3.3-7.2,7.3s3.3,7.2,7.2,7.2,7.3-3.3,7.3-7.2-3.3-7.3-7.3-7.3Z"/>
  <path class="st4" d="M90,164.4c-2.9,0-5.2-2.3-5.2-5.2s2.3-5.2,5.2-5.2,5.2,2.3,5.2,5.2-2.3,5.2-5.2,5.2ZM90,154.5c-2.6,0-4.7,2.1-4.7,4.8s2.1,4.7,4.7,4.7,4.7-2.1,4.7-4.7-2.1-4.8-4.7-4.8Z"/>
  <path class="st4" d="M90,161.9c-1.5,0-2.6-1.2-2.6-2.6s1.2-2.7,2.6-2.7,2.7,1.2,2.7,2.7-1.2,2.6-2.7,2.6ZM90,157c-1.2,0-2.2,1-2.2,2.2s1,2.2,2.2,2.2,2.2-1,2.2-2.2-1-2.2-2.2-2.2Z"/>
  <polygon class="st4" points="131.5 290.3 131.1 290.1 133.4 286.2 135.8 282 140.5 290.1 140.1 290.3 135.8 282.9 133.8 286.4 131.5 290.3"/>
  <path class="st4" d="M135.8,292.4c-2.7,0-4.8-.8-4.8-1.9s2.4-1.9,4.8-1.9,4.8.7,4.8,1.9-2.1,1.9-4.8,1.9ZM135.8,289c-2.6,0-4.3.8-4.3,1.5s1.8,1.5,4.3,1.5,4.3-.8,4.3-1.5-1.8-1.5-4.3-1.5Z"/>
  <path class="st4" d="M60.9,286.3l-3-2.1,2.1-3,3,2.1-2.1,3ZM58.5,284.1l2.3,1.5,1.5-2.2-2.3-1.5-1.5,2.2Z"/>
  <rect class="st4" x="298.7" y="303" width=".5" height="6.1"/>
  <rect class="st4" x="289.7" y="303" width=".5" height="6.1"/>
  <rect class="st4" x="280.8" y="303" width=".5" height="6.1"/>
  <rect class="st4" x="271.9" y="303" width=".5" height="6.1"/>
  <rect class="st4" x="263" y="303" width=".5" height="6.1"/>
  <rect class="st4" x="254.1" y="303" width=".5" height="6.1"/>
  <rect class="st4" x="245.2" y="303" width=".5" height="6.1"/>
  <rect class="st4" x="76.9" y="65.4" width=".5" height="6.1"/>
  <rect class="st4" x="85.8" y="65.4" width=".5" height="6.1"/>
  <rect class="st4" x="94.8" y="65.4" width=".5" height="6.1"/>
  <rect class="st4" x="103.7" y="65.4" width=".5" height="6.1"/>
  <rect class="st4" x="112.6" y="65.4" width=".5" height="6.1"/>
  <rect class="st4" x="121.5" y="65.4" width=".5" height="6.1"/>
  <rect class="st4" x="130.4" y="65.4" width=".5" height="6.1"/>
  <rect class="st4" x="298.7" y="65.4" width=".5" height="6.1"/>
  <rect class="st4" x="289.7" y="65.4" width=".5" height="6.1"/>
  <rect class="st4" x="280.8" y="65.4" width=".5" height="6.1"/>
  <rect class="st4" x="271.9" y="65.4" width=".5" height="6.1"/>
  <rect class="st4" x="263" y="65.4" width=".5" height="6.1"/>
  <rect class="st4" x="254.1" y="65.4" width=".5" height="6.1"/>
  <rect class="st4" x="245.2" y="65.4" width=".5" height="6.1"/>
  <rect class="st4" x="80.8" y="303" width=".5" height="6.1"/>
  <rect class="st4" x="89.7" y="303" width=".5" height="6.1"/>
  <rect class="st4" x="98.6" y="303" width=".5" height="6.1"/>
  <rect class="st4" x="107.5" y="303" width=".5" height="6.1"/>
  <rect class="st4" x="116.4" y="303" width=".5" height="6.1"/>
  <rect class="st4" x="125.3" y="303" width=".5" height="6.1"/>
  <rect class="st4" x="134.2" y="303" width=".5" height="6.1"/>
  <path class="st4" d="M180.4,56.7v-.4c.9,0,1.3-.8,1.8-1.6.5-.8,1-1.8,2.1-1.8s1.8.9,2.4,1.8c.6.8,1.1,1.6,2.1,1.6s1.3-.7,1.8-1.6c.5-.8,1-1.8,2.2-1.8s1.8.9,2.4,1.8c.6.8,1.1,1.6,2.1,1.6s1.3-.8,1.8-1.6c.5-.8,1-1.8,2.2-1.8s1.8.9,2.4,1.8c.6.8,1.1,1.6,2.1,1.6v.4c-1.2,0-1.8-.9-2.4-1.8-.6-.8-1.1-1.6-2.1-1.6s-1.3.8-1.8,1.6c-.5.8-1,1.8-2.2,1.8s-1.8-.9-2.4-1.8c-.6-.8-1.1-1.6-2.1-1.6s-1.3.8-1.8,1.6c-.5.8-1,1.8-2.1,1.8s-1.8-.9-2.4-1.8c-.6-.8-1.1-1.6-2.1-1.6s-1.3.8-1.8,1.6c-.5.8-1,1.8-2.1,1.8Z"/>
  <path class="st4" d="M176.8,58c0,0-.1,0-.1,0l-4.4-4c0,0,0-.2,0-.3,0,0,.2,0,.3,0l4.4,4c0,0,0,.2,0,.3,0,0-.1,0-.2,0Z"/>
  <path class="st4" d="M172.8,58c0,0-.1,0-.1,0,0,0,0-.2,0-.3l3.5-3.9c0,0,.2,0,.3,0,0,0,0,.2,0,.3l-3.5,3.9s-.1,0-.2,0Z"/>
  <path class="st4" d="M169.4,57.9c0,0-.1,0-.1,0l-4.4-3.9c0,0,0-.2,0-.3,0,0,.2,0,.3,0l4.4,3.9c0,0,0,.2,0,.3,0,0-.1,0-.2,0Z"/>
  <path class="st4" d="M165.5,57.9c0,0-.1,0-.1,0,0,0,0-.2,0-.3l3.5-3.9c0,0,.2,0,.3,0,0,0,0,.2,0,.3l-3.5,3.9s-.1,0-.2,0Z"/>
  <path class="st2" d="M161.9,57.3h0l1.6-1c-.1.3-.3.5-.5.7h-.2c-.2.3-.5.3-.8.3h0ZM161.1,57.1c-.1,0-.2-.1-.3-.2l2.7-1.8c0,0,0,.2,0,.3h0c0,0-2.5,1.7-2.5,1.7ZM160.4,56.6c0,0-.1-.1-.2-.2l3-1.9c0,0,.1.2.2.3l-3,1.9ZM159.9,55.8c0-.1,0-.2,0-.3l2.6-1.6c.1,0,.2.1.3.2l-2.8,1.8ZM159.9,54.8c0-.2.1-.4.2-.5l1-.6c.1,0,.2,0,.4,0s.1,0,.2,0l-1.8,1.2Z"/>
  <path class="st4" d="M153.3,55.8c-.1,0-.2,0-.2-.2,0-.1,0-.2.2-.2.3,0,.6,0,.9,0,.3,0,.6,0,.9,0,.1,0,.2,0,.2.2,0,.1,0,.2-.2.2-.2,0-.5,0-.9,0-.3,0-.6,0-.9,0h0Z"/>
  <path class="st4" d="M312.9,197.7l-.3-.3c.8-.7,1.3-.9,1.8-1.1.5-.2,1-.4,1.7-1,.7-.7.9-1.1,1.1-1.6.2-.5.4-1.1,1.2-1.8.8-.7,1.3-.9,1.8-1.1.5-.2,1-.4,1.7-1,.7-.7.9-1.1,1.1-1.6.2-.5.4-1.1,1.2-1.8.8-.7,1.3-.9,1.8-1.1.5-.2,1-.4,1.7-1,.7-.7.9-1.1,1.1-1.7.2-.5.4-1.1,1.2-1.8.8-.7,1.3-.9,1.9-1.1.5-.2,1-.4,1.7-1,.7-.7.9-1.1,1.1-1.6.2-.5.4-1.1,1.2-1.8.8-.7,1.3-.9,1.8-1.1.5-.2,1-.3,1.7-1,.7-.7.9-1.1,1.1-1.7.2-.5.4-1.1,1.2-1.8l.3.3c-.7.7-.9,1.1-1.1,1.6-.2.5-.4,1.1-1.2,1.8-.8.7-1.3.9-1.8,1.1-.5.2-1,.4-1.7,1-.7.7-.9,1.1-1.1,1.7-.2.5-.4,1.1-1.2,1.8-.8.7-1.3.9-1.8,1.1-.5.2-1,.4-1.7,1-.7.7-.9,1.1-1.1,1.6-.2.5-.4,1.1-1.2,1.8-.8.7-1.3.9-1.8,1.1-.5.2-1,.4-1.7,1-.7.7-.9,1.1-1.1,1.6-.2.5-.4,1.1-1.2,1.8-.8.7-1.3.9-1.9,1.1-.5.2-1,.4-1.7,1-.7.7-.9,1.1-1.1,1.6-.2.5-.4,1.1-1.2,1.8-.8.7-1.3.9-1.9,1.1-.5.2-1,.4-1.7,1Z"/>
  <polygon class="st4" points="270.8 206.1 242.7 206.1 242.7 205.6 270.3 205.6 270.3 185.2 270.8 185.2 270.8 206.1"/>
  <polygon class="st4" points="107.9 184.4 107.4 184.4 107.4 174.1 121.4 174.1 121.4 174.5 107.9 174.5 107.9 184.4"/>
  <rect class="st4" x="179.4" y="205.8" width=".5" height="1"/>
  <rect class="st4" x="184.3" y="205.8" width=".5" height="1"/>
  <rect class="st4" x="189.3" y="205.8" width=".5" height="1"/>
  <rect class="st4" x="194.2" y="205.8" width=".5" height="1"/>
  <rect class="st4" x="199.2" y="205.8" width=".5" height="1"/>
  <rect class="st4" x="204.1" y="205.8" width=".5" height="1"/>
  <rect class="st4" x="209" y="205.8" width=".5" height="1"/>
  <rect class="st4" x="214" y="205.8" width=".5" height="1"/>
  <rect class="st4" x="218.9" y="205.8" width=".5" height="1"/>
  <rect class="st4" x="223.9" y="205.8" width=".5" height="1"/>
  <rect class="st4" x="228.8" y="205.8" width=".5" height="1"/>
  <rect class="st4" x="233.8" y="205.8" width=".5" height="1"/>
  <rect class="st4" x="126.8" y="173" width=".5" height="3"/>
  <rect class="st4" x="129.5" y="173" width=".5" height="3"/>
  <rect class="st4" x="132.1" y="173" width=".5" height="3"/>
  <rect class="st4" x="134.8" y="173" width=".5" height="3"/>
  <rect class="st4" x="137.4" y="173" width=".5" height="3"/>
  <rect class="st4" x="140.1" y="173" width=".5" height="3"/>
  <rect class="st4" x="142.7" y="173" width=".5" height="3"/>
  <path class="st1" d="M162.6,160h.1s.2,0,.2,0l-.2.2-.2-.2h0ZM164.4,159.5h0s0,0,0,0h0ZM165.3,159.2h.4c0,0-.2.1-.2.1h-.2ZM166.5,158.9h.2s.1,0,.1,0l-.2.2-.2-.2h0ZM168.2,158.3h0s0,0,0,0ZM169.2,158h.4c0,0-.2.1-.2.1h-.2ZM170.4,157.7h.2s.1,0,.1,0l-.2.2-.2-.2h0ZM172.1,157.2h0s0,0,0,0ZM173.1,156.9h.4c0,0-.2.1-.2.1h-.2ZM174.2,156.5h.2s.2,0,.2,0l-.2.2-.2-.2h0ZM175.9,156h0s0,0,0,0ZM176.9,155.7h.4c0,0-.2.1-.2.1h-.2ZM178.1,155.4h.2s.2,0,.2,0l-.2.2-.2-.2h0ZM179.8,154.9h0s0,0,0,0ZM180.8,154.6h.3c0,0-.2.1-.2.1h-.2ZM181.9,154.2h.2s.1,0,.1,0l-.2.2-.2-.2h0ZM183.7,153.7h0ZM184.6,153.4h.3c0,0-.2.1-.2.1h-.2ZM184.8,154.4h0c0,.1,0,.1,0,.1h0ZM184.6,155h0c0,0-.1.3-.1.3l-.2-.2.2-.2h.2ZM184.3,156.8v.3c0,0-.3-.2-.3-.2l.2-.2h.1ZM183.8,158.5v.3c0,0-.2,0-.2,0l.2-.2h0ZM183.4,160.4h0c0,.1,0,0,0,0h0ZM183.2,161h0c0,0-.1.3-.1.3l-.2-.2.2-.2h.2ZM182.8,162.7v.3c0,0-.3-.2-.3-.2l.2-.2h.1ZM182.4,164.4v.3c0,0-.2,0-.2,0l.2-.2h0ZM182,166.4h0c0,0,0,0,0,0h0ZM181.8,167h0c0,.1-.1.3-.1.3l-.2-.2.2-.2h.2ZM181.4,168.7v.3c0,0-.3-.1-.3-.1l.2-.2h0ZM181,170.4v.3c0,0-.2,0-.2,0l.2-.2h0ZM180.5,172.4h0s0,0,0,0h0ZM180.4,172.9v.2s-.1.1-.1.1l-.2-.2.2-.2h.2ZM180,174.6v.3c0,0-.3-.1-.3-.1l.2-.2h0ZM179.6,176.3h0c0,.1,0,0,0,0h0ZM179.1,176.1l-.2-.2h0s.2.1.2.1h0ZM175.6,172.8l-.2-.2.2-.2.2.2-.2.2h0ZM175,172.2l-.2-.2h0c0-.1.2,0,.2,0v.2ZM174.4,171.7l-.2-.2h0s.2.1.2.1h0ZM173.8,171.1h0s0,0,0,0h0ZM170.7,168.2h0c0,0,.2-.3.2-.3l.2.2-.2.2h-.2ZM170.3,167.8l-.2-.2h0c0-.1.2,0,.2,0v.2ZM169.7,167.2l-.2-.2h0c0,0,.2.1.2.1h0ZM169.1,166.6l-.2-.2h.2c0,.1,0,.2,0,.2ZM165.6,163.3l-.2-.2v-.2c.1,0,.4.2.4.2v.2ZM165,162.7l-.2-.2h0c0,0,.2,0,.2,0h0ZM164.4,162.2l-.2-.2h0l.2.2h0ZM179.3,175.5l.2.2.2-.2-.2-.2-.2.2ZM178.6,175l.2.2.2-.2-.2-.2-.2.2ZM178,174.5l.2.2.2-.2-.2-.2-.2.2ZM177.3,174l.2.2.2-.2-.2-.2-.2.2ZM176.7,173.5l.2.2.2-.2-.2-.2-.2.2ZM176,173.1l.2.2.2-.2-.2-.2-.2.2ZM179.1,174.3l.2.2.2-.2-.2-.2-.2.2ZM178.4,173.8l.2.2.2-.2-.2-.2-.2.2ZM177.8,173.4l.2.2.2-.2-.2-.2-.2.2ZM177.1,172.9l.2.2.2-.2-.2-.2-.2.2ZM176.5,172.4l.2.2.2-.2-.2-.2-.2.2ZM175.8,171.9l.2.2.2-.2-.2-.2-.2.2ZM175.2,171.5l.2.2.2-.2-.2-.2-.2.2ZM174.5,171l.2.2.2-.2-.2-.2-.2.2ZM173.9,170.5l.2.2.2-.2-.2-.2-.2.2ZM173.2,170l.2.2.2-.2-.2-.2-.2.2ZM172.6,169.6l.3.2.2-.2-.2-.2-.2.2ZM172,169.1l.2.2.2-.2-.2-.2-.2.2ZM171.3,168.6l.2.2.2-.2-.2-.2-.2.2ZM179.6,173.7l.2.2.2-.2-.2-.2-.2.2ZM178.9,173.2l.2.2.2-.2-.2-.2-.2.2ZM178.3,172.7l.2.2.2-.2-.2-.2-.2.2ZM177.6,172.3l.2.2.2-.2-.2-.2-.2.2ZM177,171.8l.2.2.2-.2-.2-.2-.2.2ZM176.3,171.3l.2.2.2-.2-.2-.2-.2.2ZM175.7,170.8l.2.2.2-.2-.2-.2-.2.2ZM175,170.3l.2.2.2-.2-.2-.2-.2.2ZM174.4,169.9l.2.2.2-.2-.2-.2-.2.2ZM173.7,169.4l.2.2.2-.2-.2-.2-.2.2ZM173.1,168.9l.2.2.2-.2-.2-.2-.2.2ZM172.4,168.4l.2.2.2-.2-.2-.2-.2.2ZM171.8,167.9l.2.2.2-.2-.2-.2-.2.2ZM171.2,167.5l.2.2.2-.2-.2-.2-.2.2ZM170.5,167l.2.2.2-.2-.2-.2-.2.2ZM169.9,166.5l.2.2.2-.2-.2-.2-.2.2ZM169.2,166l.2.2.2-.2-.2-.2-.2.2ZM168.6,165.6l.2.2.2-.2-.2-.2-.2.2ZM167.9,165.1l.2.2.2-.2-.2-.2-.2.2ZM167.3,164.6l.2.2.2-.2-.2-.2-.2.2ZM166.6,164.1l.2.2.2-.2-.2-.2-.2.2ZM165.9,163.6l.2.2.2-.2-.2-.2-.2.2ZM179.4,172.5l.2.2.2-.2-.2-.2-.2.2ZM178.7,172.1l.2.2.2-.2-.2-.2-.2.2ZM178.1,171.6l.2.2.2-.2-.2-.2-.2.2ZM177.5,171.1l.2.2.2-.2-.2-.2-.2.2ZM176.8,170.6l.2.2.2-.2-.2-.2-.2.2ZM176.2,170.2l.2.2.2-.2-.2-.2-.2.2ZM175.5,169.7l.2.2.2-.2-.2-.2-.2.2ZM174.9,169.2l.2.2.2-.2-.2-.2-.2.2ZM174.2,168.7l.2.2.2-.2-.3-.2-.2.2ZM173.6,168.3l.2.2.2-.2-.2-.2-.2.2ZM172.9,167.8l.2.2.2-.2-.2-.2-.2.2ZM172.3,167.3l.2.2.2-.2-.2-.2-.2.2ZM171.6,166.8l.3.2.2-.2-.2-.2-.2.2ZM171,166.3l.2.2.2-.2-.2-.2-.2.2ZM170.3,165.9l.2.2.2-.2-.2-.2-.2.2ZM169.7,165.4l.2.2.2-.2-.2-.2-.2.2ZM169,164.9l.2.2.2-.2-.2-.2-.2.2ZM168.4,164.4l.2.2.2-.2-.2-.2-.2.2ZM167.7,164l.2.2.2-.2-.2-.2-.2.2ZM167.1,163.5l.2.2.2-.2-.2-.2-.2.2ZM166.4,163l.2.2.2-.2-.2-.2-.2.2ZM165.8,162.5l.2.2.2-.2-.2-.2-.2.2ZM165.1,162.1l.2.2.2-.2-.2-.2-.2.2ZM164.5,161.6l.2.2.2-.2-.2-.2-.2.2ZM163.9,161.1l.2.2.2-.2-.2-.2-.2.2ZM163.2,160.6l.2.2.2-.2-.2-.2-.2.2ZM179.9,171.9l.2.2.2-.2-.2-.2-.2.2ZM179.2,171.4l.2.2.2-.2-.2-.2-.2.2ZM178.6,171l.2.2.2-.2-.2-.2-.2.2ZM177.9,170.5l.2.2.2-.2-.2-.2-.2.2ZM177.3,170l.2.2.2-.2-.2-.2-.2.2ZM176.6,169.5l.2.2.2-.2-.2-.2-.2.2ZM176,169l.2.2.2-.2-.2-.2-.2.2ZM175.3,168.6l.2.2.2-.2-.2-.2-.2.2ZM174.7,168.1l.2.2.2-.2-.2-.2-.2.2ZM174,167.6l.2.2.2-.2-.2-.2-.2.2ZM173.4,167.1l.2.2.2-.2-.2-.2-.2.2ZM172.7,166.6l.2.2.2-.2-.2-.2-.2.2ZM172.1,166.2l.2.2.2-.2-.2-.2-.2.2ZM171.4,165.7l.2.2.2-.2-.2-.2-.2.2ZM170.8,165.2l.2.2.2-.2-.2-.2-.2.2ZM170.2,164.7l.2.2.2-.2-.2-.2-.2.2ZM169.5,164.3l.2.2.2-.2-.2-.2-.2.2ZM168.9,163.8l.2.2.2-.2-.2-.2-.2.2ZM168.2,163.3l.2.2.2-.2-.2-.2-.2.2ZM167.6,162.8l.2.2.2-.2-.2-.2-.2.2ZM166.9,162.4l.2.2.2-.2-.2-.2-.2.2ZM166.3,161.9l.2.2.2-.2-.2-.2-.2.2ZM165.6,161.4l.2.2.2-.2-.2-.2-.2.2ZM165,160.9l.2.2.2-.2-.2-.2-.2.2ZM164.3,160.4l.2.2.2-.2-.2-.2-.2.2ZM163.7,160l.2.2.2-.2-.2-.2-.2.2ZM180.4,171.3l.2.2.2-.2-.2-.2-.2.2ZM179.7,170.8l.2.2.2-.2-.2-.2-.2.2ZM179.1,170.3l.2.2.2-.2-.2-.2-.2.2ZM178.4,169.8l.2.2.2-.2-.2-.2-.2.2ZM177.8,169.3l.2.2.2-.2-.2-.2-.2.2ZM177.1,168.9l.2.2.2-.2-.2-.2-.2.2ZM176.5,168.4l.2.2.2-.2-.2-.2-.2.2ZM175.8,167.9l.2.2.2-.2-.2-.2-.2.2ZM175.2,167.4l.2.2.2-.2-.2-.2-.2.2ZM174.5,167l.2.2.2-.2-.2-.2-.2.2ZM173.9,166.5l.2.2.2-.2-.2-.2-.2.2ZM173.2,166l.2.2.2-.2-.3-.2-.2.2ZM172.6,165.5l.2.2.2-.2-.2-.2-.2.2ZM171.9,165.1l.2.2.2-.2-.2-.2-.2.2ZM171.3,164.6l.2.2.2-.2-.2-.2-.2.2ZM170.6,164.1l.3.2.2-.2-.2-.2-.2.2ZM170,163.6l.2.2.2-.2-.2-.2-.2.2ZM169.3,163.1l.2.2.2-.2-.2-.2-.2.2ZM168.7,162.7l.2.2.2-.2-.2-.2-.2.2ZM168,162.2l.2.2.2-.2-.2-.2-.2.2ZM167.4,161.7l.2.2.2-.2-.2-.2-.2.2ZM166.7,161.2l.2.2.2-.2-.2-.2-.2.2ZM166.1,160.8l.2.2.2-.2-.2-.2-.2.2ZM165.4,160.3l.2.2.2-.2-.2-.2-.2.2ZM164.8,159.8l.2.2.2-.2-.2-.2-.2.2ZM180.2,170.1l.2.2.2-.2-.2-.2-.2.2ZM179.5,169.7l.2.2.2-.2-.2-.2-.2.2ZM178.9,169.2l.2.2.2-.2-.2-.2-.2.2ZM178.2,168.7l.2.2.2-.2-.2-.2-.2.2ZM177.6,168.2l.2.2.2-.2-.2-.2-.2.2ZM176.9,167.8l.2.2.2-.2-.2-.2-.2.2ZM176.3,167.3l.2.2.2-.2-.2-.2-.2.2ZM175.7,166.8l.2.2.2-.2-.2-.2-.2.2ZM175,166.3l.2.2.2-.2-.2-.2-.2.2ZM174.4,165.8l.2.2.2-.2-.2-.2-.2.2ZM173.7,165.3l.2.2.2-.2-.2-.2-.2.2ZM173.1,164.9l.2.2.2-.2-.2-.2-.2.2ZM172.4,164.4l.2.2.2-.2-.2-.2-.2.2ZM171.8,163.9l.2.2.2-.2-.2-.2-.2.2ZM171.1,163.4l.2.2.2-.2-.2-.2-.2.2ZM170.5,163l.2.2.2-.2-.2-.2-.2.2ZM169.8,162.5l.2.2.2-.2-.2-.2-.2.2ZM169.2,162l.2.2.2-.2-.2-.2-.2.2ZM168.5,161.5l.2.2.2-.2-.2-.2-.2.2ZM167.9,161.1l.2.2.2-.2-.2-.2-.2.2ZM167.2,160.6l.2.2.2-.2-.2-.2-.2.2ZM166.6,160.1l.2.2.2-.2-.2-.2-.2.2ZM165.9,159.6l.2.2.2-.2-.2-.2-.2.2ZM180.7,169.5l.2.2.2-.2-.2-.2-.2.2ZM180,169l.2.2.2-.2-.2-.2-.2.2ZM179.4,168.5l.2.2.2-.2-.2-.2-.2.2ZM178.7,168l.2.2.2-.2-.2-.2-.2.2ZM178.1,167.6l.2.2.2-.2-.2-.2-.2.2ZM177.4,167.1l.2.2.2-.2-.2-.2-.2.2ZM176.8,166.6l.2.2.2-.2-.2-.2-.2.2ZM176.1,166.1l.2.2.2-.2-.2-.2-.2.2ZM175.5,165.7l.2.2.2-.2-.2-.2-.2.2ZM174.8,165.2l.2.2.2-.2-.2-.2-.2.2ZM174.2,164.7l.2.2.2-.2-.2-.2-.2.2ZM173.5,164.2l.2.2.2-.2-.2-.2-.2.2ZM172.9,163.8l.2.2.2-.2-.2-.2-.2.2ZM172.2,163.3l.2.2.2-.2-.3-.2-.2.2ZM171.6,162.8l.2.2.2-.2-.2-.2-.2.2ZM170.9,162.3l.2.2.2-.2-.2-.2-.2.2ZM170.3,161.8l.2.2.2-.2-.2-.2-.2.2ZM169.6,161.4l.3.2.2-.2-.2-.2-.2.2ZM169,160.9l.2.2.2-.2-.2-.2-.2.2ZM168.4,160.4l.2.2.2-.2-.2-.2-.2.2ZM167.7,159.9l.2.2.2-.2-.2-.2-.2.2ZM167.1,159.5l.2.2.2-.2-.2-.2-.2.2ZM180.5,168.4l.2.2.2-.2-.2-.2-.2.2ZM179.8,167.9l.2.2.2-.2-.2-.2-.2.2ZM179.2,167.4l.2.2.2-.2-.2-.2-.2.2ZM178.5,166.9l.2.2.2-.2-.2-.2-.2.2ZM177.9,166.5l.2.2.2-.2-.2-.2-.2.2ZM177.2,166l.2.2.2-.2-.2-.2-.2.2ZM176.6,165.5l.2.2.2-.2-.2-.2-.2.2ZM175.9,165l.2.2.2-.2-.2-.2-.2.2ZM175.3,164.5l.2.2.2-.2-.2-.2-.2.2ZM174.7,164.1l.2.2.2-.2-.2-.2-.2.2ZM174,163.6l.2.2.2-.2-.2-.2-.2.2ZM173.4,163.1l.2.2.2-.2-.2-.2-.2.2ZM172.7,162.6l.2.2.2-.2-.2-.2-.2.2ZM172.1,162.1l.2.2.2-.2-.2-.2-.2.2ZM171.4,161.7l.2.2.2-.2-.2-.2-.2.2ZM170.8,161.2l.2.2.2-.2-.2-.2-.2.2ZM170.1,160.7l.2.2.2-.2-.2-.2-.2.2ZM169.5,160.2l.2.2.2-.2-.2-.2-.2.2ZM168.8,159.8l.2.2.2-.2-.2-.2-.2.2ZM168.2,159.3l.2.2.2-.2-.2-.2-.2.2ZM167.5,158.8l.2.2.2-.2-.2-.2-.2.2ZM181,167.7l.2.2.2-.2-.2-.2-.2.2ZM180.3,167.2l.2.2.2-.2-.2-.2-.2.2ZM179.7,166.8l.2.2.2-.2-.2-.2-.2.2ZM179,166.3l.2.2.2-.2-.2-.2-.2.2ZM178.4,165.8l.2.2.2-.2-.2-.2-.2.2ZM177.7,165.3l.2.2.2-.2-.3-.2-.2.2ZM177.1,164.8l.2.2.2-.2-.2-.2-.2.2ZM176.4,164.4l.2.2.2-.2-.2-.2-.2.2ZM175.8,163.9l.2.2.2-.2-.2-.2-.2.2ZM175.1,163.4l.3.2.2-.2-.2-.2-.2.2ZM174.5,162.9l.2.2.2-.2-.2-.2-.2.2ZM173.8,162.5l.2.2.2-.2-.2-.2-.2.2ZM173.2,162l.2.2.2-.3-.2-.2-.2.2ZM172.5,161.5l.2.2.2-.2-.2-.2-.2.2ZM171.9,161l.2.2.2-.2-.2-.2-.2.2ZM171.2,160.6l.2.2.2-.2-.2-.2-.2.2ZM170.6,160.1l.2.2.2-.2-.2-.2-.2.2ZM169.9,159.6l.2.2.2-.2-.2-.2-.2.2ZM169.3,159.1l.2.2.2-.2-.2-.2-.2.2ZM168.6,158.6l.2.2.2-.2-.2-.2-.2.2ZM180.8,166.6l.2.2.2-.2-.2-.2-.2.2ZM180.2,166.1l.2.2.2-.2-.2-.2-.2.2ZM179.5,165.6l.2.2.2-.2-.2-.2-.2.2ZM178.9,165.2l.2.2.2-.2-.2-.2-.2.2ZM178.2,164.7l.2.2.2-.2-.2-.2-.2.2ZM177.6,164.2l.2.2.2-.2-.2-.2-.2.2ZM176.9,163.7l.2.2.2-.2-.2-.2-.2.2ZM176.3,163.3l.2.2.2-.2-.2-.2-.2.2ZM175.6,162.8l.2.2.2-.2-.2-.2-.2.2ZM175,162.3l.2.2.2-.2-.2-.2-.2.2ZM174.3,161.8l.2.2.2-.2-.2-.2-.2.2ZM173.7,161.3l.2.2.2-.2-.2-.2-.2.2ZM173,160.8l.2.2.2-.2-.2-.2-.2.2ZM172.4,160.4l.2.2.2-.2-.2-.2-.2.3ZM171.7,159.9l.2.2.2-.2-.2-.2-.2.2ZM171.1,159.4l.2.2.2-.2-.2-.2-.2.2ZM170.4,158.9l.2.2.2-.2-.2-.2-.2.2ZM169.8,158.5l.2.2.2-.3-.2-.2-.2.2ZM181.3,166l.2.2.2-.2-.2-.2-.2.2ZM180.6,165.5l.2.2.2-.2-.2-.2-.2.2ZM180,165l.2.2.2-.2-.2-.2-.2.2ZM179.3,164.5l.2.2.2-.3-.2-.2-.2.2ZM178.7,164l.2.2.2-.2-.2-.2-.2.2ZM178,163.5l.2.2.2-.2-.2-.2-.2.2ZM177.4,163.1l.2.2.2-.2-.2-.2-.2.2ZM176.7,162.6l.2.2.2-.2-.3-.2-.2.2ZM176.1,162.1l.2.2.2-.2-.2-.2-.2.2ZM175.4,161.6l.2.2.2-.2-.2-.2-.2.2ZM174.8,161.2l.2.2.2-.2-.2-.2-.2.2ZM174.1,160.7l.3.2.2-.2-.2-.2-.2.2ZM173.5,160.2l.2.2.2-.2-.2-.2-.2.2ZM172.9,159.7l.2.2.2-.2-.2-.2-.2.2ZM172.2,159.3l.2.2.2-.2-.2-.2-.2.2ZM171.6,158.8l.2.2.2-.2-.2-.2-.2.2ZM170.9,158.3l.2.2.2-.2-.2-.2-.2.2ZM181.7,165.3l.2.2.2-.2-.2-.2-.2.2ZM181.1,164.8l.2.2.2-.2-.2-.2-.2.2ZM180.4,164.3l.2.2.2-.2-.2-.2-.2.2ZM179.8,163.9l.2.2.2-.2-.2-.2-.2.2ZM179.2,163.4l.2.2.2-.2-.2-.2-.2.2ZM178.5,162.9l.2.2.2-.2-.2-.2-.2.3ZM177.9,162.4l.2.2.2-.2-.2-.2-.2.2ZM177.2,162l.2.2.2-.2-.2-.2-.2.2ZM176.6,161.5l.2.2.2-.2-.2-.2-.2.2ZM175.9,161l.2.2.2-.3-.2-.2-.2.2ZM175.3,160.5l.2.2.2-.2-.2-.2-.2.2ZM174.6,160l.2.2.2-.2-.2-.2-.2.2ZM174,159.6l.2.2.2-.2-.2-.2-.2.2ZM173.3,159.1l.2.2.2-.2-.2-.2-.2.2ZM172.7,158.6l.2.2.2-.2-.2-.2-.2.2ZM172,158.1l.2.2.2-.2-.2-.2-.2.2ZM171.4,157.6l.2.2.2-.2-.2-.2-.2.2ZM181.6,164.2l.2.2.2-.2-.2-.2-.2.2ZM180.9,163.7l.2.2.2-.2-.2-.2-.2.2ZM180.3,163.2l.2.2.2-.2-.2-.2-.2.2ZM179.7,162.7l.2.2.2-.2-.2-.2-.2.2ZM179,162.3l.2.2.2-.2-.2-.2-.2.2ZM178.4,161.8l.2.2.2-.2-.2-.2-.2.2ZM177.7,161.3l.2.2.2-.2-.2-.2-.2.2ZM177.1,160.8l.2.2.2-.2-.2-.2-.2.2ZM176.4,160.3l.2.2.2-.2-.2-.2-.2.2ZM175.8,159.9l.2.2.2-.2-.3-.2-.2.2ZM175.1,159.4l.2.2.2-.2-.2-.2-.2.3ZM174.5,158.9l.2.2.2-.2-.2-.2-.2.2ZM173.8,158.4l.2.2.2-.2-.2-.2-.2.2ZM173.2,158l.3.2.2-.2-.2-.2-.2.2ZM172.5,157.5l.2.2.2-.3-.2-.2-.2.2ZM182.1,163.5l.2.2.2-.3-.2-.2-.2.2ZM181.4,163l.2.2.2-.2-.2-.2-.2.2ZM180.8,162.6l.2.2.2-.2-.2-.2-.2.2ZM180.1,162.1l.2.2.2-.2-.2-.2-.2.2ZM179.5,161.6l.2.2.2-.2-.2-.2-.2.2ZM178.8,161.1l.2.2.2-.2-.2-.2-.2.2ZM178.2,160.7l.2.2.2-.2-.2-.2-.2.2ZM177.5,160.2l.2.2.2-.2-.2-.2-.2.2ZM176.9,159.7l.2.2.2-.2-.2-.2-.2.2ZM176.2,159.2l.2.2.2-.2-.2-.2-.2.2ZM175.6,158.8l.2.2.2-.2-.2-.2-.2.2ZM174.9,158.3l.2.2.2-.2-.2-.2-.2.2ZM174.3,157.8l.2.2.2-.2-.2-.2-.2.2ZM173.6,157.3l.2.2.2-.2-.2-.2-.2.2ZM181.9,162.4l.2.2.2-.2-.2-.2-.2.2ZM181.2,161.9l.2.2.2-.2-.2-.2-.2.3ZM180.6,161.5l.2.2.2-.2-.2-.2-.2.2ZM179.9,161l.2.2.2-.2-.2-.2-.2.2ZM179.3,160.5l.2.2.2-.2-.2-.2-.2.2ZM178.6,160l.3.2.2-.3-.2-.2-.2.2ZM178,159.5l.2.2.2-.2-.2-.2-.2.2ZM177.4,159l.2.2.2-.2-.2-.2-.2.2ZM176.7,158.6l.2.2.2-.2-.2-.2-.2.2ZM176.1,158.1l.2.2.2-.2-.2-.2-.2.2ZM175.4,157.6l.2.2.2-.2-.2-.2-.2.2ZM174.8,157.1l.2.2.2-.2-.3-.2-.2.2ZM182.4,161.7l.2.2.2-.2-.2-.2-.2.2ZM181.7,161.3l.2.2.2-.2-.2-.2-.2.2ZM181.1,160.8l.2.2.2-.2-.2-.2-.2.2ZM180.4,160.3l.2.2.2-.2-.2-.2-.2.2ZM179.8,159.8l.2.2.2-.2-.2-.2-.2.2ZM179.1,159.4l.2.2.2-.2-.2-.2-.2.2ZM178.5,158.9l.2.2.2-.2-.2-.2-.2.2ZM177.8,158.4l.2.2.2-.2-.2-.2-.2.3ZM177.2,157.9l.2.2.2-.2-.2-.2-.2.2ZM176.5,157.5l.2.2.2-.2-.2-.2-.2.2ZM175.9,157l.2.2.2-.2-.2-.2-.2.2ZM175.2,156.5l.2.2.2-.3-.2-.2-.2.2ZM182.2,160.6l.2.2.2-.2-.2-.2-.2.2ZM181.6,160.2l.2.2.2-.2-.2-.2-.2.2ZM180.9,159.7l.2.2.2-.2-.2-.2-.2.2ZM180.3,159.2l.2.2.2-.2-.3-.2-.2.2ZM179.6,158.7l.2.2.2-.2-.2-.2-.2.2ZM179,158.2l.2.2.2-.2-.2-.2-.2.2ZM178.3,157.8l.2.2.2-.2-.2-.2-.2.2ZM177.7,157.3l.3.2.2-.2-.2-.2-.2.2ZM177,156.8l.2.2.2-.2-.2-.2-.2.2ZM176.4,156.3l.2.2.2-.2-.2-.2-.2.2ZM182.7,160l.2.2.2-.2-.2-.2-.2.2ZM182,159.5l.2.2.2-.2-.2-.2-.2.2ZM181.4,159l.2.2.2-.2-.2-.2-.2.2ZM180.7,158.5l.2.2.2-.2-.2-.2-.2.2ZM180.1,158.1l.2.2.2-.2-.2-.2-.2.2ZM179.4,157.6l.2.2.2-.2-.2-.2-.2.2ZM178.8,157.1l.2.2.2-.2-.2-.2-.2.2ZM178.1,156.6l.2.2.2-.2-.2-.2-.2.2ZM177.5,156.2l.2.2.2-.2-.2-.2-.2.2ZM183.2,159.3l.2.2.2-.2-.2-.2-.2.2ZM182.5,158.9l.2.2.2-.2-.2-.2-.2.2ZM181.9,158.4l.2.2.2-.2-.2-.2-.2.2ZM181.2,157.9l.2.2.2-.2-.2-.2-.2.2ZM180.6,157.4l.2.2.2-.2-.2-.2-.2.2ZM179.9,156.9l.2.2.2-.2-.2-.2-.2.2ZM179.3,156.5l.2.2.2-.2-.3-.2-.2.2ZM178.6,156l.2.2.2-.2-.2-.2-.2.2ZM183,158.2l.2.2.2-.2-.2-.2-.2.2ZM182.4,157.7l.2.2.2-.2-.2-.2-.2.2ZM181.7,157.2l.2.2.2-.2-.2-.2-.2.2ZM181.1,156.8l.2.2.2-.2-.2-.2-.2.2ZM180.4,156.3l.2.2.2-.2-.2-.2-.2.2ZM179.8,155.8l.2.2.2-.2-.2-.2-.2.2ZM179.1,155.3l.2.2.2-.2-.2-.2-.2.2ZM183.5,157.6l.2.2.2-.2-.2-.2-.2.2ZM182.8,157.1l.2.2.2-.2-.2-.2-.2.2ZM182.2,156.6l.2.2.2-.2-.2-.2-.2.2ZM181.5,156.1l.2.2.2-.2-.2-.2-.2.2ZM180.9,155.6l.2.2.2-.2-.2-.2-.2.2ZM180.2,155.2l.2.2.2-.2-.2-.2-.2.2ZM183.3,156.4l.2.2.2-.2-.2-.2-.2.2ZM182.6,156l.2.2.2-.2-.2-.2-.2.2ZM182,155.5l.2.2.2-.2-.2-.2-.2.2ZM181.4,155l.2.2.2-.2-.2-.2-.2.2ZM183.8,155.8l.2.2.2-.2-.2-.2-.2.2ZM183.1,155.3l.2.2.2-.2-.2-.2-.2.2ZM182.5,154.8l.2.2.2-.2-.2-.2-.2.2ZM183.6,154.7l.2.2.2-.2-.2-.2-.2.2ZM183,154.2l.2.2.2-.2-.2-.2-.2.2ZM184.1,154l.2.2.2-.2-.2-.2-.2.2Z"/>
  <path class="st4" d="M175.3,175.5l-17.9-16.9,11.8-3.5,11.8-3.5-5.7,23.9ZM158.2,158.8l16.8,15.9,5.3-22.5-11.1,3.3-11.1,3.3Z"/>
  <path class="st4" d="M321.5,112.9c-.1,0-.2,0-.2-.2l-.4-5.9c0-.1,0-.2.2-.2.1,0,.2,0,.2.2l.4,5.9c0,.1,0,.2-.2.2h0Z"/>
  <path class="st4" d="M328.8,109.6c0,0-.1,0-.1,0l-4.5-3.9c0,0,0-.2,0-.3,0,0,.2,0,.3,0l4.5,3.9c0,0,0,.2,0,.3,0,0-.1,0-.2,0Z"/>
  <path class="st4" d="M325.7,102.3c-.1,0-.2,0-.2-.2,0-.1,0-.2.2-.2l5.9-.4c.1,0,.2,0,.2.2,0,.1,0,.2-.2.2l-5.9.4h0Z"/>
  <path class="st4" d="M324.3,99.1c0,0-.1,0-.1,0,0,0,0-.2,0-.3l3.9-4.5c0,0,.2,0,.3,0,0,0,0,.2,0,.3l-3.9,4.5s-.1,0-.2,0Z"/>
  <path class="st4" d="M321,97.8c-.1,0-.2,0-.2-.2l-.4-5.9c0-.1,0-.2.2-.2.1,0,.2,0,.2.2l.4,5.9c0,.1,0,.2-.2.2h0Z"/>
  <path class="st4" d="M317.8,99.2c0,0-.1,0-.1,0l-4.5-3.9c0,0,0-.2,0-.3,0,0,.2-.1.3,0l4.5,3.9c0,0,0,.2,0,.3,0,0-.1,0-.2,0Z"/>
  <path class="st4" d="M310.6,102.8c-.1,0-.2,0-.2-.2,0-.1,0-.2.2-.2l5.9-.4c.1,0,.2,0,.2.2,0,.1,0,.2-.2.2l-5.9.4h0Z"/>
  <path class="st4" d="M313.9,110.1c0,0-.1,0-.1,0,0,0,0-.2,0-.3l3.9-4.5c0,0,.2,0,.3,0,0,0,0,.2,0,.3l-3.9,4.5s-.1,0-.2,0Z"/>
</svg>