<?xml version="1.0" encoding="UTF-8"?>
<svg id="Layer_1" xmlns="http://www.w3.org/2000/svg" version="1.1" viewBox="0 0 376.1 375.6">
  <!-- Generator: Adobe Illustrator 29.0.1, SVG Export Plug-In . SVG Version: 2.1.0 Build 192)  -->
  <defs>
    <style>
      .st0 {
        fill: #f96e75;
      }

      .st0, .st1, .st2, .st3 {
        fill-rule: evenodd;
      }

      .st1 {
        fill: #13d0fa;
      }

      .st2, .st4 {
        fill: #aedbf1;
      }

      .st3 {
        fill: #fac413;
      }

      .st5 {
        fill: #141515;
      }
    </style>
  </defs>
  <path class="st5" d="M285.4,224c0,0-.1,0-.1,0,0,0,0-.1,0-.2s0-.1,0-.2c.1-.1.2,0,.3,0,0,0,0,.1,0,.2s0,.1,0,.2c0,0-.1,0-.2,0Z"/>
  <path class="st0" d="M261.1,168.6c-5.9,0-10.7-4.8-10.7-10.7s4.8-10.7,10.7-10.7,10.7,4.8,10.7,10.7-4.8,10.7-10.7,10.7h0Z"/>
  <polygon class="st1" points="272.6 139.5 280.3 126.1 288.1 112.6 295.9 126 303.7 139.5 288.1 139.5 272.6 139.5"/>
  <path class="st3" d="M159.3,262.6c-3.3,1.4-8-2.4-10.6-8.5-2.6-6.1-2.1-12.2,1.2-13.6,3.3-1.4,8,2.4,10.6,8.5,2.6,6.1,2.1,12.2-1.2,13.6h0Z"/>
  <path class="st4" d="M106.6,105.7c0-4.5-3.6-8.1-8.1-8.1s-8.1,3.6-8.1,8.1,3.6,8.1,8.1,8.1,8.1-3.6,8.1-8.1h0Z"/>
  <path class="st4" d="M87.9,109.1c.9,3,3,5.2,5.6,6.5,2.5,1.3,5.6,1.6,8.5.6,3-1,5.3-3,6.6-5.6,1.3-2.6,1.6-5.6.7-8.5h0c-1-2.9-3-5.2-5.6-6.5-2.6-1.3-5.6-1.6-8.6-.7h0c-2.9.9-5.2,3-6.5,5.6-1.3,2.6-1.7,5.6-.7,8.5h0ZM93.3,115.8c-2.6-1.3-4.7-3.6-5.7-6.6h0c-1-3-.6-6.1.7-8.7,1.3-2.6,3.6-4.7,6.6-5.7h0c3-1,6.1-.6,8.7.7,2.6,1.3,4.7,3.7,5.7,6.7h0c1,3,.6,6.1-.7,8.7-1.3,2.6-3.6,4.7-6.6,5.7-3,1-6.1.7-8.7-.7h0Z"/>
  <path class="st3" d="M202.6,66.3c-1.8-1.4-4.3-1-5.7.8-1.2,1.8-1,4.3.9,5.7,1.8,1.3,4.3,1,5.6-.9,1.4-1.8,1-4.3-.8-5.6h0Z"/>
  <polygon class="st3" points="45.6 224.5 40.6 224.4 40.8 229.6 45.7 229.6 45.6 224.5"/>
  <path class="st1" d="M247.3,262.8c-.4-.5-1.1-.5-1.6-.1-.5.4-.5,1.2-.1,1.6.4.5,1.2.5,1.6,0,.5-.4.5-1.1,0-1.6h0Z"/>
  <path class="st1" d="M238.2,247.1c0-1.8-1.4-3.4-3.4-3.5-1.7,0-3.3,1.5-3.4,3.4,0,1.9,1.4,3.4,3.3,3.5,1.8.1,3.5-1.5,3.5-3.3h0ZM232.1,246.9h.1c0-.1,0-.2,0-.2h.1c0-.1,0-.2,0-.2h0c0,0,.1-.2.1-.2h0c0,0,0-.3,0-.3h.1c0-.1,0-.2,0-.2h.1c.4-.7.9-1.2,1.7-1.4h.2c0,0,0,0,0,0h.2c0,0,.2-.1.2-.1h0c0,0,0,.1,0,.1h.2c0,0,0,0,0,0h0c0,0,0,.1,0,.1h.2c0-.1,0,0,0,0h0c0,0,0,.1,0,.1h.2c0-.1,0,0,0,0h0c0,0,0,.1,0,.1h.3c0,.1,0,.2,0,.2h0s0,0,0,0h.1,0c0,0,0,.1,0,.1h.2c0,0,.1.2.1.2h0c0,0,0,.2,0,.2h0c0,0,0,0,0,0h0c0,.1,0,.2,0,.2h0c0,0,0,.1,0,.1h0c0,.1,0,.3,0,.3h0c0,0,0,.1,0,.1h0c0,.1,0,.4,0,.6,0,.3,0,.5,0,.6h0c0,0-.1.3-.1.3h0v.2h-.1,0v.2h-.2c0,.1-.1.3-.1.3h0s-.1.2-.1.2h0c0,0,0,.1,0,.1h0c0,0,0,0,0,0h-.1c0,.1,0,.3,0,.3h0c0,0-.1,0-.1,0h0c0,0,0,.1,0,.1h0c0,0-.1.2-.1.2h0c-.2,0-.4.1-.7.2h0c0,0-.2,0-.2,0h0c0,0-.2,0-.2,0h0c0,0-.2,0-.2,0h0c0,0,0,0,0,0h0c0,0-.1,0-.1,0h0v-.2h-.2c0,0-.2,0-.2,0h0c0,0,0-.1,0-.1h0c0,0,0-.1,0-.1h0c0,0,0,0,0,0h0v-.2h0-.2s0,0,0,0h-.1c0-.1,0-.2,0-.2h0c0,0,0-.1,0-.1h0c0,0,0-.1,0-.1h0c0,0,.1-.2.1-.2h0s0-.1,0-.1h0c0,0,0-.1,0-.1h0c0,0,0-.1,0-.1h0c0,0,0-.3,0-.3h0c0,0,0-.1,0-.1h0v-.2h0c0-.1,0-.2,0-.2h0c0,0,0-.2,0-.2Z"/>
  <path class="st0" d="M321,80.4c2.5,1.6,5.5,1.3,7.4-1,1.8-2.4,1.3-5.7-1-7.4-2.5-1.8-5.7-1.4-7.4,1-1.8,2.4-1.3,5.6,1,7.4h0ZM325.8,74c1.1.9,1.4,2.5.6,3.7-.9,1.2-2.6,1.5-3.7.5-1.3-.7-1.4-2.5-.7-3.6.9-1.2,2.6-1.5,3.9-.7h0Z"/>
  <polygon class="st3" points="303.6 163.2 346.2 131.7 345.4 125.9 302.8 157.5 303.6 163.2"/>
  <polygon class="st0" points="256.6 236.6 256.7 238.5 298.1 211 297.9 209.1 256.6 236.6"/>
  <polygon class="st2" points="84.7 281.8 84.7 294.7 120.4 274.9 120.4 262 84.7 281.8"/>
  <path class="st1" d="M138.6,114.1c-1-2.5.2-5.4,2.7-6.4,2.5-1,5.4.2,6.4,2.7,1,2.5-.2,5.4-2.7,6.4-2.5,1-5.4-.2-6.4-2.7h0Z"/>
  <polygon class="st2" points="215.3 97 215.4 98.2 239.9 82 239.8 80.8 215.3 97"/>
  <path class="st0" d="M158.8,299c2.3,0,4.1,1.8,4.1,4.1s-1.8,4.1-4.1,4.1-4.1-1.8-4.1-4.1,1.8-4.1,4.1-4.1h0Z"/>
  <polygon class="st1" points="283.9 82.1 280.4 88.2 276.9 94.3 273.4 88.2 269.9 82.1 276.9 82.1 283.9 82.1"/>
  <path class="st3" d="M191,95.3c1.6-.7,4,1.2,5.4,4.3,1.3,3.1,1.1,6.1-.6,6.8-1.7.7-4-1.2-5.4-4.3-1.3-3.1-1.1-6.1.6-6.8h0Z"/>
  <path class="st4" d="M266,285.3c0-2.8-2.3-5-5-5s-5,2.2-5,5,2.3,5,5,5,5-2.3,5-5h0Z"/>
  <path class="st4" d="M105.6,227.5c-.4-1.2-1.2-2.1-2.2-2.6-1-.5-2.2-.6-3.4-.3-1.2.4-2.1,1.2-2.6,2.2-.5,1-.7,2.2-.3,3.4h0c.4,1.2,1.2,2.1,2.2,2.6,1,.5,2.3.6,3.4.3h0c1.2-.4,2.1-1.2,2.6-2.2.5-1,.7-2.3.3-3.4h0ZM103.4,224.9c1.1.5,1.9,1.5,2.3,2.7h0c.4,1.2.3,2.5-.3,3.5-.6,1-1.5,1.9-2.7,2.3h0c-1.2.4-2.5.3-3.5-.3-1.1-.5-1.9-1.5-2.3-2.7h0c-.4-1.2-.3-2.5.3-3.5.5-1,1.5-1.9,2.7-2.3,1.2-.4,2.5-.3,3.5.3h0Z"/>
  <path class="st3" d="M198.8,234.2s7.6,7.6,6.2,10.3c-1.3,2.7-9.3-2.3-10.5-4.6-1.1-2.4,4.6-.2,6.5,2-1.8-2.1-7.2-4.2-6.1-2,1.1,2.2,8.5,6.9,9.8,4.3,1.3-2.5-5.9-10-5.9-10h0Z"/>
  <path class="st3" d="M80.4,193.4c1.2.9,3,.7,3.9-.6.9-1.3.7-3-.6-3.9-1.3-.9-2.9-.7-3.9.6-1,1.2-.7,2.9.6,3.9h0Z"/>
  <polygon class="st3" points="177.1 220.3 179 220.3 179 218.4 177.1 218.4 177.1 220.3"/>
  <path class="st1" d="M164.6,73.3c0,.9.7,1.8,1.7,1.8.9,0,1.7-.7,1.7-1.7,0-.9-.7-1.7-1.7-1.7-.9,0-1.8.7-1.8,1.7h0ZM167.7,73.4h0s0,0,0,0h0s0,0,0,0h0s0,.1,0,.1h0s0,.1,0,.1h0c0,0,0,.1,0,.1h0c-.2.4-.5.6-.9.7h-.1s0,0,0,0h-.1s0,0,0,0h0s0,0,0,0h0c0,0,0,0,0,0h0s0,0,0,0h0c0,0,0,0,0,0h0s0,0,0,0h0c0,0,0,0,0,0h0s0,0,0,0h-.1c0,0,0-.1,0-.1h0s0,0,0,0h0,0s0,0,0,0h0s0,0,0,0h0c0,0,0-.1,0-.1h0s0,0,0,0h0s0,0,0,0h0s0,0,0,0h0c0-.1,0-.2,0-.2h0s0,0,0,0h0c0,0,0-.2,0-.3,0-.1,0-.2,0-.3h0s0-.1,0-.1h0c0,0,0,0,0,0h0c0,0,0-.2,0-.2h0c0,0,0-.1,0-.1h0c0,0,0,0,0,0h0c0-.1,0-.1,0-.1h0s0,0,0,0h0c0-.1,0,0,0,0h0c0,0,0,0,0,0h0s0,0,0,0h0c.1,0,.2-.1.3-.1h0s.1,0,.1,0h0s0,0,0,0h0s0,0,0,0h0s0,0,0,0h0s0,0,0,0h0c0,0,0,.1,0,.1h.1s0,0,0,0h0s0,0,0,0h0s0,0,0,0h0s0,0,0,0h.1s0,0,0,0h0c0,0,0,.1,0,.1h0s0,0,0,0h0s0,0,0,0h0s0,.1,0,.1h0s0,0,0,0h0s0,0,0,0h0s0,0,0,0h0s0,.1,0,.1h0s0,0,0,0h0v.2h0s0,0,0,0h0Z"/>
  <path class="st0" d="M313.8,302.4c-1.8-1.1-3.9-.9-5.2.7-1.3,1.7-1,4,.7,5.2,1.8,1.2,4,.9,5.2-.7,1.3-1.7.9-3.9-.7-5.2h0ZM310.4,307c-.8-.7-1-1.8-.4-2.6.6-.8,1.8-1,2.6-.4.9.5,1,1.8.5,2.6-.6.8-1.8,1.1-2.7.5h0Z"/>
  <polygon class="st3" points="170.5 310.5 156.6 320.8 156.8 322.7 170.7 312.4 170.5 310.5"/>
  <polygon class="st0" points="151.1 87.5 151 86 120.2 106.5 120.3 107.9 151.1 87.5"/>
  <polygon class="st2" points="59.3 76.6 59.3 71.7 45.6 79.3 45.6 84.2 59.3 76.6"/>
  <path class="st1" d="M46,290.2c.3.7,0,1.6-.8,1.9-.7.3-1.6,0-1.9-.8-.3-.7,0-1.6.8-1.9.7-.3,1.5,0,1.9.8h0Z"/>
  <polygon class="st2" points="342.1 148.8 342.1 148.3 332.8 154.5 332.8 155 342.1 148.8"/>
  <path class="st0" d="M65.6,258.1c-5.9,0-10.7-4.8-10.7-10.7s4.8-10.7,10.7-10.7,10.7,4.8,10.7,10.7-4.8,10.7-10.7,10.7h0Z"/>
  <polygon class="st3" points="42.8 167.6 37.8 167.5 38.1 172.6 42.9 172.7 42.8 167.6"/>
  <path class="st0" d="M60,310.3c2.5,1.6,5.5,1.3,7.4-1,1.8-2.4,1.3-5.7-1-7.5-2.5-1.7-5.7-1.3-7.4,1.1-1.8,2.4-1.3,5.6,1,7.4h0ZM64.8,303.8c1.1,1,1.4,2.6.6,3.7-.9,1.2-2.6,1.5-3.7.6-1.3-.8-1.4-2.5-.7-3.6,1-1.2,2.6-1.5,3.9-.7h0Z"/>
  <polygon class="st2" points="43.7 114.2 43.8 115.7 76 94.3 75.9 92.8 43.7 114.2"/>
  <polygon class="st2" points="213.7 307 213.8 308.1 238.3 291.9 238.2 290.7 213.7 307"/>
  <path class="st1" d="M162.3,285.1c0,.9.7,1.7,1.7,1.8.8,0,1.7-.8,1.7-1.7,0-1-.7-1.7-1.7-1.8-.9,0-1.8.7-1.8,1.7h0ZM165.4,285.2h0c0,0,0,0,0,0h0c0,0,0,0,0,0h0s0,.1,0,.1h0s0,.1,0,.1h0s0,0,0,0h0c-.2.4-.5.6-.9.7h-.1s0,0,0,0h-.1s0,0,0,0h0s0,0,0,0h0s0,0,0,0h0s0,0,0,0h0s0,0,0,0h0s0,0,0,0h0c0,0,0,0,0,0h0s0,0,0,0h0s0,0,0,0h0s0,0,0,0h0c0,0,0,0,0,0h0s0,0,0,0h0s0-.1,0-.1h0s0,0,0,0h0s0,0,0,0h0c0,0,0-.1,0-.1h0s0,0,0,0h0s0-.2,0-.2h0s0,0,0,0h0c0,0,0-.2,0-.3,0-.1,0-.2,0-.3h0s0-.1,0-.1h0c0,0,0,0,0,0h0c0,0,0-.2,0-.2h0c0,0,0,0,0,0h0c0,0,0,0,0,0h0c0,0,0-.1,0-.1h0s0,0,0,0h0c0,0,0,0,0,0h0s0,0,0,0h0s0,0,0,0h0c.1-.1.2-.1.3-.2h0s.1,0,.1,0h0s0,0,0,0h0s0,0,0,0h0s0,0,0,0h0s0,0,0,0h0c0,0,0,0,0,0h.1s0,0,0,0h0s0,0,0,0h0s0,0,0,0h0s0,0,0,0h0s0,0,0,0h0c0,0,0,.1,0,.1h0s0,0,0,0h0s0,0,0,0h0s0,0,0,0h0s0,0,0,0h0s0,0,0,0h0s0,0,0,0h0s0,.1,0,.1h0s0,0,0,0h0v.2h0s0,0,0,0h0Z"/>
  <path class="st1" d="M346,250.9c2.8,0,5.1,2.3,5.1,5.1s-2.3,5.1-5.1,5.1-5.1-2.3-5.1-5.1,2.3-5.1,5.1-5.1h0Z"/>
  <path class="st1" d="M30.1,123.6c-2.8,0-5.1-2.3-5.1-5.1s2.3-5.1,5.1-5.1,5.1,2.3,5.1,5.1-2.3,5.1-5.1,5.1h0Z"/>
  <path class="st1" d="M346,123.6c2.8,0,5.1-2.3,5.1-5.1s-2.3-5.1-5.1-5.1-5.1,2.3-5.1,5.1,2.3,5.1,5.1,5.1h0Z"/>
  <path class="st1" d="M33.9,250.9c-2.8,0-5.1,2.3-5.1,5.1s2.3,5.1,5.1,5.1,5.1-2.3,5.1-5.1-2.3-5.1-5.1-5.1h0Z"/>
  <polygon class="st3" points="59.7 227.3 93.7 202.1 93.1 197.5 59.1 222.7 59.7 227.3"/>
  <polygon class="st3" points="159.3 158.9 179.3 175.9 184.5 152.7 159.3 158.9"/>
</svg>