<?xml version="1.0" encoding="UTF-8"?>
<svg id="Layer_1" xmlns="http://www.w3.org/2000/svg" version="1.1" viewBox="0 0 376.1 375.6">
  <!-- Generator: Adobe Illustrator 29.0.1, SVG Export Plug-In . SVG Version: 2.1.0 Build 192)  -->
  <defs>
    <style>
      .st0 {
        fill: #fff;
      }
    </style>
  </defs>
  <path class="st0" d="M255.3,172.8c14.3.5,29.9.9,38,7.7,8.3,7,8.4,20.2,8.6,31.8h0c.4,21.6.9,43.3.2,59.4-.6,15.8-2.3,27.3-9.8,33.4-7.3,5.9-19.8,6.1-31.1,6.4h0l-53.9.7,1.4-.6c-5.5,5.5-11.9,12.2-19.4,12.2s-.6,0-1,0c-7.7-.6-15.8-8.4-23.1-15.1l1.4.6h0c-8.3-.2-16.6-.4-25.2-.4s-10.9,0-16.6.3c-1.4,0-2.8.1-4.2.2-1.4,0-2.9.1-4.3.2-2.6,0-5.3.2-7.9.2-9.6,0-19.2-1-25.3-6.2-9.3-8-9.3-25.3-9.4-38.9v-20.1c0-6.6,0-13.2-.2-20.3v-3.8c-.3-13-.4-28.1,5.7-36.6,6.8-9.6,21-10.1,37.9-10.6,2.9,0,5.9-.2,9-.2s6.5-.2,9.8-.3c12.5-.4,24.8-.9,33.1-1.9,12.6-1.6,15.6-4.5,16.9-6.4,1.3-1.9,1.4-3.5,1.5-6v-.9c0-1.3.2-2.6.2-3.6s0-1.1.1-1.4h0c0-2.1-.6,1.8,2,2h.1c2.1,0,2.4-3,2-1.4h0c-.2,1-1,6.2-.5,9.6.4,3,1.9,4.6,4.3,5.9,2.4,1.3,5.7,2.3,15.9,3s26.8,1.2,43.6,1.6h0M255.2,177h0c-16.7-.4-33.5-.9-43.8-1.6-10.3-.7-14.3-1.8-17.6-3.5-3.3-1.8-5.8-4.4-6.5-8.9-.6-4.1.3-9.9.6-11.1v-.2c-.4,1.4,0-1.7,2-1.7s0,0,.1,0h0c2.6.1,2,4.2,2,2.2h0v.3c0,.3,0,.9-.1,1.5,0,1-.2,2.3-.2,3.4v.9c0,2.5-.2,5.2-2.2,8.1-2.3,3.4-6.8,6.6-19.8,8.2-8.6,1.1-21.1,1.6-33.5,2-3.3,0-6.6.2-9.8.3-3.1,0-6.1.2-9,.2-17.8.5-29.3,1.4-34.7,8.9-5.1,7.1-5.2,20.6-4.9,34.1v3.8c0,7.2.2,13.8.2,20.4v20.1c0,14.5.4,29.3,7.9,35.8,4.8,4.1,12.9,5.2,22.6,5.2s5.1,0,7.7-.2c1.4,0,2.8-.1,4.3-.2,1.4,0,2.8-.1,4.2-.2,5.8-.2,11.4-.3,16.8-.3,8.7,0,17,.2,25.3.4h0c.5,0,1,.2,1.4.6,7.8,7.3,14.7,13.6,20.6,14h.6c5.4,0,10.4-4.9,16.4-10.9s.9-.6,1.4-.6l53.9-.7h0c11.9-.3,22.6-.7,28.6-5.5,5.8-4.7,7.6-14.1,8.2-30.3.6-16,.2-37.5-.2-59.1h0c-.2-12.4-.6-23.2-7.1-28.7-6.8-5.7-20.5-6.2-35.5-6.7h.1Z"/>
</svg>