<?xml version="1.0" encoding="UTF-8"?>
<svg id="Layer_1" xmlns="http://www.w3.org/2000/svg" version="1.1" viewBox="0 0 376.1 375.6">
  <!-- Generator: Adobe Illustrator 29.0.1, SVG Export Plug-In . SVG Version: 2.1.0 Build 192)  -->
  <defs>
    <style>
      .st0 {
        fill: #fff;
      }
    </style>
  </defs>
  <path d="M181.4,134.4c-2.5-6.3-5-12.5-7-17.1-.4-.9-.8-1.8-1.2-2.6-.3-.7-.6-1.4-.9-2-1-2.2-1.7-4.2-2.1-6.3-.5-3.5.1-7,1.5-10.2,1.3-3.2,3.4-6.3,7.1-9,3.4-2.5,8.4-4.8,13.8-4.8s.7,0,1,0c5.7.3,11.5,3.3,15.3,7.2,3.8,3.9,5.5,8.8,5.9,12.4.4,3.8-.7,6.2-2,9s-3.1,6.5-5.2,10.7c-2.1,4.2-4.5,9-6.9,13.7-.4.7-1.1,1.2-1.9,1.1l-15.7-.9c-.8,0-1.5-.5-1.8-1.3M185.2,132.9l-1.8-1.3,15.7.9-1.9,1.1c2.4-4.8,4.8-9.5,6.9-13.7,2.1-4.2,3.8-7.8,5.1-10.6,1.3-2.8,1.9-4.3,1.7-6.9-.3-2.8-1.7-6.8-4.8-10-3.1-3.3-8-5.7-12.6-6h-.8c-4.3,0-8.4,1.8-11.4,4s-4.7,4.6-5.7,7.3c-1.1,2.7-1.6,5.4-1.2,8,.2,1.6.8,3.2,1.8,5.3.3.6.6,1.3.9,2,.4.8.8,1.7,1.2,2.6,2,4.6,4.5,10.9,7,17.2h0Z"/>
  <path class="st0" d="M192.7,86.5c-4.3,0-8.5,1.8-11.4,4-3.1,2.2-4.7,4.6-5.8,7.3-1.1,2.7-1.6,5.5-1.2,8h0c.2,1.6.8,3.2,1.8,5.3.3.6.6,1.3.9,2h0c.4.8.8,1.7,1.2,2.6,1.9,4.3,4.2,10.1,6.5,16h0l13.1.8h0c2.2-4.4,4.4-8.7,6.3-12.5,2.1-4.2,3.8-7.8,5.1-10.6h0c1.3-2.8,1.9-4.3,1.7-6.9-.3-2.8-1.7-6.8-4.8-10-3.1-3.3-8-5.7-12.6-6h-.8Z"/>
  <path d="M182.6,137.9v.2c.1,1.1.3,1.8.7,2.3.3.4.9.9,2,1.2-.2,2.5,0,4.1.7,4.7.8,1,2.5,1.5,4.9,1.7,2.1.1,3.6-.2,4.3-1,.5-.5.7-1,.8-1.6.2-1,.3-1.9.3-2.9,1.1,0,1.8-.3,2.2-.7.4-.3.7-1.2.9-2.6l-16.8-1.4"/>
  <path d="M187.2,134.6c.3-2.2.6-4.4.6-7.7s-.4-7.9-.9-11.8c-.6-4.3-1.4-6.9-2.4-7.1h-.2c-.7,0-1.4.7-1.4,1.3s.2.8,1.1,1.3c2,1.1,6.6,1.8,10.5,1.8s3.4-.2,4.4-.5c1.3-.5,1.3-1.1,1.2-1.6-.3-.7-1-1.2-1.3-1.2h0c-.8,0-1.6,2-2.5,6.4-.8,3.9-1.6,8.5-2.1,12-.5,3.4-.6,5.6-.8,7.9,0,.4-.4.7-.8.7s-.7-.4-.7-.8c.2-2.2.3-4.5.8-8s1.3-8.2,2.1-12.1c.7-3.4,1.7-7.5,4-7.5h0c1.2,0,2.3,1.1,2.7,2.2.5,1.4,0,2.8-2.1,3.5-1.2.4-3,.6-4.8.6-3.9,0-8.9-.7-11.2-2-1.3-.7-1.9-1.6-1.9-2.6,0-1.6,1.6-2.8,2.9-2.8s.3,0,.5,0c2.3.5,3,4.7,3.6,8.4.6,4,.9,8.6,1,12,0,3.4-.3,5.7-.6,7.9,0,.4-.4.7-.8.6-.4,0-.7-.4-.6-.8h-.3Z"/>
  <path class="st0" d="M114.9,207.8c.9,0,1.6.2,2.2.7s1,1.2,1,2.2-.3,1.6-.8,2.2c-.6.6-1.3.9-2.3.9h-4.7v-5.9h4.6ZM264.7,207.8c1.2,0,2.1.3,2.8.9.7.6,1,1.3,1,2.3s-.3,1.8-1,2.4c-.7.6-1.7.9-3.1.9h-4.8v-6.4h5.1ZM115.3,216.8c1,0,1.8.3,2.5.9.6.6.9,1.3.9,2.2s-.3,1.7-.9,2.2c-.6.6-1.4.8-2.5.8h-5v-6.1h5ZM177.2,207.8c1.7,0,3.1.7,4.2,2.2,1,1.4,1.6,3.2,1.6,5.3s-.6,4.5-1.8,5.8-2.7,1.9-4.4,1.9h-3.2v-15.2h3.7-.1ZM224.1,207.5c1.7,0,2.9.7,3.7,2.1.8,1.4,1.2,3.3,1.2,5.8s-.5,5.1-1.4,6.2c-1,1.1-2.1,1.7-3.5,1.7s-2.8-.7-3.6-2-1.3-3.3-1.3-5.9c0-5.3,1.6-8,4.9-8h0ZM106.6,204.8v21.4h9.3c2.2,0,3.9-.6,5-1.7,1.1-1.1,1.6-2.5,1.6-4.1s-.4-2.5-1.2-3.4c-.8-1-1.9-1.6-3.4-1.8,1.2-.2,2.2-.8,2.8-1.7.7-.9,1-1.9,1-3.1s-.3-2.3-1-3.3c-.7-.9-1.5-1.5-2.4-1.8s-2.1-.4-3.5-.4h-8.3,0ZM145.1,204.8v21.4h3.8v-21.4h-3.8ZM153.7,204.8v21.4h13.1v-3.5h-9.1v-17.9h-4.1.1ZM169.6,204.8v21.4h7c3.4,0,6-1,7.8-3.1,1.8-2,2.7-4.6,2.7-7.6s-.9-5.6-2.6-7.6c-1.8-2.1-4.1-3.1-7-3.1h-7.9ZM195.9,204.8l7.3,12.3v9h4.1v-9l6.9-12.3h-3.7l-4.9,8.8-5.1-8.8h-4.7,0ZM255.8,204.8v21.4h3.8v-8.8h5.4l3.3,8.8h4.1l-3.7-9.4c2.6-1,3.8-2.9,3.8-5.7s-.6-3.4-1.8-4.5c-1.2-1.2-3.1-1.7-5.7-1.7h-9.3.1ZM125.9,204.8v14c0,1.7.2,3.1.7,4.2.5,1.1,1.3,1.9,2.4,2.6,1.1.6,2.5.9,4.3.9s3.2-.4,4.4-1.1c1.2-.7,2-1.6,2.4-2.6s.6-2.4.6-4.3v-13.7h-3.1v13.7c0,1.8-.4,3-1.1,3.6-.7.6-1.7.9-2.9.9s-2-.3-2.8-.9c-.8-.6-1.2-1.8-1.2-3.7v-13.7h-3.9.2ZM224.1,204.4c-2.8,0-5,1-6.7,3.1s-2.5,4.7-2.5,7.8.8,5.8,2.4,7.9c1.6,2.1,3.8,3.2,6.6,3.2s5-1,6.7-3.1c1.7-2,2.5-4.7,2.5-8s-.8-5.8-2.4-7.9c-1.6-2.1-3.8-3.1-6.6-3.1h0ZM236.5,204.8v14c0,1.7.2,3.1.7,4.2.5,1.1,1.3,1.9,2.4,2.6,1.1.6,2.5.9,4.3.9s3.2-.4,4.4-1.1c1.2-.7,2-1.6,2.4-2.6s.6-2.4.6-4.3v-13.7h-3.1v13.7c0,1.8-.4,3-1.1,3.6-.7.6-1.7.9-2.9.9s-2-.3-2.8-.9c-.8-.6-1.2-1.8-1.2-3.7v-13.7h-3.9.2Z"/>
</svg>