<?xml version="1.0" encoding="UTF-8"?>
<svg id="Layer_1" xmlns="http://www.w3.org/2000/svg" version="1.1" viewBox="0 0 376.1 375.6">
  <!-- Generator: Adobe Illustrator 29.0.1, SVG Export Plug-In . SVG Version: 2.1.0 Build 192)  -->
  <defs>
    <style>
      .st0 {
        fill: #ffd03b;
      }
    </style>
  </defs>
  <path class="st0" d="M243.8,103.7l-.5,7c-2.2,14.2-8.8,25.5-19.7,34-11,8.5-23.9,11.9-38.7,10.3-14.2-2.2-25.5-8.8-34-19.7-2.7-3.5-5-7.3-6.7-11.5l-2.2-6.4c-1.2-4.4-1.8-9-1.9-13.8.4-14.7,5.4-26.9,15.2-36.6,9.7-9.7,22-14.8,36.6-15.2,14.7.4,26.9,5.4,36.6,15.2,9.7,9.7,14.8,22,15.2,36.6"/>
</svg>