<?xml version="1.0" encoding="UTF-8"?>
<svg id="Layer_1" xmlns="http://www.w3.org/2000/svg" version="1.1" viewBox="0 0 376.1 375.6">
  <!-- Generator: Adobe Illustrator 29.0.1, SVG Export Plug-In . SVG Version: 2.1.0 Build 192)  -->
  <defs>
    <style>
      .st0 {
        fill: #ff8fbd;
      }

      .st1 {
        fill: #ebebeb;
      }

      .st2 {
        fill: #01020e;
      }

      .st3 {
        fill: #fff;
      }

      .st4 {
        fill: #05cbec;
      }

      .st5 {
        fill: #aeaeae;
      }

      .st6 {
        fill: #ffe286;
      }
    </style>
  </defs>
  <path class="st3" d="M326,195.8h-9.6c-.7,0-1.4-.4-1.7-1-.2-.3-.3-.7-.3-1.1h0c0-.3,0-.6.2-.8.3-.7,1-1.2,1.9-1.2h9.6c.6,0,1.1.2,1.5.6.4.4.6.9.6,1.5h0c0,.3,0,.6-.2.8-.3.7-1,1.3-1.9,1.3Z"/>
  <g>
    <g>
      <rect class="st1" x="138.6" y="167.9" width="50.6" height="68.7"/>
      <path class="st2" d="M189.2,236.7h-50.6c0,0-.2,0-.2-.2v-68.7c0,0,0-.2.2-.2h50.6c0,0,.2,0,.2.2v68.7c0,0,0,.2-.2.2ZM138.7,236.4h50.3v-68.4h-50.3v68.4Z"/>
    </g>
    <g>
      <path class="st5" d="M174.7,167.3c-.3-.3-.6-.5-1.1-.5h-1.3c-.5,0-.9-.3-1.2-.6-.1-.2-.2-.5-.2-.8,0-.4-.2-.8-.5-1.1-.2-.2-.6-.3-.9-.3h-11.4c-.3,0-.7.1-.9.3-.3.3-.5.6-.5,1.1s0,.5-.2.8c-.3.4-.7.6-1.2.6h-1.3c-.4,0-.8.2-1.1.5-.2.2-.3.6-.3.9v2.3h22.5v-2.3c0-.4-.1-.7-.3-.9Z"/>
      <path d="M175.2,170.7h-22.8v-2.4c0-.4.1-.7.4-1,.3-.3.7-.5,1.2-.5h1.3c.4,0,.8-.2,1.1-.6.1-.2.2-.4.2-.7,0-.5.2-.9.6-1.2.3-.2.6-.4,1-.4h11.4c.4,0,.7.1,1,.4.4.3.6.7.6,1.2s0,.5.2.7c.2.4.6.6,1.1.6h1.3c.5,0,.9.2,1.2.5h0c.2.3.4.6.4,1v2.4ZM152.8,170.4h22.2v-2.1c0-.3-.1-.6-.3-.8h0c-.2-.3-.6-.4-1-.4h-1.3c-.5,0-1-.3-1.3-.7-.2-.3-.2-.5-.2-.8s-.2-.7-.5-1c-.2-.2-.5-.3-.8-.3h-11.4c-.3,0-.6.1-.8.3-.3.2-.5.6-.5,1s0,.6-.2.8c-.3.4-.8.7-1.3.7h-1.3c-.4,0-.7.2-1,.4-.2.2-.3.5-.3.8v2.1Z"/>
    </g>
  </g>
  <g>
    <path class="st1" d="M228.1,235.3c-18,0-32.5,14.6-32.5,32.5h65.1c0-18-14.6-32.5-32.5-32.5Z"/>
    <path class="st2" d="M260.6,268h-65.1c0,0-.2,0-.2-.2,0-18,14.7-32.7,32.7-32.7s32.7,14.7,32.7,32.7,0,.2-.2.2ZM195.7,267.7h64.7c0-17.8-14.6-32.2-32.4-32.2s-32.3,14.4-32.4,32.2Z"/>
  </g>
  <path class="st2" d="M285,245.2c-2,0-3.9-1.2-4.8-3.2,0-.1-5.9-13.5-28.5-36.8-2-2-1.9-5.3.1-7.3,2-2,5.3-1.9,7.3.1,24.1,25,30.3,39.4,30.6,40,1.1,2.6-.1,5.6-2.8,6.7-.6.3-1.3.4-2,.4Z"/>
  <g>
    <circle class="st4" cx="245.3" cy="252.1" r="4.8"/>
    <path d="M245.3,257c-2.7,0-5-2.2-5-5s2.2-5,5-5,5,2.2,5,5-2.2,5-5,5ZM245.3,247.4c-2.6,0-4.6,2.1-4.6,4.6s2.1,4.6,4.6,4.6,4.6-2.1,4.6-4.6-2.1-4.6-4.6-4.6Z"/>
  </g>
  <g>
    <circle class="st4" cx="130.3" cy="181.4" r="4.8"/>
    <path d="M130.3,186.4c-2.7,0-5-2.2-5-5s2.2-5,5-5,5,2.2,5,5-2.2,5-5,5ZM130.3,176.8c-2.6,0-4.6,2.1-4.6,4.6s2.1,4.6,4.6,4.6,4.6-2.1,4.6-4.6-2.1-4.6-4.6-4.6Z"/>
  </g>
  <g>
    <circle class="st3" cx="252.4" cy="201.6" r="11.8"/>
    <path class="st2" d="M252.4,213.6c-6.6,0-12-5.4-12-12s5.4-12,12-12,12,5.4,12,12-5.4,12-12,12ZM252.4,189.9c-6.4,0-11.7,5.2-11.7,11.7s5.2,11.7,11.7,11.7,11.7-5.2,11.7-11.7-5.2-11.7-11.7-11.7Z"/>
  </g>
  <path class="st2" d="M153.2,215c.8-1.8,2.6-3.1,4.8-3.1.1,0,14.7,0,45.1-11.5,2.7-1,5.6.3,6.6,3,1,2.7-.3,5.6-3,6.6-32.5,12.2-48.2,12.2-48.9,12.2-2.8,0-5.1-2.4-5.1-5.2,0-.7.2-1.4.4-2Z"/>
  <g>
    <circle class="st3" cx="206.2" cy="202.4" r="11.8"/>
    <path class="st2" d="M206.2,214.4c-1.6,0-3.2-.3-4.7-1-6.1-2.6-8.9-9.7-6.2-15.7,2.6-6.1,9.7-8.9,15.7-6.2,6.1,2.6,8.9,9.7,6.2,15.7-2,4.5-6.4,7.2-11,7.2ZM201.6,213.1c5.9,2.6,12.8-.2,15.3-6.1,2.6-5.9-.2-12.8-6.1-15.3-5.9-2.6-12.8.2-15.3,6.1-2.6,5.9.2,12.8,6.1,15.3h0Z"/>
  </g>
  <rect class="st2" x="216.9" y="218.8" width="19.7" height="28.3"/>
  <g>
    <path class="st3" d="M251.7,214.8h0s-5.1-24.2-5.1-24.2l-14.1-3.4h-12.4l-14.1,3.4-5.1,24.2h0c-.9,1.7-1.4,3.7-1.4,5.7,0,7,5.7,12.7,12.7,12.7s9.3-2.9,11.4-7h5.4c2.1,4.2,6.4,7,11.4,7s12.7-5.7,12.7-12.7-.5-4-1.4-5.7Z"/>
    <path class="st2" d="M240.4,233.3c-4.9,0-9.3-2.7-11.5-7h-5.2c-2.2,4.3-6.6,7-11.5,7-7.1,0-12.9-5.8-12.9-12.9s.5-4,1.4-5.8l5.1-24.2c0,0,0-.1.1-.1l14.1-3.4s0,0,0,0h12.4s0,0,0,0l14.1,3.4c0,0,.1,0,.1.1l5.1,24.2s0,0,0,0c.9,1.8,1.3,3.7,1.3,5.7,0,7.1-5.8,12.9-12.9,12.9ZM223.7,226h5.4c0,0,.1,0,.1,0,2.1,4.3,6.4,7,11.2,7,6.9,0,12.5-5.6,12.5-12.5s-.4-3.9-1.3-5.6c0,0,0-.1,0-.2l-5.1-24-14-3.4h-12.4l-14,3.4-5.1,24s0,0,0,0c-.9,1.8-1.4,3.7-1.4,5.7,0,6.9,5.6,12.5,12.5,12.5s9.1-2.7,11.2-7c0,0,0,0,.1,0Z"/>
  </g>
  <g>
    <path class="st1" d="M203.3,148.1c6.6-8.4,19.1-10.4,26.9-8.1,7.7,2.3,9.2,14.9,5.7,22.5-3.7,7.6-32.5-14.4-32.5-14.4Z"/>
    <path class="st2" d="M232.7,164.3c-8.4,0-28.6-15.3-29.5-16,0,0,0,0,0-.1,0,0,0,0,0-.1,6.4-8.2,18.8-10.6,27-8.1,2.6.8,4.7,2.8,6,5.8,2.2,4.9,2.1,11.9-.3,16.9-.4.8-1.1,1.3-2,1.6-.4,0-.8.1-1.2.1ZM203.5,148.1c1.8,1.4,23.3,17.4,30.4,15.8.9-.2,1.5-.7,1.8-1.4,2.3-5,2.4-11.8.3-16.6-1.3-2.9-3.3-4.8-5.8-5.6-8.1-2.4-20.3-.1-26.6,7.9Z"/>
  </g>
  <path class="st2" d="M224.6,157.7l-7.3-15.7c-13.2-.5-19.1,12.3-19.9,17.3-.8,5-3.5,28.6-3.5,28.6h3.1l.5-5,1.4,5h34.5v-25.6l-8.8-4.6Z"/>
  <path class="st4" d="M222.7,167.2l-13.5,6.1,10.6,20.2c1,2,2.9,3.4,4.9,3.8,1.7.4,3.5.2,5.1-.7,2.2-1.1,3.5-3.2,3.9-5.4.3-1.6,0-3.3-.9-4.9l-10.1-19.1Z"/>
  <path class="st2" d="M222.4,167.3l-13.3,5.9,7.1,13.6c1.1-.6,2-1.3,2.9-2.2,3.2-2.6,5.9-11.5,5.9-11.5,0,0-2.1-2.1-2.6-5.8Z"/>
  <path class="st2" d="M226.4,197.5c-.6,0-1.1,0-1.7-.2-2.2-.5-4-1.9-5.1-3.9l-10.6-20.2c0,0,0-.2,0-.2,0,0,.2,0,.2,0l10.6,20.2c1,1.9,2.8,3.3,4.8,3.7,1.7.4,3.4.2,5-.6,0,0,.2,0,.2,0,0,0,0,.2,0,.2-1.1.6-2.3.9-3.5.9Z"/>
  <path class="st3" d="M220.7,180.9c-2.5,2.6-6.2,4.1-10.1,3.6h0c-4.1-.5-7.4-3.1-9.1-6.5-1-2-1.5-4.4-1.1-6.8l2.5-19.4c2.9-8.2,11.1-10.9,17.6-9.5,6.5,1.4,6.2,8.8,4.6,13.4-3.7,8.6,1.4,13.7,1.4,13.7,0,0-2.7,8.8-5.9,11.5Z"/>
  <path class="st2" d="M216.6,145.6l-13.8,6.6-2.3,17.4c10.3-1.2,21.7.6,25.6,1.3.3-.9.5-1.4.5-1.4,0,0-5.1-5.1-1.5-13.6l-8.5-10.3Z"/>
  <path class="st3" d="M210.9,168.6c-.2,0-.3,0-.5-.1-.4-.2-.6-.5-.8-.9-.2-.6-.2-1.6.6-2.4,0,0,.2,0,.2,0,0,0,0,.2,0,.2-.7.8-.7,1.6-.5,2.1.1.4.3.6.6.7.3.1.6.1.9,0,0,0,.2,0,.2,0s0,.2,0,.2c-.2,0-.4.1-.6.1Z"/>
  <g>
    <path class="st4" d="M216.6,165.2c.2.9.8,1.6,1.3,1.5s.9-.9.8-1.8c-.2-.9-.8-1.6-1.3-1.5s-.9.9-.8,1.8Z"/>
    <path class="st4" d="M217.2,164s0,0,0,0l-1.3-.3c0,0-.1,0-.1-.2,0,0,0-.1.2-.1l1.3.3c0,0,.1,0,.1.2,0,0,0,.1-.1.1Z"/>
  </g>
  <g>
    <path class="st4" d="M206,163.9c.2.9.8,1.6,1.3,1.5.6,0,.9-.9.8-1.8-.2-.9-.8-1.6-1.3-1.5-.6,0-.9.9-.8,1.8Z"/>
    <path class="st4" d="M206.6,162.7s0,0,0,0l-1.3-.3c0,0-.1,0-.1-.2s0-.1.2-.1l1.3.3c0,0,.1,0,.1.2,0,0,0,.1-.1.1Z"/>
  </g>
  <path class="st2" d="M210.1,173.8c-.2,0-.3,0-.5,0-1-.2-1.6-.8-1.8-1.8,0,0,0-.2.1-.2,0,0,.2,0,.2.1.2.9.7,1.4,1.6,1.5,1.6.3,4.2-1,5.7-3.5,0,0,.1,0,.2,0,0,0,0,.1,0,.2-1.3,2.1-3.6,3.7-5.5,3.7Z"/>
  <path class="st3" d="M221.4,160.5s0,0-.1,0c-1.2-1.5-2.7-1.7-2.7-1.7,0,0-.1,0-.1-.2,0,0,0-.1.2-.1,0,0,1.6.2,2.9,1.9,0,0,0,.2,0,.2,0,0,0,0,0,0Z"/>
  <path class="st3" d="M205.9,158.7s0,0,0,0c0,0,0-.1,0-.2,0,0,.6-.9,2.5-1,0,0,.2,0,.2.1,0,0,0,.2-.1.2-1.7.1-2.2.8-2.2.8,0,0,0,0-.1,0Z"/>
  <path class="st2" d="M220.5,142.3c-6.5-1.4-15.2,1.3-18.1,9.5l-.3,3.4c2.7-.8,10.8-3.3,14.8-7.3,0,0,1.3,6.4,7.4,10.2.2-.7.5-1.5.8-2.3,1.5-4.6,1.9-12-4.6-13.4Z"/>
  <path class="st3" d="M224.4,158.1s0,0,0,0c-5.4-3.3-7.1-8.7-7.4-10-3.8,3.7-10.8,6.1-14.7,7.2,0,0-.2,0-.2-.1,0,0,0-.2.1-.2,3.2-.9,10.9-3.4,14.7-7.3,0,0,0,0,.2,0,0,0,0,0,.1.1,0,0,1.3,6.4,7.3,10.1,0,0,0,.1,0,.2,0,0,0,0-.1,0Z"/>
  <g>
    <circle class="st3" cx="229.7" cy="162.7" r="7.4"/>
    <path class="st2" d="M229.7,170.3c-4.2,0-7.6-3.4-7.6-7.6s3.4-7.6,7.6-7.6,7.6,3.4,7.6,7.6-3.4,7.6-7.6,7.6ZM229.7,155.5c-4,0-7.3,3.3-7.3,7.3s3.3,7.3,7.3,7.3,7.3-3.3,7.3-7.3-3.3-7.3-7.3-7.3Z"/>
  </g>
  <g>
    <g>
      <path class="st0" d="M233.3,161.7c.1.4.2.7.2,1.1,0,2.1-1.7,3.7-3.7,3.7s-3.7-1.7-3.7-3.7.7-2.5,1.7-3.2l-.7-1.2c-1.4.9-2.4,2.5-2.4,4.3,0,2.8,2.3,5.1,5.1,5.1s5.1-2.3,5.1-5.1,0-1.1-.2-1.6l-1.3.4Z"/>
      <path d="M229.7,168.1c-2.9,0-5.3-2.4-5.3-5.3s.9-3.5,2.5-4.5c0,0,0,0,.1,0,0,0,0,0,0,0l.7,1.2c0,0,0,.2,0,.2-1,.7-1.7,1.8-1.7,3,0,2,1.6,3.6,3.6,3.6s3.6-1.6,3.6-3.6,0-.7-.2-1.1c0,0,0-.2,0-.2l1.3-.4s0,0,.1,0c0,0,0,0,0,0,.2.5.2,1.1.2,1.6,0,2.9-2.4,5.3-5.3,5.3ZM226.9,158.7c-1.4.9-2.2,2.5-2.2,4.1,0,2.7,2.2,5,5,5s5-2.2,5-5,0-.9-.2-1.4l-1,.3c0,.3.1.7.1,1,0,2.2-1.8,3.9-3.9,3.9s-3.9-1.8-3.9-3.9.6-2.5,1.7-3.2l-.6-.9Z"/>
    </g>
    <g>
      <path class="st4" d="M229.7,157.7c-1,0-1.9.3-2.7.8l.7,1.2c.6-.4,1.3-.6,2-.6,1.7,0,3.1,1.1,3.6,2.6l1.3-.4c-.7-2.1-2.6-3.6-4.9-3.6Z"/>
      <path d="M233.3,161.9s0,0,0,0c0,0,0,0,0,0-.5-1.5-1.9-2.5-3.4-2.5s-1.3.2-1.9.6c0,0,0,0-.1,0,0,0,0,0,0,0l-.7-1.2c0,0,0-.2,0-.2.8-.5,1.8-.8,2.8-.8,2.3,0,4.3,1.5,5,3.7,0,0,0,.2,0,.2l-1.3.4s0,0,0,0ZM229.7,158.9c1.7,0,3.1,1,3.7,2.6l1-.3c-.7-2-2.6-3.3-4.7-3.3s-1.8.2-2.5.7l.6.9c.6-.3,1.3-.5,2-.5Z"/>
    </g>
    <g>
      <path class="st6" d="M233.6,158.2c-.9-.7-2-1.2-3.1-1.3l-.2,1.5c.8.1,1.6.4,2.3,1,1.6,1.3,2.1,3.4,1.4,5.2l1.4.5c.9-2.4.3-5.2-1.8-6.9Z"/>
      <path d="M235.4,165.2s0,0,0,0l-1.4-.5s0,0,0,0c0,0,0,0,0-.1.7-1.8.2-3.8-1.3-5.1-.6-.5-1.4-.9-2.3-1,0,0,0,0-.1,0,0,0,0,0,0-.1l.2-1.5c0,0,0-.1.2-.1,1.2.1,2.2.6,3.2,1.4h0c2.1,1.7,2.8,4.6,1.8,7.1,0,0,0,0-.1,0ZM234.2,164.5l1.1.4c.9-2.4.1-5-1.8-6.6h0c-.8-.7-1.8-1.1-2.8-1.3l-.2,1.2c.8.1,1.6.5,2.3,1,1.6,1.3,2.1,3.4,1.5,5.3Z"/>
    </g>
  </g>
  <path class="st2" d="M229.7,155.5c0,0-.2,0-.2-.2v-23.8c0,0,0-.2.2-.2s.2,0,.2.2v23.8c0,0,0,.2-.2.2Z"/>
  <circle class="st4" cx="229.7" cy="132.3" r="2.5"/>
  <path class="st3" d="M200.5,169.7s0,0,0,0c0,0-.1,0-.1-.2l1.7-14.4c0,0,0-.1.2-.1,0,0,.1,0,.1.2l-1.7,14.4c0,0,0,.1-.2.1Z"/>
  <g>
    <g>
      <path class="st3" d="M242.7,253.2h0c0-2.8-1.2-5.3-3.2-7-1.6-1.4-3.6-2.2-5.8-2.3-4.3-.2-9.4,0-13.2,1.1-6.4,1.8-11.8,9.7-14.1,13.3-.3.5-.4,1.2-.2,1.7.2.5.5.9,1,1.2h0c.5.3,1,.3,1.4.2.5-.1,1-.4,1.4-.9l1.9-2.9c-.8,2.3-1.5,4.4-2,5.9-.2.7,0,1.5.4,2,.3.3.6.5,1,.6h.1c.8.2,1.7,0,2.1-.7h0l.8.2c.4,0,.8,0,1.2,0,.8-.1,1.6-.5,2.1-1.2,1.5-1.9,3.1-3.2,2.9-3.1-.5,1-.9,1.7-1.2,2.3-.2.5-.2,1,0,1.4.2.4.6.8,1.1.9h0c.4,0,.8,0,1.2-.2.2-.1.4-.3.5-.5.8-1.1,2-2.8,2-2.8h9.3c4,0,7.4-2.5,8.8-6.1.4-1,.6-2.1.6-3.3Z"/>
      <path class="st2" d="M211.9,266.5c-.2,0-.4,0-.6,0h-.1c-.4-.1-.8-.4-1.1-.7-.5-.6-.7-1.4-.5-2.2.4-1.2,1-2.9,1.6-4.8l-1.3,1.9c-.3.5-.9.9-1.5,1-.5,0-1.1,0-1.6-.3-.5-.3-.9-.7-1-1.3-.2-.6-.1-1.3.2-1.9,2.1-3.4,7.7-11.6,14.2-13.4,3.3-.9,7.7-1.3,13.3-1.1,2.2,0,4.3.9,5.9,2.3,2.1,1.8,3.3,4.4,3.3,7.2s-.2,2.3-.6,3.3c-1.4,3.7-5,6.2-8.9,6.2h-9.2c-.2.3-1.2,1.7-1.9,2.7-.1.2-.3.4-.6.5-.4.2-.8.3-1.3.2-.5-.1-1-.5-1.2-1-.2-.5-.2-1.1,0-1.6.2-.4.4-.9.7-1.4-.6.5-1.4,1.4-2.1,2.4-.5.7-1.3,1.1-2.2,1.3-.4,0-.8,0-1.2,0l-.7-.2c-.4.5-1,.8-1.7.8ZM211.8,257.6s0,0,0,0c0,0,.1.1,0,.2-.8,2.4-1.5,4.5-2,5.9-.2.7,0,1.4.4,1.9.2.3.6.5.9.6h.1c.7.2,1.5,0,2-.7,0,0,0,0,.2,0l.8.2c.4,0,.7,0,1.1,0,.8-.1,1.5-.5,2-1.2,1-1.3,2-2.2,2.5-2.7.1-.1.2-.2.3-.3,0,0,0,0,0,0,0,0,0,0,0,0,0,0,.2,0,.2,0,0,0,0,.1,0,.3-.4.8-.8,1.6-1.1,2.2-.2.4-.2.9,0,1.3.2.4.6.7,1,.8.4,0,.7,0,1.1-.2.2-.1.3-.2.5-.4.8-1.1,2-2.8,2-2.8,0,0,0,0,.1,0h9.3c3.8,0,7.3-2.4,8.6-6,.4-1,.6-2.1.6-3.2,0-2.7-1.1-5.2-3.2-6.9-1.6-1.4-3.6-2.2-5.8-2.3-5.5-.2-9.9.2-13.2,1.1-6.4,1.8-11.9,9.9-14,13.3-.3.5-.4,1.1-.2,1.6.1.5.5.9.9,1.1.4.2.9.3,1.3.2.5,0,1-.4,1.3-.8l1.9-2.9s0,0,.1,0Z"/>
    </g>
    <path class="st2" d="M211.8,257.9s0,0,0,0c0,0-.1-.1,0-.2,1.5-3.1,3.4-4.6,3.5-4.6,0,0,.2,0,.2,0,0,0,0,.2,0,.2,0,0-1.9,1.5-3.4,4.5,0,0,0,0-.1,0Z"/>
    <path class="st2" d="M213.8,263.3c0,0-.2,0-.2-.2,0-.3,1.2-3.6,3.5-6.3,0,0,.2,0,.2,0,0,0,0,.2,0,.2-2.3,2.6-3.4,5.9-3.5,6.1,0,0,0,.1-.2.1Z"/>
  </g>
  <g>
    <path class="st3" d="M249.8,246.6l2,7.1c.2.7.6,1.3,1.1,1.7.7.5,1.6.8,2.5.6l43.2-7.6c.9-.2,1.6-.7,1.9-1.5.3-.7.3-1.5-.1-2.2l-1.8-3.2c-2.6-4.6-6.6-7.9-11.2-9.7-6-2.4-13-2.1-19.1,1.3l-17,9.6c-.7.4-1.1.9-1.4,1.6-.3.7-.3,1.4-.1,2.1Z"/>
    <path class="st2" d="M255,256.3c-.7,0-1.5-.2-2.1-.7-.6-.4-1-1.1-1.2-1.8l-2-7.1c-.2-.7-.2-1.5.1-2.2.3-.7.8-1.3,1.5-1.7l17-9.6c5.9-3.3,12.9-3.8,19.3-1.3,4.7,1.9,8.7,5.3,11.2,9.8l1.8,3.2c.4.7.5,1.5.1,2.3-.3.8-1.1,1.4-2,1.6l-43.2,7.6c-.2,0-.4,0-.6,0ZM279.3,230.5c-3.8,0-7.5,1-10.9,2.9l-17,9.6c-.6.3-1.1.9-1.3,1.5-.3.6-.3,1.4-.1,2h0l2,7.1c.2.6.6,1.2,1.1,1.6.7.5,1.6.7,2.4.6l43.2-7.6c.8-.1,1.4-.7,1.7-1.4.3-.7.2-1.4-.1-2l-1.8-3.2c-2.5-4.4-6.4-7.8-11.1-9.6-2.6-1-5.4-1.5-8.1-1.5Z"/>
  </g>
  <g>
    <path class="st3" d="M138.3,185.7l-5.8,4.6c-.6.4-.9,1-1.1,1.7-.2.8-.1,1.8.4,2.6l23.4,37.1c.5.8,1.3,1.2,2.1,1.2.7,0,1.5-.3,2-.9l2.3-2.9c3.3-4.2,4.8-9.1,4.7-14,0-6.5-3-12.9-8.5-17.2l-15.4-12.1c-.6-.5-1.3-.7-2-.7-.7,0-1.4.2-2,.7Z"/>
    <path class="st2" d="M157.2,233h0c-.9,0-1.7-.5-2.2-1.2l-23.4-37.1c-.5-.8-.7-1.8-.4-2.7.2-.7.6-1.3,1.2-1.8l5.8-4.6h0c.6-.5,1.3-.7,2.1-.7h0c.8,0,1.5.3,2.1.7l15.4,12.1c5.3,4.2,8.5,10.5,8.5,17.3,0,5.1-1.6,10.1-4.8,14.1l-2.3,2.9c-.5.6-1.3,1-2.1,1ZM138.4,185.8l-5.8,4.6c-.5.4-.9,1-1.1,1.6-.2.8,0,1.7.4,2.5l23.4,37.1c.4.7,1.2,1.1,2,1.1h0c.7,0,1.4-.3,1.8-.9l2.3-2.9c3.1-4,4.8-8.9,4.7-13.9,0-6.7-3.2-12.9-8.4-17.1l-15.4-12.1c-.5-.4-1.2-.7-1.9-.7h0c-.7,0-1.4.2-1.9.7h0Z"/>
  </g>
  <g>
    <g>
      <path class="st3" d="M128.5,179.4c3-.6,5.5-2.3,7-4.7,1.1-1.8,1.8-3.9,1.7-6.1-.4-15.5-3.6-28.6-5.2-32.7-.3-.8-1-1.4-1.8-1.7-.4-.2-.9-.2-1.4-.2h0c-.4,0-.8.2-1.1.4-1,.6-1.6,1.7-1.5,2.9.4,3.4.9,6.7.9,6.7-3.1-.3-4.5,2-4.5,2-4.1-.1-5.2,1.4-5.4,2-5.7.4-9.3,16-2.1,16.3.3,2.4.6,4.6.9,6.5.7,4,3.6,7,7.1,8.3,1.7.6,3.5.7,5.3.4h0Z"/>
      <path class="st2" d="M126.5,179.7c-1.2,0-2.3-.2-3.4-.6-3.8-1.3-6.5-4.5-7.2-8.4-.4-2.1-.7-4.3-.9-6.4-2.5-.2-4-2.2-4-5.5,0-4.7,2.6-10.6,6.2-11,.2-.4,1.1-2.1,5.4-2,.3-.4,1.7-2.2,4.4-2-.1-.8-.5-3.6-.8-6.5-.1-1.2.5-2.4,1.5-3.1.4-.2.7-.3,1.2-.4.5,0,1,0,1.5.2.8.3,1.5,1,1.9,1.8,1.6,3.9,4.9,17,5.3,32.8,0,2.2-.6,4.3-1.7,6.2-1.6,2.5-4.2,4.2-7.1,4.8h0c-.7.1-1.3.2-2,.2ZM122,146.1c-4.2,0-4.7,1.9-4.7,1.9,0,0,0,.1-.1.1-3.3.2-6.1,6.1-6,10.7,0,3.2,1.5,5.2,3.9,5.3,0,0,.1,0,.1.1.2,2.2.6,4.4.9,6.5.7,3.8,3.4,6.9,7,8.1,1.7.6,3.5.7,5.3.4h0c2.8-.5,5.4-2.2,6.9-4.6,1.2-1.8,1.7-3.9,1.7-6-.4-15.7-3.7-28.8-5.2-32.7-.3-.8-.9-1.4-1.7-1.6-.4-.2-.9-.2-1.4-.1-.4,0-.7.2-1.1.4-1,.6-1.5,1.7-1.4,2.8.4,3.4.9,6.7.9,6.7,0,0,0,0,0,.1,0,0,0,0-.1,0-3-.3-4.4,1.9-4.4,1.9,0,0,0,0-.1,0-.2,0-.4,0-.5,0ZM128.5,179.4h0,0Z"/>
    </g>
    <path class="st2" d="M119.9,170.8c0,0-.2,0-.2-.1,0,0,0-4,4.8-7.3h-4.6c-.9,0-1.8-.4-2.4-1.1-.4-.5-.7-1.1-.8-1.7,0-.6,0-1.2.2-1.7.5-1.2,1.5-2,2.7-2.1,3.4-.4,8.2-1,11.9-1.8,0,0,.2,0,.2.1,0,0,0,.2-.1.2-3.6.9-8.5,1.5-11.9,1.8-1.1.1-2.1.8-2.5,1.9-.2.5-.3,1-.2,1.6,0,.6.4,1.1.7,1.5.6.6,1.4,1,2.2,1h5.1c0,0,.1,0,.1.2,0,0,0,.1,0,.2-5.1,3.2-5.1,7.3-5.1,7.3,0,0,0,.2-.2.2h0Z"/>
    <path class="st2" d="M121.5,156.8c0,0-.1,0-.2-.1-.1-1.3-.2-6.9,1.1-10.7,0,0,.1-.1.2,0,0,0,.1.1,0,.2-1.3,3.6-1.2,9.3-1.1,10.5,0,0,0,.2-.1.2,0,0,0,0,0,0Z"/>
    <path class="st2" d="M116.2,157c0,0-.1,0-.2-.1,0,0-.6-4.3,1-9,0,0,.1-.1.2,0,0,0,.1.1,0,.2-1.5,4.6-1,8.8-1,8.8,0,0,0,.2-.1.2,0,0,0,0,0,0Z"/>
    <path class="st2" d="M127.3,156c0,0-.1,0-.2-.1,0,0-.4-2.5.1-6.1,0,0,0-.1.2-.1,0,0,.1,0,.1.2-.5,3.5-.1,5.9-.1,6,0,0,0,.2-.1.2,0,0,0,0,0,0Z"/>
    <path class="st2" d="M115.1,164.4c0,0-.1,0-.2-.1,0,0,0-.2.1-.2.5,0,.9-.4,1.2-.8.3-.4.4-.9.4-1.4v-.7c-.1,0,0-.2,0-.2,0,0,.2,0,.2.1v.7c.2.6,0,1.2-.3,1.6-.3.5-.9.8-1.4.9,0,0,0,0,0,0Z"/>
  </g>
  <circle class="st3" cx="131.1" cy="248.1" r="1.8"/>
</svg>