<?xml version="1.0" encoding="UTF-8"?>
<svg id="Layer_1" xmlns="http://www.w3.org/2000/svg" version="1.1" viewBox="0 0 376.1 375.6">
  <!-- Generator: Adobe Illustrator 29.0.1, SVG Export Plug-In . SVG Version: 2.1.0 Build 192)  -->
  <defs>
    <style>
      .st0 {
        fill: #ff8fbd;
      }

      .st1 {
        fill: #ebebeb;
      }

      .st2 {
        fill: #01020e;
      }

      .st3 {
        fill: #ffebeb;
      }

      .st4 {
        fill: #fff;
      }

      .st5 {
        fill: #05cbec;
      }

      .st6 {
        fill: #aeaeae;
      }

      .st7 {
        fill: #ffe286;
      }
    </style>
  </defs>
  <g>
    <g>
      <polygon class="st1" points="102.9 110.5 76.6 128.7 129.5 128.7 102.9 110.5"/>
      <path class="st2" d="M129.5,128.9h-52.9c0,0-.1,0-.1-.1,0,0,0-.1,0-.2l26.3-18.3c0,0,.1,0,.2,0l26.6,18.3c0,0,0,.1,0,.2,0,0,0,.1-.1.1ZM77.1,128.6h51.9l-26.1-17.9-25.8,17.9Z"/>
    </g>
    <g>
      <rect class="st4" x="76.6" y="128.7" width="52.9" height="33.4"/>
      <path class="st2" d="M129.5,162.3h-52.9c0,0-.2,0-.2-.2v-33.4c0,0,0-.2.2-.2h52.9c0,0,.2,0,.2.2v33.4c0,0,0,.2-.2.2ZM76.7,162h52.6v-33.1h-52.6v33.1Z"/>
    </g>
    <g>
      <polygon class="st5" points="103 145.4 85.7 134.4 85.7 107.7 120.3 107.7 120.3 134.5 103 145.4"/>
      <path d="M103,145.5s0,0,0,0l-17.2-10.9s0,0,0-.1v-26.7c0,0,0-.2.2-.2h34.6c0,0,.2,0,.2.2v26.7c0,0,0,.1,0,.1l-17.4,10.9s0,0,0,0ZM85.9,134.4l17.1,10.8,17.2-10.8v-26.5h-34.3v26.5Z"/>
    </g>
    <g>
      <polygon class="st6" points="129.5 128.7 129.5 162.2 76.6 162.2 129.5 128.7"/>
      <path d="M129.7,162.3h-53.6l53.6-33.9v33.9ZM77.1,162h52.2v-33l-52.2,33Z"/>
    </g>
    <g>
      <polygon class="st1" points="76.6 128.7 76.6 162.2 129.5 162.2 76.6 128.7"/>
      <path class="st2" d="M129.5,162.3h-52.9c0,0-.2,0-.2-.2v-33.4c0,0,0-.1,0-.1,0,0,.1,0,.2,0l52.9,33.4c0,0,0,.1,0,.2,0,0,0,.1-.1.1ZM76.7,162h52.2l-52.2-33v33Z"/>
    </g>
  </g>
  <g>
    <g>
      <path class="st7" d="M110,185.1h-56.7c-.3,0-.6.1-.9.3-.3.2-.5.6-.5,1v69.5c0,.3.1.6.3.9.2.3.6.5,1,.5h69.4c.4,0,.7-.2.9-.4.2-.2.4-.6.4-.9v-56.8l-14-14Z"/>
      <path d="M122.7,257.5H53.2c-.4,0-.8-.2-1.1-.5-.2-.3-.4-.6-.4-1v-69.5c0-.4.2-.9.5-1.1.3-.2.6-.4,1-.4h56.7s0,0,.1,0l14,14s0,0,0,.1v56.8c0,.4-.2.8-.4,1.1s-.7.4-1.1.4ZM53.2,185.3c-.3,0-.6.1-.8.3-.3.2-.4.6-.4.9v69.5c0,.3.1.6.3.8.2.3.6.4.9.4h69.4c.3,0,.6-.1.8-.3s.3-.5.3-.8v-56.7l-14-14h-56.7Z"/>
    </g>
    <path class="st4" d="M110,185.1v12.8c0,.3.1.6.3.9.2.3.6.5,1,.5h12.7c0,0-14-14.1-14-14.1h0Z"/>
    <path class="st2" d="M124,199.4h-12.7c-.4,0-.8-.2-1.1-.5-.2-.3-.4-.6-.4-1s0-.2.2-.2.2,0,.2.2c0,.3.1.6.3.8.2.3.6.4.9.4h12.7c0,0,.2,0,.2.2s0,.2-.2.2Z"/>
    <path class="st2" d="M122.7,257.5h-44.3c0,0-.2,0-.2-.2s0-.2.2-.2h44.3c.3,0,.6-.1.8-.3s.3-.5.3-.8v-56.7l-14-14h-56.7c-.3,0-.6.1-.8.3-.3.2-.4.6-.4.9v41.3c0,0,0,.2-.2.2s-.2,0-.2-.2v-41.3c0-.4.2-.9.5-1.1.3-.2.6-.4,1-.4h56.7s0,0,.1,0l14,14s0,0,0,.1v56.8c0,.4-.2.8-.4,1.1s-.7.4-1.1.4Z"/>
  </g>
  <g>
    <rect class="st1" x="276.6" y="109.7" width="61" height="98.5"/>
    <path class="st2" d="M337.6,208.4h-61c0,0-.2,0-.2-.2v-98.5c0,0,0-.2.2-.2h61c0,0,.2,0,.2.2v98.5c0,0,0,.2-.2.2ZM276.7,208.1h60.7v-98.2h-60.7v98.2Z"/>
  </g>
  <g>
    <rect class="st4" x="282.3" y="172.8" width="27.6" height="27.6"/>
    <path class="st2" d="M309.9,200.5h-27.6c0,0-.2,0-.2-.2v-4.3c0,0,0-.2.2-.2s.2,0,.2.2v4.1h27.3v-27.3h-15.7c0,0-.2,0-.2-.2s0-.2.2-.2h15.9c0,0,.2,0,.2.2v27.6c0,0,0,.2-.2.2Z"/>
    <g>
      <path class="st5" d="M306.9,200.4h-21.6v-9c0-.9.3-1.8.7-2.5.9-1.5,2.5-2.4,4.3-2.4h11.7c1.7,0,3.2.9,4.1,2.2.5.8.8,1.7.8,2.8v9Z"/>
      <path d="M306.9,200.5h-21.6c0,0-.2,0-.2-.2v-9c0-.9.2-1.8.7-2.6.9-1.6,2.6-2.5,4.4-2.5h11.7c1.7,0,3.3.8,4.2,2.3.6.8.9,1.8.9,2.9v9c0,0,0,.2-.2.2ZM285.4,200.2h21.3v-8.8c0-1-.3-1.9-.8-2.7-.9-1.3-2.4-2.1-4-2.1h-11.7c-1.7,0-3.3.9-4.1,2.4-.4.7-.7,1.6-.7,2.4v8.8Z"/>
    </g>
    <g>
      <circle class="st5" cx="295.9" cy="181.3" r="3.4"/>
      <path d="M295.9,184.8c-2,0-3.6-1.6-3.6-3.6s1.6-3.6,3.6-3.6,3.6,1.6,3.6,3.6-1.6,3.6-3.6,3.6ZM295.9,178c-1.8,0-3.3,1.5-3.3,3.3s1.5,3.3,3.3,3.3,3.3-1.5,3.3-3.3-1.5-3.3-3.3-3.3Z"/>
    </g>
  </g>
  <path class="st4" d="M326,178.9h-9.6c-.7,0-1.4-.4-1.7-1-.2-.3-.3-.7-.3-1.1h0c0-.3,0-.6.2-.8.3-.7,1-1.2,1.9-1.2h9.6c.6,0,1.1.2,1.5.6.4.4.6.9.6,1.5h0c0,.3,0,.6-.2.8-.3.7-1,1.3-1.9,1.3Z"/>
  <path class="st4" d="M326,187.2h-9.6c-.7,0-1.4-.4-1.7-1-.2-.3-.3-.7-.3-1.1h0c0-.3,0-.6.2-.8.3-.7,1-1.2,1.9-1.2h9.6c.6,0,1.1.2,1.5.6.4.4.6.9.6,1.5h0c0,.3,0,.6-.2.8-.3.7-1,1.3-1.9,1.3Z"/>
  <path class="st4" d="M326,195.8h-9.6c-.7,0-1.4-.4-1.7-1-.2-.3-.3-.7-.3-1.1h0c0-.3,0-.6.2-.8.3-.7,1-1.2,1.9-1.2h9.6c.6,0,1.1.2,1.5.6.4.4.6.9.6,1.5h0c0,.3,0,.6-.2.8-.3.7-1,1.3-1.9,1.3Z"/>
  <g>
    <path class="st4" d="M289.6,152.4c-.4-.4-1-.6-1.5-.6h-43.4c-.7,0-1.3.3-1.7.7-.4.4-.7,1-.7,1.7v24.9c0,.4.1.8.3,1.2.4.7,1.2,1.2,2.1,1.2h2.1v7.1c3-1.9,4.1-5.4,4.5-7.1h36.8c.7,0,1.3-.3,1.7-.7.4-.4.7-1,.7-1.7v-24.9c0-.7-.3-1.4-.9-1.8Z"/>
    <path class="st2" d="M246.7,188.8s0,0,0,0c0,0,0,0,0-.1v-6.9h-1.9c-.9,0-1.8-.5-2.2-1.3-.2-.4-.3-.8-.3-1.3v-24.9c0-.7.3-1.3.7-1.8s1.1-.7,1.8-.7h43.4c.6,0,1.2.2,1.6.6h0c.6.5.9,1.2.9,2v24.9c0,.7-.3,1.3-.7,1.8-.5.5-1.1.7-1.8.7h-36.7c-.5,1.9-1.6,5.2-4.5,7,0,0,0,0,0,0ZM244.6,152c-.6,0-1.2.2-1.6.7-.4.4-.7,1-.7,1.6v24.9c0,.4.1.8.3,1.1.4.7,1.1,1.1,2,1.1h2.1c0,0,.2,0,.2.2v6.8c2.7-1.9,3.8-5.1,4.2-6.8,0,0,0-.1.1-.1h36.8c.6,0,1.2-.2,1.6-.7.4-.4.7-1,.7-1.6v-24.9c0-.7-.3-1.3-.8-1.7h0c-.4-.3-.9-.5-1.4-.5h-43.4Z"/>
  </g>
  <circle class="st4" cx="131.1" cy="248.1" r="1.8"/>
  <g>
    <rect class="st0" x="262.8" y="161.3" width="8.1" height="16"/>
    <path d="M270.9,177.4h-8.1c0,0-.2,0-.2-.2v-16c0,0,0-.2.2-.2h8.1c0,0,.2,0,.2.2v16c0,0,0,.2-.2.2ZM263,177.1h7.7v-15.6h-7.7v15.6Z"/>
  </g>
  <g>
    <rect class="st0" x="250.5" y="166.1" width="8.1" height="11.2"/>
    <path d="M258.6,177.4h-8.1c0,0-.2,0-.2-.2v-11.2c0,0,0-.2.2-.2h8.1c0,0,.2,0,.2.2v11.2c0,0,0,.2-.2.2ZM250.7,177.1h7.7v-10.8h-7.7v10.8Z"/>
  </g>
  <g>
    <rect class="st0" x="275.1" y="156.5" width="8.1" height="20.8"/>
    <path d="M283.1,177.4h-8.1c0,0-.2,0-.2-.2v-20.8c0,0,0-.2.2-.2h8.1c0,0,.2,0,.2.2v20.8c0,0,0,.2-.2.2ZM275.2,177.1h7.7v-20.5h-7.7v20.5Z"/>
  </g>
  <g>
    <path d="M62.7,193.9c.4-.2.7-.5.9-.9.2-.4.3-.9.3-1.4s-.1-1-.3-1.4c-.2-.4-.5-.7-.9-.9-.4-.2-.9-.3-1.4-.3h-3.6v9.1h1.3v-3.8h1.9l1.9,3.8h1.5l-2.1-4c.2,0,.3-.1.5-.2ZM59,190.2h2.4c.2,0,.5,0,.6.2.2.1.3.3.4.5.1.2.2.5.2.7s0,.5-.2.7c-.1.2-.2.4-.4.5-.2.1-.4.2-.6.2h-2.4v-2.8Z"/>
    <polygon points="66.7 189 66.1 189 66.1 198 66.7 198 67.3 198 71.9 198 71.9 196.8 67.3 196.8 67.3 194.1 71.2 194.1 71.2 192.9 67.3 192.9 67.3 190.2 71.9 190.2 71.9 189 67.3 189 66.7 189"/>
    <path d="M78.4,193.3c-.4-.2-.8-.3-1.4-.4,0,0,0,0,0,0,0,0,0,0,0,0,0,0,0,0,0,0,0,0,0,0,0,0-.5,0-.8-.2-1.1-.3-.3,0-.5-.2-.7-.4-.2-.2-.3-.4-.3-.7h0c0-.5.2-.8.5-1.1.3-.2.8-.4,1.4-.4s.7,0,1,.2c.3.1.7.3,1,.6l.7-1c-.3-.2-.6-.4-.9-.5-.3-.1-.6-.2-.9-.3-.3,0-.6-.1-1-.1-.7,0-1.3.1-1.7.3-.5.2-.8.5-1.1.9-.3.4-.4.9-.4,1.4h0c0,.6.1,1.1.4,1.5.3.3.6.6,1,.7.4.1.9.2,1.5.4h0s0,0,0,0,0,0,0,0c.4,0,.7.2,1,.2.3,0,.5.2.6.4.2.2.2.4.2.7h0c0,.5-.2.8-.5,1-.4.2-.9.4-1.5.4s-.9,0-1.4-.2c-.4-.1-.8-.4-1.1-.7l-.8,1c.3.2.6.5.9.6.3.2.7.3,1.1.4.4,0,.8.1,1.2.1.7,0,1.3-.1,1.8-.3.5-.2.9-.5,1.1-.9.3-.4.4-.9.4-1.4h0c0-.6-.1-1.1-.4-1.4-.2-.3-.6-.6-.9-.7Z"/>
    <path d="M86.2,194.8c0,.7-.2,1.2-.5,1.5-.3.4-.8.5-1.4.5s-1.1-.2-1.4-.5c-.3-.4-.5-.9-.5-1.5v-5.8h-1.3v5.8c0,.7.1,1.3.4,1.8.2.5.6.9,1.1,1.2.5.3,1,.4,1.7.4s1.2-.1,1.7-.4c.5-.3.8-.6,1.1-1.2.2-.5.4-1.1.4-1.8v-5.8h-1.3v5.8Z"/>
    <polygon points="93.3 194.9 90.7 189 89.5 189 89.5 198 90.7 198 90.7 191.9 92.9 196.7 93.8 196.7 95.9 191.8 95.9 198 97.2 198 97.2 189 96 189 93.3 194.9"/>
    <polygon points="105.2 190.2 105.2 189 100.7 189 100 189 99.4 189 99.4 198 100 198 100.7 198 105.2 198 105.2 196.8 100.7 196.8 100.7 194.1 104.6 194.1 104.6 192.9 100.7 192.9 100.7 190.2 105.2 190.2"/>
  </g>
  <g>
    <path class="st3" d="M89.1,114.6h10.5-10.5Z"/>
    <path class="st2" d="M99.6,114.8h-10.5c0,0-.2,0-.2-.2s0-.2.2-.2h10.5c0,0,.2,0,.2.2s0,.2-.2.2Z"/>
  </g>
  <g>
    <path class="st3" d="M89.1,122.9h25.8-25.8Z"/>
    <path class="st2" d="M114.9,123.1h-25.8c0,0-.2,0-.2-.2s0-.2.2-.2h25.8c0,0,.2,0,.2.2s0,.2-.2.2Z"/>
  </g>
  <g>
    <path class="st3" d="M105,131.2h9.9-9.9Z"/>
    <path class="st2" d="M114.9,131.4h-9.9c0,0-.2,0-.2-.2s0-.2.2-.2h9.9c0,0,.2,0,.2.2s0,.2-.2.2Z"/>
  </g>
  <g>
    <g>
      <rect class="st4" x="282.3" y="117" width="27.6" height="27.6"/>
      <path class="st2" d="M309.9,144.7h-27.6c0,0-.2,0-.2-.2v-27.6c0,0,0-.2.2-.2h27.6c0,0,.2,0,.2.2v27.6c0,0,0,.2-.2.2ZM282.4,144.4h27.3v-27.3h-27.3v27.3Z"/>
    </g>
    <g>
      <path class="st5" d="M306.9,144.6h-21.6v-9c0-.9.3-1.8.7-2.5.9-1.5,2.5-2.4,4.3-2.4h11.7c1.7,0,3.2.9,4.1,2.2.5.8.8,1.7.8,2.8v9Z"/>
      <path d="M306.9,144.7h-21.6c0,0-.2,0-.2-.2v-9c0-.9.2-1.8.7-2.6.9-1.6,2.6-2.5,4.4-2.5h11.7c1.7,0,3.3.8,4.2,2.3.6.8.9,1.8.9,2.9v9c0,0,0,.2-.2.2ZM285.4,144.4h21.3v-8.8c0-1-.3-1.9-.8-2.7-.9-1.3-2.4-2.1-4-2.1h-11.7c-1.7,0-3.3.9-4.1,2.4-.4.7-.7,1.6-.7,2.4v8.8Z"/>
    </g>
    <g>
      <circle class="st5" cx="295.9" cy="125.5" r="3.4"/>
      <path d="M295.9,129c-2,0-3.6-1.6-3.6-3.6s1.6-3.6,3.6-3.6,3.6,1.6,3.6,3.6-1.6,3.6-3.6,3.6ZM295.9,122.2c-1.8,0-3.3,1.5-3.3,3.3s1.5,3.3,3.3,3.3,3.3-1.5,3.3-3.3-1.5-3.3-3.3-3.3Z"/>
    </g>
  </g>
  <path class="st4" d="M326,123.1h-9.6c-.7,0-1.4-.4-1.7-1-.2-.3-.3-.7-.3-1.1h0c0-.3,0-.6.2-.8.3-.7,1-1.2,1.9-1.2h9.6c.6,0,1.1.2,1.5.6.4.4.6.9.6,1.5h0c0,.3,0,.6-.2.8-.3.7-1,1.3-1.9,1.3Z"/>
  <path class="st4" d="M326,131.4h-9.6c-.7,0-1.4-.4-1.7-1-.2-.3-.3-.7-.3-1.1h0c0-.3,0-.6.2-.8.3-.7,1-1.2,1.9-1.2h9.6c.6,0,1.1.2,1.5.6.4.4.6.9.6,1.5h0c0,.3,0,.6-.2.8-.3.7-1,1.3-1.9,1.3Z"/>
  <path class="st4" d="M326,140h-9.6c-.7,0-1.4-.4-1.7-1-.2-.3-.3-.7-.3-1.1h0c0-.3,0-.6.2-.8.3-.7,1-1.2,1.9-1.2h9.6c.6,0,1.1.2,1.5.6.4.4.6.9.6,1.5h0c0,.3,0,.6-.2.8-.3.7-1,1.3-1.9,1.3Z"/>
  <g>
    <circle class="st4" cx="308.9" cy="159" r="1.3"/>
    <path class="st2" d="M308.9,160.5c-.8,0-1.5-.7-1.5-1.5s.7-1.5,1.5-1.5,1.5.7,1.5,1.5-.7,1.5-1.5,1.5ZM308.9,157.8c-.7,0-1.2.5-1.2,1.2s.5,1.2,1.2,1.2,1.2-.5,1.2-1.2-.5-1.2-1.2-1.2Z"/>
  </g>
  <g>
    <circle class="st4" cx="300.6" cy="159" r="1.3"/>
    <path class="st2" d="M300.6,160.5c-.8,0-1.5-.7-1.5-1.5s.7-1.5,1.5-1.5,1.5.7,1.5,1.5-.7,1.5-1.5,1.5ZM300.6,157.8c-.7,0-1.2.5-1.2,1.2s.5,1.2,1.2,1.2,1.2-.5,1.2-1.2-.5-1.2-1.2-1.2Z"/>
  </g>
  <g>
    <circle class="st7" cx="316.8" cy="159" r="1.3"/>
    <path d="M316.8,160.5c-.8,0-1.5-.7-1.5-1.5s.7-1.5,1.5-1.5,1.5.7,1.5,1.5-.7,1.5-1.5,1.5ZM316.8,157.8c-.7,0-1.2.5-1.2,1.2s.5,1.2,1.2,1.2,1.2-.5,1.2-1.2-.5-1.2-1.2-1.2Z"/>
  </g>
  <g>
    <path class="st4" d="M99.2,212.9h-8.1c-.6,0-1.2-.3-1.5-.8-.2-.3-.3-.6-.3-.9h0c0-.3,0-.5.2-.7.3-.6.9-1,1.6-1h8.1c.5,0,.9.2,1.2.5.3.3.5.7.5,1.2h0c0,.2,0,.5-.1.7-.3.6-.9,1.1-1.6,1.1Z"/>
    <path class="st4" d="M105.1,223.4h-14c-.6,0-1.2-.3-1.5-.8-.2-.3-.3-.6-.3-.9h0c0-.3,0-.5.2-.7.3-.6.9-1,1.6-1h14c.5,0,.9.2,1.2.5s.5.7.5,1.2h0c0,.2,0,.5-.1.7-.3.6-.9,1.1-1.6,1.1Z"/>
    <circle class="st4" cx="70.4" cy="217.4" r="14.7"/>
    <path class="st2" d="M70.4,232.2c-8.2,0-14.8-6.7-14.8-14.8s6.7-14.8,14.8-14.8,7.7,1.5,10.5,4.3c0,0,0,.2,0,.2,0,0-.2,0-.2,0-2.7-2.7-6.4-4.2-10.3-4.2-8,0-14.5,6.5-14.5,14.5s6.5,14.5,14.5,14.5,14.5-6.5,14.5-14.5,0-.2.2-.2.2,0,.2.2c0,8.2-6.7,14.8-14.8,14.8Z"/>
    <path class="st0" d="M70.4,204.4c-7.2,0-13,5.8-13,13s1.9,7.7,4.8,10.1v-4.1c0-2.7,1.8-5.1,4.4-5.8.5-.1,1.1-.2,1.7-.2h4.3c1.2,0,2.4.4,3.4,1,1.6,1.1,2.7,2.9,2.7,5v4.1c2.9-2.4,4.8-6,4.8-10.1,0-7.2-5.8-13-13-13Z"/>
    <circle class="st4" cx="70.4" cy="213.2" r="2.4" transform="translate(-151.4 248.5) rotate(-80.8)"/>
  </g>
</svg>