<?xml version="1.0" encoding="UTF-8"?>
<svg id="Layer_1" xmlns="http://www.w3.org/2000/svg" version="1.1" viewBox="0 0 376.1 375.6">
  <!-- Generator: Adobe Illustrator 29.0.1, SVG Export Plug-In . SVG Version: 2.1.0 Build 192)  -->
  <defs>
    <style>
      .st0 {
        fill: #ff8fbd;
      }

      .st1 {
        fill: #01020e;
      }

      .st2 {
        fill: #fff;
      }

      .st3 {
        fill: #05cbec;
      }

      .st4 {
        fill: #ffe286;
      }
    </style>
  </defs>
  <path class="st1" d="M207.3,141.3h-70.9c0,0-.2,0-.2-.2s0-.2.2-.2h70.9c0,0,.2,0,.2.2s0,.2-.2.2Z"/>
  <path class="st1" d="M265.9,149.9c0,0-.2,0-.2-.2v-24.2c0-.4.1-.9.4-1.2.4-.5.9-.7,1.5-.7h7.4c0,0,.2,0,.2.2s0,.2-.2.2h-7.4c-.5,0-.9.2-1.3.6-.2.3-.4.6-.4,1v24.2c0,0,0,.2-.2.2Z"/>
  <g>
    <circle class="st3" cx="152.2" cy="141.2" r="2.5"/>
    <path d="M152.2,143.8c-1.5,0-2.6-1.2-2.6-2.6s1.2-2.6,2.6-2.6,2.6,1.2,2.6,2.6-1.2,2.6-2.6,2.6ZM152.2,138.8c-1.3,0-2.3,1-2.3,2.3s1,2.3,2.3,2.3,2.3-1,2.3-2.3-1-2.3-2.3-2.3Z"/>
  </g>
  <circle class="st2" cx="131.1" cy="248.1" r="1.8"/>
  <g>
    <path class="st4" d="M265.9,137.6c-.4-2.4-2-4.4-4.1-5.3,2.1-.9,3.7-2.9,4.1-5.3.4,2.4,2,4.4,4.1,5.3-2.1.9-3.7,2.9-4.1,5.3Z"/>
    <path d="M265.9,137.8c0,0-.1,0-.2-.1-.4-2.3-1.9-4.3-4-5.2,0,0,0,0,0-.1s0-.1,0-.1c2.1-.9,3.6-2.9,4-5.2,0,0,0-.1.2-.1s.1,0,.2.1c.4,2.3,1.9,4.3,4,5.2,0,0,0,0,0,.1s0,.1,0,.1c-2.1.9-3.6,2.9-4,5.2,0,0,0,.1-.2.1ZM262.1,132.3c1.9.9,3.2,2.6,3.7,4.6.5-2,1.9-3.7,3.7-4.6-1.9-.9-3.2-2.6-3.7-4.6-.5,2-1.9,3.7-3.7,4.6Z"/>
  </g>
  <g>
    <g>
      <path class="st2" d="M56.6,156.8v12.5-12.5Z"/>
      <path class="st1" d="M56.6,169.4c0,0-.2,0-.2-.2v-12.5c0,0,0-.2.2-.2s.2,0,.2.2v12.5c0,0,0,.2-.2.2Z"/>
    </g>
    <g>
      <path class="st2" d="M58.5,154.8h10.9-10.9Z"/>
      <path class="st1" d="M69.5,154.9h-10.9c0,0-.2,0-.2-.2s0-.2.2-.2h10.9c0,0,.2,0,.2.2s0,.2-.2.2Z"/>
    </g>
    <g>
      <path class="st4" d="M56.6,160.1c-.4-2.4-2-4.4-4.1-5.3,2.1-.9,3.7-2.9,4.1-5.3.4,2.4,2,4.4,4.1,5.3-2.1.9-3.7,2.9-4.1,5.3Z"/>
      <path d="M56.6,160.2c0,0-.1,0-.2-.1-.4-2.3-1.9-4.3-4-5.2,0,0,0,0,0-.1s0-.1,0-.1c2.1-.9,3.6-2.9,4-5.2,0,0,0-.1.2-.1s.1,0,.2.1c.4,2.3,1.9,4.3,4,5.2,0,0,0,0,0,.1s0,.1,0,.1c-2.1.9-3.6,2.9-4,5.2,0,0,0,.1-.2.1ZM52.9,154.8c1.9.9,3.2,2.6,3.7,4.6.5-2,1.9-3.7,3.7-4.6-1.9-.9-3.2-2.6-3.7-4.6-.5,2-1.9,3.7-3.7,4.6Z"/>
    </g>
    <g>
      <circle class="st2" cx="56.6" cy="171.1" r="2.5"/>
      <path class="st1" d="M56.6,173.7c-1.5,0-2.6-1.2-2.6-2.6s1.2-2.6,2.6-2.6,2.6,1.2,2.6,2.6-1.2,2.6-2.6,2.6ZM56.6,168.7c-1.3,0-2.3,1-2.3,2.3s1,2.3,2.3,2.3,2.3-1,2.3-2.3-1-2.3-2.3-2.3Z"/>
    </g>
    <g>
      <circle class="st2" cx="70.1" cy="154.8" r="2.5"/>
      <path class="st1" d="M70.1,157.4c-1.5,0-2.6-1.2-2.6-2.6s1.2-2.6,2.6-2.6,2.6,1.2,2.6,2.6-1.2,2.6-2.6,2.6ZM70.1,152.4c-1.3,0-2.3,1-2.3,2.3s1,2.3,2.3,2.3,2.3-1,2.3-2.3-1-2.3-2.3-2.3Z"/>
    </g>
  </g>
  <path class="st1" d="M152.2,138.8c0,0-.2,0-.2-.2v-8.4c0,0,0-.2.2-.2s.2,0,.2.2v8.4c0,0,0,.2-.2.2Z"/>
  <path class="st1" d="M170.1,160.2c0,0-.2,0-.2-.2v-10.7h-33c0,0-.2,0-.2-.2s0-.2.2-.2h33.1c0,0,.2,0,.2.2v10.8c0,0,0,.2-.2.2Z"/>
  <g>
    <g>
      <path class="st2" d="M162.6,108.9c-.3-.3-.6-.4-1-.4h-18.8c-.5,0-.9.2-1.1.6-.2.2-.3.5-.3.9v18.8c0,.5.2.9.6,1.2.2.2.5.2.8.2h18.8c.5,0,1-.3,1.2-.7.1-.2.2-.5.2-.7v-18.8c0-.4-.2-.8-.4-1Z"/>
      <path class="st1" d="M161.6,130.3h-18.8c-.3,0-.6,0-.9-.3-.4-.3-.7-.8-.7-1.3v-18.8c0-.3.1-.7.3-.9.3-.4.8-.6,1.3-.6h18.8c.4,0,.8.2,1.1.5h0c.3.3.5.7.5,1.1v18.8c0,.3,0,.6-.2.8-.3.5-.8.8-1.3.8ZM142.8,108.7c-.4,0-.8.2-1,.5-.2.2-.3.5-.3.8v18.8c0,.4.2.8.6,1.1.2.1.5.2.7.2h18.8c.4,0,.9-.2,1.1-.6.1-.2.2-.4.2-.7v-18.8c0-.3-.1-.7-.4-.9h0c-.2-.2-.6-.4-.9-.4h-18.8Z"/>
    </g>
    <g>
      <polygon class="st0" points="156.1 114.5 150.8 121.7 148.3 116.6 145.3 116.6 149.1 124.2 152 124.2 159 114.5 156.1 114.5"/>
      <path d="M152,124.3h-2.9c0,0-.1,0-.1,0l-3.7-7.5s0-.1,0-.1c0,0,0,0,.1,0h2.9c0,0,.1,0,.1,0l2.4,4.9,5.1-7.1s0,0,.1,0h2.9c0,0,.1,0,.1,0,0,0,0,.1,0,.2l-7,9.7s0,0-.1,0ZM149.2,124h2.8l6.8-9.4h-2.6l-5.3,7.2s0,0-.1,0c0,0-.1,0-.1,0l-2.5-5.1h-2.6l3.6,7.2Z"/>
    </g>
  </g>
  <path class="st1" d="M297.8,268H38.5c0,0-.2,0-.2-.2v-34.1c0,0,0-.2.2-.2h5.5c0,0,.2,0,.2.2s0,.2-.2.2h-5.3v33.8h259.2c0,0,.2,0,.2.2s0,.2-.2.2Z"/>
  <g>
    <path class="st4" d="M45.6,239.1c-.4-2.4-2-4.4-4.1-5.3,2.1-.9,3.7-2.9,4.1-5.3.4,2.4,2,4.4,4.1,5.3-2.1.9-3.7,2.9-4.1,5.3Z"/>
    <path d="M45.6,239.3h0c0,0-.1,0-.2-.1-.4-2.3-1.9-4.3-4-5.2,0,0,0,0,0-.1s0-.1,0-.1c2.1-.9,3.6-2.9,4-5.2,0,0,0-.1.2-.1s.1,0,.2.1c.4,2.3,1.9,4.3,4,5.2,0,0,0,0,0,.1s0,.1,0,.1c-2.1.9-3.6,2.9-4,5.2,0,0,0,.1-.2.1ZM41.9,233.8c1.9.9,3.2,2.6,3.7,4.6.5-2,1.9-3.7,3.7-4.6-1.9-.9-3.2-2.6-3.7-4.6-.5,2-1.9,3.7-3.7,4.6Z"/>
  </g>
</svg>