<?xml version="1.0" encoding="UTF-8"?>
<svg id="Layer_1" xmlns="http://www.w3.org/2000/svg" version="1.1" viewBox="0 0 376.1 375.6">
  <!-- Generator: Adobe Illustrator 29.0.1, SVG Export Plug-In . SVG Version: 2.1.0 Build 192)  -->
  <defs>
    <style>
      .st0 {
        fill: #ff8fbd;
      }

      .st1 {
        fill: #ebebeb;
      }

      .st2 {
        fill: #01020e;
      }

      .st3 {
        fill: #ffebeb;
      }

      .st4 {
        fill: #fff;
      }

      .st5 {
        fill: #05cbec;
      }

      .st6 {
        stroke: #000;
        stroke-miterlimit: 10;
      }

      .st7 {
        fill: #aeaeae;
      }

      .st8 {
        fill: #ffe286;
      }
    </style>
  </defs>
  <g>
    <g>
      <path class="st8" d="M86.7,216.6H-22.2c-.6,0-1.2.2-1.7.6-.6.5-.9,1.2-.9,2v133.3c0,.6.2,1.2.6,1.7.5.5,1.2.9,1.9.9H111c.7,0,1.4-.3,1.8-.8.5-.5.8-1.1.8-1.8v-109l-26.9-26.9Z"/>
      <path d="M111,355.4H-22.2c-.8,0-1.6-.4-2.2-1-.5-.5-.7-1.2-.7-1.9v-133.3c0-.8.4-1.6,1-2.2.5-.4,1.2-.7,1.9-.7h108.8c0,0,.2,0,.2,0l26.9,26.9c0,0,0,.1,0,.2v109c0,.8-.3,1.5-.8,2s-1.3.8-2,.8ZM-22.2,216.9c-.5,0-1.1.2-1.5.5-.5.4-.8,1.1-.8,1.7v133.3c0,.5.2,1.1.6,1.5.4.5,1.1.8,1.7.8H111c.6,0,1.2-.2,1.6-.7s.7-1,.7-1.6v-108.8l-26.8-26.8H-22.2Z"/>
    </g>
    <path class="st4" d="M86.6,216.6v24.5c0,.6.2,1.2.6,1.7.5.5,1.2.9,1.9.9h24.4c0-.1-26.9-27.1-26.9-27.1h0Z"/>
    <path class="st2" d="M113.6,244h-24.4c-.8,0-1.6-.4-2.2-1-.5-.5-.7-1.2-.7-1.9s.1-.3.3-.3.3.1.3.3c0,.5.2,1.1.6,1.5.4.5,1.1.8,1.7.8h24.4c.2,0,.3.1.3.3s-.1.3-.3.3Z"/>
    <path class="st2" d="M111,355.4H26.1c-.2,0-.3-.1-.3-.3s.1-.3.3-.3h84.9c.6,0,1.2-.2,1.6-.7s.7-1,.7-1.6v-108.8l-26.8-26.8H-22.2c-.5,0-1.1.2-1.5.5-.5.4-.8,1.1-.8,1.7v79.2c0,.2-.1.3-.3.3s-.3-.1-.3-.3v-79.2c0-.8.4-1.6,1-2.2.5-.4,1.2-.7,1.9-.7h108.8c0,0,.2,0,.2,0l26.9,26.9c0,0,0,.1,0,.2v109c0,.8-.3,1.5-.8,2s-1.3.8-2,.8Z"/>
  </g>
  <g>
    <path class="st4" d="M431.2,153.8c-.8-.7-1.8-1.1-3-1.1h-83.3c-1.3,0-2.4.5-3.3,1.3-.8.8-1.3,2-1.3,3.3v47.8c0,.8.2,1.6.6,2.3.8,1.4,2.3,2.3,4,2.3h4v13.6c5.7-3.7,7.9-10.3,8.7-13.6h70.7c1.3,0,2.4-.5,3.3-1.3.8-.8,1.3-2,1.3-3.3v-47.8c0-1.4-.6-2.7-1.6-3.5Z"/>
    <path class="st2" d="M348.9,223.6s0,0-.1,0c0,0-.2-.2-.2-.3v-13.3h-3.7c-1.8,0-3.4-1-4.3-2.5-.4-.7-.6-1.6-.6-2.4v-47.8c0-1.3.5-2.5,1.4-3.5s2.2-1.4,3.5-1.4h83.3c1.2,0,2.3.4,3.2,1.1h0c1.1.9,1.7,2.3,1.7,3.8v47.8c0,1.3-.5,2.5-1.4,3.5-.9.9-2.2,1.4-3.5,1.4h-70.4c-.9,3.6-3.2,9.9-8.7,13.5,0,0-.1,0-.2,0ZM344.9,153c-1.2,0-2.2.4-3,1.3-.8.8-1.3,1.9-1.3,3v47.8c0,.7.2,1.5.6,2.1.8,1.4,2.2,2.2,3.8,2.2h4c.2,0,.3.1.3.3v13c5.2-3.6,7.3-9.7,8.1-13.1,0-.1.1-.2.3-.2h70.7c1.2,0,2.2-.4,3-1.3.8-.8,1.3-1.9,1.3-3v-47.8c0-1.3-.6-2.5-1.5-3.3h0c-.8-.7-1.8-1-2.8-1h-83.3Z"/>
  </g>
  <g>
    <path class="st1" d="M250.8,375.3"/>
    <path class="st2" d="M250.8,375.6c-.2,0-.3-.1-.3-.3M251.1,375"/>
  </g>
  <g>
    <g>
      <path class="st4" d="M359.9,225.5"/>
      <path class="st4" d="M359.9,270.9"/>
    </g>
    <path class="st2" d="M359.9,225.2,359.9,271.2,359.9,270.6,359.9,225.8"/>
  </g>
  <path class="st5" d="M309.9,276"/>
  <g>
    <path class="st4" d="M309.9,271.3"/>
    <path class="st2" d="M309.9,271.6,309.9,271"/>
  </g>
  <circle class="st4" cx="127.2" cy="337.4" r="3.4"/>
  <path class="st5" d="M309.9,266.3"/>
  <g>
    <rect class="st0" x="379.9" y="170.8" width="15.5" height="30.6"/>
    <path d="M395.3,201.7h-15.5c-.2,0-.3-.1-.3-.3v-30.6c0-.2.1-.3.3-.3h15.5c.2,0,.3.1.3.3v30.6c0,.2-.1.3-.3.3ZM380.2,201.1h14.9v-30h-14.9v30Z"/>
  </g>
  <g>
    <rect class="st0" x="356.3" y="180" width="15.5" height="21.4"/>
    <path d="M371.8,201.7h-15.5c-.2,0-.3-.1-.3-.3v-21.4c0-.2.1-.3.3-.3h15.5c.2,0,.3.1.3.3v21.4c0,.2-.1.3-.3.3ZM356.6,201.1h14.9v-20.8h-14.9v20.8Z"/>
  </g>
  <g>
    <rect class="st0" x="403.4" y="161.6" width="15.5" height="39.8"/>
    <path d="M418.9,201.7h-15.5c-.2,0-.3-.1-.3-.3v-39.8c0-.2.1-.3.3-.3h15.5c.2,0,.3.1.3.3v39.8c0,.2-.1.3-.3.3ZM403.7,201.1h14.9v-39.2h-14.9v39.2Z"/>
  </g>
  <g>
    <path d="M-4,233.3c.8-.4,1.4-1,1.8-1.8.4-.8.6-1.6.6-2.6s-.2-1.9-.6-2.6c-.4-.8-1-1.3-1.8-1.8-.8-.4-1.6-.6-2.6-.6h-6.9v17.4h2.4v-7.3h3.6l3.7,7.3H-.9l-4-7.6c.3,0,.6-.2.9-.4ZM-11.1,226.2h4.5c.5,0,.9.1,1.2.3.4.2.6.5.8.9.2.4.3.9.3,1.4s0,1-.3,1.4c-.2.4-.5.7-.8.9-.4.2-.8.3-1.2.3h-4.5v-5.4Z"/>
    <polygon points="3.6 223.9 2.4 223.9 2.4 241.3 3.6 241.3 4.8 241.3 13.6 241.3 13.6 238.9 4.8 238.9 4.8 233.8 12.2 233.8 12.2 231.5 4.8 231.5 4.8 226.2 13.6 226.2 13.6 223.9 4.8 223.9 3.6 223.9"/>
    <path d="M26.1,232.3c-.7-.3-1.6-.5-2.6-.8,0,0,0,0-.1,0,0,0,0,0-.1,0,0,0,0,0,0,0,0,0,0,0,0,0-.9-.2-1.6-.3-2.1-.5-.5-.2-.9-.4-1.3-.8-.3-.3-.5-.8-.5-1.4h0c0-.9.3-1.5,1-2,.7-.5,1.6-.7,2.8-.7s1.3.1,2,.4c.7.2,1.3.6,2,1.1l1.4-1.9c-.6-.4-1.1-.7-1.7-1-.6-.3-1.2-.5-1.8-.6-.6-.1-1.2-.2-1.8-.2-1.3,0-2.4.2-3.3.6-.9.4-1.6,1-2.1,1.7-.5.8-.7,1.7-.7,2.8h0c0,1.2.3,2.2.8,2.8.5.7,1.1,1.1,1.9,1.4.7.3,1.7.5,2.8.7h.2s0,0,0,0,0,0,0,0c.8.1,1.4.3,1.9.5.5.2.9.4,1.2.8.3.4.5.8.5,1.4h0c0,.9-.3,1.5-1,2-.7.5-1.7.7-2.9.7s-1.8-.1-2.6-.4c-.8-.3-1.5-.7-2.2-1.3l-1.5,1.9c.6.5,1.2.9,1.8,1.2.6.3,1.3.6,2.1.7.7.2,1.5.2,2.4.2,1.3,0,2.5-.2,3.4-.6,1-.4,1.7-1,2.2-1.7.5-.8.8-1.7.8-2.7h0c0-1.2-.2-2.1-.7-2.7-.5-.7-1.1-1.1-1.8-1.4Z"/>
    <path d="M41.1,235.1c0,1.3-.3,2.2-1,2.9-.6.7-1.5,1-2.7,1s-2.1-.3-2.7-1c-.6-.7-1-1.7-1-2.9v-11.2h-2.4v11.1c0,1.4.2,2.5.7,3.5.5,1,1.2,1.7,2.1,2.2.9.5,2,.8,3.3.8s2.4-.3,3.3-.8c.9-.5,1.6-1.2,2.1-2.2.5-1,.7-2.1.7-3.5v-11.1h-2.4v11.2Z"/>
    <polygon points="54.8 235.4 49.7 223.9 47.4 223.9 47.4 241.3 49.8 241.3 49.8 229.5 53.9 238.8 55.6 238.8 59.8 229.3 59.8 241.3 62.1 241.3 62.1 223.9 59.9 223.9 54.8 235.4"/>
    <polygon points="77.6 226.2 77.6 223.9 68.9 223.9 67.6 223.9 66.4 223.9 66.4 241.3 67.6 241.3 68.9 241.3 77.6 241.3 77.6 238.9 68.9 238.9 68.9 233.8 76.3 233.8 76.3 231.5 68.9 231.5 68.9 226.2 77.6 226.2"/>
  </g>
  <g>
    <g>
      <g>
        <polygon class="st1" points="35.6 51.6 -14.9 86.7 86.6 86.7 35.6 51.6"/>
        <path class="st2" d="M86.6,87H-14.9c-.1,0-.2,0-.3-.2,0-.1,0-.3.1-.3l50.5-35c.1,0,.2,0,.3,0l51,35c.1,0,.2.2.1.3,0,.1-.2.2-.3.2ZM-13.9,86.4h99.6l-50.1-34.4L-13.9,86.4Z"/>
      </g>
      <g>
        <rect class="st4" x="-14.9" y="86.7" width="101.5" height="64.1"/>
        <path class="st2" d="M86.6,151.1H-14.9c-.2,0-.3-.1-.3-.3v-64.1c0-.2.1-.3.3-.3h101.5c.2,0,.3.1.3.3v64.1c0,.2-.1.3-.3.3ZM-14.6,150.5h100.9v-63.6H-14.6v63.6Z"/>
      </g>
      <g>
        <polygon class="st5" points="35.7 118.6 2.7 97.6 2.7 46.4 69.1 46.4 69.1 97.7 35.7 118.6"/>
        <path d="M35.7,118.9c0,0-.1,0-.2,0L2.5,97.9c0,0-.1-.1-.1-.2v-51.2c0-.2.1-.3.3-.3h66.4c.2,0,.3.1.3.3v51.3c0,.1,0,.2-.1.2l-33.3,20.9s-.1,0-.2,0ZM3,97.5l32.8,20.8,33-20.7v-50.9H3v50.8Z"/>
      </g>
      <g>
        <polygon class="st7" points="86.6 86.7 86.6 150.8 -14.9 150.8 86.6 86.7"/>
        <path d="M86.9,151.1H-15.9l102.8-65v65ZM-13.9,150.5h100.2v-63.3L-13.9,150.5Z"/>
      </g>
      <g>
        <polygon class="st1" points="-14.9 86.7 -14.9 150.8 86.6 150.8 -14.9 86.7"/>
        <path class="st2" d="M86.6,151.1H-14.9c-.2,0-.3-.1-.3-.3v-64.1c0-.1,0-.2.2-.3,0,0,.2,0,.3,0l101.5,64.1c.1,0,.2.2.1.3,0,.1-.2.2-.3.2ZM-14.6,150.5h100.2L-14.6,87.2v63.3Z"/>
      </g>
    </g>
    <g>
      <path class="st3" d="M9.1,59.6h20.2H9.1Z"/>
      <path class="st2" d="M29.3,59.9H9.1c-.2,0-.3-.1-.3-.3s.1-.3.3-.3h20.2c.2,0,.3.1.3.3s-.1.3-.3.3Z"/>
    </g>
    <g>
      <path class="st3" d="M9.1,75.6h49.5H9.1Z"/>
      <path class="st2" d="M58.6,75.9H9.1c-.2,0-.3-.1-.3-.3s.1-.3.3-.3h49.5c.2,0,.3.1.3.3s-.1.3-.3.3Z"/>
    </g>
    <g>
      <path class="st3" d="M39.6,91.5h19-19Z"/>
      <path class="st2" d="M58.6,91.8h-19c-.2,0-.3-.1-.3-.3s.1-.3.3-.3h19c.2,0,.3.1.3.3s-.1.3-.3.3Z"/>
    </g>
  </g>
  <g>
    <g>
      <rect class="st1" x="250.9" y="-85.7" width="117.1" height="189"/>
      <path class="st2" d="M368,103.6h-117.1c-.2,0-.3-.1-.3-.3V-85.7c0-.2.1-.3.3-.3h117.1c.2,0,.3.1.3.3V103.3c0,.2-.1.3-.3.3ZM251.2,103h116.5V-85.4h-116.5V103Z"/>
    </g>
    <g>
      <rect class="st4" x="261.9" y="35.4" width="52.9" height="52.9"/>
      <path class="st2" d="M314.8,88.6h-52.9c-.2,0-.3-.1-.3-.3v-8.2c0-.2.1-.3.3-.3s.3.1.3.3v8h52.3v-52.3h-30.2c-.2,0-.3-.1-.3-.3s.1-.3.3-.3h30.5c.2,0,.3.1.3.3v52.9c0,.2-.1.3-.3.3Z"/>
      <g>
        <path class="st5" d="M309.1,88.3h-41.4v-17.2c0-1.8.5-3.4,1.3-4.8,1.7-2.8,4.7-4.7,8.2-4.7h22.4c3.3,0,6.2,1.7,7.9,4.2,1,1.5,1.6,3.3,1.6,5.3v17.2Z"/>
        <path d="M309.1,88.6h-41.4c-.2,0-.3-.1-.3-.3v-17.2c0-1.8.5-3.5,1.4-5,1.8-3,5-4.8,8.4-4.8h22.4c3.3,0,6.3,1.6,8.1,4.3,1.1,1.6,1.7,3.5,1.7,5.5v17.2c0,.2-.1.3-.3.3ZM268,88h40.8v-16.9c0-1.8-.5-3.6-1.6-5.2-1.7-2.5-4.6-4.1-7.6-4.1h-22.4c-3.2,0-6.3,1.7-7.9,4.5-.8,1.4-1.3,3-1.3,4.7v16.9Z"/>
      </g>
      <g>
        <circle class="st5" cx="288.1" cy="51.6" r="6.5"/>
        <path d="M288.1,58.5c-3.8,0-6.8-3.1-6.8-6.8s3.1-6.8,6.8-6.8,6.8,3.1,6.8,6.8-3.1,6.8-6.8,6.8ZM288.1,45.4c-3.4,0-6.2,2.8-6.2,6.2s2.8,6.2,6.2,6.2,6.2-2.8,6.2-6.2-2.8-6.2-6.2-6.2Z"/>
      </g>
    </g>
    <path class="st4" d="M345.9,47.1h-18.3c-1.4,0-2.6-.7-3.3-1.8-.4-.6-.6-1.3-.6-2.1h0c0-.6.1-1.1.4-1.6.6-1.4,2-2.3,3.6-2.3h18.3c1.1,0,2.1.4,2.8,1.2.7.7,1.2,1.7,1.2,2.8h0c0,.5-.1,1.1-.3,1.5-.6,1.4-2,2.4-3.6,2.4Z"/>
    <path class="st4" d="M345.9,63.1h-18.3c-1.4,0-2.6-.7-3.3-1.8-.4-.6-.6-1.3-.6-2.1h0c0-.6.1-1.1.4-1.6.6-1.4,2-2.3,3.6-2.3h18.3c1.1,0,2.1.4,2.8,1.2.7.7,1.2,1.7,1.2,2.8h0c0,.5-.1,1.1-.3,1.5-.6,1.4-2,2.4-3.6,2.4Z"/>
    <path class="st4" d="M345.9,79.5h-18.3c-1.4,0-2.6-.7-3.3-1.8-.4-.6-.6-1.3-.6-2.1h0c0-.6.1-1.1.4-1.6.6-1.4,2-2.3,3.6-2.3h18.3c1.1,0,2.1.4,2.8,1.2.7.7,1.2,1.7,1.2,2.8h0c0,.5-.1,1.1-.3,1.5-.6,1.4-2,2.4-3.6,2.4Z"/>
    <g>
      <g>
        <rect class="st4" x="261.9" y="-71.7" width="52.9" height="52.9"/>
        <path class="st2" d="M314.8-18.5h-52.9c-.2,0-.3-.1-.3-.3v-52.9c0-.2.1-.3.3-.3h52.9c.2,0,.3.1.3.3V-18.8c0,.2-.1.3-.3.3ZM262.2-19.1h52.3v-52.3h-52.3V-19.1Z"/>
      </g>
      <g>
        <path class="st5" d="M309.1-18.8h-41.4v-17.2c0-1.8.5-3.4,1.3-4.8,1.7-2.8,4.7-4.7,8.2-4.7h22.4c3.3,0,6.2,1.7,7.9,4.2,1,1.5,1.6,3.3,1.6,5.3v17.2Z"/>
        <path d="M309.1-18.5h-41.4c-.2,0-.3-.1-.3-.3v-17.2c0-1.8.5-3.5,1.4-5,1.8-3,5-4.8,8.4-4.8h22.4c3.3,0,6.3,1.6,8.1,4.3,1.1,1.6,1.7,3.5,1.7,5.5v17.2c0,.2-.1.3-.3.3ZM268-19.1h40.8v-16.9c0-1.8-.5-3.6-1.6-5.2-1.7-2.5-4.6-4.1-7.6-4.1h-22.4c-3.2,0-6.3,1.7-7.9,4.5-.8,1.4-1.3,3-1.3,4.7v16.9Z"/>
      </g>
      <g>
        <circle class="st5" cx="288.1" cy="-55.5" r="6.5"/>
        <path d="M288.1-48.6c-3.8,0-6.8-3.1-6.8-6.8s3.1-6.8,6.8-6.8,6.8,3.1,6.8,6.8-3.1,6.8-6.8,6.8ZM288.1-61.7c-3.4,0-6.2,2.8-6.2,6.2s2.8,6.2,6.2,6.2,6.2-2.8,6.2-6.2-2.8-6.2-6.2-6.2Z"/>
      </g>
    </g>
    <path class="st4" d="M345.9-60h-18.3c-1.4,0-2.6-.7-3.3-1.8-.4-.6-.6-1.3-.6-2.1h0c0-.6.1-1.1.4-1.6.6-1.4,2-2.3,3.6-2.3h18.3c1.1,0,2.1.4,2.8,1.2.7.7,1.2,1.7,1.2,2.8h0c0,.5-.1,1.1-.3,1.5-.6,1.4-2,2.4-3.6,2.4Z"/>
    <path class="st4" d="M345.9-44h-18.3c-1.4,0-2.6-.7-3.3-1.8-.4-.6-.6-1.3-.6-2.1h0c0-.6.1-1.1.4-1.6.6-1.4,2-2.3,3.6-2.3h18.3c1.1,0,2.1.4,2.8,1.2.7.7,1.2,1.7,1.2,2.8h0c0,.5-.1,1.1-.3,1.5-.6,1.4-2,2.4-3.6,2.4Z"/>
    <path class="st4" d="M345.9-27.6h-18.3c-1.4,0-2.6-.7-3.3-1.8-.4-.6-.6-1.3-.6-2.1h0c0-.6.1-1.1.4-1.6.6-1.4,2-2.3,3.6-2.3h18.3c1.1,0,2.1.4,2.8,1.2.7.7,1.2,1.7,1.2,2.8h0c0,.5-.1,1.1-.3,1.5-.6,1.4-2,2.4-3.6,2.4Z"/>
    <g>
      <circle class="st4" cx="313.1" cy="8.8" r="2.6"/>
      <path class="st2" d="M313.1,11.7c-1.6,0-2.9-1.3-2.9-2.9s1.3-2.9,2.9-2.9,2.9,1.3,2.9,2.9-1.3,2.9-2.9,2.9ZM313.1,6.6c-1.3,0-2.3,1-2.3,2.3s1,2.3,2.3,2.3,2.3-1,2.3-2.3-1-2.3-2.3-2.3Z"/>
    </g>
    <g>
      <circle class="st4" cx="297.1" cy="8.8" r="2.6"/>
      <path class="st2" d="M297.1,11.7c-1.6,0-2.9-1.3-2.9-2.9s1.3-2.9,2.9-2.9,2.9,1.3,2.9,2.9-1.3,2.9-2.9,2.9ZM297.1,6.6c-1.3,0-2.3,1-2.3,2.3s1,2.3,2.3,2.3,2.3-1,2.3-2.3-1-2.3-2.3-2.3Z"/>
    </g>
    <g>
      <circle class="st8" cx="328.2" cy="8.8" r="2.6"/>
      <path d="M328.2,11.7c-1.6,0-2.9-1.3-2.9-2.9s1.3-2.9,2.9-2.9,2.9,1.3,2.9,2.9-1.3,2.9-2.9,2.9ZM328.2,6.6c-1.3,0-2.3,1-2.3,2.3s1,2.3,2.3,2.3,2.3-1,2.3-2.3-1-2.3-2.3-2.3Z"/>
    </g>
  </g>
  <g>
    <path class="st4" d="M65.9,269.9h-15.5c-1.2,0-2.2-.6-2.8-1.5-.3-.5-.5-1.1-.5-1.8h0c0-.5.1-1,.3-1.4.5-1.2,1.7-2,3-2h15.5c.9,0,1.8.4,2.4,1,.6.6,1,1.4,1,2.4h0c0,.5,0,.9-.3,1.3-.5,1.2-1.7,2-3.1,2Z"/>
    <path class="st4" d="M77.2,290h-26.9c-1.2,0-2.2-.6-2.8-1.5-.3-.5-.5-1.1-.5-1.8h0c0-.5.1-1,.3-1.4.5-1.2,1.7-2,3-2h26.9c.9,0,1.8.4,2.4,1s1,1.4,1,2.4h0c0,.5,0,.9-.3,1.3-.5,1.2-1.7,2-3.1,2Z"/>
    <circle class="st4" cx="10.7" cy="278.4" r="28.2"/>
    <path class="st2" d="M10.7,306.9c-15.7,0-28.5-12.8-28.5-28.5s12.8-28.5,28.5-28.5,14.7,3,20.1,8.3c.1.1.1.3,0,.4-.1.1-.3.1-.4,0-5.3-5.3-12.3-8.2-19.7-8.2-15.4,0-27.9,12.5-27.9,27.9s12.5,27.9,27.9,27.9,27.9-12.5,27.9-27.9.1-.3.3-.3.3.1.3.3c0,15.7-12.8,28.5-28.5,28.5Z"/>
    <path class="st0" d="M10.7,253.6c-13.7,0-24.9,11.1-24.9,24.9s3.6,14.8,9.2,19.3v-7.8c0-5.3,3.5-9.7,8.4-11.1,1-.3,2.1-.4,3.2-.4h8.2c2.4,0,4.6.7,6.5,2,3.1,2.1,5.1,5.6,5.1,9.6v7.8c5.6-4.6,9.2-11.5,9.2-19.3,0-13.7-11.1-24.9-24.9-24.9Z"/>
    <circle class="st4" cx="10.7" cy="270.4" r="4.5" transform="translate(-258 237.6) rotate(-80.8)"/>
  </g>
  <path class="st2" d="M-50.5,375.6c-.1,0-.3-.1-.3-.3v-65.4c0-.2.1-.3.3-.3h9c.1,0,.3.1.3.3s-.1.3-.3.3h-8.8v64.8"/>
  <g>
    <path class="st8" d="M-36.8,320.1c-.7-4.6-3.8-8.4-7.9-10.2,4.1-1.8,7.1-5.6,7.9-10.2.7,4.6,3.8,8.4,7.9,10.2-4.1,1.8-7.1,5.6-7.9,10.2Z"/>
    <path d="M-36.8,320.4h0c-.1,0-.3-.1-.3-.2-.7-4.4-3.6-8.2-7.7-10-.1,0-.2-.2-.2-.3s0-.2.2-.3c4.1-1.8,7-5.6,7.7-10,0-.1.1-.2.3-.2s.3.1.3.2c.7,4.4,3.6,8.2,7.7,10,.1,0,.2.2.2.3s0,.2-.2.3c-4.1,1.8-7,5.6-7.7,10,0,.1-.1.2-.3.2ZM-44,309.9c3.6,1.8,6.2,5,7.2,8.8,1-3.8,3.6-7,7.2-8.8-3.6-1.8-6.2-5-7.2-8.8-1,3.8-3.6,7-7.2,8.8Z"/>
  </g>
  <line class="st6" x1="376.1" y1="375.1" x2="358.9" y2="375.1"/>
  <line class="st6" x1="375.6" y1="375.6" x2="375.6" y2="358.4"/>
</svg>