<?xml version="1.0" encoding="UTF-8"?>
<svg id="Layer_1" xmlns="http://www.w3.org/2000/svg" version="1.1" viewBox="0 0 376.1 375.6">
  <!-- Generator: Adobe Illustrator 29.0.1, SVG Export Plug-In . SVG Version: 2.1.0 Build 192)  -->
  <defs>
    <style>
      .st0 {
        fill: #ff8fbd;
      }

      .st1 {
        fill: #ebebeb;
      }

      .st2 {
        fill: #01020e;
      }

      .st3 {
        fill: #fff;
      }

      .st4 {
        fill: #05cbec;
      }

      .st5 {
        stroke: #000;
        stroke-miterlimit: 10;
      }

      .st6 {
        fill: #ffe286;
      }
    </style>
  </defs>
  <path class="st2" d="M273.4,132.5h-136.1c-.2,0-.3-.1-.3-.3s.1-.3.3-.3h136.1c.2,0,.3.1.3.3s-.1.3-.3.3Z"/>
  <g>
    <path class="st1" d="M250.8,375.3"/>
    <path class="st2" d="M250.8,375.6c-.2,0-.3-.1-.3-.3M251.1,375"/>
  </g>
  <g>
    <g>
      <path class="st3" d="M359.9,225.5"/>
      <path class="st3" d="M359.9,270.9"/>
    </g>
    <path class="st2" d="M359.9,225.2,359.9,271.2,359.9,270.6,359.9,225.8"/>
  </g>
  <g>
    <circle class="st4" cx="167.6" cy="132.2" r="4.8"/>
    <path d="M167.6,137.3c-2.8,0-5-2.3-5-5s2.3-5,5-5,5,2.3,5,5-2.3,5-5,5ZM167.6,127.7c-2.5,0-4.5,2-4.5,4.5s2,4.5,4.5,4.5,4.5-2,4.5-4.5-2-4.5-4.5-4.5Z"/>
  </g>
  <path class="st2" d="M105.9,188.7c0,.2-.1.3-.3.3h0c-.2,0-.3-.1-.3-.3"/>
  <path class="st4" d="M309.9,276"/>
  <g>
    <path class="st3" d="M309.9,271.3"/>
    <path class="st2" d="M309.9,271.6,309.9,271"/>
  </g>
  <circle class="st3" cx="127.2" cy="337.5" r="3.4"/>
  <path class="st4" d="M309.9,266.3"/>
  <path class="st2" d="M227,116.2h71.3c.2,0,8.6-.1,8.6-.3s-8.4-.3-8.6-.3h-71.3c-.2,0-.4.1-.4.3s.2.3.4.3Z"/>
  <g>
    <path class="st6" d="M220.4,126.1c1-4.6,5-8.4,10.5-10.2-5.5-1.8-9.5-5.6-10.5-10.2-1,4.6-5,8.4-10.5,10.2,5.5,1.8,9.5,5.6,10.5,10.2Z"/>
    <path d="M220,126.2c-.9-4.4-4.8-8.2-10.2-10-.1,0-.2-.2-.2-.3s0-.2.2-.3c5.5-1.8,9.3-5.6,10.2-10,0-.1.2-.2.4-.2s.4.1.4.2c.9,4.4,4.8,8.2,10.2,10,.1,0,.2.2.2.3s0,.2-.2.3c-5.5,1.8-9.3,5.6-10.2,10,0,.1-.2.2-.4.2s-.4-.1-.4-.2ZM220.4,107.1c-1.3,3.8-4.8,7-9.5,8.8,4.7,1.8,8.2,5,9.5,8.8,1.3-3.8,4.8-7,9.5-8.8-4.7-1.8-8.2-5-9.5-8.8Z"/>
  </g>
  <g>
    <path class="st3" d="M43.4,174.2v23.9-23.9Z"/>
    <path class="st2" d="M43.4,198.4c-.2,0-.3-.1-.3-.3v-23.9c0-.2.1-.3.3-.3s.3.1.3.3v23.9c0,.2-.1.3-.3.3Z"/>
  </g>
  <g>
    <path class="st3" d="M47.1,170.3h21-21Z"/>
    <path class="st2" d="M68,170.6h-21c-.2,0-.3-.1-.3-.3s.1-.3.3-.3h21c.2,0,.3.1.3.3s-.1.3-.3.3Z"/>
  </g>
  <g>
    <path class="st6" d="M43.4,180.5c-.7-4.6-3.8-8.4-7.9-10.2,4.1-1.8,7.1-5.6,7.9-10.2.7,4.6,3.8,8.4,7.9,10.2-4.1,1.8-7.1,5.6-7.9,10.2Z"/>
    <path d="M43.4,180.8c-.1,0-.3-.1-.3-.2-.7-4.4-3.6-8.2-7.7-10-.1,0-.2-.2-.2-.3s0-.2.2-.3c4.1-1.8,7-5.6,7.7-10,0-.1.1-.2.3-.2s.3.1.3.2c.7,4.4,3.6,8.2,7.7,10,.1,0,.2.2.2.3s0,.2-.2.3c-4.1,1.8-7,5.6-7.7,10,0,.1-.1.2-.3.2ZM36.2,170.3c3.6,1.8,6.2,5,7.2,8.8,1-3.8,3.6-7,7.2-8.8-3.6-1.8-6.2-5-7.2-8.8-1,3.8-3.6,7-7.2,8.8Z"/>
  </g>
  <g>
    <circle class="st3" cx="43.4" cy="201.5" r="4.8"/>
    <path class="st2" d="M43.4,206.6c-2.8,0-5-2.3-5-5s2.3-5,5-5,5,2.3,5,5-2.3,5-5,5ZM43.4,197.1c-2.5,0-4.5,2-4.5,4.5s2,4.5,4.5,4.5,4.5-2,4.5-4.5-2-4.5-4.5-4.5Z"/>
  </g>
  <g>
    <circle class="st3" cx="69.2" cy="170.3" r="4.8"/>
    <path class="st2" d="M69.2,175.3c-2.8,0-5-2.3-5-5s2.3-5,5-5,5,2.3,5,5-2.3,5-5,5ZM69.2,165.8c-2.5,0-4.5,2-4.5,4.5s2,4.5,4.5,4.5,4.5-2,4.5-4.5-2-4.5-4.5-4.5Z"/>
  </g>
  <path class="st2" d="M167.6,127.7c-.2,0-.3-.1-.3-.3v-16c0-.2.1-.3.3-.3s.3.1.3.3v16c0,.2-.1.3-.3.3Z"/>
  <g>
    <g>
      <path class="st3" d="M187.5,70.4c-.5-.5-1.2-.8-1.9-.8h-36c-.9,0-1.7.4-2.2,1.1-.3.5-.5,1-.5,1.6v36c0,.9.5,1.8,1.2,2.3.4.3,1,.5,1.5.5h36c1,0,1.9-.5,2.3-1.3.3-.4.4-.9.4-1.4v-36c0-.8-.3-1.4-.8-1.9Z"/>
      <path class="st2" d="M185.6,111.3h-36c-.6,0-1.2-.2-1.7-.5-.8-.6-1.3-1.5-1.3-2.5v-36c0-.7.2-1.3.6-1.8.6-.8,1.5-1.2,2.4-1.2h36c.8,0,1.6.3,2.1.9h0c.6.6.9,1.3.9,2.1v36c0,.6-.2,1.1-.4,1.6-.6.9-1.5,1.4-2.6,1.4ZM149.6,69.9c-.8,0-1.5.4-2,1-.3.4-.5.9-.5,1.5v36c0,.8.4,1.6,1.1,2,.4.3.9.4,1.4.4h36c.9,0,1.6-.4,2.1-1.2.2-.4.4-.8.4-1.3v-36c0-.7-.3-1.3-.7-1.7h0c-.5-.5-1.1-.7-1.7-.7h-36Z"/>
    </g>
    <g>
      <polygon class="st0" points="175.1 81 165 95 160.1 85.1 154.4 85.1 161.6 99.6 167.3 99.6 180.8 81 175.1 81"/>
      <path d="M167.3,99.9h-5.6c-.1,0-.2,0-.3-.2l-7.2-14.5c0,0,0-.2,0-.3,0,0,.1-.1.2-.1h5.6c.1,0,.2,0,.3.2l4.7,9.4,9.9-13.6c0,0,.1-.1.2-.1h5.6c.1,0,.2,0,.3.2,0,0,0,.2,0,.3l-13.5,18.6c0,0-.1.1-.2.1ZM161.8,99.3h5.3l13.1-18h-4.9l-10.1,13.9c0,0-.2.1-.3.1-.1,0-.2,0-.2-.2l-4.8-9.7h-5l6.9,13.9Z"/>
    </g>
  </g>
  <path class="st2" d="M-50.6,375.6c-.1,0-.3-.1-.3-.3v-65.4c0-.2.1-.3.3-.3h9c.1,0,.3.1.3.3s-.1.3-.3.3h-8.8v64.8"/>
  <g>
    <path class="st6" d="M-36.9,320.1c-.7-4.6-3.8-8.4-7.9-10.2,4.1-1.8,7.1-5.6,7.9-10.2.7,4.6,3.8,8.4,7.9,10.2-4.1,1.8-7.1,5.6-7.9,10.2Z"/>
    <path d="M-36.9,320.4h0c-.1,0-.3-.1-.3-.2-.7-4.4-3.6-8.2-7.7-10-.1,0-.2-.2-.2-.3s0-.2.2-.3c4.1-1.8,7-5.6,7.7-10,0-.1.1-.2.3-.2s.3.1.3.2c.7,4.4,3.6,8.2,7.7,10,.1,0,.2.2.2.3s0,.2-.2.3c-4.1,1.8-7,5.6-7.7,10,0,.1-.1.2-.3.2ZM-44,309.9c3.6,1.8,6.2,5,7.2,8.8,1-3.8,3.6-7,7.2-8.8-3.6-1.8-6.2-5-7.2-8.8-1,3.8-3.6,7-7.2,8.8Z"/>
  </g>
  <line class="st5" x1="376.1" y1="375.1" x2="358.9" y2="375.1"/>
  <line class="st5" x1="375.6" y1="375.6" x2="375.6" y2="358.4"/>
</svg>