<?xml version="1.0" encoding="UTF-8"?>
<svg id="Layer_1" xmlns="http://www.w3.org/2000/svg" version="1.1" viewBox="0 0 376.1 375.6">
  <!-- Generator: Adobe Illustrator 29.0.1, SVG Export Plug-In . SVG Version: 2.1.0 Build 192)  -->
  <defs>
    <style>
      .st0 {
        fill: #ff8fbd;
      }

      .st1 {
        fill: #ebebeb;
      }

      .st2 {
        fill: #01020e;
      }

      .st3 {
        fill: #fff;
      }

      .st4 {
        fill: #05cbec;
      }

      .st5 {
        fill: #aeaeae;
      }

      .st6 {
        fill: #ffe286;
      }
    </style>
  </defs>
  <g>
    <g>
      <rect class="st1" x="141.6" y="183.4" width="97.1" height="131.8"/>
      <path class="st2" d="M238.7,315.5h-97.1c-.2,0-.3-.1-.3-.3v-131.8c0-.2.1-.3.3-.3h97.1c.2,0,.3.1.3.3v131.8c0,.2-.1.3-.3.3ZM141.9,314.9h96.5v-131.2h-96.5v131.2Z"/>
    </g>
    <g>
      <path class="st5" d="M211,182.3c-.5-.6-1.2-.9-2-.9h-2.4c-1,0-1.8-.5-2.3-1.2-.3-.4-.4-.9-.4-1.5,0-.8-.4-1.6-1-2.1-.5-.4-1.1-.6-1.7-.6h-22c-.7,0-1.3.2-1.7.6-.6.5-1,1.2-1,2.1s-.2,1-.4,1.5c-.5.7-1.3,1.2-2.3,1.2h-2.5c-.8,0-1.6.4-2,.9-.4.5-.7,1.1-.7,1.8v4.4h43.1v-4.4c0-.7-.2-1.3-.7-1.8Z"/>
      <path d="M212,188.8h-43.7v-4.7c0-.7.3-1.4.7-2,.6-.7,1.4-1,2.3-1h2.5c.8,0,1.6-.4,2-1.1.2-.4.4-.8.4-1.3,0-.9.4-1.7,1.1-2.3.5-.4,1.2-.7,1.9-.7h22c.7,0,1.4.2,1.9.7.7.6,1.1,1.4,1.1,2.3s.1.9.4,1.3c.4.7,1.2,1.1,2,1.1h2.4c.9,0,1.7.4,2.3,1h0c.5.5.7,1.2.7,2v4.7ZM168.9,188.2h42.5v-4.1c0-.6-.2-1.1-.6-1.6h0c-.5-.5-1.1-.8-1.8-.8h-2.4c-1,0-2-.5-2.5-1.4-.3-.5-.5-1-.5-1.6s-.3-1.4-.9-1.9c-.4-.4-1-.6-1.5-.6h-22c-.6,0-1.1.2-1.5.6-.6.5-.9,1.1-.9,1.9s-.2,1.1-.5,1.6c-.6.9-1.5,1.4-2.5,1.4h-2.5c-.7,0-1.4.3-1.8.8-.4.4-.6,1-.6,1.6v4.1Z"/>
    </g>
  </g>
  <g>
    <path class="st1" d="M313.4,312.9c-34.5,0-62.4,27.9-62.4,62.4h124.8c0-34.5-27.9-62.4-62.4-62.4Z"/>
    <path class="st2" d="M375.8,375.6h-124.8c-.2,0-.3-.1-.3-.3,0-34.6,28.1-62.7,62.7-62.7s62.7,28.1,62.7,62.7-.1.3-.3.3ZM251.3,375h124.2c-.2-34.1-28-61.8-62.1-61.8s-62,27.7-62.1,61.8Z"/>
  </g>
  <path class="st2" d="M422.5,331.8c-3.9,0-7.5-2.3-9.1-6.1,0-.2-11.4-25.9-54.7-70.6-3.8-3.9-3.7-10.2.2-14,3.9-3.8,10.2-3.7,14,.2,46.3,47.9,58.2,75.6,58.7,76.8,2.1,5-.3,10.8-5.3,12.9-1.2.5-2.5.8-3.8.8Z"/>
  <g>
    <circle class="st4" cx="346.4" cy="345" r="9.2" transform="translate(-68.9 602.8) rotate(-76.7)"/>
    <path d="M346.4,354.5c-5.2,0-9.5-4.3-9.5-9.5s4.3-9.5,9.5-9.5,9.5,4.3,9.5,9.5-4.3,9.5-9.5,9.5ZM346.4,336c-4.9,0-8.9,4-8.9,8.9s4,8.9,8.9,8.9,8.9-4,8.9-8.9-4-8.9-8.9-8.9Z"/>
  </g>
  <g>
    <circle class="st4" cx="125.8" cy="209.4" r="9.2"/>
    <path d="M125.8,218.9c-5.2,0-9.5-4.3-9.5-9.5s4.3-9.5,9.5-9.5,9.5,4.3,9.5,9.5-4.3,9.5-9.5,9.5ZM125.8,200.5c-4.9,0-8.9,4-8.9,8.9s4,8.9,8.9,8.9,8.9-4,8.9-8.9-4-8.9-8.9-8.9Z"/>
  </g>
  <g>
    <circle class="st3" cx="360" cy="248.2" r="22.7" transform="translate(35.8 541.5) rotate(-76.7)"/>
    <path class="st2" d="M360,271.1c-12.7,0-23-10.3-23-23s10.3-23,23-23,23,10.3,23,23-10.3,23-23,23ZM360,225.8c-12.3,0-22.4,10-22.4,22.4s10,22.4,22.4,22.4,22.4-10,22.4-22.4-10-22.4-22.4-22.4Z"/>
  </g>
  <path class="st2" d="M169.8,273.9c1.5-3.5,5.1-6,9.2-6,.2,0,28.3-.2,86.5-22.1,5.1-1.9,10.8.7,12.7,5.8,1.9,5.1-.7,10.8-5.8,12.7-62.4,23.5-92.5,23.4-93.7,23.4-5.5,0-9.8-4.5-9.7-10,0-1.3.3-2.6.8-3.8Z"/>
  <g>
    <circle class="st3" cx="271.4" cy="249.7" r="22.7" transform="translate(-97.1 265.1) rotate(-45)"/>
    <path class="st2" d="M271.4,272.7c-3,0-6.1-.6-9.1-1.9-11.6-5-17-18.6-12-30.2,5-11.6,18.6-17,30.2-12,11.6,5,17,18.6,12,30.2-3.7,8.7-12.2,13.9-21.1,13.9ZM262.5,270.3c11.3,4.9,24.5-.3,29.4-11.7,4.9-11.3-.3-24.5-11.7-29.4-11.3-4.9-24.5.3-29.4,11.7-4.9,11.3.3,24.5,11.7,29.4h0Z"/>
  </g>
  <rect class="st2" x="292" y="281.1" width="37.7" height="54.4"/>
  <g>
    <path class="st3" d="M358.7,273.4h0c0,0-9.8-46.4-9.8-46.4l-27-6.5h-23.8l-27,6.5-9.8,46.4h0c-1.7,3.3-2.6,7-2.6,11,0,13.5,10.9,24.4,24.4,24.4s17.8-5.5,21.8-13.5h10.3c4,8,12.3,13.5,21.8,13.5s24.4-10.9,24.4-24.4-.9-7.7-2.6-10.9Z"/>
    <path class="st2" d="M337,309c-9.4,0-17.8-5.2-22-13.5h-9.9c-4.2,8.3-12.6,13.5-22,13.5-13.6,0-24.7-11.1-24.7-24.7s.9-7.6,2.6-11.1l9.8-46.3c0-.1.1-.2.2-.2l27-6.5s0,0,0,0h23.8s0,0,0,0l27,6.5c.1,0,.2.1.2.2l9.8,46.4c0,0,0,.1,0,.2,1.7,3.4,2.5,7.1,2.5,10.9,0,13.6-11.1,24.7-24.7,24.7ZM304.9,294.9h10.3c.1,0,.2,0,.3.2,4.1,8.2,12.4,13.4,21.6,13.4,13.3,0,24.1-10.8,24.1-24.1s-.9-7.4-2.6-10.8c0-.1,0-.2,0-.3l-9.7-46-26.8-6.5h-23.8l-26.8,6.5-9.8,46.1s0,0,0,.1c-1.7,3.4-2.6,7-2.6,10.9,0,13.3,10.8,24.1,24.1,24.1s17.5-5.1,21.6-13.4c0,0,.2-.2.3-.2Z"/>
  </g>
  <g>
    <path class="st1" d="M265.8,145.5c12.6-16.2,36.7-19.9,51.6-15.5,14.9,4.5,17.7,28.5,10.8,43.1-7.1,14.6-62.4-27.6-62.4-27.6Z"/>
    <path class="st2" d="M322.3,176.5c-16.2,0-54.9-29.4-56.6-30.8,0,0-.1-.1-.1-.2,0,0,0-.2,0-.2,12.3-15.8,36-20.3,51.9-15.6,5,1.5,9,5.3,11.6,11.1,4.2,9.4,4,22.7-.6,32.4-.8,1.5-2.1,2.5-3.9,3-.7.2-1.5.2-2.3.2ZM266.2,145.5c3.5,2.7,44.7,33.4,58.2,30.2,1.7-.4,2.8-1.3,3.5-2.7,4.5-9.5,4.7-22.7.6-31.9-2.5-5.6-6.4-9.3-11.2-10.8-15.6-4.7-38.9-.3-51.1,15.1Z"/>
  </g>
  <path class="st2" d="M306.7,163.8l-14-30.2c-25.3-1-36.7,23.6-38.2,33.1-1.5,9.5-6.7,54.8-6.7,54.8h5.9l1-9.5,2.7,9.5h66.1v-49l-16.9-8.8Z"/>
  <path class="st4" d="M303.1,182.1l-26,11.6,20.3,38.7c2,3.9,5.6,6.4,9.5,7.3,3.2.7,6.6.4,9.7-1.3,4.2-2.2,6.8-6.1,7.5-10.4.5-3.1,0-6.4-1.7-9.4l-19.4-36.6Z"/>
  <path class="st2" d="M302.5,182.3l-25.4,11.4,13.7,26c2-1.1,3.9-2.5,5.5-4.2,6.1-5.1,11.3-22.1,11.3-22.1,0,0-4-4-5.1-11.2Z"/>
  <path class="st2" d="M310.1,240.4c-1.1,0-2.2-.1-3.2-.4-4.2-1-7.7-3.7-9.7-7.5l-20.3-38.7c0-.1,0-.3.1-.4.1,0,.3,0,.4.1l20.3,38.7c1.9,3.6,5.3,6.3,9.3,7.2,3.2.7,6.6.3,9.5-1.2.1,0,.3,0,.4.1,0,.1,0,.3-.1.4-2.1,1.1-4.4,1.6-6.7,1.6Z"/>
  <path class="st3" d="M299.2,208.5c-4.8,5.1-12,7.8-19.4,6.9h0c-7.8-1-14.2-5.9-17.4-12.4-2-3.9-2.8-8.5-2.2-13.1l4.9-37.3c5.5-15.8,21.4-20.9,33.8-18.2,12.5,2.8,11.9,16.8,8.9,25.8-7.1,16.4,2.8,26.3,2.8,26.3,0,0-5.3,17-11.3,22.1Z"/>
  <path class="st2" d="M291.4,140.7l-26.4,12.7-4.4,33.3c19.8-2.3,41.7,1.2,49.1,2.6.6-1.7.9-2.8.9-2.8,0,0-9.8-9.8-2.9-26l-16.3-19.7Z"/>
  <path class="st3" d="M280.4,184.9c-.3,0-.7,0-1-.2-.7-.3-1.2-.9-1.5-1.8-.4-1.2-.3-3,1.1-4.7.1-.1.3-.1.4,0,.1.1.1.3,0,.4-1.3,1.4-1.4,3.1-1,4.1.2.7.7,1.2,1.2,1.4.5.2,1.1.2,1.7,0,.1,0,.3,0,.4.2s0,.3-.2.4c-.4.2-.8.3-1.2.3Z"/>
  <g>
    <path class="st4" d="M291.3,178.2c.3,1.8,1.4,3,2.6,2.8s1.8-1.8,1.5-3.5c-.3-1.8-1.4-3-2.6-2.8s-1.8,1.8-1.5,3.5Z"/>
    <path class="st4" d="M292.4,176s0,0,0,0l-2.5-.5c-.2,0-.3-.2-.2-.3,0-.2.2-.3.3-.2l2.5.5c.2,0,.3.2.2.3,0,.1-.2.2-.3.2Z"/>
  </g>
  <g>
    <path class="st4" d="M271,175.7c.3,1.8,1.4,3,2.6,2.8,1.1-.2,1.8-1.8,1.5-3.5-.3-1.8-1.4-3-2.6-2.8-1.1.2-1.8,1.8-1.5,3.5Z"/>
    <path class="st4" d="M272.1,173.6s0,0,0,0l-2.5-.5c-.2,0-.3-.2-.2-.3s.2-.3.3-.2l2.5.5c.2,0,.3.2.2.3,0,.1-.2.2-.3.2Z"/>
  </g>
  <path class="st2" d="M279,194.8c-.3,0-.6,0-.9,0-1.8-.3-3.1-1.5-3.5-3.4,0-.2,0-.3.2-.3.2,0,.3,0,.3.2.4,1.7,1.4,2.7,3,2.9,3.1.5,8.1-2,10.9-6.8,0-.1.3-.2.4-.1.1,0,.2.3.1.4-2.4,4.1-7,7.1-10.6,7.1Z"/>
  <path class="st3" d="M300.5,169.2c0,0-.2,0-.2-.1-2.4-2.9-5.2-3.3-5.3-3.4-.2,0-.3-.2-.3-.3,0-.2.2-.3.3-.3.1,0,3.1.4,5.6,3.6.1.1,0,.3,0,.4,0,0-.1,0-.2,0Z"/>
  <path class="st3" d="M270.8,165.9c0,0-.1,0-.2,0-.1,0-.2-.3,0-.4,0,0,1.1-1.6,4.7-1.9.2,0,.3.1.3.3,0,.2-.1.3-.3.3-3.2.2-4.3,1.6-4.3,1.6,0,0-.1.1-.2.1Z"/>
  <path class="st2" d="M298.9,134.4c-12.5-2.8-29.2,2.4-34.7,18.2l-.5,6.4c5.2-1.5,20.7-6.3,28.4-14.1,0,0,2.4,12.3,14.2,19.5.4-1.4.9-2.8,1.5-4.3,3-8.9,3.6-23-8.9-25.8Z"/>
  <path class="st3" d="M306.3,164.7c0,0-.1,0-.2,0-10.3-6.3-13.5-16.7-14.2-19.2-7.3,7.1-20.7,11.7-28.1,13.8-.2,0-.3,0-.4-.2,0-.2,0-.3.2-.4,6.1-1.7,20.9-6.5,28.3-14,0,0,.2-.1.3,0,.1,0,.2.1.2.2,0,.1,2.6,12.3,14,19.3.1,0,.2.3,0,.4,0,0-.2.1-.2.1Z"/>
  <g>
    <circle class="st3" cx="316.5" cy="173.6" r="14.3"/>
    <path class="st2" d="M316.5,188.1c-8,0-14.6-6.5-14.6-14.6s6.5-14.6,14.6-14.6,14.6,6.5,14.6,14.6-6.5,14.6-14.6,14.6ZM316.5,159.6c-7.7,0-14,6.3-14,14s6.3,14,14,14,14-6.3,14-14-6.3-14-14-14Z"/>
  </g>
  <g>
    <g>
      <path class="st0" d="M323.4,171.6c.2.7.3,1.4.3,2.2,0,4-3.2,7.2-7.2,7.2s-7.2-3.2-7.2-7.2,1.3-4.8,3.3-6.1l-1.4-2.2c-2.8,1.7-4.6,4.8-4.6,8.3,0,5.4,4.4,9.8,9.8,9.8s9.8-4.4,9.8-9.8-.2-2-.5-3l-2.5.8Z"/>
      <path d="M316.5,183.9c-5.6,0-10.1-4.5-10.1-10.1s1.8-6.7,4.7-8.5c0,0,.1,0,.2,0,0,0,.1,0,.2.1l1.4,2.2c0,.1,0,.3,0,.4-2,1.3-3.2,3.5-3.2,5.8,0,3.8,3.1,6.9,6.9,6.9s6.9-3.1,6.9-6.9-.1-1.4-.3-2.1c0-.2,0-.3.2-.4l2.5-.8c0,0,.2,0,.2,0,0,0,.1,0,.1.2.3,1,.5,2,.5,3.1,0,5.6-4.5,10.1-10.1,10.1ZM311.2,165.9c-2.6,1.8-4.2,4.7-4.2,7.9,0,5.2,4.3,9.5,9.5,9.5s9.5-4.3,9.5-9.5-.1-1.8-.4-2.6l-1.9.6c.2.6.3,1.3.3,2,0,4.1-3.4,7.5-7.5,7.5s-7.5-3.4-7.5-7.5,1.2-4.8,3.2-6.2l-1.1-1.7Z"/>
    </g>
    <g>
      <path class="st4" d="M316.5,164c-1.9,0-3.7.6-5.2,1.5l1.4,2.2c1.1-.7,2.4-1.1,3.9-1.1,3.2,0,5.9,2.1,6.9,5l2.5-.8c-1.3-4-5-6.8-9.4-6.8Z"/>
      <path d="M323.4,171.9s0,0-.1,0c0,0-.1,0-.1-.2-.9-2.9-3.6-4.8-6.6-4.8s-2.6.4-3.7,1.1c0,0-.1,0-.2,0,0,0-.1,0-.2-.1l-1.4-2.2c0-.1,0-.3,0-.4,1.6-1,3.5-1.6,5.4-1.6,4.4,0,8.3,2.8,9.6,7,0,.2,0,.3-.2.4l-2.5.8s0,0,0,0ZM316.5,166.3c3.2,0,6,2,7,4.9l1.9-.6c-1.3-3.8-4.9-6.4-9-6.4s-3.4.5-4.8,1.3l1.1,1.7c1.1-.7,2.4-1,3.8-1Z"/>
    </g>
    <g>
      <path class="st6" d="M324,164.8c-1.8-1.4-3.8-2.3-5.9-2.5l-.4,2.8c1.6.2,3.1.8,4.5,1.9,3,2.5,4,6.6,2.6,10l2.7,1c1.8-4.6.6-10-3.5-13.3Z"/>
      <path d="M327.4,178.4s0,0-.1,0l-2.7-1c0,0-.1,0-.2-.2,0,0,0-.2,0-.2,1.4-3.5.4-7.3-2.5-9.7-1.2-1-2.7-1.7-4.3-1.9,0,0-.1,0-.2-.1,0,0,0-.1,0-.2l.4-2.8c0-.2.2-.3.3-.3,2.2.3,4.3,1.2,6,2.6h0c4,3.3,5.5,8.8,3.5,13.6,0,.1-.2.2-.3.2ZM325.1,176.9l2.1.8c1.7-4.5.3-9.6-3.5-12.7h0c-1.6-1.3-3.5-2.1-5.5-2.4l-.3,2.2c1.6.2,3.1.9,4.3,1.9,3,2.4,4.1,6.5,2.8,10.1Z"/>
    </g>
  </g>
  <path class="st2" d="M316.5,159.6c-.2,0-.3-.1-.3-.3v-45.6c0-.2.1-.3.3-.3s.3.1.3.3v45.6c0,.2-.1.3-.3.3Z"/>
  <circle class="st4" cx="316.5" cy="115.1" r="4.8"/>
  <path class="st3" d="M260.5,186.9s0,0,0,0c-.2,0-.3-.2-.3-.3l3.2-27.6c0-.2.2-.3.3-.3.2,0,.3.2.3.3l-3.2,27.6c0,.1-.1.3-.3.3Z"/>
  <g>
    <g>
      <path class="st3" d="M341.5,347.2h0c0-5.4-2.4-10.2-6.1-13.5-3-2.6-6.9-4.3-11.2-4.4-8.3-.3-18,0-25.4,2.1-12.2,3.4-22.7,18.5-27.1,25.6-.6,1-.8,2.3-.4,3.4.3.9.9,1.8,1.8,2.3h0c.9.5,1.9.6,2.8.5,1-.2,2-.8,2.6-1.7l3.7-5.5c-1.5,4.5-2.9,8.5-3.8,11.3-.5,1.4,0,2.9.8,3.9.5.5,1.1.9,1.9,1.1h.2c1.5.4,3.2-.1,4.1-1.4h0l1.5.3c.7.2,1.5.2,2.2,0,1.6-.2,3.1-1,4.1-2.3,2.9-3.7,5.9-6.1,5.5-6-1,1.8-1.7,3.3-2.2,4.4-.4.9-.4,1.9,0,2.8.4.8,1.2,1.5,2.2,1.7h0c.8.2,1.6,0,2.2-.3.4-.2.7-.5,1-.9,1.6-2.2,3.8-5.4,3.8-5.4h17.8c7.7,0,14.2-4.8,16.8-11.6.7-2,1.1-4.1,1.1-6.3Z"/>
      <path class="st2" d="M282.3,372.6c-.4,0-.7,0-1.1-.1h-.2c-.8-.3-1.5-.7-2.1-1.3-1-1.1-1.4-2.7-.9-4.2.7-2.2,1.8-5.5,3.1-9.2l-2.4,3.6c-.7,1-1.7,1.6-2.8,1.9-1,.2-2.1,0-3-.5-.9-.5-1.6-1.4-2-2.5-.4-1.2-.2-2.5.4-3.6,4-6.6,14.8-22.2,27.2-25.7,6.3-1.7,14.8-2.4,25.5-2.1,4.2.1,8.2,1.7,11.4,4.5,4,3.5,6.2,8.5,6.2,13.7s-.4,4.4-1.2,6.4c-2.7,7.1-9.5,11.8-17.1,11.8h-17.6c-.4.6-2.3,3.4-3.7,5.3-.3.4-.6.7-1.1.9-.7.4-1.6.6-2.5.4-1-.2-1.9-.9-2.4-1.9-.5-.9-.5-2,0-3,.4-.8.8-1.7,1.3-2.7-1.1,1-2.6,2.6-4.1,4.5-1,1.3-2.6,2.2-4.3,2.4-.8.1-1.6,0-2.3,0l-1.3-.3c-.8,1-2,1.5-3.3,1.5ZM282.2,355.5s0,0,.1,0c.1,0,.2.2.1.4-1.6,4.6-2.9,8.7-3.8,11.3-.4,1.3-.1,2.6.8,3.6.5.5,1.1.9,1.8,1.1h.2c1.4.4,2.9-.1,3.8-1.3,0,0,.2-.1.3-.1l1.5.3c.7.2,1.4.2,2.1,0,1.5-.2,2.9-1,3.9-2.2,1.9-2.4,3.8-4.3,4.9-5.3.2-.2.4-.4.5-.5,0,0,0,0,0-.1,0,0,0-.1.2-.1.1,0,.3,0,.4.1,0,.2,0,.2-.1.5-.8,1.6-1.5,3-2.1,4.2-.4.8-.4,1.7,0,2.5.4.8,1.1,1.3,2,1.5.7.2,1.4,0,2-.3.3-.2.6-.5.9-.8,1.6-2.1,3.8-5.3,3.8-5.4,0,0,.1-.1.2-.1h17.8c7.3,0,13.9-4.6,16.5-11.4.7-2,1.1-4.1,1.1-6.2,0-5.1-2.2-9.9-6-13.3-3.1-2.7-7-4.2-11-4.3-10.6-.4-19.1.3-25.3,2.1-12.2,3.4-22.9,18.9-26.9,25.4-.6.9-.7,2.1-.4,3.1.3.9.9,1.7,1.7,2.1.8.4,1.7.6,2.6.4,1-.2,1.9-.8,2.4-1.6l3.7-5.5c0,0,.1-.1.2-.1Z"/>
    </g>
    <path class="st2" d="M282.2,356.1s0,0-.1,0c-.1,0-.2-.2-.1-.4,2.9-5.9,6.5-8.8,6.6-8.9.1-.1.3,0,.4,0,0,.1,0,.3,0,.4,0,0-3.7,2.9-6.5,8.7,0,.1-.2.2-.3.2Z"/>
    <path class="st2" d="M286,366.6c-.2,0-.3-.1-.3-.3,0-.5,2.3-7,6.8-12,.1-.1.3-.1.4,0,.1.1.1.3,0,.4-4.5,5-6.6,11.3-6.6,11.6,0,.2-.1.3-.3.3Z"/>
  </g>
  <g>
    <path class="st3" d="M355.1,334.5l3.9,13.7c.4,1.3,1.2,2.4,2.2,3.2,1.3,1,3.1,1.5,4.9,1.2l82.9-14.5c1.7-.3,3-1.4,3.6-2.9.5-1.3.5-2.8-.3-4.2l-3.5-6.2c-5-8.8-12.7-15.1-21.4-18.6-11.6-4.6-25-4-36.7,2.6l-32.7,18.5c-1.3.7-2.2,1.8-2.7,3.1-.5,1.3-.6,2.7-.2,4.1Z"/>
    <path class="st2" d="M365.1,353c-1.4,0-2.8-.5-4-1.3-1.1-.9-1.9-2-2.3-3.4l-3.9-13.7c-.4-1.4-.3-2.9.2-4.3.6-1.4,1.6-2.5,2.8-3.2l32.7-18.5c11.3-6.4,24.8-7.4,36.9-2.6,9.1,3.6,16.7,10.2,21.6,18.7l3.5,6.2c.8,1.4.9,3,.3,4.4-.7,1.6-2.1,2.7-3.8,3l-82.9,14.5c-.4,0-.7,0-1.1,0ZM411.7,303.6c-7.2,0-14.4,1.9-20.9,5.5l-32.7,18.5c-1.2.7-2.1,1.7-2.6,2.9-.5,1.2-.6,2.6-.2,3.9h0l3.9,13.7c.4,1.2,1.1,2.3,2.1,3.1,1.3,1,3,1.4,4.6,1.1l82.9-14.5c1.5-.3,2.8-1.3,3.4-2.7.5-1.3.4-2.7-.2-3.9l-3.5-6.2c-4.8-8.4-12.3-14.9-21.3-18.5-5-2-10.3-3-15.6-3Z"/>
  </g>
  <g>
    <path class="st3" d="M141.1,217.6l-11.2,8.8c-1.1.9-1.8,2-2.2,3.3-.4,1.6-.2,3.4.7,5l44.9,71.2c.9,1.5,2.5,2.2,4,2.2,1.4,0,2.8-.6,3.8-1.8l4.4-5.6c6.2-8,9.2-17.5,9.1-26.9-.2-12.4-5.8-24.7-16.3-33l-29.5-23.2c-1.1-.9-2.5-1.3-3.9-1.3-1.4,0-2.7.4-3.9,1.3Z"/>
    <path class="st2" d="M177.4,308.3h0c-1.7,0-3.3-.9-4.3-2.4l-44.9-71.2c-1-1.5-1.3-3.4-.8-5.2.4-1.4,1.1-2.5,2.3-3.4l11.2-8.8h0c1.1-.9,2.6-1.4,4-1.4h0c1.5,0,2.9.5,4,1.4l29.5,23.2c10.2,8.1,16.2,20.2,16.4,33.2.1,9.8-3.1,19.4-9.1,27.1l-4.4,5.6c-1,1.2-2.4,1.9-4,1.9ZM141.3,217.8l-11.2,8.8c-1,.8-1.7,1.9-2.1,3.1-.4,1.6-.2,3.3.7,4.7l44.9,71.2c.8,1.3,2.2,2.1,3.8,2.1h0c1.4,0,2.7-.6,3.5-1.7l4.4-5.6c5.9-7.6,9.1-17.1,9-26.7-.2-12.9-6.1-24.8-16.2-32.8l-29.5-23.2c-1-.8-2.3-1.3-3.7-1.3h0c-1.3,0-2.6.5-3.7,1.3h0Z"/>
  </g>
  <g>
    <g>
      <path class="st3" d="M122.3,205.6c5.7-1.1,10.5-4.4,13.5-9,2.2-3.4,3.4-7.4,3.3-11.7-.7-29.8-6.9-54.9-10.1-62.8-.6-1.6-1.9-2.7-3.4-3.3-.9-.3-1.8-.4-2.8-.3h0c-.8.1-1.5.4-2.1.7-1.9,1.1-3.1,3.3-2.8,5.6.7,6.5,1.7,12.9,1.7,12.9-6-.5-8.7,3.8-8.7,3.8-7.9-.3-10,2.7-10.3,3.8-10.9.8-17.9,30.7-4.1,31.2.5,4.6,1.1,8.8,1.8,12.5,1.4,7.6,6.8,13.5,13.7,15.8,3.2,1.1,6.7,1.4,10.3.7h0Z"/>
      <path class="st2" d="M118.5,206.2c-2.2,0-4.5-.4-6.6-1.1-7.2-2.4-12.6-8.6-13.9-16.1-.7-4-1.3-8.2-1.8-12.3-4.8-.3-7.6-4.2-7.7-10.6-.2-9.1,5.1-20.4,11.8-21.1.3-.9,2.2-4.1,10.4-3.8.5-.7,3.3-4.1,8.5-3.8-.2-1.4-1-7-1.6-12.5-.3-2.4.9-4.7,3-5.9.7-.4,1.4-.7,2.2-.8,1-.1,2,0,2.9.3,1.6.6,2.9,1.9,3.6,3.5,3,7.5,9.4,32.7,10.1,62.9,0,4.2-1.1,8.3-3.4,11.8-3.1,4.8-8.1,8.1-13.7,9.2h0c-1.3.2-2.5.3-3.8.3ZM109.9,141.7c-8,0-9,3.6-9,3.6,0,.1-.1.2-.3.2-6.4.5-11.6,11.7-11.5,20.5.1,6.2,2.8,9.9,7.4,10.1.1,0,.3.1.3.3.5,4.2,1.1,8.4,1.8,12.5,1.3,7.3,6.5,13.2,13.5,15.6,3.2,1.1,6.7,1.3,10.1.7h0c5.4-1,10.3-4.2,13.3-8.9,2.2-3.4,3.4-7.4,3.3-11.5-.7-30.2-7.1-55.3-10-62.7-.6-1.5-1.8-2.6-3.2-3.1-.8-.3-1.7-.4-2.6-.3-.7,0-1.4.3-2,.7-1.9,1.1-2.9,3.2-2.7,5.3.7,6.4,1.7,12.8,1.7,12.9,0,0,0,.2,0,.2,0,0-.2.1-.2,0-5.7-.5-8.4,3.6-8.4,3.7,0,0-.2.1-.3.1-.3,0-.7,0-1,0ZM122.3,205.6h0,0Z"/>
    </g>
    <path class="st2" d="M105.8,189c-.2,0-.3-.1-.3-.3,0,0,0-7.7,9.2-14h-8.9c-1.7,0-3.4-.8-4.6-2.1-.8-.9-1.4-2-1.6-3.2-.2-1.1,0-2.3.3-3.3.9-2.2,2.9-3.8,5.2-4,6.6-.7,15.8-1.8,22.7-3.5.2,0,.3,0,.4.2,0,.2,0,.3-.2.4-7,1.7-16.3,2.8-22.8,3.5-2.1.2-4,1.6-4.8,3.6-.4,1-.5,2-.3,3,.2,1.1.7,2.1,1.4,2.9,1.1,1.2,2.6,1.8,4.2,1.9h9.9c.1,0,.2.2.3.3,0,.1,0,.3-.1.3-9.8,6.2-9.8,13.9-9.8,14,0,.2-.1.3-.3.3h0Z"/>
    <path class="st2" d="M108.9,162.1c-.1,0-.3-.1-.3-.3-.3-2.4-.4-13.3,2.1-20.5,0-.2.2-.2.4-.2.2,0,.2.2.2.4-2.4,7-2.3,17.9-2,20.2,0,.2,0,.3-.3.3,0,0,0,0,0,0Z"/>
    <path class="st2" d="M98.7,162.7c-.1,0-.3-.1-.3-.3,0,0-1.1-8.2,1.9-17.2,0-.2.2-.2.4-.2.2,0,.2.2.2.4-2.9,8.9-1.9,16.9-1.9,17,0,.2,0,.3-.3.3,0,0,0,0,0,0Z"/>
    <path class="st2" d="M120,160.6c-.1,0-.3-.1-.3-.3,0,0-.7-4.9.3-11.6,0-.2.2-.3.3-.2.2,0,.3.2.2.3-.9,6.7-.3,11.4-.3,11.5,0,.2,0,.3-.2.3,0,0,0,0,0,0Z"/>
    <path class="st2" d="M96.5,176.8c-.1,0-.3,0-.3-.2,0-.2,0-.3.2-.3,1-.2,1.8-.7,2.4-1.5.6-.8.8-1.7.7-2.7l-.2-1.3c0-.2,0-.3.3-.3.2,0,.3,0,.3.3l.2,1.3c.1,1.1-.1,2.2-.8,3.1-.7.9-1.6,1.5-2.7,1.7,0,0,0,0,0,0Z"/>
  </g>
</svg>