<?xml version="1.0" encoding="UTF-8"?>
<svg id="Layer_1" xmlns="http://www.w3.org/2000/svg" version="1.1" viewBox="0 0 376.1 375.6">
  <!-- Generator: Adobe Illustrator 29.0.1, SVG Export Plug-In . SVG Version: 2.1.0 Build 192)  -->
  <defs>
    <style>
      .st0 {
        fill: #1e1e1e;
      }
    </style>
  </defs>
  <path class="st0" d="M263.3,196.5h0c1.1,0,1.9-.9,1.9-1.9v-14.5c0-1.1-.9-1.9-1.9-1.9h0c-1.1,0-1.9.9-1.9,1.9v14.5c0,1.1.9,1.9,1.9,1.9Z"/>
  <path class="st0" d="M267.8,180v14.5c0,1.1.9,1.9,1.9,1.9h0c1.1,0,1.9-.9,1.9-1.9v-14.5c0-1.1-.9-1.9-1.9-1.9h0c-1.1,0-1.9.9-1.9,1.9Z"/>
  <path class="st0" d="M608.3,164.7c-10.4,2.3-20.6,5.1-30.6,8.6-12.5,4.3-24.7,9.7-36.6,14.8-11.8,5.1-24,10.5-36.3,14.7-13.3,4.6-26,7.6-37.5,8.8-13.5,1.4-26,.5-37.2-2.7-12.7-3.6-24.1-10-36.2-16.8-9.5-5.3-19.3-10.9-29.7-14.9-15.3-5.8-32.2-8.2-49-6.9-15.9,1.2-31.5,5.7-45.1,13.1-1.2.7-1.7,2.2-1,3.5l2.9,5.1c13.1-7.5,28.3-12.1,43.9-13.3s31.3,1,45.4,6.4c9.9,3.8,19.4,9.1,28.6,14.3,12,6.8,24.4,13.7,38.1,17.6,8.5,2.4,17.7,3.6,27.4,3.6s8.6-.2,13-.7c12.2-1.3,25.4-4.4,39.4-9.2,12.6-4.4,25-9.7,36.9-15,11.7-5.1,23.8-10.4,36-14.6,9.1-3.2,18.4-5.8,27.8-7.9v-8.6h-.2Z"/>
  <path class="st0" d="M210.7,210.4h0c0-1.2-.3-2.4-.9-3.4-.8-1.3-1.3-2.9-1.3-4.5,0-4.9,3.9-8.8,8.8-8.9,4.9,0,8.9,3.9,8.9,8.7s-.4,3.3-1.2,4.7c-.6,1-1,2.2-1,3.4h0c0,2.5,1.9,4.6,4.3,4.9h18.6v-59h-19c-2.2.5-3.8,2.5-3.8,4.8h0c0,1.2.3,2.4.9,3.4.8,1.3,1.3,2.9,1.3,4.5,0,4.9-3.9,8.8-8.8,8.9-4.9,0-8.9-3.9-8.9-8.7s.4-3.3,1.2-4.7c.6-1,1-2.2,1-3.4h0c0-2.3-1.6-4.3-3.8-4.8h-19v18.8c-.4,2.3-2.4,4-4.8,4h0c-1.2,0-2.4-.3-3.4-1-1.4-.8-3-1.3-4.7-1.2-4.8,0-8.8,4.1-8.7,9,0,4.9,4,8.8,8.9,8.8s3.2-.5,4.5-1.3c1-.6,2.2-.9,3.4-.9h0c2.4,0,4.4,1.7,4.8,4v18.8h18.6c2.4-.3,4.3-2.4,4.3-4.9h-.2Z"/>
  <path class="st0" d="M254.2,174.9h-4.3v24.9h4.3c2.3,0,4.3-1.9,4.3-4.3v-16.4c0-2.3-1.9-4.3-4.3-4.3h0Z"/>
  <rect class="st0" x="261.4" y="177.9" width="3.9" height="18.7"/>
  <rect class="st0" x="267.8" y="177.9" width="3.9" height="18.7"/>
</svg>