<?xml version="1.0" encoding="UTF-8"?>
<svg id="Layer_1" xmlns="http://www.w3.org/2000/svg" version="1.1" viewBox="0 0 376.1 375.6">
  <!-- Generator: Adobe Illustrator 29.0.1, SVG Export Plug-In . SVG Version: 2.1.0 Build 192)  -->
  <defs>
    <style>
      .st0 {
        fill: #1e1e1e;
      }

      .st1 {
        fill: #fff;
      }
    </style>
  </defs>
  <path class="st0" d="M184.1,76.9c-1.9,0-3.5,1.4-3.5,3.1v23.7c0,1.7,1.6,3.1,3.5,3.1s3.5-1.4,3.5-3.1v-23.7c0-1.7-1.6-3.1-3.5-3.1Z"/>
  <path class="st1" d="M129.4,93.7c-1.7,1-2.3,3-1.5,4.5l11.8,20.5c.9,1.5,2.9,1.9,4.6.9,1.7-1,2.3-3,1.5-4.5l-11.8-20.5c-.9-1.5-2.9-1.9-4.6-.9Z"/>
  <path class="st1" d="M90.4,135.5c-1,1.7-.5,3.8.9,4.6l20.5,11.8c1.5.9,3.5.2,4.5-1.5s.5-3.8-.9-4.6l-20.5-11.8c-1.5-.9-3.5-.2-4.5,1.5Z"/>
  <path class="st1" d="M94.3,246c1,1.7,3,2.4,4.5,1.5l20.5-11.8c1.5-.9,1.9-2.9.9-4.6-1-1.7-3-2.4-4.5-1.5l-20.5,11.8c-1.5.9-1.9,2.9-.9,4.6Z"/>
  <path class="st1" d="M136.2,285c1.7,1,3.8.5,4.6-.9l11.8-20.5c.9-1.5.2-3.5-1.5-4.5s-3.8-.5-4.6.9l-11.8,20.5c-.9,1.5-.2,3.5,1.5,4.5Z"/>
  <path class="st1" d="M191.9,297.8c1.9,0,3.5-1.4,3.5-3.1v-23.7c0-1.7-1.6-3.1-3.5-3.1s-3.5,1.4-3.5,3.1v23.7c0,1.7,1.6,3.1,3.5,3.1Z"/>
  <path class="st0" d="M246.6,281c1.7-1,2.3-3,1.5-4.5l-11.8-20.5c-.9-1.5-2.9-1.9-4.6-.9-1.7,1-2.3,3-1.5,4.5l11.8,20.5c.9,1.5,2.9,1.9,4.6.9Z"/>
  <path class="st0" d="M285.6,239.2c1-1.7.5-3.8-.9-4.6l-20.5-11.8c-1.5-.9-3.5-.2-4.5,1.5s-.5,3.8.9,4.6l20.5,11.8c1.5.9,3.5.2,4.5-1.5Z"/>
  <path class="st0" d="M281.7,128.7c-1-1.7-3-2.4-4.5-1.5l-20.5,11.8c-1.5.9-1.9,2.9-.9,4.6,1,1.7,3,2.4,4.5,1.5l20.5-11.8c1.5-.9,1.9-2.9.9-4.6Z"/>
  <path class="st0" d="M239.8,89.7c-1.7-1-3.8-.5-4.6.9l-11.8,20.5c-.9,1.5-.2,3.5,1.5,4.5s3.8.5,4.6-.9l11.8-20.5c.9-1.5.2-3.5-1.5-4.5Z"/>
</svg>