<?xml version="1.0" encoding="UTF-8"?>
<svg id="Layer_1" xmlns="http://www.w3.org/2000/svg" version="1.1" viewBox="0 0 376.1 375.6">
  <!-- Generator: Adobe Illustrator 29.0.1, SVG Export Plug-In . SVG Version: 2.1.0 Build 192)  -->
  <defs>
    <style>
      .st0 {
        fill: #ffc300;
      }
    </style>
  </defs>
  <path class="st0" d="M112.3,198.4h0c1.1,0,1.9-.9,1.9-1.9v-14.8c0-1.1-.9-1.9-1.9-1.9h0c-1.1,0-1.9.9-1.9,1.9v14.8c0,1.1.9,1.9,1.9,1.9Z"/>
  <rect class="st0" x="103.8" y="179.7" width="3.9" height="18.7" rx="1.9" ry="1.9"/>
  <path class="st0" d="M104.5,183.8c-16.7,5.1-36.8,2.9-59.8-6.6-9-3.7-17.9-8.2-26.5-12.5-10.3-5.2-20.9-10.5-31.9-14.7-11.3-4.3-22.3-6.9-32.6-7.7-12.2-1-23.3.6-33.3,4.6-12.6,5.1-22.9,13.9-32.8,22.5-9.5,8.2-18.4,15.8-29.1,20.5-9.9,4.3-21,5.8-33.2,4.4-11-1.2-22.5-4.9-33.2-10.5-8.7-4.6-16.7-10.2-24.3-16.4v10.9c6.4,4.9,13.1,9.3,20.4,13.1,11.6,6.1,24.2,10.1,36.2,11.5,3.2.4,6.4.5,9.5.5,10,0,19.4-1.9,28-5.6,11.9-5.2,21.7-13.7,31.3-21.9,9.8-8.5,19.1-16.5,30.4-21,8.7-3.5,18.6-4.8,29.4-4,9.5.8,19.7,3.2,30.3,7.2,10.6,4,21,9.3,31.1,14.4,8.8,4.4,17.8,9,27.1,12.8,24.9,10.3,47,12.6,65.6,6.9l-2.5-8.2Z"/>
  <path class="st0" d="M175.1,176.5c1.7,0,3.3.4,4.7,1.2,1,.6,2.2,1,3.4,1,0,0,0,0,0,0,2.5,0,4.5-1.9,4.9-4.3v-18.6h-18.8c-2.3-.4-4-2.4-4-4.8h0c0-1.2.3-2.4,1-3.4.8-1.4,1.3-3,1.2-4.7,0-4.9-4.1-8.8-8.9-8.7-4.8,0-8.8,4-8.8,8.9s.5,3.2,1.3,4.5c.6,1,.9,2.2.9,3.4,0,0,0,0,0,0,0,2.4-1.7,4.4-4,4.8h-18.8v40s0,8.6,0,8.6v10.5h18.8c2.3.4,4,2.4,4,4.8s0,0,0,0c0,1.2-.3,2.4-1,3.4-.8,1.4-1.3,3-1.2,4.7,0,4.9,4.1,8.8,8.9,8.7,4.8,0,8.8-4,8.8-8.9s-.5-3.2-1.3-4.5c-.6-1-.9-2.2-.9-3.4,0,0,0,0,0,0,0-2.4,1.7-4.4,4-4.8h18.8v-18.6c-.3-2.4-2.4-4.3-4.9-4.3h0c-1.2,0-2.4.3-3.4.9-1.3.8-2.9,1.3-4.5,1.3-4.9,0-8.8-3.9-8.9-8.8,0-4.9,3.9-8.9,8.7-9Z"/>
  <path class="st0" d="M121.6,176.3c-2.4,0-4.3,1.9-4.3,4.3v16.7c0,2.4,1.9,4.3,4.3,4.3h4.4v-25.4h-4.4Z"/>
  <rect class="st0" x="103.8" y="179.7" width="3.9" height="18.7"/>
  <rect class="st0" x="110.4" y="179.7" width="3.9" height="18.7"/>
</svg>