<?xml version="1.0" encoding="UTF-8"?>
<svg id="Layer_1" xmlns="http://www.w3.org/2000/svg" version="1.1" viewBox="0 0 376.1 375.6">
  <!-- Generator: Adobe Illustrator 29.0.1, SVG Export Plug-In . SVG Version: 2.1.0 Build 192)  -->
  <g>
    <path d="M114.5,65.8l-2.3,1.3c-1.1.7-2.1.2-2.6-.7-.5-.9-.4-1.9.7-2.6l8.6-5c1.1-.7,2.1-.2,2.6.7.5.9.5,1.9-.7,2.6l-2.3,1.3,7.6,13.2c.6,1.1.3,2.5-.8,3.2s-2.5.3-3.2-.8l-7.6-13.2Z"/>
    <path d="M136.5,67.2c-.5-1.1-1.5-1.3-2.3-.9-.8.4-1.3,1.2-.8,2.3l1.7,3.8c.6,1.4,0,2.3-1.1,2.8-1,.5-2.2.3-2.8-1.1l-7.4-16.7c-.6-1.3,0-2.3,1.2-2.8,1.1-.5,2.1-.2,2.7,1.1l4.2,9.4c0-1,1.1-1.8,2-2.2,2.8-1.2,5.1-.2,6.5,2.8l1.7,3.8c.5,1.1,0,2.3-1.1,2.8-1.1.5-2.2,0-2.7-1.1l-1.7-3.8Z"/>
    <path d="M146.8,65.1c.4.9,1.6,1,2.9.6.8-.3,1.3-.6,1.8-1.1,1-1,2.5-.4,2.8.6.1.5,0,1-.4,1.5-.8,1-2.7,1.8-3.8,2.1-4.6,1.5-7.1-.7-7.9-3.4-.9-2.8,0-6,4-7.4,3.5-1.1,6.2.3,7.1,3,.3.9,0,1.9-1.4,2.4l-5.1,1.7ZM149.2,61.5c-.1-.4-.8-1-2-.6-1.2.4-1.4,1.3-1.3,1.6l3.3-1.1Z"/>
    <path d="M166.4,56.8c-.1,0-.3,0-.4.1-.2,0-.5,0-.8,0l.9,5.6c.2,1.3-.7,2.4-1.9,2.7-1.2.2-2.4-.6-2.7-1.9l-2.7-16.5c-.2-1.3.7-2.4,2.5-2.9.6-.2,1.2-.3,1.6-.4,5.4-.9,9,1.1,9.7,5.3.5,3.3-.4,5.2-2,6.4l2.6,3.7c.5.9,1.2,1.7,1.3,2.4.2,1.2-.5,2.2-1.6,2.4-1.9.3-2.6-1.3-4.2-3.5l-2.3-3.4ZM164.6,53.1c.2,0,.6,0,.8,0,2.1-.3,2.9-2.1,2.6-3.5-.2-1.5-1.5-2.8-3.6-2.5-.2,0-.6.1-.7.2l.9,5.8Z"/>
    <path d="M177.6,50.9c-1.4.1-2.5-.8-2.6-2.2-.1-1.4.8-2.5,2.2-2.6,1.4-.1,2.5.8,2.6,2.3.1,1.4-.8,2.5-2.3,2.6ZM175.7,54.2c-.1-1.3.6-2.2,1.9-2.3,1.3-.1,2.2.7,2.3,2l.4,4.9c0,.7.2.7.6.8.5,0,1,.3,1.1,1.6,0,1.3-.5,1.8-2,1.9-2.5.2-3.6-1-3.8-3.3l-.4-5.6Z"/>
    <path d="M191,61.7c-.8.8-2,1.2-3.3,1.2-3.5,0-5.3-2.6-5.3-5.8,0-3.1,1.8-5.7,5.6-5.6,1.5,0,2.5.5,3.1,1.1.4-.8,1.1-1.1,1.9-1.1,1,0,2.1.6,2.1,2.1v8.6c0,3.7-3.1,5.6-7.2,5.6-1.8,0-3.8-.3-4.7-.7-.7-.3-1-1-1-1.6,0-1,.8-2,2.1-1.7.9.2,2.2.5,3.5.5,1.4,0,3.2-.5,3.2-2.6h0ZM190.9,57.2c0-1.1-.6-2.1-2.1-2.1-1.4,0-2.1.9-2.1,2.1,0,1.2.7,2.1,2.1,2.1,1.4,0,2.1-1,2.1-2.2Z"/>
    <path d="M205.2,57.8c.1-1.2-.6-1.9-1.5-2-.9-.1-1.7.4-1.8,1.6l-.5,4.1c-.2,1.5-1.2,2-2.3,1.9s-2-.8-1.8-2.4l2.2-18.2c.2-1.4,1.2-1.9,2.4-1.8,1.2.1,1.9.9,1.8,2.3l-1.2,10.2c.6-.8,1.9-1,2.9-.9,3,.4,4.5,2.4,4.1,5.7l-.5,4.1c-.1,1.2-1.1,2-2.4,1.8-1.2-.1-2-1.1-1.8-2.3l.5-4.1Z"/>
    <path d="M216.8,58.5l-.6,2.8c-.2.8,0,1,.4,1.1.2,0,.4,0,.6,0,1,0,1.4,1.2,1.2,2.1-.1.6-.5,1-1,1.2-.8.2-1.5.3-2.9,0-2.4-.5-3.2-1.9-2.6-4.6l.7-3.5h-.1c-1-.2-1.6-.9-1.3-2.1.2-1.1,1.2-1.5,2.1-1.3h.1s.1-.6.1-.6c.3-1.4,1.5-2,2.5-1.7s1.9,1.2,1.6,2.6v.6c-.1,0,.6.2.6.2,1.2.2,1.5,1.2,1.3,2.1-.2,1.1-1,1.6-2.1,1.3h-.7Z"/>
    <path d="M230.5,50.3c.5-1.4,1.5-1.9,2.9-1.4l6.5,2.3c1.1.4,1.5,1.3,1.1,2.4-.4,1-1.3,1.5-2.4,1.1l-4.3-1.5-1.6,4.5,3.2,1.1c1.1.4,1.5,1.3,1.1,2.4-.4,1-1.3,1.5-2.4,1.1l-3.2-1.1-2.2,6.4c-.5,1.4-1.6,1.9-3,1.4-1.4-.5-1.9-1.6-1.4-2.9l5.5-15.8Z"/>
    <path d="M238.6,63.6c.5-1.2,1.6-1.7,2.8-1.2,1.2.5,1.6,1.6,1.1,2.8l-1.9,4.6c-.3.6-.2.7.2,1,.4.3.7.8.2,1.9-.5,1.2-1.3,1.4-2.7.8-2.3-1-2.8-2.5-1.8-4.7l2.2-5.2ZM241.8,61.5c-1.3-.6-1.8-1.9-1.3-3.2.6-1.3,1.9-1.9,3.2-1.3,1.3.6,1.9,1.9,1.3,3.2s-1.9,1.8-3.2,1.3Z"/>
    <path d="M248.9,70.2l-1.3,2.5c-.4.7-.2,1,.1,1.2.2.1.4.1.6.1.9.2,1.1,1.5.6,2.4-.3.5-.7.9-1.3.9-.8,0-1.6,0-2.8-.7-2.2-1.1-2.6-2.6-1.4-5.1l1.6-3.2h-.1c-.9-.5-1.3-1.3-.8-2.4.5-1,1.5-1.2,2.3-.8h.1c0,0,.3-.5.3-.5.7-1.3,1.9-1.5,2.9-1,.9.5,1.5,1.6.9,2.9l-.3.5.7.3c1.1.5,1.2,1.5.8,2.3-.5,1-1.4,1.2-2.4.8l-.6-.3Z"/>
  </g>
  <text/>
</svg>